<?xml version="1.0" encoding="utf-8"?>
<!-- Generator: Adobe Illustrator 27.5.0, SVG Export Plug-In . SVG Version: 6.00 Build 0)  -->
<svg version="1.1" xmlns="http://www.w3.org/2000/svg" xmlns:xlink="http://www.w3.org/1999/xlink" x="0px" y="0px"
	 viewBox="0 0 200 200" style="enable-background:new 0 0 200 200;" xml:space="preserve">
<style type="text/css">
	.st0{fill:#BF0A30;}
	.st1{fill:#FFFFFF;}
	.st2{fill:#002868;}
	.st3{fill:#002A8F;}
	.st4{fill:#CB1515;}
	.st5{fill:#D52B1E;}
	.st6{fill:#BF5600;}
	.st7{fill:#231F20;}
	.st8{fill:#E98A00;}
	.st9{fill:none;}
	.st10{fill:#BF5600;stroke:#231F20;stroke-width:0.1487;stroke-miterlimit:10;}
	.st11{font-family:'MyriadPro-Regular';}
	.st12{font-size:15.8049px;}
	.st13{fill:#BCBEC0;}
	.st14{fill:#D1D3D4;}
	.st15{fill:#BCBEC0;stroke:#231F20;stroke-width:0.1487;stroke-miterlimit:10;}
	.st16{fill:#FBB040;}
	.st17{fill:#FFD90A;}
	.st18{fill:#FBB040;stroke:#231F20;stroke-width:0.1487;stroke-miterlimit:10;}
	.st19{letter-spacing:-1;}
	.st20{font-size:17.0967px;}
</style>
<g id="Bronce">
</g>
<g id="Plata">
	<g transform="translate(-50,-80)">
		<g>
			<g>
				<path class="st0" d="M67.9,152.8v-41h77.9v41H67.9z"/>
				<g>
					<path class="st1" d="M67.9,150v-2.7h77.9v2.7H67.9z"/>
					<path class="st1" d="M67.9,144.6v-2.7h77.9v2.7H67.9z"/>
					<path class="st1" d="M67.9,139.1v-2.7h77.9v2.7H67.9z"/>
					<path class="st1" d="M67.9,133.6v-2.7h77.9v2.7H67.9z"/>
					<path class="st1" d="M67.9,128.2v-2.7h77.9v2.7H67.9z"/>
					<path class="st1" d="M67.9,122.7V120h77.9v2.7H67.9z"/>
					<path class="st1" d="M67.9,117.2v-2.7h77.9v2.7H67.9z"/>
				</g>
			</g>
			<path class="st2" d="M67.9,133.6v-21.9h31.2v21.9H67.9z"/>
			<g>
				<g>
					<path class="st1" d="M85.8,117.9l0.3,0.9H87l-0.8,0.6l0.3,0.9l-0.8-0.6l-0.8,0.6l0.3-0.9l-0.8-0.6h0.9L85.8,117.9z"/>
					<path class="st1" d="M85.8,124.7l0.3,0.9H87l-0.8,0.6l0.3,0.9l-0.8-0.6L85,127l0.3-0.9l-0.8-0.6h0.9L85.8,124.7z"/>
				</g>
				<g>
					<path class="st1" d="M95.1,118.1l0.3,0.9h0.9l-0.8,0.6l0.3,0.9l-0.8-0.6l-0.8,0.6l0.3-0.9l-0.8-0.6h0.9L95.1,118.1z"/>
					<path class="st1" d="M95.1,124.9l0.3,0.9h0.9l-0.8,0.6l0.3,0.9l-0.8-0.6l-0.8,0.6l0.3-0.9l-0.8-0.6h0.9L95.1,124.9z"/>
					<path class="st1" d="M95.1,118.1l0.3,0.9h0.9l-0.8,0.6l0.3,0.9l-0.8-0.6l-0.8,0.6l0.3-0.9l-0.8-0.6h0.9L95.1,118.1z"/>
					<path class="st1" d="M95.1,124.9l0.3,0.9h0.9l-0.8,0.6l0.3,0.9l-0.8-0.6l-0.8,0.6l0.3-0.9l-0.8-0.6h0.9L95.1,124.9z"/>
				</g>
				<g>
					<path class="st1" d="M76.5,117.9l0.3,0.9h0.9l-0.8,0.6l0.3,0.9l-0.8-0.6l-0.8,0.6l0.3-0.9l-0.8-0.6h0.9L76.5,117.9z"/>
					<path class="st1" d="M76.5,124.7l0.3,0.9h0.9l-0.8,0.6l0.3,0.9l-0.8-0.6l-0.8,0.6l0.3-0.9l-0.8-0.6h0.9L76.5,124.7z"/>
				</g>
				<g>
					<path class="st1" d="M90.4,114.5l0.3,0.9h0.9l-0.8,0.6l0.3,0.9l-0.8-0.6l-0.8,0.6L90,116l-0.8-0.6h0.9L90.4,114.5z"/>
					<path class="st1" d="M90.4,121.3l0.3,0.9h0.9l-0.8,0.6l0.3,0.9l-0.8-0.6l-0.8,0.6l0.3-0.9l-0.8-0.6h0.9L90.4,121.3z"/>
					<path class="st1" d="M90.4,128.1l0.3,0.9h0.9l-0.8,0.6l0.3,0.9l-0.8-0.6l-0.8,0.6l0.3-0.9l-0.8-0.6h0.9L90.4,128.1z"/>
				</g>
				<g>
					<path class="st1" d="M81.2,114.5l0.3,0.9h0.9l-0.8,0.6l0.3,0.9l-0.8-0.6l-0.8,0.6l0.3-0.9l-0.8-0.6h0.9L81.2,114.5z"/>
					<path class="st1" d="M81.2,121.3l0.3,0.9h0.9l-0.8,0.6l0.3,0.9l-0.8-0.6l-0.8,0.6l0.3-0.9l-0.8-0.6h0.9L81.2,121.3z"/>
					<path class="st1" d="M81.2,128.1l0.3,0.9h0.9l-0.8,0.6l0.3,0.9l-0.8-0.6l-0.8,0.6l0.3-0.9l-0.8-0.6h0.9L81.2,128.1z"/>
				</g>
				<g>
					<path class="st1" d="M71.9,114.5l0.3,0.9h0.9l-0.8,0.6l0.3,0.9l-0.8-0.6l-0.8,0.6l0.3-0.9l-0.8-0.6h0.9L71.9,114.5z"/>
					<path class="st1" d="M71.9,121.3l0.3,0.9h0.9l-0.8,0.6l0.3,0.9l-0.8-0.6l-0.8,0.6l0.3-0.9l-0.8-0.6h0.9L71.9,121.3z"/>
					<path class="st1" d="M71.9,128.1l0.3,0.9h0.9l-0.8,0.6l0.3,0.9l-0.8-0.6l-0.8,0.6l0.3-0.9l-0.8-0.6h0.9L71.9,128.1z"/>
				</g>
			</g>
		</g>
	</g>
	<g>
		<path class="st3" d="M17.9,129.9h77.9v39H17.9V129.9z"/>
		<path class="st1" d="M25.7,137.7h70.2v7.8H41.3v7.8h54.6v7.8H25.7V137.7z"/>
		<path class="st4" d="M51.7,149.4l-33.8,19.5v-39L51.7,149.4z"/>
		<path class="st1" d="M29.2,142.9l-3.8,11.8l10-7.3H23l10,7.3L29.2,142.9z"/>
	</g>
	<g>
		<path class="st5" d="M17.9,81.7h19.5l0.8,0.8h37.4l0.8-0.8h19.5v39H76.4l-0.8-0.8H38.2l-0.8,0.8H17.9V81.7z"/>
		<path class="st1" d="M37.4,81.7h39v39h-39V81.7z M57.6,117.6l-0.4-7c0-0.4,0.3-0.8,0.7-0.8c0.1,0,0.1,0,0.2,0l7,1.2l-0.9-2.6
			c-0.1-0.2,0-0.5,0.2-0.6l7.6-6.2l-1.7-0.8c-0.2-0.1-0.4-0.4-0.3-0.6l1.5-4.6l-4.4,0.9c-0.2,0.1-0.5-0.1-0.6-0.3l-0.9-2l-3.4,3.7
			c-0.2,0.2-0.5,0.2-0.7,0c-0.1-0.1-0.2-0.3-0.2-0.5l1.7-8.5l-2.7,1.5c-0.3,0.1-0.6,0.1-0.7-0.2c0,0,0,0,0,0l-2.7-5.3l-2.7,5.3
			c-0.1,0.3-0.4,0.4-0.7,0.2c0,0,0,0,0,0l-2.7-1.5l1.7,8.5c0.1,0.3-0.1,0.6-0.4,0.6c-0.2,0-0.4,0-0.5-0.2l-3.4-3.7l-0.9,2
			c-0.1,0.2-0.3,0.4-0.6,0.3l-4.4-0.9l1.5,4.6c0.1,0.3,0,0.5-0.3,0.6l-1.7,0.8l7.6,6.2c0.2,0.1,0.2,0.4,0.2,0.6l-0.9,2.6l7-1.2
			c0.4-0.1,0.8,0.2,0.9,0.6c0,0.1,0,0.1,0,0.2l-0.4,7H57.6z"/>
	</g>
	<g>
		<g>
			<path class="st6" d="M169.7,64.1c-6.5,0-11.8-5.3-11.8-11.8s5.3-11.8,11.8-11.8c6.5,0,11.8,5.3,11.8,11.8S176.2,64.1,169.7,64.1z
				"/>
			<path class="st7" d="M169.7,40.6c6.5,0,11.7,5.3,11.7,11.7S176.2,64,169.7,64c-6.5,0-11.7-5.3-11.7-11.7S163.3,40.6,169.7,40.6
				 M169.7,40.4c-6.6,0-11.9,5.3-11.9,11.9s5.3,11.9,11.9,11.9s11.9-5.3,11.9-11.9S176.3,40.4,169.7,40.4L169.7,40.4z"/>
		</g>
		<g>
			<circle class="st8" cx="169.7" cy="52.3" r="10.3"/>
			<path class="st7" d="M169.7,42.1c5.6,0,10.2,4.6,10.2,10.2s-4.6,10.2-10.2,10.2s-10.2-4.6-10.2-10.2S164.1,42.1,169.7,42.1
				 M169.7,41.9c-5.7,0-10.4,4.6-10.4,10.4s4.6,10.4,10.4,10.4s10.4-4.6,10.4-10.4S175.5,41.9,169.7,41.9L169.7,41.9z"/>
		</g>
		<rect x="160.8" y="42.4" class="st9" width="17.8" height="19.1"/>
		<text transform="matrix(1 0 0 1 161.6343 57.562)" class="st10 st11 st12">35</text>
		<g>
			<path class="st13" d="M141.2,64c-6.5,0-11.8-5.3-11.8-11.8c0-6.5,5.3-11.8,11.8-11.8s11.8,5.3,11.8,11.8
				C152.9,58.7,147.7,64,141.2,64z"/>
			<path class="st7" d="M141.2,40.5c6.5,0,11.7,5.3,11.7,11.7c0,6.5-5.3,11.7-11.7,11.7c-6.5,0-11.7-5.3-11.7-11.7
				C129.4,45.8,134.7,40.5,141.2,40.5 M141.2,40.4c-6.6,0-11.9,5.3-11.9,11.9s5.3,11.9,11.9,11.9c6.6,0,11.9-5.3,11.9-11.9
				S147.7,40.4,141.2,40.4L141.2,40.4z"/>
		</g>
		<g>
			<circle class="st14" cx="141.2" cy="52.2" r="10.3"/>
			<path class="st7" d="M141.2,42c5.6,0,10.2,4.6,10.2,10.2s-4.6,10.2-10.2,10.2s-10.2-4.6-10.2-10.2S135.5,42,141.2,42 M141.2,41.9
				c-5.7,0-10.4,4.6-10.4,10.4s4.6,10.4,10.4,10.4s10.4-4.6,10.4-10.4S146.9,41.9,141.2,41.9L141.2,41.9z"/>
		</g>
		<rect x="132.3" y="41.9" class="st9" width="17.8" height="19.1"/>
		<text transform="matrix(1 0 0 1 133.0586 57.0029)" class="st15 st11 st12">47</text>
		<g>
			<circle class="st16" cx="112.6" cy="52.3" r="11.8"/>
			<path class="st7" d="M112.6,40.6c6.5,0,11.7,5.3,11.7,11.7c0,6.5-5.3,11.7-11.7,11.7s-11.7-5.3-11.7-11.7
				C100.9,45.8,106.1,40.6,112.6,40.6 M112.6,40.4c-6.6,0-11.9,5.3-11.9,11.9s5.3,11.9,11.9,11.9s11.9-5.3,11.9-11.9
				S119.1,40.4,112.6,40.4L112.6,40.4z"/>
		</g>
		<g>
			<circle class="st17" cx="112.6" cy="52.3" r="10.3"/>
			<path class="st7" d="M112.6,42.1c5.6,0,10.2,4.6,10.2,10.2s-4.6,10.2-10.2,10.2s-10.2-4.6-10.2-10.2S106.9,42.1,112.6,42.1
				 M112.6,41.9c-5.7,0-10.4,4.6-10.4,10.4s4.6,10.4,10.4,10.4s10.4-4.6,10.4-10.4S118.3,41.9,112.6,41.9L112.6,41.9z"/>
		</g>
		<rect x="103.7" y="42.8" class="st9" width="17.8" height="19.1"/>
		<text transform="matrix(1 0 0 1 104.4683 57.9053)" class="st18 st11 st12">63</text>
	</g>
	<g>
		<g>
			<circle class="st6" cx="169.3" cy="101.4" r="11.8"/>
			<path class="st7" d="M169.3,89.6c6.5,0,11.7,5.3,11.7,11.7c0,6.5-5.3,11.7-11.7,11.7c-6.5,0-11.7-5.3-11.7-11.7
				C157.5,94.9,162.8,89.6,169.3,89.6 M169.3,89.5c-6.6,0-11.9,5.3-11.9,11.9c0,6.6,5.3,11.9,11.9,11.9c6.6,0,11.9-5.3,11.9-11.9
				C181.1,94.8,175.8,89.5,169.3,89.5L169.3,89.5z"/>
		</g>
		<g>
			<circle class="st8" cx="169.3" cy="101.4" r="10.3"/>
			<path class="st7" d="M169.3,91.1c5.6,0,10.2,4.6,10.2,10.2s-4.6,10.2-10.2,10.2S159,107,159,101.4S163.6,91.1,169.3,91.1
				 M169.3,91c-5.7,0-10.4,4.6-10.4,10.4s4.6,10.4,10.4,10.4s10.4-4.6,10.4-10.4S175,91,169.3,91L169.3,91z"/>
		</g>
		<rect x="160" y="91.8" class="st9" width="17.8" height="19.1"/>
		<text transform="matrix(1 0 0 1 161.4551 106.9756)" class="st10 st11 st12 st19">17</text>
		<g>
			<path class="st13" d="M140.7,113.2c-6.5,0-11.8-5.3-11.8-11.8s5.3-11.8,11.8-11.8c6.5,0,11.8,5.3,11.8,11.8
				S147.2,113.2,140.7,113.2z"/>
			<path class="st7" d="M140.7,89.6c6.5,0,11.7,5.3,11.7,11.7c0,6.5-5.3,11.7-11.7,11.7c-6.5,0-11.7-5.3-11.7-11.7
				C129,94.9,134.2,89.6,140.7,89.6 M140.7,89.5c-6.6,0-11.9,5.3-11.9,11.9c0,6.6,5.3,11.9,11.9,11.9s11.9-5.3,11.9-11.9
				C152.6,94.8,147.2,89.5,140.7,89.5L140.7,89.5z"/>
		</g>
		<g>
			<circle class="st14" cx="140.7" cy="101.4" r="10.3"/>
			<path class="st7" d="M140.7,91.1c5.6,0,10.2,4.6,10.2,10.2s-4.6,10.2-10.2,10.2s-10.2-4.6-10.2-10.2S135,91.1,140.7,91.1
				 M140.7,91c-5.7,0-10.4,4.6-10.4,10.4s4.6,10.4,10.4,10.4s10.4-4.6,10.4-10.4S146.4,91,140.7,91L140.7,91z"/>
		</g>
		<rect x="131.5" y="91.8" class="st9" width="17.8" height="19.1"/>
		<text transform="matrix(1 0 0 1 132.8799 106.9756)" class="st15 st11 st12 st19">17</text>
		<g>
			<circle class="st16" cx="112.1" cy="101.4" r="11.8"/>
			<path class="st7" d="M112.1,89.6c6.5,0,11.7,5.3,11.7,11.7c0,6.5-5.3,11.7-11.7,11.7c-6.5,0-11.7-5.3-11.7-11.7
				C100.4,94.9,105.6,89.6,112.1,89.6 M112.1,89.5c-6.6,0-11.9,5.3-11.9,11.9c0,6.6,5.3,11.9,11.9,11.9s11.9-5.3,11.9-11.9
				C124,94.8,118.7,89.5,112.1,89.5L112.1,89.5z"/>
		</g>
		<g>
			<circle class="st17" cx="112.1" cy="101.4" r="10.3"/>
			<path class="st7" d="M112.1,91.1c5.6,0,10.2,4.6,10.2,10.2s-4.6,10.2-10.2,10.2s-10.2-4.6-10.2-10.2S106.5,91.1,112.1,91.1
				 M112.1,91c-5.7,0-10.4,4.6-10.4,10.4s4.6,10.4,10.4,10.4s10.4-4.6,10.4-10.4S117.8,91,112.1,91L112.1,91z"/>
		</g>
		<rect x="102.6" y="91.8" class="st9" width="17.8" height="19.1"/>
		<text transform="matrix(1 0 0 1 103.9941 106.9756)" class="st18 st11 st12 st19">16</text>
	</g>
	<g>
		<g>
			<circle class="st6" cx="169.7" cy="148.8" r="11.8"/>
			<path class="st7" d="M169.7,137.1c6.5,0,11.7,5.3,11.7,11.7s-5.3,11.7-11.7,11.7c-6.5,0-11.7-5.3-11.7-11.7
				S163.3,137.1,169.7,137.1 M169.7,136.9c-6.6,0-11.9,5.3-11.9,11.9s5.3,11.9,11.9,11.9c6.6,0,11.9-5.3,11.9-11.9
				S176.3,136.9,169.7,136.9L169.7,136.9z"/>
		</g>
		<g>
			<circle class="st8" cx="169.7" cy="148.8" r="10.3"/>
			<path class="st7" d="M169.7,138.6c5.6,0,10.2,4.6,10.2,10.2s-4.6,10.2-10.2,10.2s-10.2-4.6-10.2-10.2S164.1,138.6,169.7,138.6
				 M169.7,138.4c-5.7,0-10.4,4.6-10.4,10.4s4.6,10.4,10.4,10.4s10.4-4.6,10.4-10.4S175.5,138.4,169.7,138.4L169.7,138.4z"/>
		</g>
		<rect x="160.2" y="138.9" class="st9" width="17.8" height="19.1"/>
		<text transform="matrix(1 0 0 1 161.0166 154.5102)" class="st10 st11 st20 st19">18</text>
		<g>
			<circle class="st13" cx="141.2" cy="148.7" r="11.8"/>
			<path class="st7" d="M141.2,137c6.5,0,11.7,5.3,11.7,11.7c0,6.5-5.3,11.7-11.7,11.7c-6.5,0-11.7-5.3-11.7-11.7
				C129.4,142.3,134.7,137,141.2,137 M141.2,136.8c-6.6,0-11.9,5.3-11.9,11.9s5.3,11.9,11.9,11.9c6.6,0,11.9-5.3,11.9-11.9
				S147.7,136.8,141.2,136.8L141.2,136.8z"/>
		</g>
		<g>
			<circle class="st14" cx="141.2" cy="148.7" r="10.3"/>
			<path class="st7" d="M141.2,138.5c5.6,0,10.2,4.6,10.2,10.2s-4.6,10.2-10.2,10.2s-10.2-4.6-10.2-10.2S135.5,138.5,141.2,138.5
				 M141.2,138.3c-5.7,0-10.4,4.6-10.4,10.4s4.6,10.4,10.4,10.4s10.4-4.6,10.4-10.4S146.9,138.3,141.2,138.3L141.2,138.3z"/>
		</g>
		<rect x="131.8" y="138.9" class="st9" width="17.8" height="19.1"/>
		<text transform="matrix(1 0 0 1 132.6284 154.5102)" class="st15 st11 st20 st19">16</text>
		<g>
			<circle class="st16" cx="112.6" cy="148.8" r="11.8"/>
			<path class="st7" d="M112.6,137.1c6.5,0,11.7,5.3,11.7,11.7c0,6.5-5.3,11.7-11.7,11.7s-11.7-5.3-11.7-11.7
				C100.9,142.3,106.1,137.1,112.6,137.1 M112.6,136.9c-6.6,0-11.9,5.3-11.9,11.9c0,6.6,5.3,11.9,11.9,11.9s11.9-5.3,11.9-11.9
				C124.5,142.2,119.1,136.9,112.6,136.9L112.6,136.9z"/>
		</g>
		<g>
			<circle class="st17" cx="112.6" cy="148.8" r="10.3"/>
			<path class="st7" d="M112.6,138.6c5.6,0,10.2,4.6,10.2,10.2c0,5.6-4.6,10.2-10.2,10.2s-10.2-4.6-10.2-10.2
				C102.4,143.1,107,138.6,112.6,138.6 M112.6,138.4c-5.7,0-10.4,4.6-10.4,10.4c0,5.7,4.6,10.4,10.4,10.4s10.4-4.6,10.4-10.4
				C123,143.1,118.3,138.4,112.6,138.4L112.6,138.4z"/>
		</g>
		<rect x="103.7" y="139.2" class="st9" width="17.8" height="19.1"/>
		<text transform="matrix(1 0 0 1 108.206 154.854)" class="st18 st11 st20">8</text>
	</g>
</g>
<g id="Oro">
</g>
</svg>
