<svg xmlns="http://www.w3.org/2000/svg" width="800" height="400"><rect width="800" height="400" x="0" y="0" fill="#FFFFFF" id="backgorund"/><g id="viz"><g transform="translate(0,0)"><g transform="translate(50,20)"><g id="Oro" fill="#ff7f0e"><rect x="9.846153846153811" y="218.24999999999997" width="53.16923076923077" height="141.75000000000003"/><rect x="72.86153846153843" y="324" width="53.16923076923077" height="36"/><rect x="135.87692307692305" y="342" width="53.16923076923077" height="18"/><rect x="198.89230769230767" y="353.25" width="53.16923076923077" height="6.75"/><rect x="261.9076923076923" y="357.75" width="53.16923076923077" height="2.25"/><rect x="324.9230769230769" y="357.75" width="53.16923076923077" height="2.25"/><rect x="387.9384615384615" y="360" width="53.16923076923077" height="0"/><rect x="450.95384615384614" y="360" width="53.16923076923077" height="0"/><rect x="513.9692307692308" y="360" width="53.16923076923077" height="0"/><rect x="576.9846153846154" y="360" width="53.16923076923077" height="0"/></g><g id="Plata" fill="#2ca02c"><rect x="9.846153846153811" y="112.5" width="53.16923076923077" height="105.74999999999997"/><rect x="72.86153846153843" y="285.75" width="53.16923076923077" height="38.25"/><rect x="135.87692307692305" y="306" width="53.16923076923077" height="36"/><rect x="198.89230769230767" y="344.25" width="53.16923076923077" height="9"/><rect x="261.9076923076923" y="353.25" width="53.16923076923077" height="4.5"/><rect x="324.9230769230769" y="355.5" width="53.16923076923077" height="2.25"/><rect x="387.9384615384615" y="357.75" width="53.16923076923077" height="2.25"/><rect x="450.95384615384614" y="357.75" width="53.16923076923077" height="2.25"/><rect x="513.9692307692308" y="357.75" width="53.16923076923077" height="2.25"/><rect x="576.9846153846154" y="360" width="53.16923076923077" height="0"/></g><g id="Bronce" fill="#1f77b4"><rect x="9.846153846153811" y="33.75" width="53.16923076923077" height="78.75"/><rect x="72.86153846153843" y="247.5" width="53.16923076923077" height="38.25"/><rect x="135.87692307692305" y="265.5" width="53.16923076923077" height="40.5"/><rect x="198.89230769230767" y="310.5" width="53.16923076923077" height="33.75"/><rect x="261.9076923076923" y="342" width="53.16923076923077" height="11.25"/><rect x="324.9230769230769" y="351" width="53.16923076923077" height="4.5"/><rect x="387.9384615384615" y="351" width="53.16923076923077" height="6.75"/><rect x="450.95384615384614" y="355.5" width="53.16923076923077" height="2.25"/><rect x="513.9692307692308" y="357.75" width="53.16923076923077" height="0"/><rect x="576.9846153846154" y="357.75" width="53.16923076923077" height="2.25"/></g><g id="xAxis" transform="translate(0,360)" fill="none" font-size="10" font-family="sans-serif" text-anchor="middle"><path class="domain" stroke="currentColor" d="M0,0H640"/><g class="tick" opacity="1" transform="translate(36.4307692307692,0)"><line stroke="currentColor" y2="6"/><text fill="currentColor" y="9" dy="0.71em">Estados Unidos</text></g><g class="tick" opacity="1" transform="translate(99.44615384615382,0)"><line stroke="currentColor" y2="6"/><text fill="currentColor" y="9" dy="0.71em">Canadá</text></g><g class="tick" opacity="1" transform="translate(162.46153846153842,0)"><line stroke="currentColor" y2="6"/><text fill="currentColor" y="9" dy="0.71em">Cuba</text></g><g class="tick" opacity="1" transform="translate(225.47692307692304,0)"><line stroke="currentColor" y2="6"/><text fill="currentColor" y="9" dy="0.71em">Brasil</text></g><g class="tick" opacity="1" transform="translate(288.4923076923077,0)"><line stroke="currentColor" y2="6"/><text fill="currentColor" y="9" dy="0.71em">México</text></g><g class="tick" opacity="1" transform="translate(351.5076923076923,0)"><line stroke="currentColor" y2="6"/><text fill="currentColor" y="9" dy="0.71em">Guatemala</text></g><g class="tick" opacity="1" transform="translate(414.5230769230769,0)"><line stroke="currentColor" y2="6"/><text fill="currentColor" y="9" dy="0.71em">Argentina</text></g><g class="tick" opacity="1" transform="translate(477.53846153846155,0)"><line stroke="currentColor" y2="6"/><text fill="currentColor" y="9" dy="0.71em">Venezuela</text></g><g class="tick" opacity="1" transform="translate(540.5538461538462,0)"><line stroke="currentColor" y2="6"/><text fill="currentColor" y="9" dy="0.71em">República Dominicana</text></g><g class="tick" opacity="1" transform="translate(603.5692307692308,0)"><line stroke="currentColor" y2="6"/><text fill="currentColor" y="9" dy="0.71em">Colombia</text></g></g><g id="yAxis" fill="none" font-size="10" font-family="sans-serif" text-anchor="end"><path class="domain" stroke="currentColor" d="M0,360V0"/><g class="tick" opacity="1" transform="translate(0,360)"><line stroke="currentColor" x2="-6"/><text fill="currentColor" x="-9" dy="0.32em">0</text></g><g class="tick" opacity="1" transform="translate(0,315)"><line stroke="currentColor" x2="-6"/><text fill="currentColor" x="-9" dy="0.32em">20</text></g><g class="tick" opacity="1" transform="translate(0,270)"><line stroke="currentColor" x2="-6"/><text fill="currentColor" x="-9" dy="0.32em">40</text></g><g class="tick" opacity="1" transform="translate(0,225)"><line stroke="currentColor" x2="-6"/><text fill="currentColor" x="-9" dy="0.32em">60</text></g><g class="tick" opacity="1" transform="translate(0,180)"><line stroke="currentColor" x2="-6"/><text fill="currentColor" x="-9" dy="0.32em">80</text></g><g class="tick" opacity="1" transform="translate(0,135)"><line stroke="currentColor" x2="-6"/><text fill="currentColor" x="-9" dy="0.32em">100</text></g><g class="tick" opacity="1" transform="translate(0,90)"><line stroke="currentColor" x2="-6"/><text fill="currentColor" x="-9" dy="0.32em">120</text></g><g class="tick" opacity="1" transform="translate(0,45)"><line stroke="currentColor" x2="-6"/><text fill="currentColor" x="-9" dy="0.32em">140</text></g><g class="tick" opacity="1" transform="translate(0,0)"><line stroke="currentColor" x2="-6"/><text fill="currentColor" x="-9" dy="0.32em">160</text></g></g><text y="356" x="640" text-anchor="end" style="font-family: Arial, sans-serif; font-size: 12px; fill: rgb(123, 123, 123); font-weight: bold;">País</text></g><text x="4" y="4" style="font-family: Arial, sans-serif; font-size: 12px; fill: black; font-weight: bold; dominant-baseline: hanging;"/></g><g id="grid"><rect x="0" y="0" width="700" height="400" fill="none" stroke="#ccc"/></g></g><g id="legend" transform="translate(700,20)"><g transform="translate(5,0)"><g class="legendColor" transform="translate(0,0)"><g class="legendCells" transform="translate(0,15.5)"><g class="cell" transform="translate(0, 0)"><rect class="swatch" height="15" width="15" style="fill: rgb(31, 119, 180);"/><text class="label" transform="translate( 20, 12.5)" font-family="&quot;Arial&quot;, sans-serif" font-size="10px"><tspan x="0" dy="0em">Bronce</tspan></text></g><g class="cell" transform="translate(0, 20.5)"><rect class="swatch" height="15" width="15" style="fill: rgb(255, 127, 14);"/><text class="label" transform="translate( 20, 12.5)" font-family="&quot;Arial&quot;, sans-serif" font-size="10px"><tspan x="0" dy="0em">Oro</tspan></text></g><g class="cell" transform="translate(0, 41)"><rect class="swatch" height="15" width="15" style="fill: rgb(44, 160, 44);"/><text class="label" transform="translate( 20, 12.5)" font-family="&quot;Arial&quot;, sans-serif" font-size="10px"><tspan x="0" dy="0em">Plata</tspan></text></g></g><text class="legendTitle" font-family="&quot;Arial&quot;, sans-serif" font-size="12px" font-weight="bold"><tspan x="0" dy="0em">Colors</tspan></text></g></g></g></svg>