<?xml version="1.0" encoding="utf-8"?>
<!-- Generator: Adobe Illustrator 27.5.0, SVG Export Plug-In . SVG Version: 6.00 Build 0)  -->
<svg version="1.1" xmlns="http://www.w3.org/2000/svg" xmlns:xlink="http://www.w3.org/1999/xlink" x="0px" y="0px"
	 viewBox="0 0 200 333.1" style="enable-background:new 0 0 200 333.1;" xml:space="preserve">
<style type="text/css">
	.st0{fill:#BF0A30;}
	.st1{fill:#FFFFFF;}
	.st2{fill:#002868;}
	.st3{fill:#002A8F;}
	.st4{fill:#CB1515;}
	.st5{fill:#D52B1E;}
	.st6{fill:#BF5600;}
	.st7{fill:#231F20;}
	.st8{fill:#E98A00;}
	.st9{fill:none;}
	.st10{fill:#BF5600;stroke:#231F20;stroke-width:0.2051;stroke-miterlimit:10;}
	.st11{font-family:'MyriadPro-Regular';}
	.st12{font-size:21.8004px;}
	.st13{fill:#BCBEC0;}
	.st14{fill:#D1D3D4;}
	.st15{fill:#BCBEC0;stroke:#231F20;stroke-width:0.2051;stroke-miterlimit:10;}
	.st16{fill:#FBB040;}
	.st17{fill:#FFD90A;}
	.st18{fill:#FBB040;stroke:#231F20;stroke-width:0.2051;stroke-miterlimit:10;}
	.st19{letter-spacing:-1;}
	.st20{font-size:23.5823px;}
</style>
<g id="Bronce">
</g>
<g id="Plata">
	<g>
		<g transform="translate(-50,-80)">
			<g>
				<g>
					<path class="st0" d="M96.5,152.1V95.5h107.5v56.6H96.5z"/>
					<g>
						<path class="st1" d="M96.5,148.4v-3.8h107.5v3.8H96.5z"/>
						<path class="st1" d="M96.5,140.8V137h107.5v3.8H96.5z"/>
						<path class="st1" d="M96.5,133.3v-3.8h107.5v3.8H96.5z"/>
						<path class="st1" d="M96.5,125.7v-3.8h107.5v3.8H96.5z"/>
						<path class="st1" d="M96.5,118.2v-3.8h107.5v3.8H96.5z"/>
						<path class="st1" d="M96.5,110.6v-3.8h107.5v3.8H96.5z"/>
						<path class="st1" d="M96.5,103.1v-3.8h107.5v3.8L96.5,103.1z"/>
					</g>
				</g>
				<path class="st2" d="M96.5,125.7V95.5h43v30.2H96.5z"/>
				<g>
					<g>
						<path class="st1" d="M121.2,104.1l0.4,1.2h1.3l-1,0.8l0.4,1.2l-1-0.8l-1,0.8l0.4-1.2l-1-0.8h1.3L121.2,104.1z"/>
						<path class="st1" d="M121.2,113.4l0.4,1.2h1.3l-1,0.8l0.4,1.2l-1-0.8l-1,0.8l0.4-1.2l-1-0.8h1.3L121.2,113.4z"/>
					</g>
					<g>
						<path class="st1" d="M134,104.4l0.4,1.2h1.3l-1,0.8l0.4,1.2l-1-0.8l-1,0.8l0.4-1.2l-1-0.8h1.3L134,104.4z"/>
						<path class="st1" d="M134,113.7l0.4,1.2h1.3l-1,0.8l0.4,1.2l-1-0.8l-1,0.8l0.4-1.2l-1-0.8h1.3L134,113.7z"/>
						<path class="st1" d="M134,104.4l0.4,1.2h1.3l-1,0.8l0.4,1.2l-1-0.8l-1,0.8l0.4-1.2l-1-0.8h1.3L134,104.4z"/>
						<path class="st1" d="M134,113.7l0.4,1.2h1.3l-1,0.8l0.4,1.2l-1-0.8l-1,0.8l0.4-1.2l-1-0.8h1.3L134,113.7z"/>
					</g>
					<g>
						<path class="st1" d="M108.5,104.1l0.4,1.2h1.3l-1,0.8l0.4,1.2l-1-0.8l-1,0.8l0.4-1.2l-1-0.8h1.3L108.5,104.1z"/>
						<path class="st1" d="M108.5,113.4l0.4,1.2h1.3l-1,0.8l0.4,1.2l-1-0.8l-1,0.8l0.4-1.2l-1-0.8h1.3L108.5,113.4z"/>
					</g>
					<g>
						<path class="st1" d="M127.6,99.4l0.4,1.2h1.3l-1,0.8l0.4,1.2l-1-0.8l-1,0.8l0.4-1.2l-1-0.8h1.3L127.6,99.4z"/>
						<path class="st1" d="M127.6,108.7l0.4,1.2h1.3l-1,0.8l0.4,1.2l-1-0.8l-1,0.8l0.4-1.2l-1-0.8h1.3L127.6,108.7z"/>
						<path class="st1" d="M127.6,118.1l0.4,1.2h1.3l-1,0.8l0.4,1.2l-1-0.8l-1,0.8l0.4-1.2l-1-0.8h1.3L127.6,118.1z"/>
					</g>
					<g>
						<path class="st1" d="M114.8,99.4l0.4,1.2h1.3l-1,0.8l0.4,1.2l-1-0.8l-1,0.8l0.4-1.2l-1-0.8h1.3L114.8,99.4z"/>
						<path class="st1" d="M114.8,108.7l0.4,1.2h1.3l-1,0.8l0.4,1.2l-1-0.8l-1,0.8l0.4-1.2l-1-0.8h1.3L114.8,108.7z"/>
						<path class="st1" d="M114.8,118.1l0.4,1.2h1.3l-1,0.8l0.4,1.2l-1-0.8l-1,0.8l0.4-1.2l-1-0.8h1.3L114.8,118.1z"/>
					</g>
					<g>
						<path class="st1" d="M102.1,99.4l0.4,1.2h1.3l-1,0.8l0.4,1.2l-1-0.8l-1,0.8l0.4-1.2l-1-0.8h1.3L102.1,99.4z"/>
						<path class="st1" d="M102.1,108.7l0.4,1.2h1.3l-1,0.8l0.4,1.2l-1-0.8l-1,0.8l0.4-1.2l-1-0.8h1.3L102.1,108.7z"/>
						<path class="st1" d="M102.1,118.1l0.4,1.2h1.3l-1,0.8l0.4,1.2l-1-0.8l-1,0.8l0.4-1.2l-1-0.8h1.3L102.1,118.1z"/>
					</g>
				</g>
			</g>
		</g>
		<g>
			<path class="st3" d="M45.9,228.2h107.5V282H45.9V228.2z"/>
			<path class="st1" d="M56.7,239h96.8v10.8H78.2v10.8h75.3v10.8H56.7V239z"/>
			<path class="st4" d="M92.5,255.1L45.9,282v-53.8L92.5,255.1z"/>
			<path class="st1" d="M61.4,246.1l-5.3,16.2l13.8-10h-17l13.8,10L61.4,246.1z"/>
		</g>
		<g>
			<path class="st5" d="M46.1,123.3H73l1.1,1.1h51.5l1.1-1.1h26.9v53.8h-26.9l-1.1-1.1H74.1l-1.1,1.1H46.1V123.3z"/>
			<path class="st1" d="M73,123.3h53.8v53.8H73V123.3z M100.8,172.9l-0.5-9.7c0-0.6,0.4-1.1,1-1.1c0.1,0,0.2,0,0.2,0l9.6,1.7
				l-1.3-3.6c-0.1-0.3,0-0.6,0.2-0.8l10.5-8.5l-2.4-1.1c-0.3-0.2-0.5-0.5-0.4-0.9l2.1-6.4l-6.1,1.3c-0.3,0.1-0.7-0.1-0.8-0.4
				l-1.2-2.8l-4.7,5.1c-0.3,0.3-0.7,0.3-1,0c-0.2-0.2-0.3-0.4-0.2-0.7l2.3-11.8l-3.7,2.1c-0.3,0.2-0.8,0.1-1-0.3c0,0,0,0,0,0
				l-3.7-7.3l-3.7,7.3c-0.2,0.4-0.6,0.5-1,0.3c0,0,0,0,0,0l-3.7-2.1l2.3,11.8c0.1,0.4-0.2,0.8-0.6,0.9c-0.2,0-0.5,0-0.7-0.2
				l-4.7-5.1l-1.2,2.8c-0.1,0.3-0.5,0.5-0.8,0.4l-6.1-1.3l2.1,6.4c0.1,0.3,0,0.7-0.4,0.9l-2.4,1.1l10.5,8.5c0.2,0.2,0.3,0.5,0.2,0.8
				l-1.3,3.6l9.6-1.7c0.6-0.1,1.1,0.3,1.2,0.9c0,0.1,0,0.2,0,0.2l-0.5,9.7H100.8z"/>
		</g>
		<g>
			<path class="st6" d="M139.7,108.1c-9,0-16.3-7.3-16.3-16.3c0-9,7.3-16.3,16.3-16.3c9,0,16.3,7.3,16.3,16.3
				C156,100.8,148.7,108.1,139.7,108.1z"/>
			<path class="st7" d="M139.7,75.7c8.9,0,16.2,7.3,16.2,16.2s-7.3,16.2-16.2,16.2c-8.9,0-16.2-7.3-16.2-16.2S130.8,75.7,139.7,75.7
				 M139.7,75.5c-9,0-16.4,7.3-16.4,16.4s7.3,16.4,16.4,16.4c9,0,16.4-7.3,16.4-16.4S148.8,75.5,139.7,75.5L139.7,75.5z"/>
		</g>
		<g>
			<path class="st8" d="M139.7,106c-7.8,0-14.2-6.4-14.2-14.2s6.4-14.2,14.2-14.2s14.2,6.4,14.2,14.2S147.6,106,139.7,106z"/>
			<path class="st7" d="M139.7,77.7c7.8,0,14.1,6.3,14.1,14.1s-6.3,14.1-14.1,14.1s-14.1-6.3-14.1-14.1S132,77.7,139.7,77.7
				 M139.7,77.5c-7.9,0-14.3,6.4-14.3,14.3s6.4,14.3,14.3,14.3c7.9,0,14.3-6.4,14.3-14.3S147.6,77.5,139.7,77.5L139.7,77.5z"/>
		</g>
		<rect x="127.5" y="78.2" class="st9" width="24.6" height="26.3"/>
		<text transform="matrix(1 0 0 1 128.5683 99.0933)" class="st10 st11 st12">35</text>
		<g>
			<circle class="st13" cx="100.3" cy="91.7" r="16.3"/>
			<path class="st7" d="M100.3,75.6c8.9,0,16.2,7.3,16.2,16.2s-7.3,16.2-16.2,16.2s-16.2-7.3-16.2-16.2S91.4,75.6,100.3,75.6
				 M100.3,75.4c-9,0-16.4,7.3-16.4,16.4s7.3,16.4,16.4,16.4s16.4-7.3,16.4-16.4S109.4,75.4,100.3,75.4L100.3,75.4z"/>
		</g>
		<g>
			<path class="st14" d="M100.3,105.9c-7.8,0-14.2-6.4-14.2-14.2s6.4-14.2,14.2-14.2s14.2,6.4,14.2,14.2S108.1,105.9,100.3,105.9z"
				/>
			<path class="st7" d="M100.3,77.6c7.8,0,14.1,6.3,14.1,14.1s-6.3,14.1-14.1,14.1s-14.1-6.3-14.1-14.1S92.5,77.6,100.3,77.6
				 M100.3,77.4c-7.9,0-14.3,6.4-14.3,14.3s6.4,14.3,14.3,14.3s14.3-6.4,14.3-14.3S108.2,77.4,100.3,77.4L100.3,77.4z"/>
		</g>
		<rect x="88.1" y="77.4" class="st9" width="24.6" height="26.3"/>
		<text transform="matrix(1 0 0 1 89.1528 98.3218)" class="st15 st11 st12">47</text>
		<g>
			<circle class="st16" cx="60.9" cy="91.8" r="16.3"/>
			<path class="st7" d="M60.9,75.7c8.9,0,16.2,7.3,16.2,16.2S69.8,108,60.9,108c-8.9,0-16.2-7.3-16.2-16.2S52,75.7,60.9,75.7
				 M60.9,75.5c-9,0-16.4,7.3-16.4,16.4s7.3,16.4,16.4,16.4c9,0,16.4-7.3,16.4-16.4S69.9,75.5,60.9,75.5L60.9,75.5z"/>
		</g>
		<g>
			<circle class="st17" cx="60.9" cy="91.8" r="14.2"/>
			<path class="st7" d="M60.9,77.7c7.8,0,14.1,6.3,14.1,14.1s-6.3,14.1-14.1,14.1s-14.1-6.3-14.1-14.1S53.1,77.7,60.9,77.7
				 M60.9,77.5c-7.9,0-14.3,6.4-14.3,14.3s6.4,14.3,14.3,14.3c7.9,0,14.3-6.4,14.3-14.3S68.8,77.5,60.9,77.5L60.9,77.5z"/>
		</g>
		<rect x="48.6" y="78.7" class="st9" width="24.6" height="26.3"/>
		<text transform="matrix(1 0 0 1 49.7163 99.5669)" class="st18 st11 st12">63</text>
		<g>
			<circle class="st6" cx="139.3" cy="197.3" r="16.3"/>
			<path class="st7" d="M139.3,181.1c8.9,0,16.2,7.3,16.2,16.2s-7.3,16.2-16.2,16.2s-16.2-7.3-16.2-16.2S130.3,181.1,139.3,181.1
				 M139.3,180.9c-9,0-16.4,7.3-16.4,16.4s7.3,16.4,16.4,16.4s16.4-7.3,16.4-16.4S148.3,180.9,139.3,180.9L139.3,180.9z"/>
		</g>
		<g>
			<path class="st8" d="M139.3,211.5c-7.8,0-14.2-6.4-14.2-14.2s6.4-14.2,14.2-14.2s14.2,6.4,14.2,14.2S147.1,211.5,139.3,211.5z"/>
			<path class="st7" d="M139.3,183.2c7.8,0,14.1,6.3,14.1,14.1s-6.3,14.1-14.1,14.1s-14.1-6.3-14.1-14.1S131.5,183.2,139.3,183.2
				 M139.3,183c-7.9,0-14.3,6.4-14.3,14.3c0,7.9,6.4,14.3,14.3,14.3s14.3-6.4,14.3-14.3C153.6,189.4,147.2,183,139.3,183L139.3,183z
				"/>
		</g>
		<rect x="126.5" y="184.1" class="st9" width="24.6" height="26.3"/>
		<text transform="matrix(1 0 0 1 128.4927 204.9991)" class="st10 st11 st12 st19">17</text>
		<g>
			<circle class="st13" cx="99.8" cy="197.3" r="16.3"/>
			<path class="st7" d="M99.8,181.1c8.9,0,16.2,7.3,16.2,16.2s-7.3,16.2-16.2,16.2c-8.9,0-16.2-7.3-16.2-16.2S90.9,181.1,99.8,181.1
				 M99.8,180.9c-9,0-16.4,7.3-16.4,16.4s7.3,16.4,16.4,16.4c9,0,16.4-7.3,16.4-16.4S108.9,180.9,99.8,180.9L99.8,180.9z"/>
		</g>
		<g>
			<circle class="st14" cx="99.8" cy="197.3" r="14.2"/>
			<path class="st7" d="M99.8,183.2c7.8,0,14.1,6.3,14.1,14.1s-6.3,14.1-14.1,14.1s-14.1-6.3-14.1-14.1S92.1,183.2,99.8,183.2
				 M99.8,183c-7.9,0-14.3,6.4-14.3,14.3c0,7.9,6.4,14.3,14.3,14.3c7.9,0,14.3-6.4,14.3-14.3C114.1,189.4,107.7,183,99.8,183
				L99.8,183z"/>
		</g>
		<rect x="87.1" y="184.1" class="st9" width="24.6" height="26.3"/>
		<text transform="matrix(1 0 0 1 89.0767 204.9991)" class="st15 st11 st12 st19">17</text>
		<g>
			<path class="st16" d="M60.4,213.5c-9,0-16.3-7.3-16.3-16.3S51.5,181,60.4,181c9,0,16.3,7.3,16.3,16.3S69.4,213.5,60.4,213.5z"/>
			<path class="st7" d="M60.4,181.1c8.9,0,16.2,7.3,16.2,16.2s-7.3,16.2-16.2,16.2s-16.2-7.3-16.2-16.2S51.5,181.1,60.4,181.1
				 M60.4,180.9c-9,0-16.4,7.3-16.4,16.4s7.3,16.4,16.4,16.4s16.4-7.3,16.4-16.4S69.5,180.9,60.4,180.9L60.4,180.9z"/>
		</g>
		<g>
			<path class="st17" d="M60.4,211.5c-7.8,0-14.2-6.4-14.2-14.2s6.4-14.2,14.2-14.2s14.2,6.4,14.2,14.2S68.3,211.5,60.4,211.5z"/>
			<path class="st7" d="M60.4,183.2c7.8,0,14.1,6.3,14.1,14.1s-6.3,14.1-14.1,14.1s-14.1-6.3-14.1-14.1S52.7,183.2,60.4,183.2
				 M60.4,183c-7.9,0-14.3,6.4-14.3,14.3c0,7.9,6.4,14.3,14.3,14.3s14.3-6.4,14.3-14.3C74.7,189.4,68.3,183,60.4,183L60.4,183z"/>
		</g>
		<rect x="47.3" y="184.1" class="st9" width="24.6" height="26.3"/>
		<text transform="matrix(1 0 0 1 49.2339 204.9991)" class="st18 st11 st12 st19">16</text>
		<g>
			<circle class="st6" cx="139.1" cy="301.2" r="16.3"/>
			<path class="st7" d="M139.1,285c8.9,0,16.2,7.3,16.2,16.2s-7.3,16.2-16.2,16.2c-8.9,0-16.2-7.3-16.2-16.2S130.2,285,139.1,285
				 M139.1,284.8c-9,0-16.4,7.3-16.4,16.4s7.3,16.4,16.4,16.4c9,0,16.4-7.3,16.4-16.4S148.1,284.8,139.1,284.8L139.1,284.8z"/>
		</g>
		<g>
			<circle class="st8" cx="139.1" cy="301.2" r="14.2"/>
			<path class="st7" d="M139.1,287.1c7.8,0,14.1,6.3,14.1,14.1s-6.3,14.1-14.1,14.1S125,309,125,301.2S131.3,287.1,139.1,287.1
				 M139.1,286.9c-7.9,0-14.3,6.4-14.3,14.3s6.4,14.3,14.3,14.3c7.9,0,14.3-6.4,14.3-14.3S147,286.9,139.1,286.9L139.1,286.9z"/>
		</g>
		<rect x="125.9" y="287.5" class="st9" width="24.6" height="26.3"/>
		<text transform="matrix(1 0 0 1 127.0644 309.0777)" class="st10 st11 st20 st19">18</text>
		<g>
			<circle class="st13" cx="99.7" cy="301.1" r="16.3"/>
			<path class="st7" d="M99.7,284.9c8.9,0,16.2,7.3,16.2,16.2s-7.3,16.2-16.2,16.2s-16.2-7.3-16.2-16.2S90.8,284.9,99.7,284.9
				 M99.7,284.7c-9,0-16.4,7.3-16.4,16.4s7.3,16.4,16.4,16.4s16.4-7.3,16.4-16.4S108.7,284.7,99.7,284.7L99.7,284.7z"/>
		</g>
		<g>
			<path class="st14" d="M99.7,315.3c-7.8,0-14.2-6.4-14.2-14.2s6.4-14.2,14.2-14.2s14.2,6.4,14.2,14.2S107.5,315.3,99.7,315.3z"/>
			<path class="st7" d="M99.7,287c7.8,0,14.1,6.3,14.1,14.1s-6.3,14.1-14.1,14.1s-14.1-6.3-14.1-14.1S91.9,287,99.7,287 M99.7,286.8
				c-7.9,0-14.3,6.4-14.3,14.3s6.4,14.3,14.3,14.3S114,309,114,301.1S107.6,286.8,99.7,286.8L99.7,286.8z"/>
		</g>
		<rect x="86.8" y="287.5" class="st9" width="24.6" height="26.3"/>
		<text transform="matrix(1 0 0 1 87.9067 309.0777)" class="st15 st11 st20 st19">16</text>
		<g>
			<path class="st16" d="M60.3,317.4c-9,0-16.3-7.3-16.3-16.3c0-9,7.3-16.3,16.3-16.3c9,0,16.3,7.3,16.3,16.3
				C76.5,310.1,69.2,317.4,60.3,317.4z"/>
			<path class="st7" d="M60.3,285c8.9,0,16.2,7.3,16.2,16.2c0,8.9-7.3,16.2-16.2,16.2s-16.2-7.3-16.2-16.2
				C44.1,292.3,51.4,285,60.3,285 M60.3,284.8c-9,0-16.4,7.3-16.4,16.4s7.3,16.4,16.4,16.4s16.4-7.3,16.4-16.4
				S69.3,284.8,60.3,284.8L60.3,284.8z"/>
		</g>
		<g>
			<path class="st17" d="M60.3,315.4c-7.8,0-14.2-6.4-14.2-14.2S52.4,287,60.3,287s14.2,6.4,14.2,14.2S68.1,315.4,60.3,315.4z"/>
			<path class="st7" d="M60.3,287.1c7.8,0,14.1,6.3,14.1,14.1s-6.3,14.1-14.1,14.1s-14.1-6.3-14.1-14.1S52.5,287.1,60.3,287.1
				 M60.3,286.9c-7.9,0-14.3,6.4-14.3,14.3c0,7.9,6.4,14.3,14.3,14.3s14.3-6.4,14.3-14.3C74.6,293.3,68.2,286.9,60.3,286.9
				L60.3,286.9z"/>
		</g>
		<rect x="48" y="288" class="st9" width="24.6" height="26.3"/>
		<text transform="matrix(1 0 0 1 54.2202 309.5513)" class="st18 st11 st20">8</text>
	</g>
</g>
<g id="Oro">
</g>
</svg>
