<svg xmlns="http://www.w3.org/2000/svg" width="700" height="400"><rect width="700" height="400" x="0" y="0" fill="#FFFFFF" id="backgorund"/><g id="viz"><g transform="translate(0,0)"><g transform="translate(50,20)"><g class="bars"><rect id="undefined - Oro" x="20.274067031138593" y="0" height="360" width="26.967910625148566" fill="#ff7f0e"/><rect id="undefined - Plata" x="48.230330401711456" y="88.61538461538461" height="271.38461538461536" width="26.967910625148566" fill="#2ca02c"/><rect id="undefined - Bronce" x="76.18659377228431" y="160.6153846153846" height="199.3846153846154" width="26.967910625148566" fill="#1f77b4"/><rect id="undefined - Oro" x="124.41692417399574" y="260.3076923076923" height="99.69230769230768" width="26.967910625148566" fill="#ff7f0e"/><rect id="undefined - Plata" x="152.3731875445686" y="260.3076923076923" height="99.69230769230768" width="26.967910625148566" fill="#2ca02c"/><rect id="undefined - Bronce" x="180.32945091514145" y="254.76923076923075" height="105.23076923076925" width="26.967910625148566" fill="#1f77b4"/><rect id="undefined - Oro" x="228.55978131685288" y="315.6923076923077" height="44.30769230769232" width="26.967910625148566" fill="#ff7f0e"/><rect id="undefined - Plata" x="256.51604468742573" y="265.84615384615387" height="94.15384615384613" width="26.967910625148566" fill="#2ca02c"/><rect id="undefined - Bronce" x="284.4723080579986" y="260.3076923076923" height="99.69230769230768" width="26.967910625148566" fill="#1f77b4"/><rect id="undefined - Oro" x="332.70263845971004" y="343.38461538461536" height="16.61538461538464" width="26.967910625148566" fill="#ff7f0e"/><rect id="undefined - Plata" x="360.6589018302829" y="337.84615384615387" height="22.153846153846132" width="26.967910625148566" fill="#2ca02c"/><rect id="undefined - Bronce" x="388.6151652008558" y="271.38461538461536" height="88.61538461538464" width="26.967910625148566" fill="#1f77b4"/><rect id="undefined - Oro" x="436.84549560256715" y="354.46153846153845" height="5.538461538461547" width="26.967910625148566" fill="#ff7f0e"/><rect id="undefined - Plata" x="464.80175897314" y="348.9230769230769" height="11.076923076923094" width="26.967910625148566" fill="#2ca02c"/><rect id="undefined - Bronce" x="492.7580223437129" y="332.3076923076923" height="27.69230769230768" width="26.967910625148566" fill="#1f77b4"/></g><g id="xAxis" transform="translate(0,360)" fill="none" font-size="10" font-family="sans-serif" text-anchor="middle"><path class="domain" stroke="currentColor" d="M0,0H540"/><g class="tick" opacity="1" transform="translate(61.71428571428574,0)"><line stroke="currentColor" y2="6"/><text fill="currentColor" y="9" dy="0.71em">Estados Unidos</text></g><g class="tick" opacity="1" transform="translate(165.8571428571429,0)"><line stroke="currentColor" y2="6"/><text fill="currentColor" y="9" dy="0.71em">Canadá</text></g><g class="tick" opacity="1" transform="translate(270,0)"><line stroke="currentColor" y2="6"/><text fill="currentColor" y="9" dy="0.71em">Cuba</text></g><g class="tick" opacity="1" transform="translate(374.1428571428572,0)"><line stroke="currentColor" y2="6"/><text fill="currentColor" y="9" dy="0.71em">Brasil</text></g><g class="tick" opacity="1" transform="translate(478.28571428571433,0)"><line stroke="currentColor" y2="6"/><text fill="currentColor" y="9" dy="0.71em">México</text></g></g><g id="yAxis" fill="none" font-size="10" font-family="sans-serif" text-anchor="end"><path class="domain" stroke="currentColor" d="M0,360V0"/><g class="tick" opacity="1" transform="translate(0,360)"><line stroke="currentColor" x2="-6"/><text fill="currentColor" x="-9" dy="0.32em">0</text></g><g class="tick" opacity="1" transform="translate(0,332.3076923076923)"><line stroke="currentColor" x2="-6"/><text fill="currentColor" x="-9" dy="0.32em">5</text></g><g class="tick" opacity="1" transform="translate(0,304.6153846153846)"><line stroke="currentColor" x2="-6"/><text fill="currentColor" x="-9" dy="0.32em">10</text></g><g class="tick" opacity="1" transform="translate(0,276.9230769230769)"><line stroke="currentColor" x2="-6"/><text fill="currentColor" x="-9" dy="0.32em">15</text></g><g class="tick" opacity="1" transform="translate(0,249.23076923076923)"><line stroke="currentColor" x2="-6"/><text fill="currentColor" x="-9" dy="0.32em">20</text></g><g class="tick" opacity="1" transform="translate(0,221.53846153846155)"><line stroke="currentColor" x2="-6"/><text fill="currentColor" x="-9" dy="0.32em">25</text></g><g class="tick" opacity="1" transform="translate(0,193.84615384615384)"><line stroke="currentColor" x2="-6"/><text fill="currentColor" x="-9" dy="0.32em">30</text></g><g class="tick" opacity="1" transform="translate(0,166.15384615384616)"><line stroke="currentColor" x2="-6"/><text fill="currentColor" x="-9" dy="0.32em">35</text></g><g class="tick" opacity="1" transform="translate(0,138.46153846153845)"><line stroke="currentColor" x2="-6"/><text fill="currentColor" x="-9" dy="0.32em">40</text></g><g class="tick" opacity="1" transform="translate(0,110.76923076923077)"><line stroke="currentColor" x2="-6"/><text fill="currentColor" x="-9" dy="0.32em">45</text></g><g class="tick" opacity="1" transform="translate(0,83.07692307692307)"><line stroke="currentColor" x2="-6"/><text fill="currentColor" x="-9" dy="0.32em">50</text></g><g class="tick" opacity="1" transform="translate(0,55.38461538461539)"><line stroke="currentColor" x2="-6"/><text fill="currentColor" x="-9" dy="0.32em">55</text></g><g class="tick" opacity="1" transform="translate(0,27.692307692307672)"><line stroke="currentColor" x2="-6"/><text fill="currentColor" x="-9" dy="0.32em">60</text></g><g class="tick" opacity="1" transform="translate(0,0)"><line stroke="currentColor" x2="-6"/><text fill="currentColor" x="-9" dy="0.32em">65</text></g></g><text y="356" x="540" text-anchor="end" style="font-family: Arial, sans-serif; font-size: 12px; fill: rgb(123, 123, 123); font-weight: bold;">Sets</text><text y="0" x="4" dominant-baseline="hanging" text-anchor="start" style="font-family: Arial, sans-serif; font-size: 12px; fill: rgb(123, 123, 123); font-weight: bold;">Value</text></g><text x="4" y="4" style="font-family: Arial, sans-serif; font-size: 12px; fill: black; font-weight: bold; dominant-baseline: hanging;"/></g><g id="grid"><rect x="0" y="0" width="600" height="400" fill="none" stroke="#ccc"/></g></g><g id="legend" transform="translate(600,20)"><g transform="translate(5,0)"><g class="legendColor" transform="translate(0,0)"><g class="legendCells" transform="translate(0,15.5)"><g class="cell" transform="translate(0, 0)"><rect class="swatch" height="15" width="15" style="fill: rgb(31, 119, 180);"/><text class="label" transform="translate( 20, 12.5)" font-family="&quot;Arial&quot;, sans-serif" font-size="10px"><tspan x="0" dy="0em">Bronce</tspan></text></g><g class="cell" transform="translate(0, 20.5)"><rect class="swatch" height="15" width="15" style="fill: rgb(255, 127, 14);"/><text class="label" transform="translate( 20, 12.5)" font-family="&quot;Arial&quot;, sans-serif" font-size="10px"><tspan x="0" dy="0em">Oro</tspan></text></g><g class="cell" transform="translate(0, 41)"><rect class="swatch" height="15" width="15" style="fill: rgb(44, 160, 44);"/><text class="label" transform="translate( 20, 12.5)" font-family="&quot;Arial&quot;, sans-serif" font-size="10px"><tspan x="0" dy="0em">Plata</tspan></text></g></g><text class="legendTitle" font-family="&quot;Arial&quot;, sans-serif" font-size="12px" font-weight="bold"><tspan x="0" dy="0em">Colors</tspan></text></g></g></g></svg>