<?xml version="1.0" encoding="utf-8"?>
<!-- Generator: Adobe Illustrator 27.5.0, SVG Export Plug-In . SVG Version: 6.00 Build 0)  -->
<svg version="1.1" id="_x30_" xmlns="http://www.w3.org/2000/svg" xmlns:xlink="http://www.w3.org/1999/xlink" x="0px" y="0px"
	 viewBox="0 0 1920 1080" style="enable-background:new 0 0 1920 1080;" xml:space="preserve">
<style type="text/css">
	.st0{fill:none;stroke:#FFFFFF;stroke-width:2;stroke-linecap:round;stroke-linejoin:round;stroke-miterlimit:10;}
	.st1{fill:none;stroke:#FFFFFF;stroke-width:0.5;stroke-linecap:round;stroke-linejoin:round;stroke-miterlimit:10;}
	.st2{font-family:'ArialMT'; fill:#FFFFFF}
	.st3{font-size:24.6982px; fill:#FFFFFF}
</style>
<g id="LWPOLYLINE">
	<polyline class="st0" points="987.98,455.81 987.98,595.7 592.79,595.7 	"/>
</g>
<g id="LWPOLYLINE_00000067928796651067614610000013768778890414021042_">
	<polygon class="st0" points="393.44,609.69 498.36,609.69 603.28,609.69 603.28,620.88 393.44,620.88 	"/>
</g>
<g id="CIRCLE">
	<circle class="st0" cx="589.29" cy="615.29" r="3.5"/>
</g>
<g id="CIRCLE_00000037664961189727296710000013106193233296343712_">
	<circle class="st0" cx="407.43" cy="615.29" r="3.5"/>
</g>
<g id="LWPOLYLINE_00000111886273817161282190000010103717196490909598_">
	<polygon class="st0" points="393.44,441.82 498.36,441.82 603.28,441.82 603.28,430.63 393.44,430.63 	"/>
</g>
<g id="CIRCLE_00000120546167208534371940000002776205848970957497_">
	<circle class="st0" cx="589.29" cy="436.23" r="3.5"/>
</g>
<g id="CIRCLE_00000158006895822366877330000010541073669536319913_">
	<circle class="st0" cx="407.43" cy="436.23" r="3.5"/>
</g>
<g id="LINE">
	<line class="st0" x1="403.93" y1="609.69" x2="403.93" y2="441.82"/>
</g>
<g id="LINE_00000127006763398416860240000002760289325662845873_">
	<line class="st0" x1="410.93" y1="441.82" x2="410.93" y2="609.69"/>
</g>
<g id="LINE_00000174592345772741926570000013148402274414414778_">
	<line class="st0" x1="585.79" y1="609.69" x2="585.79" y2="441.82"/>
</g>
<g id="LINE_00000155120915370778127680000010160949887529599119_">
	<line class="st0" x1="592.79" y1="441.82" x2="592.79" y2="609.69"/>
</g>
<g id="LWPOLYLINE_00000041274002412121202160000011159894546504617600_">
	<line class="st0" x1="410.93" y1="455.81" x2="585.79" y2="455.81"/>
</g>
<g id="LWPOLYLINE_00000090275781081105841610000003715808068180353430_">
	<line class="st0" x1="592.79" y1="455.81" x2="987.98" y2="455.81"/>
</g>
<g id="LWPOLYLINE_00000057107042337452107980000013327269960268625305_">
	<polyline class="st0" points="403.93,595.7 8.74,595.7 8.74,455.81 403.93,455.81 	"/>
</g>
<g id="LWPOLYLINE_00000002347070937605552650000001155039060609121932_">
	<line class="st0" x1="585.79" y1="595.7" x2="410.93" y2="595.7"/>
</g>
<g id="LINE_00000150824983860713528960000007209327303354110391_">
	<line class="st0" x1="1337.7" y1="581.71" x2="1806.34" y2="581.71"/>
</g>
<g id="LINE_00000103254293309213728010000018404984759494738585_">
	<line class="st0" x1="1337.7" y1="595.7" x2="1806.34" y2="595.7"/>
</g>
<g id="LINE_00000121237650486374321110000017614749478257244807_">
	<line class="st0" x1="1659.45" y1="406.85" x2="1659.45" y2="581.71"/>
</g>
<g id="LINE_00000015323207042968633610000007409694866823334073_">
	<line class="st0" x1="1666.45" y1="406.85" x2="1666.45" y2="581.71"/>
</g>
<g id="LINE_00000145018640707894593330000013023134804338062994_">
	<line class="st0" x1="1484.59" y1="462.81" x2="1484.59" y2="581.71"/>
</g>
<g id="LINE_00000059301556895208352900000017249549479063209376_">
	<line class="st0" x1="1477.6" y1="462.81" x2="1477.6" y2="581.71"/>
</g>
<g id="LWPOLYLINE_00000092444839270238161470000008745758254616148646_">
	<polyline class="st0" points="1442.62,595.7 1442.62,581.71 1666.45,581.71 1701.42,581.71 1701.42,595.7 1442.62,595.7 	"/>
</g>
<g id="CIRCLE_00000110472123379639874310000011698711319833013668_">
	<circle class="st0" cx="1481.09" cy="462.81" r="3.5"/>
</g>
<g id="CIRCLE_00000050623058220151470870000013770684099487965603_">
	<circle class="st1" cx="1662.95" cy="406.85" r="3.5"/>
</g>
<g id="LWPOLYLINE_00000121264090668862731780000009823871743383958424_">
	<line class="st0" x1="1484.59" y1="480.29" x2="1659.45" y2="480.29"/>
</g>
<g id="LWPOLYLINE_00000069383057023778806660000001682567864306193314_">
	<line class="st0" x1="1484.59" y1="483.79" x2="1659.45" y2="483.79"/>
</g>
<g id="DIMENSION">
	<g id="LINE_00000073685251372237141400000009237342040969576125_">
		<line class="st1" x1="1062.3" y1="595.7" x2="1066.67" y2="595.7"/>
	</g>
	<g id="LINE_00000150076108919662824190000015740895675734211983_">
		<line class="st1" x1="1062.3" y1="455.81" x2="1066.67" y2="455.81"/>
	</g>
	<g id="LINE_00000003073745202190753750000003418318333475870353_">
		<line class="st1" x1="1057.92" y1="595.7" x2="1057.92" y2="455.81"/>
	</g>
	<g id="MTEXT">
		<text transform="matrix(6.123234e-17 -1 1 6.123234e-17 1053.2537 545.9111)" class="st2 st3">200</text>
	</g>
</g>
<g id="DIMENSION_00000173841379672670952390000016593975363506349753_">
	<g id="LINE_00000118363761885460585900000007913468822075350432_">
		<line class="st1" x1="1114.75" y1="609.69" x2="1119.13" y2="609.69"/>
	</g>
	<g id="LINE_00000169515808294148966290000009360560178159057844_">
		<line class="st1" x1="1114.75" y1="441.82" x2="1119.13" y2="441.82"/>
	</g>
	<g id="LINE_00000134958579050270000310000003919265621301711024_">
		<line class="st1" x1="1110.38" y1="609.69" x2="1110.38" y2="441.82"/>
	</g>
	<g id="MTEXT_00000168104742813313833470000004855790548203531194_">
		<text transform="matrix(6.123234e-17 -1 1 6.123234e-17 1105.7128 545.9111)" class="st2 st3">240</text>
	</g>
</g>
<g id="DIMENSION_00000181807076550434321330000000599877101876770456_">
	<g id="LINE_00000176038220174974388300000002647433539345744814_">
		<line class="st1" x1="8.74" y1="678.76" x2="8.74" y2="674.39"/>
	</g>
	<g id="LINE_00000000181017685947542340000013399684983764492452_">
		<line class="st1" x1="393.44" y1="678.76" x2="393.44" y2="674.39"/>
	</g>
	<g id="LINE_00000149365103691136074290000013755510604116974487_">
		<line class="st1" x1="8.74" y1="683.14" x2="393.44" y2="683.14"/>
	</g>
	<g id="MTEXT_00000177448783906175072250000009280059670337020815_">
		<text transform="matrix(1 0 0 1 180.7916 678.4659)" class="st2 st3">550</text>
	</g>
</g>
<g id="DIMENSION_00000115476312700865671300000007460065072029219249_">
	<g id="LINE_00000000221643098444144600000016489759706980482747_">
		<line class="st1" x1="410.93" y1="678.76" x2="410.93" y2="674.39"/>
	</g>
	<g id="LINE_00000130616780381116115140000006645224538062893730_">
		<line class="st1" x1="585.79" y1="678.76" x2="585.79" y2="674.39"/>
	</g>
	<g id="LINE_00000160148176588605908180000000994490819522091157_">
		<line class="st1" x1="410.93" y1="683.14" x2="585.79" y2="683.14"/>
	</g>
	<g id="MTEXT_00000142854558984313171470000010233954634867540640_">
		<text transform="matrix(1 0 0 1 478.2084 678.4659)" class="st2 st3">250</text>
	</g>
</g>
<g id="DIMENSION_00000129174962767088689840000004037633663370174116_">
	<g id="LINE_00000134229665574263853680000007747236922948893590_">
		<line class="st1" x1="603.28" y1="678.76" x2="603.28" y2="674.39"/>
	</g>
	<g id="LINE_00000013882254848202422980000010989669402369424575_">
		<line class="st1" x1="987.98" y1="678.76" x2="987.98" y2="674.39"/>
	</g>
	<g id="LINE_00000052824464730387769250000013694375107211382662_">
		<line class="st1" x1="603.28" y1="683.14" x2="987.98" y2="683.14"/>
	</g>
	<g id="MTEXT_00000041295698958151610220000005217713188327269029_">
		<text transform="matrix(1 0 0 1 775.3271 678.4659)" class="st2 st3">550</text>
	</g>
</g>
<g id="DIMENSION_00000018220512968447647910000005500645385027210680_">
	<g id="LINE_00000179622827991099619080000000639492871215314048_">
		<line class="st1" x1="8.74" y1="731.22" x2="8.74" y2="726.85"/>
	</g>
	<g id="LINE_00000033352194941838999730000001409727654808590465_">
		<line class="st1" x1="987.98" y1="731.22" x2="987.98" y2="726.85"/>
	</g>
	<g id="LINE_00000147927345627727294470000004891810410657268617_">
		<line class="st1" x1="8.74" y1="735.59" x2="987.98" y2="735.59"/>
	</g>
	<g id="MTEXT_00000147188892437174468550000011084523519356453280_">
		<text transform="matrix(1 0 0 1 470.4434 730.9249)" class="st2 st3">1400</text>
	</g>
</g>
<g id="LINE_00000044176810556171979230000016786837657350848150_">
	<line class="st1" x1="1302.73" y1="595.7" x2="1302.73" y2="581.71"/>
</g>
<g id="LINE_00000051373752381917758280000013462760145903857308_">
	<line class="st1" x1="1911.26" y1="595.7" x2="1911.26" y2="403.35"/>
</g>
<g id="LINE_00000126325867374435639210000007629989338625222821_">
	<line class="st1" x1="1484.59" y1="357.89" x2="1659.45" y2="357.89"/>
</g>
<g id="DIMENSION_00000114764434306988987190000000483843791542166427_">
	<g id="LINE_00000139267910861257502670000013120930976060890301_">
		<line class="st1" x1="1484.59" y1="643.79" x2="1484.59" y2="639.42"/>
	</g>
	<g id="LINE_00000146475096417112178840000009192692220041379209_">
		<line class="st1" x1="1659.45" y1="652.53" x2="1659.45" y2="656.91"/>
	</g>
	<g id="LINE_00000148634678451100698400000013519040558871122581_">
		<line class="st1" x1="1484.59" y1="648.16" x2="1659.45" y2="648.16"/>
	</g>
	<g id="MTEXT_00000058552053839744821850000002579954234340778133_">
		<text transform="matrix(1 0 0 1 1551.8696 643.4933)" class="st2 st3">250</text>
	</g>
</g>
<g id="DIMENSION_00000052818923840942640190000002283676897584528565_">
	<g id="LINE_00000015328778678992655810000001013142165957608886_">
		<line class="st1" x1="1442.62" y1="643.79" x2="1442.62" y2="639.42"/>
	</g>
	<g id="LINE_00000092448354331605146820000015588946931307866525_">
		<line class="st1" x1="1484.59" y1="643.79" x2="1484.59" y2="639.42"/>
	</g>
	<g id="LINE_00000010300722376479810690000018198997203588186240_">
		<line class="st1" x1="1442.62" y1="648.16" x2="1484.59" y2="648.16"/>
	</g>
	<g id="MTEXT_00000169554357957343987990000004910916362969680567_">
		<text transform="matrix(1 0 0 1 1450.1459 643.4933)" class="st2 st3">60</text>
	</g>
</g>
<g id="DIMENSION_00000165939511019418506650000009827031555241875863_">
	<g id="LINE_00000117673947984170638000000012187186879354441148_">
		<line class="st1" x1="1659.45" y1="643.79" x2="1659.45" y2="639.42"/>
	</g>
	<g id="LINE_00000039095896889854466070000011861957496389394072_">
		<line class="st1" x1="1701.42" y1="643.79" x2="1701.42" y2="639.42"/>
	</g>
	<g id="LINE_00000137829870374148197380000007367033947497311150_">
		<line class="st1" x1="1659.45" y1="648.16" x2="1701.42" y2="648.16"/>
	</g>
	<g id="MTEXT_00000135692743652313408140000018219110903946614954_">
		<text transform="matrix(1 0 0 1 1666.9764 643.4933)" class="st2 st3">60</text>
	</g>
</g>
<g id="DIMENSION_00000119803652062653928120000012140238638910488469_">
	<g id="LINE_00000111159638108978185490000007889939974231255458_">
		<line class="st1" x1="1442.62" y1="696.25" x2="1442.62" y2="691.88"/>
	</g>
	<g id="LINE_00000081616920181018626730000016798391157992191649_">
		<line class="st1" x1="1701.42" y1="696.25" x2="1701.42" y2="691.88"/>
	</g>
	<g id="LINE_00000065755266048297151080000003703571010347580803_">
		<line class="st1" x1="1442.62" y1="700.62" x2="1701.42" y2="700.62"/>
	</g>
	<g id="MTEXT_00000105403229530435020020000008088366568813939609_">
		<text transform="matrix(1 0 0 1 1551.7146 695.9403)" class="st2 st3">370</text>
	</g>
</g>
<g id="DIMENSION_00000069377239306917728490000010591791936478609547_">
	<g id="LINE_00000060710316377742452830000009109538170573412234_">
		<line class="st1" x1="1307.1" y1="595.7" x2="1311.48" y2="595.7"/>
	</g>
	<g id="LINE_00000046315277848483589220000004304741048925213579_">
		<line class="st1" x1="1307.1" y1="581.71" x2="1311.48" y2="581.71"/>
	</g>
	<g id="LINE_00000099644214919621763380000001311152551547265707_">
		<line class="st1" x1="1302.73" y1="595.7" x2="1302.73" y2="581.71"/>
	</g>
	<g id="LINE_00000142178392450425827210000008266850473327223730_">
		<line class="st1" x1="1302.73" y1="588.71" x2="1344.82" y2="576.08"/>
	</g>
	<g id="LINE_00000088846865493935983430000003002566864077119167_">
		<line class="st1" x1="1344.82" y1="576.08" x2="1344.82" y2="542.05"/>
	</g>
	<g id="MTEXT_00000020394302972296275980000002340849214868235923_">
		<text transform="matrix(6.123234e-17 -1 1 6.123234e-17 1340.1472 572.4277)" class="st2 st3">20</text>
	</g>
</g>
<g id="DIMENSION_00000021819883997872343700000016421991017861595269_">
	<g id="LINE_00000107572928940824917800000010290552113863016106_">
		<line class="st1" x1="1863.17" y1="459.31" x2="1867.54" y2="459.31"/>
	</g>
	<g id="LINE_00000057865075832582240700000009654264826071666824_">
		<line class="st1" x1="1863.17" y1="581.71" x2="1867.54" y2="581.71"/>
	</g>
	<g id="LINE_00000123400818258354656960000007809416384613794750_">
		<line class="st1" x1="1858.8" y1="459.31" x2="1858.8" y2="581.71"/>
	</g>
	<g id="MTEXT_00000003086312705830522320000009720924553044380322_">
		<text transform="matrix(6.123234e-17 -1 1 6.123234e-17 1854.1281 541.7324)" class="st2 st3">175</text>
	</g>
</g>
<g id="DIMENSION_00000023257524476939049960000013389943902414273205_">
	<g id="LINE_00000151504757727717190510000004900696181199284608_">
		<line class="st1" x1="1915.63" y1="403.35" x2="1920" y2="403.35"/>
	</g>
	<g id="LINE_00000150077196127631560590000006050515254614133162_">
		<line class="st1" x1="1915.63" y1="581.71" x2="1920" y2="581.71"/>
	</g>
	<g id="LINE_00000103247835184561173950000013387024397002040716_">
		<line class="st1" x1="1911.26" y1="403.35" x2="1911.26" y2="581.71"/>
	</g>
	<g id="MTEXT_00000039123419194668330340000002704832185761209988_">
		<text transform="matrix(6.123234e-17 -1 1 6.123234e-17 1906.587 512.7822)" class="st2 st3">255</text>
	</g>
</g>
<g id="DIMENSION_00000085939193996168102780000001983855990765654191_">
	<g id="LINE_00000119090018974195148990000002171549300781988542_">
		<line class="st1" x1="1484.59" y1="362.26" x2="1484.59" y2="366.63"/>
	</g>
	<g id="LINE_00000100353024546341920570000014913770070767889070_">
		<line class="st1" x1="1659.45" y1="353.52" x2="1659.45" y2="349.15"/>
	</g>
	<g id="LINE_00000164492251674957143390000001366326482435076757_">
		<line class="st1" x1="1484.59" y1="357.89" x2="1659.45" y2="357.89"/>
	</g>
	<g id="MTEXT_00000124141444496514194660000004948725975014757797_">
		<text transform="matrix(1 0 0 1 1551.8696 353.22)" class="st2 st3">250</text>
	</g>
</g>
</svg>
