<?xml version="1.0" encoding="utf-8"?>
<!-- Generator: Adobe Illustrator 27.0.0, SVG Export Plug-In . SVG Version: 6.00 Build 0)  -->
<svg version="1.1" id="_x30_" xmlns="http://www.w3.org/2000/svg" xmlns:xlink="http://www.w3.org/1999/xlink" x="0px" y="0px"
	 viewBox="0 0 1393.61 1394.12" style="enable-background:new 0 0 1393.61 1394.12;" xml:space="preserve">
<style type="text/css">
	.st0{fill:none;stroke:#FFFFFF;stroke-width:2;stroke-linecap:round;stroke-linejoin:round;stroke-miterlimit:10;}
	.st1{fill:none;stroke:#FFFFFF;stroke-width:0.5;stroke-linecap:round;stroke-linejoin:round;stroke-miterlimit:10;}
	.st2{font-family:'ArialMT'; fill:#FFFFFF}
	.st3{font-size:25.0269px; fill:#FFFFFF}
</style>
<g id="LINE">
	<line class="st0" x1="156.6" y1="199.7" x2="1337.87" y2="199.7"/>
</g>
<g id="LINE_00000162331832239147231300000006952121209086765194_">
	<line class="st0" x1="1337.87" y1="199.7" x2="1337.87" y2="237.5"/>
</g>
<g id="LINE_00000132077542037500895990000008131667871172878500_">
	<line class="st0" x1="1337.87" y1="237.5" x2="156.6" y2="237.5"/>
</g>
<g id="LINE_00000101788225834703651480000007052870412695698871_">
	<line class="st0" x1="156.6" y1="237.5" x2="156.6" y2="199.7"/>
</g>
<g id="LINE_00000034053847907297664190000007145923737039536037_">
	<line class="st0" x1="1337.87" y1="495.02" x2="156.6" y2="495.02"/>
</g>
<g id="LINE_00000067233329663348772620000012193021273930199986_">
	<line class="st0" x1="274.73" y1="237.5" x2="274.73" y2="479.66"/>
</g>
<g id="LINE_00000120547011482832333860000005465789474010207648_">
	<line class="st0" x1="1219.75" y1="237.5" x2="1219.75" y2="479.66"/>
</g>
<g id="LINE_00000106835756221698206040000011136130864432418952_">
	<line class="st0" x1="298.36" y1="237.5" x2="298.36" y2="479.66"/>
</g>
<g id="LINE_00000122714700583886077630000009008060365647307658_">
	<line class="st0" x1="1196.12" y1="237.5" x2="1196.12" y2="479.66"/>
</g>
<g id="LWPOLYLINE">
	<line class="st0" x1="301.9" y1="495.02" x2="271.19" y2="495.02"/>
</g>
<g id="LWPOLYLINE_00000129890830280457338450000004907848550669599392_">
	<polyline class="st0" points="271.19,495.02 271.19,483.21 271.19,479.66 301.9,479.66 301.9,483.21 301.9,495.02 	"/>
</g>
<g id="LWPOLYLINE_00000013173502947902831240000017107834892594893440_">
	<polyline class="st0" points="1223.29,495.02 1223.29,483.21 1223.29,479.66 1192.58,479.66 1192.58,483.21 1192.58,495.02 	"/>
</g>
<g id="LINE_00000070081233359078910590000001576569574855857580_">
	<line class="st0" x1="156.6" y1="447.77" x2="274.73" y2="447.77"/>
</g>
<g id="LINE_00000072993012286777326300000005698878667799600058_">
	<line class="st1" x1="97.54" y1="199.7" x2="97.54" y2="495.02"/>
</g>
<g id="LINE_00000129179232874460456690000002415952943152581783_">
	<line class="st1" x1="156.6" y1="554.08" x2="1337.87" y2="554.08"/>
</g>
<g id="DIMENSION">
	<g id="LINE_00000134234467788398116240000006713424711497761932_">
		<line class="st1" x1="156.6" y1="549.65" x2="156.6" y2="545.22"/>
	</g>
	<g id="LINE_00000007421314359610576010000018365044198338100394_">
		<line class="st1" x1="1337.87" y1="549.65" x2="1337.87" y2="545.22"/>
	</g>
	<g id="LINE_00000067930488051110546830000016808443808465040034_">
		<line class="st1" x1="156.6" y1="554.08" x2="1337.87" y2="554.08"/>
	</g>
	<g id="MTEXT">
		<text transform="matrix(1 0 0 1 726.6675 549.3549)" class="st2 st3">500</text>
	</g>
</g>
<g id="DIMENSION_00000091721867263103371810000013486962807318820778_">
	<g id="LINE_00000134214603652870169550000007043814628800819115_">
		<line class="st1" x1="101.97" y1="199.7" x2="106.4" y2="199.7"/>
	</g>
	<g id="LINE_00000163782110170369038410000014909595835738745772_">
		<line class="st1" x1="101.97" y1="237.5" x2="106.4" y2="237.5"/>
	</g>
	<g id="LINE_00000116207130482878590180000004193211490776687488_">
		<line class="st1" x1="97.54" y1="199.7" x2="97.54" y2="237.5"/>
	</g>
	<g id="MTEXT_00000127724657744524302830000004484810532815760533_">
		<text transform="matrix(0 -1 1 0 92.8076 233.1518)" class="st2 st3">16</text>
	</g>
</g>
<g id="DIMENSION_00000183969422518860351670000014984712591819563690_">
	<g id="LINE_00000142884689529663151810000005846918425838511251_">
		<line class="st1" x1="101.97" y1="237.5" x2="106.4" y2="237.5"/>
	</g>
	<g id="LINE_00000173839303186638027500000010603132068678480568_">
		<line class="st1" x1="101.97" y1="447.77" x2="106.4" y2="447.77"/>
	</g>
	<g id="LINE_00000013163016308236142350000012967220137466616472_">
		<line class="st1" x1="97.54" y1="237.5" x2="97.54" y2="447.77"/>
	</g>
	<g id="MTEXT_00000031175612307798500820000011128732568229844668_">
		<text transform="matrix(0 -1 1 0 92.8076 356.3637)" class="st2 st3">89</text>
	</g>
</g>
<g id="DIMENSION_00000055669227260611087930000016707652100524868254_">
	<g id="LINE_00000018197411374236951110000001281618096677600642_">
		<line class="st1" x1="101.97" y1="447.77" x2="106.4" y2="447.77"/>
	</g>
	<g id="LINE_00000116920488056102391050000017872139775645362086_">
		<line class="st1" x1="101.97" y1="495.02" x2="106.4" y2="495.02"/>
	</g>
	<g id="LINE_00000089538806903645179690000000227709479165419428_">
		<line class="st1" x1="97.54" y1="447.77" x2="97.54" y2="495.02"/>
	</g>
	<g id="MTEXT_00000058551681060650288520000017068919597164972984_">
		<text transform="matrix(0 -1 1 0 92.8076 484.936)" class="st2 st3">20</text>
	</g>
</g>
<g id="LINE_00000020377155910345216140000001812756394418662296_">
	<line class="st1" x1="38.48" y1="199.7" x2="38.48" y2="495.02"/>
</g>
<g id="DIMENSION_00000142865412472048687860000012146192080934323620_">
	<g id="LINE_00000028295611437304390950000011610760777856473475_">
		<line class="st1" x1="42.91" y1="199.7" x2="47.34" y2="199.7"/>
	</g>
	<g id="LINE_00000130646189374995492770000005664472596057950605_">
		<line class="st1" x1="42.91" y1="495.02" x2="47.34" y2="495.02"/>
	</g>
	<g id="LINE_00000013158881924768379120000012218341227492383902_">
		<line class="st1" x1="38.48" y1="199.7" x2="38.48" y2="495.02"/>
	</g>
	<g id="MTEXT_00000119096985882897648350000004230534680416596895_">
		<text transform="matrix(0 -1 1 0 33.7441 368.8657)" class="st2 st3">125</text>
	</g>
</g>
<g id="LWPOLYLINE_00000083055791531476846530000002383721804092476562_">
	<polyline class="st0" points="691.63,930.94 691.63,968.74 722.34,968.74 722.34,930.94 691.63,930.94 	"/>
</g>
<g id="LINE_00000073700044101735227510000011824411802366274987_">
	<line class="st0" x1="695.17" y1="968.74" x2="695.17" y2="1214.45"/>
</g>
<g id="LINE_00000150796264337694281950000013652287328241209515_">
	<line class="st0" x1="718.79" y1="968.74" x2="718.79" y2="1214.45"/>
</g>
<g id="LWPOLYLINE_00000054254453107271076350000006831851396496687517_">
	<polyline class="st0" points="691.63,1214.45 722.34,1214.45 722.34,1226.26 691.63,1226.26 691.63,1214.45 	"/>
</g>
<g id="LINE_00000093162404575416293750000009105172670383695274_">
	<line class="st0" x1="573.5" y1="1226.26" x2="840.47" y2="1226.26"/>
</g>
<g id="LINE_00000036225063624994508750000008879760649813994675_">
	<line class="st0" x1="573.5" y1="1179.01" x2="695.17" y2="1179.01"/>
</g>
<g id="LINE_00000166643387728672197750000011850644550956781190_">
	<line class="st0" x1="718.79" y1="1179.01" x2="840.47" y2="1179.01"/>
</g>
<g id="LINE_00000002383275598146805330000005653899506229101996_">
	<line class="st0" x1="298.36" y1="447.77" x2="1196.12" y2="447.77"/>
</g>
<g id="LINE_00000170993579599208184670000018415128273545478071_">
	<line class="st0" x1="1219.75" y1="447.77" x2="1337.87" y2="447.77"/>
</g>
<g id="LINE_00000031929478734289025320000015700991130882967431_">
	<line class="st1" x1="691.63" y1="907.32" x2="722.34" y2="907.32"/>
</g>
<g id="LINE_00000083081745991844943420000012972812671566115744_">
	<line class="st1" x1="514.43" y1="1226.26" x2="514.43" y2="930.94"/>
</g>
<g id="DIMENSION_00000168819275691324895320000002531494809828195253_">
	<g id="LINE_00000127726225642667094990000002666493625250547129_">
		<line class="st1" x1="518.86" y1="1226.26" x2="523.29" y2="1226.26"/>
	</g>
	<g id="LINE_00000154406166321313985270000003416400806554069180_">
		<line class="st1" x1="518.86" y1="1179.01" x2="523.29" y2="1179.01"/>
	</g>
	<g id="LINE_00000101079961885673926030000004551553932415869316_">
		<line class="st1" x1="514.43" y1="1226.26" x2="514.43" y2="1179.01"/>
	</g>
	<g id="MTEXT_00000087395028487701884620000012836867115946968224_">
		<text transform="matrix(0 -1 1 0 509.701 1216.1685)" class="st2 st3">20</text>
	</g>
</g>
<g id="DIMENSION_00000044178345717206983150000016956581030614321800_">
	<g id="LINE_00000168112455942406702990000004922593823860174724_">
		<line class="st1" x1="518.86" y1="1179.01" x2="523.29" y2="1179.01"/>
	</g>
	<g id="LINE_00000008865191899533964530000013648778786168585350_">
		<line class="st1" x1="510" y1="968.74" x2="505.58" y2="968.74"/>
	</g>
	<g id="LINE_00000023268101488157466260000000053236479421183662_">
		<line class="st1" x1="514.43" y1="1179.01" x2="514.43" y2="968.74"/>
	</g>
	<g id="MTEXT_00000042719940989969755580000006954490016711627144_">
		<text transform="matrix(0 -1 1 0 509.701 1087.5962)" class="st2 st3">89</text>
	</g>
</g>
<g id="DIMENSION_00000081649277195162317630000015208370813238117046_">
	<g id="LINE_00000030456720608250236990000001977712074489886134_">
		<line class="st1" x1="518.86" y1="968.74" x2="523.29" y2="968.74"/>
	</g>
	<g id="LINE_00000081617849573891768810000014610547435690615697_">
		<line class="st1" x1="518.86" y1="930.94" x2="523.29" y2="930.94"/>
	</g>
	<g id="LINE_00000016766910016455503250000006240318212154800807_">
		<line class="st1" x1="514.43" y1="968.74" x2="514.43" y2="930.94"/>
	</g>
	<g id="MTEXT_00000026153596176014009920000004596768197328004274_">
		<text transform="matrix(0 -1 1 0 509.701 964.3832)" class="st2 st3">16</text>
	</g>
</g>
<g id="DIMENSION_00000129910788434926740880000010497305250556105391_">
	<g id="LINE_00000098925635539711400300000003151377337203919038_">
		<line class="st1" x1="691.63" y1="902.89" x2="691.63" y2="898.46"/>
	</g>
	<g id="LINE_00000011000994052736679140000005879112698090947712_">
		<line class="st1" x1="722.34" y1="902.89" x2="722.34" y2="898.46"/>
	</g>
	<g id="LINE_00000003812964272459622560000007681223317422845068_">
		<line class="st1" x1="691.63" y1="907.32" x2="722.34" y2="907.32"/>
	</g>
	<g id="LINE_00000057125011188340131100000014627049928013093541_">
		<line class="st1" x1="706.98" y1="907.32" x2="719.78" y2="864.65"/>
	</g>
	<g id="LINE_00000152235599639128074960000017436863609313312898_">
		<line class="st1" x1="719.78" y1="864.65" x2="752.35" y2="864.65"/>
	</g>
	<g id="MTEXT_00000062179213920390334420000012716878056229431713_">
		<text transform="matrix(1 0 0 1 721.5144 859.9048)" class="st2 st3">13</text>
	</g>
</g>
<g id="DIMENSION_00000114780115793476956980000005500191888032791434_">
	<g id="LINE_00000098901756436676779360000012110518338653296306_">
		<line class="st1" x1="695.17" y1="1245.46" x2="695.17" y2="1241.03"/>
	</g>
	<g id="LINE_00000075869413620926572810000002643338684486652858_">
		<line class="st1" x1="718.79" y1="1245.46" x2="718.79" y2="1241.03"/>
	</g>
	<g id="LINE_00000026163208705037521320000003884827081835786653_">
		<line class="st1" x1="695.17" y1="1249.88" x2="718.79" y2="1249.88"/>
	</g>
	<g id="LINE_00000155861420782281463880000015754954171099884427_">
		<line class="st1" x1="706.98" y1="1249.88" x2="719.78" y2="1207.24"/>
	</g>
	<g id="LINE_00000036967686013628452810000004381645348503385986_">
		<line class="st1" x1="719.78" y1="1207.24" x2="752.29" y2="1207.24"/>
	</g>
	<g id="MTEXT_00000147901176943318977720000004665492868465641875_">
		<text transform="matrix(1 0 0 1 721.5085 1202.5035)" class="st2 st3">10</text>
	</g>
</g>
</svg>
