<?xml version="1.0" encoding="utf-8"?>
<!-- Generator: Adobe Illustrator 27.0.0, SVG Export Plug-In . SVG Version: 6.00 Build 0)  -->
<svg version="1.1" id="_x30_" xmlns="http://www.w3.org/2000/svg" xmlns:xlink="http://www.w3.org/1999/xlink" x="0px" y="0px"
	 viewBox="0 0 1313.2 1672.32" style="enable-background:new 0 0 1313.2 1672.32;" xml:space="preserve">
<style type="text/css">
	.st0{fill:none;stroke:#FFFFFF;stroke-width:2;stroke-linecap:round;stroke-linejoin:round;stroke-miterlimit:10;}
	.st1{fill:none;stroke:#FFFFFF;stroke-width:0.5;stroke-linecap:round;stroke-linejoin:round;stroke-miterlimit:10;}
	.st2{font-family:'ArialMT'; fill:#FFFFFF}
	.st3{font-size:23.8231px; fill:#FFFFFF}
</style>
<g id="LWPOLYLINE">
	<polyline class="st0" points="288.67,127.7 288.67,802.37 963.34,802.37 963.34,127.7 288.67,127.7 	"/>
</g>
<g id="LWPOLYLINE_00000173855633857365946620000006769156637266675589_">
	<polyline class="st0" points="626.01,727.41 888.38,727.41 888.38,202.66 363.64,202.66 363.64,727.41 626.01,727.41 	"/>
</g>
<g id="LWPOLYLINE_00000127007427624166142920000012847056529760534913_">
	<polyline class="st0" points="626.01,689.93 850.9,689.93 850.9,240.15 401.12,240.15 401.12,689.93 626.01,689.93 	"/>
</g>
<g id="DIMENSION">
	<g id="LINE">
		<line class="st1" x1="288.67" y1="948.08" x2="288.67" y2="943.87"/>
	</g>
	<g id="LINE_00000150086348949511168770000008747909665520883862_">
		<line class="st1" x1="963.34" y1="948.08" x2="963.34" y2="943.87"/>
	</g>
	<g id="LINE_00000072249305203981548580000008642519348559312008_">
		<line class="st1" x1="288.67" y1="952.3" x2="963.34" y2="952.3"/>
	</g>
	<g id="MTEXT">
		<text transform="matrix(1 0 0 1 599.0784 947.7944)" class="st2 st3">1800</text>
	</g>
</g>
<g id="DIMENSION_00000082352263982728194850000009114719749409855153_">
	<g id="LINE_00000078034619658156533230000002359758149101779373_">
		<line class="st1" x1="288.67" y1="891.86" x2="288.67" y2="887.64"/>
	</g>
	<g id="LINE_00000000191366667528400380000017313116116817430148_">
		<line class="st1" x1="363.64" y1="891.86" x2="363.64" y2="887.64"/>
	</g>
	<g id="LINE_00000010274650675652941310000000379878923435454364_">
		<line class="st1" x1="288.67" y1="896.08" x2="363.64" y2="896.08"/>
	</g>
	<g id="MTEXT_00000065048414223575339460000007740947123890180750_">
		<text transform="matrix(1 0 0 1 306.7148 891.5718)" class="st2 st3">200</text>
	</g>
</g>
<g id="DIMENSION_00000121238262951670619210000000824370215355188389_">
	<g id="LINE_00000054256587456813455020000016516877524353586569_">
		<line class="st1" x1="363.64" y1="891.86" x2="363.64" y2="887.64"/>
	</g>
	<g id="LINE_00000034796942993999860080000007055928715240349111_">
		<line class="st1" x1="401.12" y1="891.86" x2="401.12" y2="887.64"/>
	</g>
	<g id="LINE_00000148638339320822706550000013399204498637437346_">
		<line class="st1" x1="363.64" y1="896.08" x2="401.12" y2="896.08"/>
	</g>
	<g id="LINE_00000054984578441848364390000014928979054227795620_">
		<line class="st1" x1="382.38" y1="896.08" x2="394.56" y2="936.67"/>
	</g>
	<g id="LINE_00000034082220491294085360000002479047628359058063_">
		<line class="st1" x1="394.56" y1="936.67" x2="438.61" y2="936.67"/>
	</g>
	<g id="MTEXT_00000176032781207811034500000007826443576209949839_">
		<text transform="matrix(1 0 0 1 396.2047 932.1654)" class="st2 st3">100</text>
	</g>
</g>
<g id="DIMENSION_00000049219881307491040880000005926629639681520315_">
	<g id="LINE_00000015316795229480918010000002787286950556080319_">
		<line class="st1" x1="401.12" y1="891.86" x2="401.12" y2="887.64"/>
	</g>
	<g id="LINE_00000049211670748084853500000007943141021148810384_">
		<line class="st1" x1="850.9" y1="891.86" x2="850.9" y2="887.64"/>
	</g>
	<g id="LINE_00000017480027394310783750000014515091403402403714_">
		<line class="st1" x1="401.12" y1="896.08" x2="850.9" y2="896.08"/>
	</g>
	<g id="MTEXT_00000142145031227911187270000006122068336168719238_">
		<text transform="matrix(1 0 0 1 599.0784 891.5718)" class="st2 st3">1200</text>
	</g>
</g>
<g id="DIMENSION_00000052092037439088827620000009529714009918255538_">
	<g id="LINE_00000054255753119140735710000011240603098515917988_">
		<line class="st1" x1="888.38" y1="900.29" x2="888.38" y2="904.51"/>
	</g>
	<g id="LINE_00000029036201163378501550000011845774970836254399_">
		<line class="st1" x1="963.34" y1="891.86" x2="963.34" y2="887.64"/>
	</g>
	<g id="LINE_00000073717847586743680760000002842072066415360388_">
		<line class="st1" x1="888.38" y1="896.08" x2="963.34" y2="896.08"/>
	</g>
	<g id="MTEXT_00000109744481373690395090000010805717032945726650_">
		<text transform="matrix(1 0 0 1 906.422 891.5718)" class="st2 st3">200</text>
	</g>
</g>
<g id="DIMENSION_00000129195906813204033790000009307925896642483625_">
	<g id="LINE_00000129902113087294529000000009966673926326680459_">
		<line class="st1" x1="1061.26" y1="802.37" x2="1065.48" y2="802.37"/>
	</g>
	<g id="LINE_00000128483805941622987630000000781541114091913630_">
		<line class="st1" x1="1061.26" y1="727.41" x2="1065.48" y2="727.41"/>
	</g>
	<g id="LINE_00000018222928784575204640000008195606402432593081_">
		<line class="st1" x1="1057.05" y1="802.37" x2="1057.05" y2="727.41"/>
	</g>
	<g id="MTEXT_00000121280141825165496540000015667647633313698747_">
		<text transform="matrix(0 -1 1 0 1052.5419 784.3281)" class="st2 st3">200</text>
	</g>
</g>
<g id="DIMENSION_00000117677387338351658470000011044750278372628372_">
	<g id="LINE_00000182514807682292725150000012958854643083473053_">
		<line class="st1" x1="1061.26" y1="727.41" x2="1065.48" y2="727.41"/>
	</g>
	<g id="LINE_00000035509304542396569360000010127907031331022488_">
		<line class="st1" x1="1061.26" y1="689.93" x2="1065.48" y2="689.93"/>
	</g>
	<g id="LINE_00000103961671161102330070000013095189388368064158_">
		<line class="st1" x1="1057.05" y1="727.41" x2="1057.05" y2="689.93"/>
	</g>
	<g id="LINE_00000100345643572750043050000012141305728735114634_">
		<line class="st1" x1="1057.05" y1="708.67" x2="1097.64" y2="696.49"/>
	</g>
	<g id="LINE_00000168826597888318535780000017781229035161595275_">
		<line class="st1" x1="1097.64" y1="696.49" x2="1097.64" y2="652.44"/>
	</g>
	<g id="MTEXT_00000110432221650226310530000001875247325593961610_">
		<text transform="matrix(0 -1 1 0 1093.1354 694.8389)" class="st2 st3">100</text>
	</g>
</g>
<g id="DIMENSION_00000060743162665525625490000012403555582573610682_">
	<g id="LINE_00000071538728288381113820000003025507687218536368_">
		<line class="st1" x1="1052.83" y1="689.93" x2="1048.61" y2="689.93"/>
	</g>
	<g id="LINE_00000147930589888026057220000001312406501608432546_">
		<line class="st1" x1="1052.83" y1="240.15" x2="1048.61" y2="240.15"/>
	</g>
	<g id="LINE_00000026132666859034845110000015036800653590622376_">
		<line class="st1" x1="1057.05" y1="689.93" x2="1057.05" y2="240.15"/>
	</g>
	<g id="MTEXT_00000163052613680424871190000013108032529780498076_">
		<text transform="matrix(0 -1 1 0 1052.5419 491.9648)" class="st2 st3">1200</text>
	</g>
</g>
<g id="DIMENSION_00000100344804742766122520000007492535794098042040_">
	<g id="LINE_00000036220126769474750750000008172626532451083937_">
		<line class="st1" x1="1052.83" y1="240.15" x2="1048.61" y2="240.15"/>
	</g>
	<g id="LINE_00000078004926461078757690000013347527795770203525_">
		<line class="st1" x1="1061.26" y1="202.66" x2="1065.48" y2="202.66"/>
	</g>
	<g id="LINE_00000088124668920575296040000013225709433178310840_">
		<line class="st1" x1="1057.05" y1="240.15" x2="1057.05" y2="202.66"/>
	</g>
	<g id="LINE_00000171001261487806163230000005614194915848627889_">
		<line class="st1" x1="1057.05" y1="221.41" x2="1097.64" y2="209.23"/>
	</g>
	<g id="LINE_00000114784738789009229360000009985744646906753957_">
		<line class="st1" x1="1097.64" y1="209.23" x2="1097.64" y2="165.17"/>
	</g>
	<g id="MTEXT_00000043448922921580485650000013283420697119727035_">
		<text transform="matrix(0 -1 1 0 1093.1354 207.5762)" class="st2 st3">100</text>
	</g>
</g>
<g id="DIMENSION_00000112594562963175928910000000687858156957785737_">
	<g id="LINE_00000069375985509421429410000010787875512021038490_">
		<line class="st1" x1="1061.26" y1="202.66" x2="1065.48" y2="202.66"/>
	</g>
	<g id="LINE_00000125572303747792319990000001121810449325655214_">
		<line class="st1" x1="1061.26" y1="127.7" x2="1065.48" y2="127.7"/>
	</g>
	<g id="LINE_00000074438036817517783840000014736399658178915224_">
		<line class="st1" x1="1057.05" y1="202.66" x2="1057.05" y2="127.7"/>
	</g>
	<g id="MTEXT_00000016774303721069468510000002841794166294242212_">
		<text transform="matrix(0 -1 1 0 1052.5419 184.6211)" class="st2 st3">200</text>
	</g>
</g>
<g id="DIMENSION_00000032650120404837517070000012826833051815591063_">
	<g id="LINE_00000130641140098534536230000009675686081478227894_">
		<line class="st1" x1="850.9" y1="900.29" x2="850.9" y2="904.53"/>
	</g>
	<g id="LINE_00000132779284068802991430000017864524159395717311_">
		<line class="st1" x1="888.38" y1="900.29" x2="888.38" y2="904.53"/>
	</g>
	<g id="LINE_00000139285836516849021460000018238651965840316556_">
		<line class="st1" x1="850.9" y1="896.1" x2="888.38" y2="896.1"/>
	</g>
	<g id="LINE_00000103987270505092873630000003843271747581648021_">
		<line class="st1" x1="869.64" y1="896.1" x2="881.82" y2="936.69"/>
	</g>
	<g id="LINE_00000057833165023135696880000005269546730503381675_">
		<line class="st1" x1="881.82" y1="936.69" x2="925.87" y2="936.69"/>
	</g>
	<g id="MTEXT_00000124849787423622103980000013366636492182767259_">
		<text transform="matrix(1 0 0 1 883.4667 932.187)" class="st2 st3">100</text>
	</g>
</g>
<g id="DIMENSION_00000160168965648966997690000010781640395881583014_">
	<g id="LINE_00000162349027127747706050000008528208439406207920_">
		<line class="st1" x1="1151.22" y1="802.37" x2="1155.44" y2="802.37"/>
	</g>
	<g id="LINE_00000179605007570580139450000011487968813100985783_">
		<line class="st1" x1="1151.22" y1="127.7" x2="1155.44" y2="127.7"/>
	</g>
	<g id="LINE_00000064313412680571955630000012723991302817054135_">
		<line class="st1" x1="1147" y1="802.37" x2="1147" y2="127.7"/>
	</g>
	<g id="MTEXT_00000139261701790503079310000002044100094697534126_">
		<text transform="matrix(0 -1 1 0 1142.4978 491.9648)" class="st2 st3">1800</text>
	</g>
</g>
<g>
	<g id="LWPOLYLINE_00000057826844828185782230000005898050460782736291_">
		<polyline class="st0" points="1072.37,1350.72 978.67,1350.72 978.67,1343.22 304,1343.22 304,1350.72 		"/>
	</g>
	<g id="LWPOLYLINE_00000119804147442516702930000008915918303306970533_">
		<polyline class="st0" points="210.29,1350.72 304,1350.72 978.67,1350.72 		"/>
	</g>
	<g id="DIMENSION_00000127762914407717272520000010312203777794538421_">
		<g id="LINE_00000003104192245566650980000000844522157672669625_">
			<line class="st1" x1="304" y1="1440.2" x2="304" y2="1435.99"/>
		</g>
		<g id="LINE_00000152247150308636473040000008186935745272888201_">
			<line class="st1" x1="378.96" y1="1440.2" x2="378.96" y2="1435.99"/>
		</g>
		<g id="LINE_00000044142011658155245610000001864812037818720160_">
			<line class="st1" x1="304" y1="1444.42" x2="378.96" y2="1444.42"/>
		</g>
		<g id="MTEXT_00000015327033005239250660000010259521624184754330_">
			<text transform="matrix(1 0 0 1 322.035 1439.9126)" class="st2 st3">200</text>
		</g>
	</g>
	<g id="DIMENSION_00000047037554748199688230000005973966990315538843_">
		<g id="LINE_00000078046363029250561190000010306782401819540103_">
			<line class="st1" x1="378.96" y1="1440.2" x2="378.96" y2="1435.99"/>
		</g>
		<g id="LINE_00000101071341142160735700000009271851652001472687_">
			<line class="st1" x1="416.44" y1="1440.2" x2="416.44" y2="1435.99"/>
		</g>
		<g id="LINE_00000106147287200141756120000011461089956576429985_">
			<line class="st1" x1="378.96" y1="1444.42" x2="416.44" y2="1444.42"/>
		</g>
		<g id="LINE_00000023979848655088891720000002153807210296936337_">
			<line class="st1" x1="397.7" y1="1444.42" x2="409.88" y2="1403.83"/>
		</g>
		<g id="LINE_00000088130023425060951760000009729849525789446294_">
			<line class="st1" x1="409.88" y1="1403.83" x2="453.93" y2="1403.83"/>
		</g>
		<g id="MTEXT_00000119796030500776422300000005312758085469962939_">
			<text transform="matrix(1 0 0 1 411.5247 1399.3188)" class="st2 st3">100</text>
		</g>
	</g>
	<g id="DIMENSION_00000003799720588567332390000006382104531972072836_">
		<g id="LINE_00000137819250488020319680000006915942044899394182_">
			<line class="st1" x1="416.44" y1="1440.2" x2="416.44" y2="1435.99"/>
		</g>
		<g id="LINE_00000006672657227782058350000002028438254694653098_">
			<line class="st1" x1="866.22" y1="1440.2" x2="866.22" y2="1435.99"/>
		</g>
		<g id="LINE_00000014598428534496583250000014524546579044019083_">
			<line class="st1" x1="416.44" y1="1444.42" x2="866.22" y2="1444.42"/>
		</g>
		<g id="MTEXT_00000036933059776685353360000002174916629671130556_">
			<text transform="matrix(1 0 0 1 614.3986 1439.9126)" class="st2 st3">1200</text>
		</g>
	</g>
	<g id="DIMENSION_00000066504755472168651950000010203367973455472539_">
		<g id="LINE_00000166665714428857771460000003615146118194057133_">
			<line class="st1" x1="866.22" y1="1440.2" x2="866.22" y2="1435.99"/>
		</g>
		<g id="LINE_00000132088003344681538520000015784957570239000977_">
			<line class="st1" x1="903.7" y1="1440.2" x2="903.7" y2="1435.99"/>
		</g>
		<g id="LINE_00000136386092766242524050000005397378736455412111_">
			<line class="st1" x1="866.22" y1="1444.42" x2="903.7" y2="1444.42"/>
		</g>
		<g id="LINE_00000128444532070932168330000007424458517293158591_">
			<line class="st1" x1="884.96" y1="1444.42" x2="897.14" y2="1403.83"/>
		</g>
		<g id="LINE_00000013887252745937239040000000753567947361480370_">
			<line class="st1" x1="897.14" y1="1403.83" x2="941.19" y2="1403.83"/>
		</g>
		<g id="MTEXT_00000055671393514296429930000012699599322102783881_">
			<text transform="matrix(1 0 0 1 898.7868 1399.3188)" class="st2 st3">100</text>
		</g>
	</g>
	<g id="DIMENSION_00000163785814540309450480000000465682625115766962_">
		<g id="LINE_00000030482226246919842310000009492769153411986346_">
			<line class="st1" x1="903.7" y1="1440.2" x2="903.7" y2="1435.99"/>
		</g>
		<g id="LINE_00000129200702032409472090000005104248856444150150_">
			<line class="st1" x1="978.67" y1="1440.2" x2="978.67" y2="1435.99"/>
		</g>
		<g id="LINE_00000025406756616263159030000014508849870707098542_">
			<line class="st1" x1="903.7" y1="1444.42" x2="978.67" y2="1444.42"/>
		</g>
		<g id="MTEXT_00000138545417281136983600000004344458713255374736_">
			<text transform="matrix(1 0 0 1 921.7422 1439.9126)" class="st2 st3">200</text>
		</g>
	</g>
	<g id="DIMENSION_00000093859237943407369700000009154682790949966472_">
		<g id="LINE_00000162336664927591805250000001736124706277748103_">
			<line class="st1" x1="304" y1="1496.43" x2="304" y2="1492.21"/>
		</g>
		<g id="LINE_00000107585669634279418370000014833108944941491363_">
			<line class="st1" x1="978.67" y1="1496.43" x2="978.67" y2="1492.21"/>
		</g>
		<g id="LINE_00000026146992390948201500000011658219649520479374_">
			<line class="st1" x1="304" y1="1500.64" x2="978.67" y2="1500.64"/>
		</g>
		<g id="MTEXT_00000137105990214062060950000015835492291904909193_">
			<text transform="matrix(1 0 0 1 614.3986 1496.1351)" class="st2 st3">1800</text>
		</g>
	</g>
	<g id="DIMENSION_00000035494678963956065130000011347159154396283784_">
		<g id="LINE_00000060715609916506736160000011506794794907340182_">
			<line class="st1" x1="994.13" y1="1350.72" x2="998.34" y2="1350.72"/>
		</g>
		<g id="LINE_00000102520376928468003720000008476727416734261921_">
			<line class="st1" x1="994.13" y1="1343.22" x2="998.34" y2="1343.22"/>
		</g>
		<g id="LINE_00000045597125729168661270000000866613447239949189_">
			<line class="st1" x1="989.91" y1="1350.72" x2="989.91" y2="1367.58"/>
		</g>
		<g id="LINE_00000120519411027247013440000003663465689297838464_">
			<line class="st1" x1="989.91" y1="1343.22" x2="989.91" y2="1326.35"/>
		</g>
		<g id="LINE_00000029749358189876894080000006366739093517783950_">
			<line class="st1" x1="989.91" y1="1346.97" x2="1030.5" y2="1334.79"/>
		</g>
		<g id="LINE_00000094609344579422714320000002967027335684581308_">
			<line class="st1" x1="1030.5" y1="1334.79" x2="1030.5" y2="1301.97"/>
		</g>
		<g id="MTEXT_00000157278434022613779320000004087271082577510559_">
			<text transform="matrix(0 -1 1 0 1025.9956 1331.2598)" class="st2 st3">20</text>
		</g>
		<g id="LINE_00000152957329312289910020000006646743684828964251_">
			<line class="st1" x1="989.91" y1="1350.72" x2="989.91" y2="1343.22"/>
		</g>
		<g id="LINE_00000047039179079487157030000013884384259733484960_">
			<line class="st1" x1="989.91" y1="1350.72" x2="989.91" y2="1343.22"/>
		</g>
	</g>
</g>
</svg>
