<?xml version="1.0" encoding="utf-8"?>
<!-- Generator: Adobe Illustrator 27.0.0, SVG Export Plug-In . SVG Version: 6.00 Build 0)  -->
<svg version="1.1" id="_x30_" xmlns="http://www.w3.org/2000/svg" xmlns:xlink="http://www.w3.org/1999/xlink" x="0px" y="0px"
	 viewBox="0 0 1210.33 1190.67" style="enable-background:new 0 0 1210.33 1190.67;" xml:space="preserve">
<style type="text/css">
	.st0{fill:none;stroke:#FFFFFF;stroke-width:2;stroke-linecap:round;stroke-linejoin:round;stroke-miterlimit:10;}
	.st1{fill:none;stroke:#FFFFFF;stroke-width:0.5;stroke-linecap:round;stroke-linejoin:round;stroke-miterlimit:10;}
	.st2{font-family:'ArialMT'; fill:#FFFFFF}
	.st3{font-size:24.6982px; fill:#FFFFFF}
</style>
<g id="LWPOLYLINE">
	<polyline class="st0" points="1030.18,205.57 1030.18,345.46 634.99,345.46 	"/>
</g>
<g id="LWPOLYLINE_00000067928796651067614610000013768778890414021042_">
	<polygon class="st0" points="435.64,359.45 540.56,359.45 645.48,359.45 645.48,370.64 435.64,370.64 	"/>
</g>
<g id="CIRCLE">
	<circle class="st0" cx="631.49" cy="365.05" r="3.5"/>
</g>
<g id="CIRCLE_00000037664961189727296710000013106193233296343712_">
	<circle class="st0" cx="449.63" cy="365.05" r="3.5"/>
</g>
<g id="LWPOLYLINE_00000111886273817161282190000010103717196490909598_">
	<polygon class="st0" points="435.64,191.58 540.56,191.58 645.48,191.58 645.48,180.39 435.64,180.39 	"/>
</g>
<g id="CIRCLE_00000120546167208534371940000002776205848970957497_">
	<circle class="st0" cx="631.49" cy="185.99" r="3.5"/>
</g>
<g id="CIRCLE_00000158006895822366877330000010541073669536319913_">
	<circle class="st0" cx="449.63" cy="185.99" r="3.5"/>
</g>
<g id="LINE">
	<line class="st0" x1="446.13" y1="359.45" x2="446.13" y2="191.58"/>
</g>
<g id="LINE_00000127006763398416860240000002760289325662845873_">
	<line class="st0" x1="453.13" y1="191.58" x2="453.13" y2="359.45"/>
</g>
<g id="LINE_00000174592345772741926570000013148402274414414778_">
	<line class="st0" x1="627.99" y1="359.45" x2="627.99" y2="191.58"/>
</g>
<g id="LINE_00000155120915370778127680000010160949887529599119_">
	<line class="st0" x1="634.99" y1="191.58" x2="634.99" y2="359.45"/>
</g>
<g id="LWPOLYLINE_00000041274002412121202160000011159894546504617600_">
	<line class="st0" x1="453.13" y1="205.57" x2="627.99" y2="205.57"/>
</g>
<g id="LWPOLYLINE_00000090275781081105841610000003715808068180353430_">
	<line class="st0" x1="634.99" y1="205.57" x2="1030.18" y2="205.57"/>
</g>
<g id="LWPOLYLINE_00000057107042337452107980000013327269960268625305_">
	<polyline class="st0" points="446.13,345.46 50.94,345.46 50.94,205.57 446.13,205.57 	"/>
</g>
<g id="LWPOLYLINE_00000002347070937605552650000001155039060609121932_">
	<line class="st0" x1="627.99" y1="345.46" x2="453.13" y2="345.46"/>
</g>
<g id="LINE_00000150824983860713528960000007209327303354110391_">
	<line class="st0" x1="342.92" y1="964.49" x2="811.56" y2="964.49"/>
</g>
<g id="LINE_00000103254293309213728010000018404984759494738585_">
	<line class="st0" x1="342.92" y1="978.48" x2="811.56" y2="978.48"/>
</g>
<g id="LINE_00000121237650486374321110000017614749478257244807_">
	<line class="st0" x1="664.67" y1="789.63" x2="664.67" y2="964.49"/>
</g>
<g id="LINE_00000015323207042968633610000007409694866823334073_">
	<line class="st0" x1="671.67" y1="789.63" x2="671.67" y2="964.49"/>
</g>
<g id="LINE_00000145018640707894593330000013023134804338062994_">
	<line class="st0" x1="489.81" y1="845.59" x2="489.81" y2="964.49"/>
</g>
<g id="LINE_00000059301556895208352900000017249549479063209376_">
	<line class="st0" x1="482.82" y1="845.59" x2="482.82" y2="964.49"/>
</g>
<g id="LWPOLYLINE_00000092444839270238161470000008745758254616148646_">
	<polyline class="st0" points="447.84,978.48 447.84,964.49 671.67,964.49 706.64,964.49 706.64,978.48 447.84,978.48 	"/>
</g>
<g id="CIRCLE_00000110472123379639874310000011698711319833013668_">
	<circle class="st0" cx="486.31" cy="845.59" r="3.5"/>
</g>
<g id="CIRCLE_00000050623058220151470870000013770684099487965603_">
	<circle class="st1" cx="668.17" cy="789.63" r="3.5"/>
</g>
<g id="LWPOLYLINE_00000121264090668862731780000009823871743383958424_">
	<line class="st0" x1="489.81" y1="863.07" x2="664.67" y2="863.07"/>
</g>
<g id="LWPOLYLINE_00000069383057023778806660000001682567864306193314_">
	<line class="st0" x1="489.81" y1="866.57" x2="664.67" y2="866.57"/>
</g>
<g id="DIMENSION">
	<g id="LINE_00000073685251372237141400000009237342040969576125_">
		<line class="st1" x1="1104.5" y1="345.46" x2="1108.87" y2="345.46"/>
	</g>
	<g id="LINE_00000150076108919662824190000015740895675734211983_">
		<line class="st1" x1="1104.5" y1="205.57" x2="1108.87" y2="205.57"/>
	</g>
	<g id="LINE_00000003073745202190753750000003418318333475870353_">
		<line class="st1" x1="1100.12" y1="345.46" x2="1100.12" y2="205.57"/>
	</g>
	<g id="MTEXT">
		<text transform="matrix(6.123234e-17 -1 1 6.123234e-17 1095.45 295.6725)" class="st2 st3">200</text>
	</g>
</g>
<g id="DIMENSION_00000173841379672670952390000016593975363506349753_">
	<g id="LINE_00000118363761885460585900000007913468822075350432_">
		<line class="st1" x1="1156.95" y1="359.45" x2="1161.33" y2="359.45"/>
	</g>
	<g id="LINE_00000169515808294148966290000009360560178159057844_">
		<line class="st1" x1="1156.95" y1="191.58" x2="1161.33" y2="191.58"/>
	</g>
	<g id="LINE_00000134958579050270000310000003919265621301711024_">
		<line class="st1" x1="1152.58" y1="359.45" x2="1152.58" y2="191.58"/>
	</g>
	<g id="MTEXT_00000168104742813313833470000004855790548203531194_">
		<text transform="matrix(6.123234e-17 -1 1 6.123234e-17 1147.9091 295.6725)" class="st2 st3">240</text>
	</g>
</g>
<g id="DIMENSION_00000181807076550434321330000000599877101876770456_">
	<g id="LINE_00000176038220174974388300000002647433539345744814_">
		<line class="st1" x1="50.94" y1="428.52" x2="50.94" y2="424.15"/>
	</g>
	<g id="LINE_00000000181017685947542340000013399684983764492452_">
		<line class="st1" x1="435.64" y1="428.52" x2="435.64" y2="424.15"/>
	</g>
	<g id="LINE_00000149365103691136074290000013755510604116974487_">
		<line class="st1" x1="50.94" y1="432.9" x2="435.64" y2="432.9"/>
	</g>
	<g id="MTEXT_00000177448783906175072250000009280059670337020815_">
		<text transform="matrix(1 0 0 1 222.9879 428.2272)" class="st2 st3">550</text>
	</g>
</g>
<g id="DIMENSION_00000115476312700865671300000007460065072029219249_">
	<g id="LINE_00000000221643098444144600000016489759706980482747_">
		<line class="st1" x1="453.13" y1="428.52" x2="453.13" y2="424.15"/>
	</g>
	<g id="LINE_00000130616780381116115140000006645224538062893730_">
		<line class="st1" x1="627.99" y1="428.52" x2="627.99" y2="424.15"/>
	</g>
	<g id="LINE_00000160148176588605908180000000994490819522091157_">
		<line class="st1" x1="453.13" y1="432.9" x2="627.99" y2="432.9"/>
	</g>
	<g id="MTEXT_00000142854558984313171470000010233954634867540640_">
		<text transform="matrix(1 0 0 1 520.4047 428.2272)" class="st2 st3">250</text>
	</g>
</g>
<g id="DIMENSION_00000129174962767088689840000004037633663370174116_">
	<g id="LINE_00000134229665574263853680000007747236922948893590_">
		<line class="st1" x1="645.48" y1="428.52" x2="645.48" y2="424.15"/>
	</g>
	<g id="LINE_00000013882254848202422980000010989669402369424575_">
		<line class="st1" x1="1030.18" y1="428.52" x2="1030.18" y2="424.15"/>
	</g>
	<g id="LINE_00000052824464730387769250000013694375107211382662_">
		<line class="st1" x1="645.48" y1="432.9" x2="1030.18" y2="432.9"/>
	</g>
	<g id="MTEXT_00000041295698958151610220000005217713188327269029_">
		<text transform="matrix(1 0 0 1 817.5234 428.2272)" class="st2 st3">550</text>
	</g>
</g>
<g id="DIMENSION_00000018220512968447647910000005500645385027210680_">
	<g id="LINE_00000179622827991099619080000000639492871215314048_">
		<line class="st1" x1="50.94" y1="480.98" x2="50.94" y2="476.61"/>
	</g>
	<g id="LINE_00000033352194941838999730000001409727654808590465_">
		<line class="st1" x1="1030.18" y1="480.98" x2="1030.18" y2="476.61"/>
	</g>
	<g id="LINE_00000147927345627727294470000004891810410657268617_">
		<line class="st1" x1="50.94" y1="485.35" x2="1030.18" y2="485.35"/>
	</g>
	<g id="MTEXT_00000147188892437174468550000011084523519356453280_">
		<text transform="matrix(1 0 0 1 512.6397 480.6863)" class="st2 st3">1400</text>
	</g>
</g>
<g id="LINE_00000044176810556171979230000016786837657350848150_">
	<line class="st1" x1="1344.93" y1="345.46" x2="1344.93" y2="331.47"/>
</g>
<g id="LINE_00000051373752381917758280000013462760145903857308_">
	<line class="st1" x1="916.48" y1="978.48" x2="916.48" y2="786.13"/>
</g>
<g id="LINE_00000126325867374435639210000007629989338625222821_">
	<line class="st1" x1="489.81" y1="740.67" x2="664.67" y2="740.67"/>
</g>
<g id="DIMENSION_00000114764434306988987190000000483843791542166427_">
	<g id="LINE_00000139267910861257502670000013120930976060890301_">
		<line class="st1" x1="489.81" y1="1026.57" x2="489.81" y2="1022.2"/>
	</g>
	<g id="LINE_00000146475096417112178840000009192692220041379209_">
		<line class="st1" x1="664.67" y1="1035.31" x2="664.67" y2="1039.69"/>
	</g>
	<g id="LINE_00000148634678451100698400000013519040558871122581_">
		<line class="st1" x1="489.81" y1="1030.94" x2="664.67" y2="1030.94"/>
	</g>
	<g id="MTEXT_00000058552053839744821850000002579954234340778133_">
		<text transform="matrix(1 0 0 1 557.0888 1026.2743)" class="st2 st3">250</text>
	</g>
</g>
<g id="DIMENSION_00000052818923840942640190000002283676897584528565_">
	<g id="LINE_00000015328778678992655810000001013142165957608886_">
		<line class="st1" x1="447.84" y1="1026.57" x2="447.84" y2="1022.2"/>
	</g>
	<g id="LINE_00000092448354331605146820000015588946931307866525_">
		<line class="st1" x1="489.81" y1="1026.57" x2="489.81" y2="1022.2"/>
	</g>
	<g id="LINE_00000010300722376479810690000018198997203588186240_">
		<line class="st1" x1="447.84" y1="1030.94" x2="489.81" y2="1030.94"/>
	</g>
	<g id="MTEXT_00000169554357957343987990000004910916362969680567_">
		<text transform="matrix(1 0 0 1 455.3651 1026.2743)" class="st2 st3">60</text>
	</g>
</g>
<g id="DIMENSION_00000165939511019418506650000009827031555241875863_">
	<g id="LINE_00000117673947984170638000000012187186879354441148_">
		<line class="st1" x1="664.67" y1="1026.57" x2="664.67" y2="1022.2"/>
	</g>
	<g id="LINE_00000039095896889854466070000011861957496389394072_">
		<line class="st1" x1="706.64" y1="1026.57" x2="706.64" y2="1022.2"/>
	</g>
	<g id="LINE_00000137829870374148197380000007367033947497311150_">
		<line class="st1" x1="664.67" y1="1030.94" x2="706.64" y2="1030.94"/>
	</g>
	<g id="MTEXT_00000135692743652313408140000018219110903946614954_">
		<text transform="matrix(1 0 0 1 672.1956 1026.2743)" class="st2 st3">60</text>
	</g>
</g>
<g id="DIMENSION_00000119803652062653928120000012140238638910488469_">
	<g id="LINE_00000111159638108978185490000007889939974231255458_">
		<line class="st1" x1="447.84" y1="1079.03" x2="447.84" y2="1074.66"/>
	</g>
	<g id="LINE_00000081616920181018626730000016798391157992191649_">
		<line class="st1" x1="706.64" y1="1079.03" x2="706.64" y2="1074.66"/>
	</g>
	<g id="LINE_00000065755266048297151080000003703571010347580803_">
		<line class="st1" x1="447.84" y1="1083.4" x2="706.64" y2="1083.4"/>
	</g>
	<g id="MTEXT_00000105403229530435020020000008088366568813939609_">
		<text transform="matrix(1 0 0 1 556.9338 1078.7213)" class="st2 st3">370</text>
	</g>
</g>
<g id="DIMENSION_00000069377239306917728490000010591791936478609547_">
	<g id="LINE_00000060710316377742452830000009109538170573412234_">
		<line class="st1" x1="312.32" y1="978.48" x2="316.7" y2="978.48"/>
	</g>
	<g id="LINE_00000046315277848483589220000004304741048925213579_">
		<line class="st1" x1="312.32" y1="964.49" x2="316.7" y2="964.49"/>
	</g>
	<g id="LINE_00000099644214919621763380000001311152551547265707_">
		<line class="st1" x1="307.95" y1="978.48" x2="307.95" y2="964.49"/>
	</g>
	<g id="LINE_00000142178392450425827210000008266850473327223730_">
		<line class="st1" x1="307.95" y1="971.49" x2="350.04" y2="958.86"/>
	</g>
	<g id="LINE_00000088846865493935983430000003002566864077119167_">
		<line class="st1" x1="350.04" y1="958.86" x2="350.04" y2="924.83"/>
	</g>
	<g id="MTEXT_00000020394302972296275980000002340849214868235923_">
		<text transform="matrix(6.123234e-17 -1 1 6.123234e-17 345.3664 955.2086)" class="st2 st3">20</text>
	</g>
</g>
<g id="DIMENSION_00000021819883997872343700000016421991017861595269_">
	<g id="LINE_00000107572928940824917800000010290552113863016106_">
		<line class="st1" x1="868.39" y1="842.09" x2="872.76" y2="842.09"/>
	</g>
	<g id="LINE_00000057865075832582240700000009654264826071666824_">
		<line class="st1" x1="868.39" y1="964.49" x2="872.76" y2="964.49"/>
	</g>
	<g id="LINE_00000123400818258354656960000007809416384613794750_">
		<line class="st1" x1="864.02" y1="842.09" x2="864.02" y2="964.49"/>
	</g>
	<g id="MTEXT_00000003086312705830522320000009720924553044380322_">
		<text transform="matrix(6.123234e-17 -1 1 6.123234e-17 859.3472 924.5133)" class="st2 st3">175</text>
	</g>
</g>
<g id="DIMENSION_00000023257524476939049960000013389943902414273205_">
	<g id="LINE_00000151504757727717190510000004900696181199284608_">
		<line class="st1" x1="920.85" y1="786.13" x2="925.22" y2="786.13"/>
	</g>
	<g id="LINE_00000150077196127631560590000006050515254614133162_">
		<line class="st1" x1="920.85" y1="964.49" x2="925.22" y2="964.49"/>
	</g>
	<g id="LINE_00000103247835184561173950000013387024397002040716_">
		<line class="st1" x1="916.48" y1="786.13" x2="916.48" y2="964.49"/>
	</g>
	<g id="MTEXT_00000039123419194668330340000002704832185761209988_">
		<text transform="matrix(6.123234e-17 -1 1 6.123234e-17 911.8062 895.5641)" class="st2 st3">255</text>
	</g>
</g>
<g id="DIMENSION_00000085939193996168102780000001983855990765654191_">
	<g id="LINE_00000119090018974195148990000002171549300781988542_">
		<line class="st1" x1="489.81" y1="745.04" x2="489.81" y2="749.41"/>
	</g>
	<g id="LINE_00000100353024546341920570000014913770070767889070_">
		<line class="st1" x1="664.67" y1="736.3" x2="664.67" y2="731.93"/>
	</g>
	<g id="LINE_00000164492251674957143390000001366326482435076757_">
		<line class="st1" x1="489.81" y1="740.67" x2="664.67" y2="740.67"/>
	</g>
	<g id="MTEXT_00000124141444496514194660000004948725975014757797_">
		<text transform="matrix(1 0 0 1 557.0888 736.001)" class="st2 st3">250</text>
	</g>
</g>
</svg>
