<?xml version="1.0" encoding="UTF-8"?>
<svg xmlns="http://www.w3.org/2000/svg" viewBox="0 0 1080 1080">
  <g id="Layer_1" data-name="Layer 1">
    <g>
      <path d="m592.73,644.89c-4.09,2.3-7.89,4.84-10.86,8.5-3.38,4.16-4.54,8.74-2.01,13.73,1.13,2.24,2.24,4.25-.01,6.46-2.42,2.36-4.75,4.68-8.57,2.9-5.93-2.76-13.1-3.58-17.27,1.03-9.68,10.72-15.89,17.63-27.16,20.74-4.92,1.36-11.52-7.52-11.38-12.66.25-9.14-1.9-17.7-5.1-26.17-2.48-6.55-4.25-13.37-6.63-19.96-4.15-11.49-7.03-23.43-12.84-34.34-2.46-4.61-5.91-6.19-10.63-5.3-6.67,1.26-13.04.31-19.43-1.6-5.15-1.54-10.44-2.63-15.58-4.18-17.73-5.34-34.59-12.39-48.51-25.13-3.98-3.64-8.4-6.72-13.18-9.25-6.14-3.25-12.62-5.59-19.63-5.57-5.41.01-6.95,2.72-4.74,7.62,1.17,2.6,2.76,4.97,4.76,7.01,5.56,5.65,9.78,11.58,9.65,20.29-.1,6.6,4.71,8.94,10.97,6.42,2.08-.84,3.59-.9,5.16.88,3.85,4.36,7.88,8.58,11.73,12.94,9.02,10.21,19.73,17.58,33.09,21.12,7.69,2.03,15.57,2.82,23.29,4.53,2.68.6,4.22,1.94,4.56,4.71,1.94,15.52,7.93,29.96,12.04,44.9.73,2.65,1.09,5.2.44,7.92-2.31,9.57-2.75,19.05.28,28.67,3.36,10.71,9.54,15.69,20.6,14.05,18.72-2.76,30.79-9.77,49.6-9.64,8,.05,20.44-1.91,28.09-4.09,15-4.27,23.89-6.13,23.02-21.73-.08-1.5.1-2.92,1.45-3.45,5.35-2.11,10.03-6.44,16.23-5.81,14,1.43,20.98-11.14,21.23-21.44.11-4.56,1.74-7.12,5.47-9.21,13.61-7.6,24.31-18.18,32.22-31.63,3.05-5.18,7.59-8.92,12.12-12.78.45-.62.89-1.25,1.24-1.93.67-1.32,1.11-2.81,1.26-4.28.13-1.26.11-2.7-.61-3.8-.46-.71-1.17-1.03-1.94-1.14-.57.35-1.22.73-1.95,1.16-3.19,1.88-4.61,1.49-4.79-2.33-.07-1.45-.83-2.58-2.42-2.8-1.52-.21-2.59.54-3.28,1.84-.77,1.45-1.52,2.91-2.22,4.4-3.47,7.33-8.71,12.7-16.52,15.47-12.29,4.38-23.53,10.37-31.29,21.39-1.51,2.14-3.17,2.16-5.37.84,0,0-12.16-4.21-16.98-3.56l-7.58,4.23Zm-81.13,49.36c-4.53,9.55-4.84,19.91-5.67,30.13-.26,3.2-1.34,4.8-4.5,5.56-13.95,3.36-20.37-.81-23.11-15.09-.49-2.52-.59-5.02-.61-8.05-.15-2.36.04-5.2.75-7.95,2.74-10.74-.63-20.75-4.14-30.55-3.6-10.03-6.51-20.15-7.26-30.78-.27-3.8-2.16-5.73-5.62-6.44-6.14-1.26-12.26-2.7-18.45-3.59-16.75-2.4-29.55-11.32-40.41-23.69-3.84-4.37-7.79-8.65-11.75-12.92-2.48-2.67-5-4.39-8.13-.58-1.48,1.81-2.87.99-3.68-.96-.11-.27-.27-.57-.25-.85.59-10.97-7.32-17.43-13.25-24.94-.89-1.12-2.65-2.22-1.79-3.76.99-1.78,2.94-.82,4.48-.53,8.53,1.64,16.22,5.08,22.72,10.92,17.66,15.89,38.76,24.83,61.46,30.74,9.86,2.57,19.63,5.25,29.96,4.22,3.01-.3,4.6,1.3,5.72,3.93,3.17,7.41,5.94,14.97,8.41,22.64,4.2,13.06,8.37,26.12,12.62,39.16,2.26,6.9,1.32,14.23,2.93,21.21.15.66-.11,1.51-.42,2.15Zm76.17-41.88c4.46-2.96,6.22-3,9.94-7.01.92-.99,5.42-2.23,6.61-1.74,3.31,1.36,6.5,1.56,9.74,3.06,2.42,1.12,2.81,2.87,1.08,5.03-1.5,1.87-2.92,3.93-5.46,4.38-7.53,1.32-13.26,5.86-19.02,10.38-1.64,1.28-3.38,2.87-5.6,1.4-2.08-1.37-3.37-3.36-3.24-6.7.62-3.32,2.51-6.51,5.96-8.8Zm43.85,18.42c-.44,6.51-3.54,11.68-9.43,15-1.66.94-4,1.51-5.49.09-1.57-1.5.57-2.92,1.14-4.31,2.11-5.15,4.6-10.08,9.59-13.13,1.07-.65,2.08-2.18,3.51-1.26,1.08.7.56,2.2.68,3.61Zm34.99-39.34c-8.83,13.83-22.26,22.26-35.85,30.46-6.31,3.81-11.54,8.58-14.52,15.35-2.89,6.56-7.6,11.14-14.28,13.34-6.82,2.25-11.34,6.56-14.75,12.8-4.35,7.96-9.07,9.61-17.95,7.46-8.8-2.13-10.94-4.22-12.18-13.06-.51-3.66-.35-7.44-.22-11.16.08-2.33,1.17-4.38,3.51-5.31,2.23-.88,4.95-1.91,6.72.01,1.59,1.73-.75,3.44-1.62,5.07-.68,1.27-2.24,2.81-.96,3.98,1.69,1.54,2.9-.53,3.98-1.59,9.6-9.44,21.2-16.35,31.48-24.93.89-.75,2.04-1.46,3.16-1.64,9.45-1.57,15.5-7.74,20.89-14.97,7.24-9.71,16.41-16.72,28.12-20.48,7.99-2.57,14.85-7.03,19.02-14.72.99-1.82,2.07-2.73,4.23-1.46,2.91,1.71,5.68.35,8.3-1.51.59,2.51-.79,3.5-1.85,4.31-6.4,4.92-10.96,11.37-15.22,18.05Z"/>
      <path d="m600.47,713.54c9.15-.34,18.51.48,26.95-4.42,3.93-2.28,6.54-5.62,7.85-9.9,1.24-4.06,1.01-7.92-2.89-10.57-2.39-1.62-3.84-3.47-4.33-5.72-1.37,1.49-2.88,2.84-4.48,4.07-.52.4-1.06.79-1.6,1.16.28.07.56.27.82.68.69,1.06.17,2.18-.61,3.04-1.11,1.24-2.69,1.68-4.18,2.26-4.07,1.58-7.74,3.69-10.42,7.33-2.1,2.85-5.14,4.53-8.18,6.21-1.5.83-3.28,1.9-2.9,3.88.37,1.91,2.47,2.03,3.97,1.98Zm4.49-4.18c.81-2.35,2.73-2.85,3.69-4.24,3.47-5.06,8.36-7.85,14.25-9.05,2.14-.44,2.76-2.12,3.25-4.03.74-2.86,1.84-3.12,3.98-1.1,1.31,1.23,2.16,2.65,1.9,4.57-.7,5.19-2.88,9.27-7.79,11.76-6.18,3.13-12.63,1.41-19.28,2.09Z"/>
    </g>
  </g>
  <g id="Layer_2" data-name="Layer 2">
    <path d="m397.83,478.22c-.2-.25-.42-.49-.66-.72-1.45-1.37-3.19-2.16-5.03-2.55-1.86-.39-3.8-.61-5.69-.55-1.78.06-3.64.35-5.18,1.42-.7.48-1.3,1.11-1.81,1.84-.16.23-.32.47-.46.73,0,1.12,0,2.25,0,3.64l.02,96.4s-.01,49.19-.02,73.79v16.97c.04,9.13.03,18.27.03,27.4h-.03l-.02,106.45.07,82.69.06,22.13c-.25,5.63.06,183.01-.69,188.63-.27,2.04,1.02,3.01,4.79,2.81,2.26-.12,4.54-.04,6.82-.05,8.45-.02,7.81.36,7.81-4.45,0-151.71,0-427.83,0-616.57Z"/>
    <path d="m688.73,601.85c-.44-.39-.92-.74-1.44-1.01-1.82-.94-3.93-1.28-5.89-1.43-2.09-.15-4.22-.03-6.26.54-1.73.48-3.55,1.33-4.8,2.91,0,.66,0,1.32,0,1.97l.02,77.86s-.01,39.73-.02,59.6v13.7c.04,7.38.03,14.75.03,22.13h-.03l-.02,85.98.06,66.78.06,17.87c-.24,4.55.06,147.81-.67,152.35-.27,1.64,1,2.43,4.68,2.27,2.2-.1,4.44-.04,6.66-.04,8.25-.02,7.63.29,7.63-3.59,0-122.51,0-345.46,0-497.9Z"/>
  </g>
</svg>