<?xml version="1.0" encoding="UTF-8"?>
<svg xmlns="http://www.w3.org/2000/svg" viewBox="0 0 1080 1080">
  <g id="Layer_1" data-name="Layer 1">
    <g>
      <path d="m618.28,592.37c-.14-1.23-.2-3.8-.23-5.04-.02-1.06-1.24-6.75-.07-7.32,1.13-.56,7.39,5.71,8.21,6.39,4.26,3.49,8.22,7.31,12.92,10.31,7.33,4.66,15.39,7.42,23.6,9.8,7.73,2.24,13.59,7.82,20.73,11.04,1.58,5.29,5.56,4.08,9.34,3.47,1.57-.26,2.81-.06,3.75.55-.2-.85-.41-1.69-.47-2.56-.07-1.15.14-2.27.46-3.36-1.46,1.35-3.24,2.17-5.35.36-2.93-2.51-5.7-5.21-8.52-7.85-1.1-1.03-1.35-2.05.18-2.98,1.35-.82,3.53-1.21,3.07-3.33-.45-2.06-2.61-2.36-4.34-2.58-9.9-1.24-16.9-6.97-22.62-14.59-5.27-7.02-12.01-12.07-20.03-15.51-3.04-1.31-6.05-2.7-9.1-3.96-3.14-1.3-5.79-3.28-7.82-5.95-3.72-4.9-8.34-8.79-13.29-12.32-1.27-.9-2.55-1.78-2.85-3.38-1.91-10.13-8.54-17.45-14.91-24.86-6.44-7.49-10.84-15.6-9.57-25.91.21-1.74-.03-3.59-.38-5.33-.34-1.72-.2-3.25.58-4.8,2.16-4.27,2.98-8.86,3.09-13.59.44-18.2.8-36.42-1.1-54.54-1.06-10.16-.89-20.11,1.52-29.95,6.42-26.27,11.83-52.85,23.41-77.56.45-.96,1.09-2.57,1.42-3.59,2.56-7.91,3.87-15.99,2.44-24.21-.93-5.33-5.03-6.84-9.18-3.36-2.61,2.19-4.07,5.24-5.58,8.16-3.04,5.89-7.11,10.11-13.85,11.97-5.92,1.63-7.18,5.5-4.16,10.83,1.21,2.14,1.36,3.68-.39,5.48-4.79,4.95-8.79,10.62-13.45,15.66-10.17,11-13.89,23.48-10.45,38.09.35,1.47.89,3.06-.2,4.38-1.54,1.85-1.06,3.66-.67,5.79,1.14,6.27,3.92,12.67.07,18.9-7.28,11.8-9.5,24.72-7.41,38.15,1.23,7.92-.81,13.92-6.35,19.32-3.04,2.96-4.63,6.87-4.71,11.17-.16,7.79,1.97,15.04,6.12,21.57,1.49,2.35,2.15,4.61,2.19,7.32.13,10.36,1.13,20.61,3.45,30.76,3.87,16.97,13.06,29.57,29.15,36.74,2.33,1.04,3.33,2.63,3.59,5.03.67,6.3-.68,11.97-4.47,17.15-5.51,7.54-5.31,16.64.28,24.14,6.41,8.61,15.22,11.91,24.16,8.56,6.18-2.32,6.19-3.68,11.49-7.64,1.98-1.48,4.75-4.62,5.44-7,.28-.95.86-2.73.95-3.44l-.06-4.59Zm-3.15,2.65c-.14,4.5-.6,3-2.13,6.53-2.24,5.21-6.74,7.65-11.99,9.8-6.81,2.79-12.91,2.33-18.01-3.48-3.45-2.56-5.5-6.11-6.91-10.07-1.44-4.01-1.25-7.66,1.62-11.22,4.44-5.51,6.86-11.88,6.55-19.1-.07-1.57,0-3.13,1.66-3.9,1.76-.82,3.19,0,4.49,1.17,1.54,1.38,3.04,2.81,4.65,4.1,3.45,2.79,5.44,5.28,9.99,6.26,9.02,1.94,8.59,3.27,10.09,11.45.34,1.85.06,6.6,0,8.45Zm-43.66-66.04c3.99-2.22,8.12-4.11,12.76-4.48,1.8-.14,3.73-.24,4.93,1.41,1.19,1.63,3.15,3.45,2.13,5.47-1.01,1.99-3.22.41-4.9.27-.68-.05-1.35-.26-2.04-.34-.82-.09-1.78-.2-2.17.7-.53,1.22.47,1.78,1.35,2.15,9.17,3.85,16.08,11,24.12,16.5,4.1,2.8,7.74,6.16,10.79,10.17,2.62,3.45,5.89,6.16,10.09,7.6,12.28,4.24,22.79,10.82,30.09,21.98,3.44,5.26,8.78,8.3,14.64,10.25,2.65.88,4.72,1.65,3.49,5.06-.61,1.69,1.2,2.64,1.88,5.38-8.7-6.69-18.41-8.28-27.25-11.98-8.66-3.63-16.28-9.28-23.1-15.75-6.73-6.39-13.92-11.58-23.39-13.06-4.39-.69-7.58-3.9-10.53-6.98-4.99-5.21-10.73-8.69-17.82-10.55-8.62-2.25-12.68-12.24-8.98-20.31.82-1.8,2.37-2.64,3.92-3.49Zm15.49-229.98c7.87-2.14,11.59-8.38,15.54-14.53,1.24-1.93,2.31-5.18,4.56-4.68,2.68.6,1.57,4,1.57,6.16,0,7.54-1.62,14.88-4.97,21.56-9.39,18.68-12.58,39.26-18.48,59.01-2.28,7.64-2.51,16.05-5.21,23.28-2.88,7.72-.99,14.51-.31,21.64,2.01,21.06,1.28,42.11.57,63.17-.04,1.22-.47,2.43-.71,3.64-.61,3.05-2.15,4.06-5.33,3.07-5.81-1.81-11.76-2.92-17.91-2.66-3.08.13-6.06.5-8.57,2.49-1.83,1.44-3.09,1.3-4.09-1.02-2.27-5.27-3.33-10.78-3.53-16.46-.12-3.42,1.65-6.14,4.05-8.29,6.91-6.2,9.34-13.68,7.01-22.7-.17-.66-.16-1.37-.25-2.05-1.49-11.14-.1-21.83,6.14-31.34,3.8-5.79,4.42-11.67,2.72-18.12-.54-2.05-1.62-4.16.8-5.99.92-.69.2-2.07.01-3.14-.72-4.07-1.42-8.14-2.12-12.21-1.61-9.28.71-17.41,6.86-24.56,4.3-5.01,8.12-10.43,12.81-15.12,2.51-2.74,4.99-5.51,7.53-8.23,2.09-2.24,1.99-4.15-.22-6.4-3.84-3.9-3.65-5.11,1.53-6.52Z"/>
      <path d="m564.24,560.74c-4.82,8.24-10.78,16-11.19,26.16-.19,4.73,1.28,8.89,4.31,12.44,2.87,3.36,6.4,5.32,10.91,3.37,2.76-1.19,5.2-1.44,7.45-.6-.54-2.03-.89-4.12-1.07-6.22-.06-.68-.1-1.37-.13-2.05-.22.21-.55.34-1.06.34-1.32.01-2.01-1.07-2.33-2.24-.47-1.67.03-3.31.35-4.94.89-4.47,1.08-8.87-.62-13.26-1.33-3.44-1.11-7.05-.89-10.66.11-1.78.16-3.95-1.78-4.72-1.89-.75-3.17,1.04-3.96,2.38Zm1.17,6.28c1.61,2.03.98,4,1.66,5.61,2.51,5.89,2.23,11.74-.01,17.6-.81,2.13.32,3.62,1.72,5.11,2.1,2.25,1.72,3.36-1.26,4.12-1.81.46-3.54.41-5.08-.89-4.17-3.53-6.54-7.72-5.98-13.43.7-7.19,5.83-11.89,8.95-18.12Z"/>
      <path d="m585,570.63c.5,1.27.67,2.64,1.29,3.83,2.49,4.82,6.58,6.5,3.45,8.01-1.62.78-1.6,3.81,1.71,7.02,1.78,1.72,1.69,3.32,1.61,5.08-.42,8.66,1.74,12.08,8.88,14.17,1.25.37,2.56.9,3.58.49-.37.47-.76.91-1.18,1.3-.59.55-1.24,1-1.99,1.27-.52.19-1,.47-1.49.73-.55.29-1.11.58-1.73.73-.22.05-.44.08-.68.08.05-.15.08-.34.09-.57.02-2.84-3.56-4.02-5.48-6.23-2.62-3.02-4.17-5.98-3.51-9.03.55-2.56.21-4.32-2.71-6.97-3.86-3.51-4.6-6.9-2.45-9.23.38-.41.85-.7,1.21-1.14,1.25-1.49-.88-1.8-3.12-5.37-.76-1.21-1.35-1.62-1.85-1.65.14-.17,3.27-2.11,3.42-2.27.25-.26-2.48,1.26-2.21,1.03.23-.2.47-.36.65-.63.57-.82.88-2.52,2.01-2.38.03.37.19.93.5,1.72Z"/>
    </g>
  </g>
  <g id="Layer_2" data-name="Layer 2">
    <path d="m405.88,477.14c-.2-.25-.42-.49-.66-.72-1.45-1.37-3.19-2.16-5.03-2.55-1.86-.39-3.8-.61-5.69-.55-1.78.06-3.64.35-5.18,1.42-.7.48-1.3,1.11-1.81,1.84-.16.23-.32.47-.46.73,0,1.12,0,2.25,0,3.64l.02,96.4s-.01,49.19-.02,73.79v16.97c.04,9.13.03,18.27.03,27.4h-.03l-.02,106.45.07,82.69.06,22.13c-.25,5.63.06,183.01-.69,188.63-.27,2.04,1.02,3.01,4.79,2.81,2.26-.12,4.54-.04,6.82-.05,8.45-.02,7.81.36,7.81-4.45,0-151.71,0-427.83,0-616.57Z"/>
    <path d="m696.78,600.76c-.44-.39-.92-.74-1.44-1.01-1.82-.94-3.93-1.28-5.89-1.43-2.09-.15-4.22-.03-6.26.54-1.73.48-3.55,1.33-4.8,2.91,0,.66,0,1.32,0,1.97l.02,77.86s-.01,39.73-.02,59.6v13.7c.04,7.38.03,14.75.03,22.13h-.03l-.02,85.98.06,66.78.06,17.87c-.24,4.55.06,147.81-.67,152.35-.27,1.64,1,2.43,4.68,2.27,2.2-.1,4.44-.04,6.66-.04,8.25-.02,7.63.29,7.63-3.59,0-122.51,0-345.46,0-497.9Z"/>
  </g>
</svg>