<?xml version="1.0" encoding="UTF-8"?>
<svg id="Layer_1" data-name="Layer 1" xmlns="http://www.w3.org/2000/svg" viewBox="0 0 1080 1080">
  <path d="m2155.1,1063.17l-6511.13.55c-4.14,6.76,3.4,13.52,0,20.28,2729.98,0,5498.17,0,6480.64,0,10.27,0,20.55-.04,30.82-.05,15.36,0,22.4-1.11,22.45-3.22.12-4.9.35-9.79.46-14.69.05-2.18-7.42-3.05-23.26-2.88Z"/>
  <g>
    <path d="m667,378.97c-2.32-3.58-5.01-6.9-7.66-10.24-2.58-3.27-5.29-6.37-8.76-8.74-1.91-1.3-4.02-2.43-5.8-3.91-.31.04-.66.04-1.05,0-11.64-1.32-23.77,1.56-34.94-2.96-10.56-4.27-21.43-6.87-32.53-8.99-2.62-.5-5.9-.23-7.52-3.06.67-1.84,2.02-1.77,3.19-1.91,10.15-1.21,19.63-4.08,27.93-10.36,13.83-10.47,25.87-22.53,34.26-37.82,4.95-9.04,10.88-16.88,21.13-20.36,3.6-1.22,5.02-3.92,4.77-7.38-1.03-14.25,5.42-26.59,9.72-39.52,1.57-4.72,7.09-10.59,1.52-14.59-5.6-4.02-10.33,2.04-14.47,5.58-15.45,13.2-30.13,27.36-46.23,39.7-21.43,16.43-46.73,26.83-69.22,41.73-2.94,1.95-5.97,1.24-9.14.11-9.11-3.24-19.94,1.24-24.17,9.88-1.42,2.9-2.55,5.94-3.96,9.25-3.19-3.03-2.09-8.33-7.39-9.07-6.8-.95-19.9,5.84-20.62,12.57-1.51,14.04-2.7,27.87,10.01,39.2,11.58,10.32,23.39,20.07,36.66,28.07,4.87,2.94,6.19,5.54,1.05,9.82-7.81,6.5-12.16,15.16-13.91,25.15-.67,3.84-1.33,7.76-2.67,11.39-2.49,6.72-8.61,4.03-13.39,4.41-4.14.32-5.11-2.72-5.78-6.14-2.4-12.27-6.77-16.14-19.09-18.91-9.21-2.07-18.02,0-26.98,1.2-3.13.42-5.33.57-6.96.27-1.92.1-3.85.21-5.77.4-1.55.15-3.13.39-4.57,1.02-1.62.71-2.74,1.89-3.62,3.41-.07.12-.13.25-.2.38-.99,3.1-2.38,6.15-4.21,9.16-3.14,5.17-5.25,11.04-7.3,16.78-1.38,3.85-1.77,6.35-2.8,8.71,0,.22-.15,1.96-.15,2.18.09,10.49-.69,20.07,1.68,30.33.4.39.79.8,1.12,1.24,5.27,7.04,11.98,12.22,19.84,15.96,15.88,7.55,27.63,5.54,40.16-6.74,4.02-3.94,7.98-7.92,12.74-11.05,5.93-3.91,11.38-5.55,16.84.88,1.49,1.75,4,2.85,6.25,3.73,25.11,9.84,49.75,7.43,73.16-4.74,11.45-5.95,21.83-14.05,32.28-21.73,6.69-4.92,12.85-10.72,17.57-17.62,2.92-4.27,6.59-6.95,11.27-8.9,22.38-9.31,32.82-23.86,32.84-46.08-.01-.06-.03-.13-.04-.19-.96-4.16-2.76-7.92-5.08-11.49Zm-199.64,109.73c-15.5,15.01-37.77,14.03-51.63-2.7-6.9-8.33-5.33-18.26-3.68-27.4,2.21-12.23,6.81-23.92,12.83-34.94,1.93-3.54,4.03-5.39,8.75-4.28,5.95,1.4,12.19.64,18.27-.37,7.42-1.24,14.7-.62,21.71,2.01,7.43,2.78,9.44,7.88,6.32,15.14-3.37,7.83-2.35,9.18,6.44,8.55.73-.05,1.46-.14,2.2-.22,12.99-1.4,13.85-.75,11.83,11.56-1.07,6.52.34,12.56,2.4,20.12-15.87-4.93-25.98,3.37-35.45,12.54Zm76.36-186.7c15.6-9.67,31.44-19.03,47.64-27.66,22.86-12.17,40.42-30.75,59.77-47.19,2.8-2.38,5.56-4.79,8.41-7.1,1.28-1.04,2.7-2.87,4.43-1.75,1.93,1.26.19,3.06-.24,4.59-2.66,9.38-7.44,18.08-9.04,27.8-.24,1.44-.78,2.91-.67,4.32.53,6.6-1.9,10.54-8.35,13.51-8.08,3.72-11.79,12.16-16.29,19.38-8.65,13.88-19.74,25.47-32.64,35.41-7.02,5.41-15.08,8.07-23.94,8.08-5.23,0-10.15,1.53-14.76,2.57-3.77.02-6.66-1.4-9.21-3.3-2.54-1.89-4.81-4.15-7.16-6.29-12.21-11.17-12.26-13.5,2.05-22.37Zm-29.18,71.23c-10.85-6.71-20.57-14.99-28.52-25.11-6.43-8.18-5.66-12.37,3.17-17.43,19.72-11.31,20.27-11.28,31.53,8.03,8.34,14.31,14.44,30.08,27.64,41.15,1.26,1.06,2.66,2.62,1.32,4.43-1.36,1.82-3.59,1.09-6.83,1.39-9.11-2.88-19.19-6.82-28.31-12.46Zm58.73,19.53c-2.66,7.37-4.64,14.83-5.63,22.67-1.26,9.94-6.22,18.42-12.83,25.93-1.62,1.83-3.19,3.71-4.67,5.65-.87,1.14-1.89,2.53-.65,3.93,1.24,1.4,2.67.45,4.03-.08,9.79-3.85,11.07-2.69,11.86,7.99.89,11.97-2.76,18.6-22.06,19.33-7.65.17-12.68-.7-17.6-2.43-13.79-4.83-18.78-16.5-12.57-29.87,2.61-5.62,6.44-9.87,13.28-10,4.38-.09,5.83-2.43,5.9-6.6.26-16.31,5.28-29.98,20.44-38.83,6.77-3.96,7.05-8.15,1.16-13.61-13.08-12.12-20.6-27.82-29.13-42.89-2.68-4.72-5.92-8.94-9.22-13.21-6.93-8.97-3.81-16.63,7.2-18.47,2.8-.47,4.77.07,4.24,3.04-2.94,16.5,8.74,23.95,19.96,30.93,6.88,4.28,11.36,9.53,14.43,16.79,2.65,6.29,5.77,12.5,9.56,18.16,4.7,7.01,5.04,14.03,2.31,21.58Zm92.21,1.33c-.13,16.45-13.81,33.4-29.98,37.58-4.84,1.25-8.45-.42-10.94-3.97-9.84-14.03-22.77-23.33-39.65-27.1-3.02-.67-5.76-2.47-4.84-6.17,3.53-14.08-2.05-25.83-9.06-37.35-1.15-1.89-3.82-4-1.69-6.46,1.69-1.95,4.15-.24,6.26.07,10,1.47,19.71,3.98,28.92,8.17,9.74,4.44,20.2,4.44,30.4,3.65,17.65-1.35,31.06,16.15,30.57,31.57Z"/>
    <path d="m474.97,530.42c.01-3-2.9-4.08-5.33-4.88-4.91-1.62-9.84-3.25-13.7-6.84-4.94-4.59-10.89-6.67-17.3-7.86-2.34-.43-4.78-.65-6.75-2.16-1.38-1.05-2.45-2.54-1.73-4.29.27-.67.62-1.04,1.01-1.22-.9-.4-1.79-.82-2.66-1.26-2.69-1.36-5.28-2.93-7.7-4.73-.09,3.44-1.7,6.54-4.76,9.58-4.98,4.96-4.26,10.69-1.32,16.29,3.1,5.91,7.85,10.08,14.24,12.34,13.73,4.85,27.21,1.06,40.73-.98,2.2-.33,5.26-1.09,5.27-3.99Zm-41.84,1.38c-7.89-2.29-12.21-7.66-14.68-15.08-.91-2.75-.06-5.06,1.52-7.23,2.58-3.55,4.27-3.48,6.14.51,1.25,2.66,2.62,4.95,5.89,5,8.98.14,16.91,2.87,23.4,9.33,1.78,1.77,4.73,1.97,6.58,5.19-9.94.85-18.91,5.16-28.84,2.28Z"/>
    <path d="m481.01,478.44c-2.14-.77-6.87,2.7-8.88,1.78-8.18-3.75-11.56-9.81-13.49-5.23-1,2.38-5.89,2.3-11.6-2.65-3.06-2.66-5.64-2.55-8.45-2.46-13.91.46-19.77-2.78-24.32-13.34-.8-1.85-1.87-3.8-1.38-5.28-.7.54-1.35,1.1-1.91,1.71-.79.86-1.41,1.82-1.72,2.91-.22.77-.59,1.47-.93,2.18-.38.8-.76,1.62-.89,2.53-.05.32-.06.65-.02,1.01.24-.08.54-.12.91-.12,4.58.02,7.07,5.33,10.95,8.19,5.3,3.91,10.33,6.25,15.14,5.34,4.03-.77,6.93-.23,11.68,4.12,6.29,5.75,11.88,6.91,15.29,3.77.6-.56.99-1.24,1.64-1.77,2.2-1.81,3.05,1.34,9.18,4.7,2.08,1.14,2.14-2.2,2.27-1.45.26-.2,3.76-2.88,3.99-3.1"/>
  </g>
</svg>