<?xml version="1.0" encoding="UTF-8"?>
<svg id="Layer_1" data-name="Layer 1" xmlns="http://www.w3.org/2000/svg" viewBox="0 0 1080 1080">
  <path d="m574.97,735.31c14.83-.01,29.52,2.72,43.39,7.97.16.06.33.12.49.19,13.59,5.11,23.83,16.53,27.43,24.3l1.87,7.32c.94,10.64,2.98,36.77,2.98,36.77-3.57,3.06-6.64-6.13-6.64-6.13l-3.06-24c-3.57-33.19-53.11-32.68-53.11-32.68l-137.36,4.09c-8.11-4.32-11.33-18.89-1.46-17.77,3.78.43,7.65.06,11.47.06l114-.1Z"/>
  <path d="m569.52,867.73c.09-35.43-.43-84.17-3.16-122-.03-.39-.03-.77-.01-1.14-20.39-1.26-40.81-2.13-61.23-2.7l1.93,12.95c-.09,97.27-.08,194.53-.37,291.8-.03,10.32,1.23,17.86,16.21,17.98h31.4c2.88,0,5.66-.88,7.89-2.49.04-.03.07-.05.11-.08,2.41-1.75,3.98-4.26,4.38-6.98l1.1-7.61c.04-.3.07-.6.09-.9,3.26-59.6,1.53-119.22,1.67-178.82Z"/>
  <path d="m678.36,81.59c.82-2.32,1.38-4.96-.89-6.77-1.97-1.58-4.15-.54-6.01.5-1.77.98-3.44,2.13-4.99,3.44-10.34,8.75-17.53,19.58-21.58,32.45-3.46,10.98-8.82,21.14-13.73,31.5-14.38,30.37-36.37,56.11-52.47,85.41-14.97,27.24-32.11,53.02-50.88,77.76-9.47,12.48-18.37,25.29-25.28,39.37-3,6.12-4.66,13.24-8.82,18.4-12.67,15.72-15.06,34.45-18.16,53.26-2.98,18.11-1.52,36.54-4.46,54.58-2.17,13.25-4.57,26.32-2.97,39.89,1.17,9.88,4.64,17.9,13.84,22.57,4.27,2.17,6.51,5.2,7.3,10.08,5.93,36.57,13.27,72.89,22.11,108.84,5.11,20.8,5.1,42.04,8.45,62.94.11.71.19,1.4.22,2.05.12,2.67,1.11,5.22,2.61,7.44.04.06.08.11.11.17,1.35,2.02,2.54,4.14,4,6.08,1.29,1.71,2.83,3.24,4.68,4.33,2.4,1.42,5.11,2.02,7.84,2.39,3.27.45,6.65.49,9.86-.39,2.63-.73,6.01-2.18,7.02-4.97.84-2.31-.62-4.47-2.46-5.78-1.83-1.3-3.98-2.14-5.97-3.15-1.83-.93-3.69-2-5.01-3.6-.29-.35-.53-.72-.75-1.1-1.45-1.89-1.37-5.24-.97-11.73,1.33-22.01,0-43.89-3.54-65.51-2.25-13.75-4.27-27.42-4.62-41.33-.3-11.98-.26-11.98,11.82-10.16,24.24,3.67,36.05-6.11,34.48-28.43-.5-7.07-3.92-11.54-11.01-12.44-4.34-.55-6.83-2.02-6.65-6.77.26-6.92-3.91-7.43-9.26-6.09-4.26,1.07-8.54,2.08-12.82,3.08-5.94,1.4-6.42-1.98-5.01-6.18,1.91-5.72,7.05-8.62,11.69-11.72,12.33-8.26,34.81-4.11,41.87,7.98,4.77,8.17,5.17,17.19,2.44,26.19-2.57,8.44-6.64,16.27-10.97,23.91-2.64,4.67-8.94-2.07-7.36,2.76.67,2.04-6.4,3.99-3.48,3.28,2.59-.63,6.02,1.71,7.65.88,5.52-2.81,7.48-4.2,10.01-9.15,2.88-5.64,5.62-11.4,7.83-17.33,5.66-15.2,4.27-29.42-7.93-41.08-4.85-4.64-5.07-8.59-1.69-13.98,3.32-5.3,5.09-11.08,1.9-17.33-6.48-12.67-21.05-19.74-35.06-16.96-6.32,1.25-12,4.13-17.84,6.64-7.35,3.16-8.97,2.22-8.53-5.49.76-13.46,4.48-26.39,7.65-39.41.67-2.76,2.6-4.73,5.18-5.84,17.52-7.58,20.83-23.18,22.53-39.63.51-4.92.08-9.79-3.13-13.95-3.84-4.98-3.34-10.27-1.78-15.98,2.54-9.26,7.58-17.44,10.84-26.37,10.86-29.78,25.38-57.48,46.07-81.84,8.39-9.88,15.03-21.04,19.96-33.13,8.29-20.32,16.8-40.55,24.91-60.95,2.33-5.86,5.46-9.74,11.91-11.58,7.68-2.18,9.42-6.44,7.18-14.01-1.45-4.91-2.96-9.81-4.64-14.64-2.11-6.05-1.96-11.83.75-17.75,2.33-5.07,4.14-10.39,6.01-15.66Zm-144.53,479.99c.02-16.31.2-16.51,16.6-18.53,2.37-.29,5.13-.39,3.5,3.09-3.18,6.78,1.65,7.02,6.01,8.38,4.24,1.33,10.05-1.98,12.73,3.21,2.69,5.2.96,11-.12,16.43-1.2,6-4.67,10.09-11.28,10.61-.24.02-.48.08-.72.13-20.18,3.95-26.8-1.28-26.71-21.13,0-.73,0-1.46,0-2.19Zm36.63-50.89c-1.82,4.55-6.51,1.18-9.55,2.21-6.12-.81-11.45,1-16.43,3.71-4.19,2.29-7.06,2.18-7.77-3.15-.54-4.07-5.67-8.43-3.16-11.14,2.46-2.66,7.55,1.31,11.56,1.98,4.99.83,9.73-.2,14.47-1.5,2.4-.66,4.86-1.45,6.92.55,2.09,2.03,5.05,4.61,3.96,7.32Zm-38.31-25.92c8.02-4.12,15.76-9.2,25.72-7.92,10.28-1.84,16.71,4.49,22.72,11.59,2.83,3.35,3.08,7.13,1.15,10.94-1.19,2.35-2.1,5.58-4.8,6.14-3.36.69-2.73-3.33-4.2-5.01-3.56-4.07-8.05-4.57-12.72-2.86-9.77,3.58-18.78.96-27.68-2.89-2.23-.96-4.64-2.2-4.85-5.01-.23-3.1,2.55-3.88,4.66-4.96Zm-5.35,46.98c.71,13.33,2.02,26.58,1.03,40.11-1.69,23.07-.49,46.04,4.12,69.07,4.48,22.4,5.1,45.51,3.63,68.46-.81,12.59,1.2,15.94,14.02,20.17-4.06,5.64-8.9,4.17-13.61,3.14-5.9-1.28-8.47-5.72-9.37-10.98-1.71-10.08-3.77-20.22-4.2-30.39-1.04-24.59-8.5-47.89-13.23-71.74-5.59-28.18-11.02-56.39-16.42-84.61-.5-2.61-.27-5.35-.47-8.03-.41-5.26.9-9.69,5.82-12.45,5.53-3.1,11.38-3.64,16.79-.36,6.54,3.95,11.47,9.95,11.88,17.6Zm140.76-436.1c-3.37,8.16-2.98,16.12.3,24.15,1.01,2.47,1.54,5.14,2.53,7.62,2.67,6.67,1.72,10.87-6.46,12.35-6.17,1.12-8.52,6.83-10.69,12.07-7.1,17.1-14.69,34.03-21.07,51.39-6.57,17.88-15.92,33.98-28.06,48.48-20.36,24.32-32.64,52.92-45.01,81.63-6.22,14.42-10.23,29.42-14.81,44.29-2.1,6.83-5.79,12.32-11.01,16.89-8.3,7.27-17.05,8.83-24.96,4.69-7.85-4.1-11.57-12.35-10.53-23.1,1.4-14.48,8.19-26.92,15.15-39.23,11.93-21.09,28.28-39.12,41.67-59.23,8.53-12.81,16.57-25.88,23.87-39.4,10.22-18.94,22.84-36.32,34.75-54.16,16.05-24.05,29.09-49.56,38.56-76.91,3.3-9.54,8.97-17.64,18.91-24.14.15,5.59-1.69,9.1-3.13,12.59Z"/>
  <path d="m644.52,1071.36c.27-5.67.78-11.34,1.74-16.94.25-1.45-.91-2.77-2.38-2.71-85.2,3.11-186.5,7.23-210.27,1.21l-3.46,2.48c-.52,8.43-.81,16.88-1.4,25.31-.02.34-.05.68-.08,1.03l213.29.13c1.28,0,2.32-1.03,2.34-2.31.04-2.73.1-5.47.23-8.2Z"/>
</svg>