<?xml version="1.0" encoding="UTF-8"?>
<svg xmlns="http://www.w3.org/2000/svg" viewBox="0 0 1080 1080">
  <g id="Layer_1" data-name="Layer 1">
    <path d="m167.72,747.64c.07,1.38-7.14,3.46-8.28,3.67-3.16.58-3.6,2.11-5.51,3.65-2.02,1.63-4.77,16.05-.12,25.9.87,1.84,15.38,1.77,10.77,9.19-5.04,8.12-13.36,9.3-16.01,23.72-1.73,9.42-.93,18.98,0,28.47,1.42,14.5.61,29.23,4.37,43.5.69,2.62,1.28,5.46,1.02,8.12-1.53,15.81,2.32,31.09,4.16,46.58.96,8.14,3.06,16.12,2.86,24.43-.44,18.43,2.28,36.64,4,54.93.94,10.02.52,20.07.18,30.11,0,.24-.03.47-.05.69.06.06.11.15.09.26-.07.51-.21,1-.39,1.48-.79,2.03-2.33,3.75-4.02,5.08-.73.58-1.52,1.13-2.36,1.54-.63.31-1.3.51-1.96.71-1.39.4-2.92.69-4.14,1.52-.51.35-.92.83-1.06,1.44-.15.66.01,1.39.26,2.01,1.02,2.59,4.2,2.87,6.6,2.74,2.96-.17,5.87-.96,8.69-1.82,1.64-.5,3.28-1.01,4.87-1.67,2.36-.98,4.63-2.2,6.73-3.65.2-.14.5.1.42.32-.74,2.12-2.94,3.26-4.4,4.83-.76.82-1.29,1.86-1.77,2.87-.56,1.17-1.01,2.39-1.44,3.61-.63,1.81-1.02,3.75-.61,5.66.19.91.57,1.74,1.09,2.47h8.43c.55-1.14,1.48-2.16,2.32-3.07.61-.67,1.24-1.32,1.84-2,.61-.69,1.07-1.46,1.58-2.23.96-1.46,2.04-2.86,3.34-4.05,1.2-1.1,2.56-1.93,3.96-2.74,2.09-1.21,4.6-2.41,5.79-4.63.63-1.18.74-2.53.6-3.83-.17-1.57-.66-3.11-1.13-4.62-1.23-1.45-1.62-3.62-1.73-6.48-.3-7.97.65-15.88,1.24-23.81.98-13.24,2.56-26.48-1-39.66-5.7-21.09-5.1-42.53-3.39-64.08.94-11.84,4.73-23.4,2.09-35.66-1.78-8.28-1.95-16.69-8.73-23.13-3.1-2.95-3.58-7.42-2.69-11.76,1.19-5.78,3.03-11.34,5.99-16.46,2.28-3.96,3.32-8.24,2.96-12.76-.87-10.89-.91-21.92-5.53-32.18-1.37-3.04-.86-5.78,1.26-8.71,4.62-6.38,8.97-13.06,4.96-21.57-.39-.84-.11-1.52.89-1.74,2.24-.49,6.39,2.45,6.02,4.75-1.72,10.82,4.88,19.79,6.3,29.88.18,1.28.73,2.62,2.36,2.7,1.51.07,1.91-1.28,2.3-2.31,2.51-6.69,5.01-13.39,7.35-20.14.86-2.47.79-5.14.73-7.76-.27-12.82-10.9-19.54-22.26-14.06-6,2.89-14.01-2.16-13.43-8.91,1.02-11.95-.6-23.6-2.2-35.39-1.79-13.15-6.68-25.74-6.56-39.2.01-1.64-.56-3.35-1.58-4.77-.63-.88-1.36-1.68-2.56-1.34-1.03.29-1.17,1.23-1.35,2.17-.46,2.43-1.04,4.83-1.5,7.26-.2,1.07-.44,2.35-1.59,2.43-6.02.46-4.21,4.4-3.3,7.65,2.53,8.99,3.96,18.1,3.05,27.43-.98,10.04-.87,20.05.12,30.07.23,2.33.56,4.65.75,6.99m32.45,7.75c7.5-3.97,15.89.89,16.58,9.47.53,6.63-.17,12.93-3.27,18.95-1.34,2.6-2.01,5.56-2.98,8.35-.33,0-.65,0-.98,0-.57-5.4-2.59-10.27-4.78-15.12-1.48-3.28-1.23-6.91-.58-10.39.7-3.77-.32-6.39-4.08-7.66-.83-.28-1.93-.42-1.97-1.57-.05-1.32,1.21-1.57,2.07-2.03Zm-15.78.69c.06-2.27,1.19-2.86,2.99-1.6,1.88,1.32,3.68,2.6,3.45,5.58-.25,3.1,2.41,5.78,1.93,8.49.18,5.2-2.64,8.64-4.73,12.33-.79,1.4-1.93.74-1.92-.68,0-8.09-1.93-16.03-1.71-24.13Zm-16.34,48.72c.63-6.87,1.73-13.78,1.45-20.63-.38-9.26.19-18.28,1.2-27.48,1.18-10.7-1.88-21.42-1.72-32.11.1-7.16.48-14.32.73-21.48.11-3.14-.08-6.26-.76-9.33-.69-3.1-1.43-6.06,1.67-8.53,1.13-.9.8-2.75.41-4.11-.85-2.98-.38-5.84.19-8.41,3.31,14.68,7.88,29.35,9.37,44.66.81,8.3,1.43,16.53.67,24.94-.97,10.79.82,21.57,1.56,32.36.63,9.28,2.21,18.29,5.36,27.09,1.74,4.87-.06,9.63-2.66,13.78-3.19,5.11-11.93,4.81-15.17-.27-2.05-3.21-2.64-6.69-2.3-10.47Zm-12.94-26c-.71-3.02.46-10.54.35-13.65-.13-3.88,8.95-9.32,12.58-8.31.57.16-.49,7.8-.43,8.22.9,6.59-1.13,11.45-.63,18.06.51,3.95-1.01,3.62-4.72,2.95-7.25-1.31-5.45-.14-7.14-7.28Zm21.47,285.66c-5.93,2.96-11.68,6.28-18.61,6-1.07-.04-2.63.49-2.94-1.07-.23-1.15,1.1-1.63,1.95-2.18.87-.57,1.74-1.2,2.69-1.55,7.67-2.77,9.25-8.96,9.39-16.23.32-15.68-1.08-31.22-3.24-46.73-.72-5.15-1.28-10.39-1.14-15.57.37-13.89-1.58-27.51-3.38-41.21-1.1-8.4-3.18-16.63-4.03-25.04-.45-4.46.29-9.04.53-14.24,4.36,2.96,6.61,6.07,6.75,10.96.27,9.27,2.55,18.28,4.29,27.36,3.07,16,4.52,32.19,5.57,48.46.84,13.08,3.11,26.08,4.79,39.11,1.12,8.68.21,17.44,1.07,26.14.26,2.6-1.06,4.47-3.69,5.78Zm-2.99,19.65c-1.58-.77-1.06-1.99-.48-2.96,1.47-2.45,3.02-4.86,4.68-7.18,3.6-5.01,5.55-10.46,5.53-16.74-.03-12.13-.84-24.15-2.52-36.2-2.16-15.57-4.29-31.12-4.87-46.95-.47-12.9-3.63-25.76-6.31-38.49-2.77-13.19-3.19-26.36-1.56-39.62,1.12-9.1,5.42-13.21,12.91-13.28,6.79-.07,12.43,5.97,13,13.94.49,6.85-1.67,13.41-2.25,20.13-1.71,19.68-4.39,39.29.09,59.07,2.2,9.7,5.1,19.46,4.55,29.68-.8,12.47-1.55,24.95-2.4,37.42-.43,6.29-.58,12.43,2.59,18.27,1.97,3.62,1.1,5.68-2.99,7.33-6.14,2.48-10.55,6.37-12.59,12.87-.67,2.12-5.44,3.65-7.39,2.7Z"/>
  </g>
  <g id="Layer_2" data-name="Layer 2">
    <path d="m408.29,479.2c-.2-.25-.42-.49-.66-.72-1.45-1.37-3.19-2.16-5.03-2.55-1.86-.39-3.8-.61-5.69-.55-1.78.06-3.64.35-5.18,1.42-.7.48-1.3,1.11-1.81,1.84-.16.23-.32.47-.46.73,0,1.12,0,2.25,0,3.64l.02,96.4s-.01,49.19-.02,73.79v16.97c.04,9.13.03,18.27.03,27.4h-.03l-.02,106.45.07,82.69.06,22.13c-.25,5.63.06,183.01-.69,188.63-.27,2.04,1.02,3.01,4.79,2.81,2.26-.12,4.54-.04,6.82-.05,8.45-.02,7.81.36,7.81-4.45,0-151.71,0-427.83,0-616.57Z"/>
    <path d="m699.2,602.83c-.44-.39-.92-.74-1.44-1.01-1.82-.94-3.93-1.28-5.89-1.43-2.09-.15-4.22-.03-6.26.54-1.73.48-3.55,1.33-4.8,2.91,0,.66,0,1.32,0,1.97l.02,77.86s-.01,39.73-.02,59.6v13.7c.04,7.38.03,14.75.03,22.13h-.03l-.02,85.98.06,66.78.06,17.87c-.24,4.55.06,147.81-.67,152.35-.27,1.64,1,2.43,4.68,2.27,2.2-.1,4.44-.04,6.66-.04,8.25-.02,7.63.29,7.63-3.59,0-122.51,0-345.46,0-497.9Z"/>
  </g>
</svg>