<?xml version="1.0" encoding="UTF-8"?>
<svg id="Layer_1" data-name="Layer 1" xmlns="http://www.w3.org/2000/svg" viewBox="0 0 1080 1080">
  <g>
    <path d="m670.12,668.83c-8.88-3.52-18.03-6.38-26.03-11.82-2.08-1.42-4.53-2.71-3.32-5.7,1.49-3.67,4.06-1.25,6.2-.65,2.71.76,6.4,3.17,7.57-.83,1.97-6.77,6.21-5.92,11.35-5.27,4.98.64,12.05,1.97,13.03-4.48.95-6.25-6.04-7.19-11-8.17-15.02-2.97-29.78-7.16-42.77-15.19-23.53-14.54-49.07-20.18-76.35-20.36-7.87-.05-15.78-1.78-22.36-6.42-14.55-10.26-30.88-13.31-48.2-12.37-5.29.29-8.88.16-9.52-6.55-.57-5.95-2.05-11.37,6.36-12.55,8.95-1.26,12.42-7.1,13.88-15.53,2.19-12.59-6.69-22.86-9.58-34.66-.02-.1-.04-.19-.06-.28-.55-1.53-.8-3.16-1-4.77-.15-1.21-.31-2.42-.51-3.62-.21-.52-.43-1.04-.66-1.56-1.53-3.32-3.79-6.21-6.85-8.24-.01,0-.02-.02-.03-.03-.72-.24-1.44-.51-2.16-.84-9.46-4.38-14.57-7.51-24.76-9.07-27.65-4.22-44.11,7.42-49.84,34.89-3.06,14.67.85,26.52,13.64,34.95,4.94,3.26,9.44,7.16,13.03,11.87,5.25,6.88,5.05,9.74-1.2,15.63-3.98,3.75-7.67,7.66-8.42,13.37-2.65,20.09-6.28,40.09-4.73,60.51.1,1.28.55,2.93.46,4.3.5,1.96.78,3.96.81,6.03.02.97-.05,1.94-.06,2.91-.02,1.02.02,2.05,0,3.07,0,.78-.15,1.54-.27,2.32-.04.25-.08.51-.1.78.05.43.08.87.1,1.32.03.07.04.15.07.23.09.18.05.35-.04.48,0,.18.01.36.02.54.47,14.95-1.06,29.61-4.15,44.32-.52,2.47-1.05,4.96-1.54,7.44-1.9,9.44-1.23,19.29,2.42,28.2.23.56.47,1.12.72,1.67,1.23,2.74,2.68,5.36,4.6,7.68,1.73,2.08,3.75,3.89,5.96,5.44,3.32,2.32,7.01,4.04,10.81,5.42,1.15.32,2.3.63,3.45.97,1.88.54,3.82.9,5.66,1.57.37.13.76.28,1.14.45.35.16.71.31,1.08.41.54.15,1.09.31,1.63.47,3.43,1.03,6.84,2.13,10.31,3.04.5.13,1.01.26,1.52.38,2.47.59,5.03.81,7.54.42.75-.12,1.43-.28,2.02-.52,13.94-5.52,27.31,2.67,41.94,4.17,9.19.94,10.29,3.15,5.33,11.1-4.79,7.68-10.32,14.89-14,23.23-.93,2.12-1.62,4.93-2.64,6.97.35,3.21-.79,6.32-1.33,9.48-.58,3.42-.52,6.93-.56,10.38-.04,3.48-.1,6.97-.09,10.45.01,3.3.15,6.58.35,9.87,1.49,5.17.81,12.37,1.5,18.21.53,4.49.85,7.24.32,8.96.06.35.13.7.18,1.06.39,2.58.68,5.18.9,7.78.22,2.56.44,5.16.46,7.73.03,4.39-1.32,8.47-2.51,12.64-.54,1.88-1.07,3.83-1.27,5.78-.1,1.01-.02,2.04.28,3,.6,1.91,2.04,3.41,3.69,4.49,2.07,1.36,4.43,2.22,6.8,2.88,2.73.76,5.52,1.26,8.33,1.62,4.75.61,9.54,1,14.33,1.16,3.17.1,6.26.62,9.38,1.06,4.31.6,8.63,1.12,12.98,1.29,4.26.17,8.61.05,12.79-.89,1.87-.42,3.77-.99,5.47-1.88,1.54-.8,2.98-1.81,4.36-2.85,3.1-2.35,6.11-5.13,8.25-8.4,1.92-2.94,2.87-6.71,1.7-10.11-1.14-3.32-3.96-5.72-6.7-7.74-2.93-2.17-6.02-4.12-8.99-6.24-3.17-2.26-6.3-4.77-8.59-7.96-1.08-1.49-1.95-3.16-2.42-4.95-.44-1.69-.47-3.42-.23-5.14.2-1.47.57-2.91,1.06-4.33.28-1.46.65-3.13,1.09-5.05,6.99-30.54,17.37-60.05,29.53-88.92,6.58-15.61,2.11-29.96-12.81-38.51-13.18-7.55-37.48-12.47-52.67-12.88-19.23-.52-23.06-11.1-33.19-23.55-6.69-8.22-6.19-15.89-7.59-22.01-3.89-16.91.85-31.88,2.9-47.71.86-6.65,4.11-8.54,10.67-6.84,10.91,2.82,21.95,5.2,33.39,4.75,10.57-.42,20.42,1.93,29.28,8,11.79,8.08,24.99,12.49,39.13,13.84,16.8,1.6,32.96,4.79,47.21,14.58,3.81,2.62,8.21,4.38,12.33,6.54,2.65,1.39,5.82,2.12,6.68-1.39,1.59-6.45,4.62-4.82,9.39-3.57,4.81,1.26,12.58,5.23,14.65-2.21,1.79-6.47-6.25-7.63-10.96-9.5Zm-192.96-82.97c.55-2.37,3.32-1.3,5.13-1.59,1.2-.19,2.45-.14,3.67-.2,12.74.21,24.91,2.62,35.38,10.27,12.79,9.35,27.65,8.63,42.3,9.46,15.54.88,30.54,4.5,44.54,11.2,9.26,4.43,18.07,9.81,27.62,13.71,2.75,1.12,5.75,2.28,4,6.34-1.65,3.81-4.57,3.98-7.94,2.76-24.68-8.93-50.52-13.1-76.08-18.38-7.85-1.62-15.43-4.23-21.12-9.71-12.13-11.69-27.36-14.49-43.06-16.45-3.65-.46-7.38-.71-10.62-2.62-1.85-1.09-4.39-2.37-3.83-4.79Zm-55.96-32.03c-2.5-5.28-8.36-8.17-13.11-11.59-6.07-4.37-8.74-10.02-9.21-17.4-.74-11.69,3.4-21.73,10.17-30.65,4.99-6.58,12.92-7.39,23.37-7.72,11.61.45,13.04-.34,26.5,4.83,3.64,1.4,14.32,8.94,14.29,13.02-.06,7.91,5.92,12.68,8.17,20.16,1.58,5.27,2.05,10.6,1.3,15.95-1.36,9.76-7.23,13.24-16.79,10.3-6.42-1.97-7.41-1.05-6.07,5.54.83,4.07,1.72,8.13,2.32,12.23.64,4.38-.81,6.8-5.76,5.11-.23-.08-.47-.22-.7-.21-15.48.45-27.47-4.73-34.49-19.57Zm147.77,204.32c8.65,4.68,12.5,17.16,8.54,26.08-11.73,26.39-20.06,53.98-29.17,81.29-2.86,8.56-3.61,17.69-4.29,26.69-1.12,14.68,8.03,22.7,19.5,29.16,1.48.83,4.75.93,3.55,3.59-1.03,2.29-3.12,4.61-6.48,3.32-9.55-3.67-19.68-6.12-26.92-14.3-3.82-4.32-6.05-8.99-5.06-14.66,1.56-8.88,1.68-18.14,5.1-26.53,9.59-23.5,16.84-47.9,28.66-70.54,12.29-23.55,4.99-34.01-18.21-47.39-17.31-9.99-14.25-3.93-31.34-14.3,25.77,9.97,31.86,4.47,56.12,17.59Zm-90.45-32.52c17.36,13.79,21.32,12.01,26.23,14.47,8.96,4.5,31.14,11.96,44.56,20.51,14.58,9.29,16.78,20.89,9.43,36.5-15.08,32.03-29.75,64.24-35.65,99.64-2.18,13.08,4.35,20.82,13.44,27.79,4.11,3.16,9.07,4.78,13.88,6.63,1.71.66,4.5.99,4.35,3.27-.19,2.88-3.18,2.42-5.24,2.79-.96.17-1.96.11-3.48.19-14.87-1.08-30.23-2.58-45.51-4.88-5.69-.86-7.66-4.81-4.87-8.84,8.97-12.94,5.1-26.39,2.29-39.6-3.68-17.26-1.46-34.56-1.31-51.81.08-9.34,4.56-17.91,10.38-25.45,1.35-1.74,2.68-3.5,3.91-5.32,10.08-14.97,8.41-20.53-9.65-23.47-18.18-2.96-37.41-1.63-55.34-3.54-6.91-.74-14.84-4.23-19.44-6.16-3.61-1.51-9.82-6.14-12.92-8.85-2.32-2.03-11.17-8.61-6.76-28.18,1.49-6.63,6.19-11.85,10.46-15.61,4.25-3.75,12.36,1.42,18.83,2.33,8.78,1.24,17.52,2.09,26.36.63,2.96-.49,13.2,4.72,16.04,6.97Zm165.29-55.79c-3.29,1.65-6.5,2.65-9.69.35-14.2-10.25-31.03-11.36-47.51-13.64-10.83-1.5-21.35-4.15-30.21-10.66-12.86-9.45-27.59-10.09-42.64-10.93-17.25-.96-33.76-5.89-49.95-11.68-5.56-1.99-8.64-7.04-12.5-11.1-1.56-1.64-3.61-3.59-5.67-2.08-2.56,1.87-.05,3.83,1.08,5.57,1.31,2.01,3.67,4.05,2.13,6.49-1.47,2.33-4.5,1.44-6.86,1.31-10.89-.58-15.5-5.11-15.68-15.62-.6-9.17,2.85-16.83,11.21-21.89,9.1-5.51,18.86-4.28,26.3,1.73,11.75,9.49,25,12.59,39.35,14.13,10.96,1.17,20.53,5.52,28.74,13.38,8.25,7.9,19.1,10.44,30.21,12.13,21.25,3.22,41.59,8.92,59.23,22.05,7.25,5.4,14.99,10.2,22.76,14.85,4.25,2.54,3.42,3.72-.31,5.6Z"/>
    <path d="m370.27,551.21c2.99-.09,3.98-3.04,4.69-5.49,1.45-4.97,2.91-9.95,6.36-13.93,4.42-5.09,6.29-11.11,7.26-17.56.35-2.35.49-4.8,1.92-6.82,1-1.41,2.45-2.54,4.23-1.88.68.25,1.06.59,1.26.97.37-.91.76-1.81,1.17-2.7,1.27-2.73,2.74-5.38,4.46-7.85-3.44.03-6.6-1.48-9.74-4.42-5.13-4.81-10.83-3.88-16.33-.75-5.8,3.3-9.81,8.19-11.84,14.66-4.37,13.89-.12,27.23,2.38,40.67.41,2.19,1.27,5.22,4.17,5.13Zm-2.82-41.77c2.02-7.97,7.24-12.47,14.57-15.19,2.71-1.01,5.06-.23,7.28,1.27,3.64,2.46,3.62,4.15-.3,6.16-2.61,1.34-4.86,2.79-4.8,6.05.17,8.98-2.28,17-8.52,23.71-1.71,1.84-1.81,4.8-4.96,6.75-1.19-9.9-5.8-18.72-3.27-28.75Z"/>
    <path d="m422.38,555.56c.69-2.16-2.93-6.78-2.08-8.82,3.47-8.32,9.42-11.92,4.77-13.68-2.41-.92-2.5-5.81,2.26-11.7,2.55-3.16,2.36-5.73,2.17-8.54-.93-13.9,2.11-19.88,12.51-24.8,1.82-.86,3.73-2.01,5.23-1.57-.56-.68-1.14-1.31-1.77-1.85-.89-.76-1.86-1.35-2.97-1.62-.78-.19-1.49-.54-2.21-.85-.82-.36-1.64-.7-2.56-.8-.32-.03-.66-.04-1.01.01.08.24.14.53.15.91.14,4.58-5.09,7.26-7.82,11.24-3.73,5.44-5.9,10.55-4.82,15.33.9,4.01.46,6.92-3.72,11.83-5.54,6.49-6.51,12.13-3.25,15.44.58.59,1.27.95,1.82,1.58,1.89,2.14-1.23,3.1-4.38,9.35-1.07,2.12,2.27,2.07,1.53,2.22.21.25,3.01,3.66,3.24,3.88"/>
  </g>
  <path d="m747.7,1086.49c.24-4.75-.23-13.3-.09-18.54.07-2.8-.36-5.92-1.79-7.86-.68-.92-.86-1.22-2.67-1.54-.81-.14-2.03-.4-2.04-.4-1.37-.3-3.81-.45-4.72-.44-81.32.14-296.24,14.06-309.58,1.85-6.91-6.33-80.2-3.42-89.22.54-2.22.98-4.55,1.69-4.67,4.41-.4,9.34-1.33,17.62-.05,25.74l414.51.25c-.06-2.67.17-1.35.3-4.01Z"/>
  <path d="m748.37,973.26c.24-4.75-.23-13.3-.09-18.54.07-2.8-.36-5.92-1.79-7.86-.68-.92-.86-1.22-2.67-1.54-.81-.14-2.03-.4-2.04-.4-1.37-.3-3.81-.45-4.72-.44-81.32.14-323.14,89.12-374.54,107.34-8.84,3.13-15.24,4.8-24.25,8.76-2.22.98-4.55,1.69-4.67,4.41,0,.09,0,.19-.01.28-.55,12.47,11.5,21.65,23.35,17.73l67.45-22.29c1.38-.46,2.68-1.11,3.91-1.89,15.61-9.78,175.64-56.98,177.6-57.52,125.82-34.72,142.34-25.47,142.47-28.04Z"/>
</svg>