<?xml version="1.0" encoding="utf-8"?>
<!-- Generator: Adobe Illustrator 27.0.0, SVG Export Plug-In . SVG Version: 6.00 Build 0)  -->
<svg version="1.1" xmlns="http://www.w3.org/2000/svg" xmlns:xlink="http://www.w3.org/1999/xlink" x="0px" y="0px"
	 viewBox="0 0 1080 1080" style="enable-background:new 0 0 1080 1080;" xml:space="preserve">
<style type="text/css">
	.st0{opacity:0.3;}
	.st1{opacity:0.55;fill:#757373;}
	.st2{opacity:0.55;fill:#D1D1D1;}
	.st3{opacity:0.55;fill:#C9C9C9;}
	.st4{opacity:0.55;fill:#BCBAB8;}
	.st5{opacity:0.55;fill:#FFFFFF;}
	.st6{fill:#757373;}
	.st7{fill:#BCBAB8;}
	.st8{fill:#FFFFFF;}
	.st9{fill:#C9C9C9;}
	.st10{fill:none;}
	.st11{opacity:0.95;fill:#C9C9C9;}
	.st12{opacity:0.95;fill:#FFFFFF;}
	.st13{opacity:0.95;fill:#BCBAB8;}
	.st14{opacity:0.95;fill:#757373;}
	.st15{fill:#ABA9A8;}
	.st16{display:none;}
	.st17{opacity:0.95;}
</style>
<g id="Layer_2">
	<g id="Capa_2">
		<rect x="-0.7" y="-2.5" width="1082.8" height="1082.8"/>
		<g class="st0">
			<path class="st6" d="M649.9,750.9c0,0-3.7,18-28.2,9.9l-1.9-0.6c0,0-4.3,13.3-15.8,4.7c0,0-16.1-18.3,5.9-18.3
				c0,0,3.1,0.3,3.1-1.9c0,0-1.3-17.2,1.8-19.9L649.9,750.9z"/>
			<path class="st7" d="M566.9,653.6c0,0-25.2-20-10.1-34.1c0,0,16.8-13.1,25.2-13.9c0,0,5.5-4.6,6.7-8.1c0,0,20-24.2,27.5-25.2
				c0,0,0.8-4.6-4.6-9.3c0,0-21.4-12.7-26.4-56.1c0,0-1-5.9-7.7-9.9c0,0-11.3-10.9,1-14.1c0,0,13.9-3,14.7-5.4
				c0,0,18.2-10.7,23.8-5.4c0,0,6.3,2.6-2.6,9.3c0,0-17.4,6.7-15.1,14.9c0,0-1.4,9.5,9.7,19c0,0,33.7,41.8,33.1,53.5
				c0,0,2,8.7-5.9,21c0,0-22.6,29.1-37.7,38.1c0,0-7.7,5-5.7,11.1L566.9,653.6z"/>
			<path class="st8" d="M606.4,714.8c-12-0.3-19.9-17.4-19.9-17.4c-4.3-11.8-20.1-40-20.1-40c-2.1-3,2.4-5.9,2.4-5.9
				c3.8-3.5,12.9-7,12.9-7c6.7-0.5,9.9-12.1,9.9-12.1l3.2,18c0,8.9,11,11.3,11,11.3s12,3,17.1,10.3c5.1,7.3,0,0,0,0"/>
			<path class="st7" d="M633.5,719.1c0,0,5.1-7.9,12.7-4.6c0,0,4.6,3.1,5.3,8.4c0,0,1.9,7.9,3.4,9.9c0,0,3.6,12-1.7,15.6
				c0,0-4.1,7-14.9,1.4c0,0-3.8-6.3-10.6-8.9c0,0-4.6,0.2-5.8-6.3c0,0,0-2.6-4.3-2.2c0,0-2.6-3.1-3.6-6.7c0,0,0.2-6.5-1.4-8.4
				c0,0-1.3-2.4,3.1-4.5c0,0,8.2-3.2,9.8-4.9c0.1-0.1,0.2-0.2,0.2-0.3C626.6,706.2,633.4,715.4,633.5,719.1z"/>
			<path class="st7" d="M682.6,624.6l-0.3-19.7c0,0-9.6,15.2-12.5,14.3c0,0-23.3,14.3-26.9,32.9c0,0-3,7.7-8.6,9.1
				c-0.3,0.2-0.6,0.3-0.8,0.5c-0.2,0.1-0.4,0.3-0.6,0.4c-3.8,3.5-20.4,19.4-24.9,31.3c0,0-3,1.5-2.1-4.2c0,0-0.6-6.6-6.3-0.6
				c0,0-6.3,12.5,6.9,26.3c0,0,21.5-0.3,23-16.1c0,0,17.9-15.8,18.5-28.1c0-0.5,0-0.9,0.1-1.3c1.3-1.3,28.6-29.7,29.5-37
				L682.6,624.6z"/>
			<path class="st8" d="M606.4,714.8c0,0,13.1,1.3,20-6.9c0,0,3.1-4.1,1.1-3.8c-2,0.4-18.5,12.8-22.8,8.5c0,0-1.2-0.9-1.7-1.6
				s-0.5-0.7-0.5-0.7l2.6,4L606.4,714.8z"/>
		</g>
		<g>
			<g>
				<path class="st1" d="M637.5,670c0,0,7.2,4.1-0.2,19c0,0-0.7,3.6-5.5,6c0,0,6-3.1,7.8,4c0,0,2.6,12.2-10.7,10.7
					c0,0-13.4,1.4-10.3-9.7l4-3.3c0,0-8.4,6.1-12.2,3.1c0,0,0-1.3,0.8-2.1c0,0,7.2-3.6,9.4-9.6c0,0,5.3-10.4,12-14.8
					C632.4,673.3,636.6,670.3,637.5,670z"/>
				<path class="st2" d="M599.2,707.5c0,0,6.4-8.3,11.1-7.6l2.1-5l-16.9,1.1L599.2,707.5z"/>
				<path class="st3" d="M625.5,656.5c-5.3-4.4-10-4.7-10-4.7c-0.2-0.2-0.5-0.3-0.7-0.4c-1.3-0.3-2.6-0.6-3.9-0.6
					c-3.2-0.2-6.2,0.7-9.1,1.8c-1.6,3-8.5,6.2-8.5,6.2l-4.7,3.3c-8.1,6.1-1.4,15.6-1.4,15.6s0.5,4.9-2.9,7.4l22.6-15.7
					c0,0,9.4-0.3,19-11.8C625.8,657.5,626.6,657,625.5,656.5z"/>
				<path class="st4" d="M482.4,729.9c0,0-3.9-10-0.3-27.6c0,0,1-4.9-0.2-10.8c0,0-13.6-33.1-11.5-45.4c0,0,0.8-5.4-8.5-4.6
					c0,0-39.1-1.4-61.7-34.2c0,0-8.3-7.7-11.2-5.6c0,0-7.5,3.2-8-3.2c0,0-0.3-13.8-4.3-14.9l-5.9-8.5c0,0-15.2-9.9,1.1-9.9
					c0,0,26.4,8,33.5,18.6c0,0,35.1,24.2,70.5,27.7c0,0,10.9,0.8,10.9-0.8c0,0,5.9-2.9,8.8,5.6c0,0,20.2,53,20,59.9
					c0,0,4,4.1,2.9,14.9c0,0,1.7,9.1,3.4,9.4c1.7,0.2,0,0,0,0l-4.5,1.5c0,0-2.7,3.1-4,10.4c-1.3,7.3,0,0,0,0s-2.1,12.4-2.3,16.1
					c-0.2,3.7,0,0,0,0l-0.3,4.2c0,0,0,1,0,1.2c-0.1,0.2,0,0,0,0s0.6,1.8-1.3,3.7c0,0-3.5,3.8-11.9,6.8
					C497.8,744.4,485.6,740.2,482.4,729.9z"/>
				<path class="st5" d="M577.5,686l-4.3-1.7c-12.2-3.6-14.9,3.6-14.9,3.6l-11.1,10.6c-10.5,9.1-16.9,8.7-16.9,8.7
					c-4.7,0.4-8.5-6.8-8.5-6.8l-4.5,1.5c-5.3,6-6.6,31.9-6.6,31.9c1.5,5.1-13,10.4-13,10.4c1.3,0.4,10.2-1.7,10.2-1.7
					c8.3-3,25.6-6.8,25.6-6.8c6.4-3,17.3-1.7,17.3-1.7c7.3,0,15.4-1.5,15.4-1.5c9-0.9,22.3-5.9,22.3-5.9
					c10.1-3.4,11.2-22.3,11.2-22.3l-0.1-0.4c0,0-5.8,5.2-9,11.1c0,0-2.8,6.9-12,5.8c0,0-5.8-0.4-12.1-3.9c0,0-3.8-0.4-4.7-6.3
					c0,0-1.6-8.8-0.2-14.1c0,0-1.4-8,7.2-7.7c0,0,2.1-0.1,2.2-0.4c0,0,2.4-0.2,2.5,1.7c0,0,0.1,2.7-1.9,5.9c0,0-0.3,0.5-0.4,1.3
					c0,0-0.4,2.2-0.1,1.5c0,0,0.9-2.3,0.9-2.6c0,0,1-1.7,1.7-2.2c0,0,5.2-5.1,6.5-5.7l0.8-0.6L577.5,686z"/>
				<path class="st4" d="M679.9,612.5c0,0-6.9,15.5-17.2,17.2c0,0-23.6,5.7-35.1,25.8c0,0-8.6,12.1-20.1,13.2
					c0,0-33.9,21.8-35.6,27.6c-1.7,5.7-0.6,0-0.6,0s6.4-9.8-2.4-8c0,0-8.4-0.5-7.6,7.8c0,0-2.4,18.2,4.4,20.9c0,0,17.7,9.6,24.2,0
					c0,0,6.4-11.6,14.9-16.4c0,0,12.9-3.5,16.9-13.3c0,0,4.9-10.4,14-16.2c0,0,13.7-8.2,18.9-12.2c0,0,15.7-11.5,19.5-20.6
					c0,0,4-5.6,5.3-5.8c1.3-0.2,0,0.9,0,0.9L679.9,612.5z"/>
			</g>
			<path class="st6" d="M637,668.3c0,0,7.2,4.1-0.2,19c0,0-0.7,3.6-5.5,6c0,0,6-3.1,7.8,4c0,0,2.6,12.2-10.7,10.7
				c0,0-13.4,1.4-10.3-9.7l4-3.3c0,0-8.4,6.1-12.2,3.1c0,0,0-1.3,0.8-2.1c0,0,7.2-3.6,9.4-9.6c0,0,5.3-10.4,12-14.8
				C631.9,671.6,636,668.7,637,668.3z"/>
			<path class="st2" d="M598.7,705.8c0,0,6.4-8.3,11.1-7.6l2.1-5l-16.9,1.1L598.7,705.8z"/>
			<path class="st9" d="M625,654.8c-5.3-4.4-10-4.7-10-4.7c-0.2-0.2-0.5-0.3-0.7-0.4c-1.3-0.3-2.6-0.6-3.9-0.6
				c-3.2-0.2-6.2,0.7-9.1,1.8c-1.6,3-8.5,6.2-8.5,6.2l-4.7,3.3c-8.1,6.1-1.4,15.6-1.4,15.6s0.5,4.9-2.9,7.4l22.6-15.7
				c0,0,9.4-0.3,19-11.8C625.3,655.8,626.1,655.3,625,654.8z"/>
			<path class="st7" d="M481.9,728.2c0,0-3.9-10-0.3-27.6c0,0,1-4.9-0.2-10.8c0,0-13.6-33.1-11.5-45.4c0,0,0.8-5.4-8.5-4.6
				c0,0-39.1-1.4-61.7-34.2c0,0-8.3-7.7-11.2-5.6c0,0-7.5,3.2-8-3.2c0,0-0.3-13.8-4.3-14.9l-5.9-8.5c0,0-15.2-9.9,1.1-9.9
				c0,0,26.4,8,33.5,18.6c0,0,35.1,24.2,70.5,27.7c0,0,10.9,0.8,10.9-0.8c0,0,5.9-2.9,8.8,5.6c0,0,20.2,53,20,59.9
				c0,0,4,4.1,2.9,14.9c0,0,1.7,9.1,3.4,9.4c1.7,0.2,0,0,0,0l-4.5,1.5c0,0-2.7,3.1-4,10.4c-1.3,7.3,0,0,0,0s-2.1,12.4-2.3,16.1
				c-0.2,3.7,0,0,0,0l-0.3,4.2c0,0,0,1,0,1.2c-0.1,0.2,0,0,0,0s0.6,1.8-1.3,3.7c0,0-3.5,3.8-11.9,6.8
				C497.3,742.7,485.1,738.6,481.9,728.2z"/>
			<path class="st8" d="M576.9,684.3l-4.3-1.7c-12.2-3.6-14.9,3.6-14.9,3.6l-11.1,10.6c-10.5,9.1-16.9,8.7-16.9,8.7
				c-4.7,0.4-8.5-6.8-8.5-6.8l-4.5,1.5c-5.3,6-6.6,31.9-6.6,31.9c1.5,5.1-13,10.4-13,10.4c1.3,0.4,10.2-1.7,10.2-1.7
				c8.3-3,25.6-6.8,25.6-6.8c6.4-3,17.3-1.7,17.3-1.7c7.3,0,15.4-1.5,15.4-1.5c9-0.9,22.3-5.9,22.3-5.9
				c10.1-3.4,11.2-22.3,11.2-22.3l-0.1-0.4c0,0-5.8,5.2-9,11.1c0,0-2.8,6.9-12,5.8c0,0-5.8-0.4-12.1-3.9c0,0-3.8-0.4-4.7-6.3
				c0,0-1.6-8.8-0.2-14.1c0,0-1.4-8,7.2-7.7c0,0,2.1-0.1,2.2-0.4c0,0,2.4-0.2,2.5,1.7c0,0,0.1,2.7-1.9,5.9c0,0-0.3,0.5-0.4,1.3
				c0,0-0.4,2.2-0.1,1.5c0,0,0.9-2.3,0.9-2.6c0,0,1-1.7,1.7-2.2c0,0,5.2-5.1,6.5-5.7l0.8-0.6L576.9,684.3z"/>
			<path class="st7" d="M679.4,610.8c0,0-6.9,15.5-17.2,17.2c0,0-23.6,5.7-35.1,25.8c0,0-8.6,12.1-20.1,13.2
				c0,0-33.9,21.8-35.6,27.6c-1.7,5.7-0.6,0-0.6,0s6.4-9.8-2.4-8c0,0-8.4-0.5-7.6,7.8c0,0-2.4,18.2,4.4,20.9c0,0,17.7,9.6,24.2,0
				c0,0,6.4-11.6,14.9-16.4c0,0,12.9-3.5,16.9-13.3c0,0,4.9-10.4,14-16.2c0,0,13.7-8.2,18.9-12.2c0,0,15.7-11.5,19.5-20.6
				c0,0,4-5.6,5.3-5.8c1.3-0.2,0,0.9,0,0.9L679.4,610.8z"/>
		</g>
		<path class="st8" d="M404.8,477.1c-0.2-0.2-0.4-0.5-0.7-0.7c-1.5-1.4-3.2-2.2-5-2.5c-1.9-0.4-3.8-0.6-5.7-0.5
			c-1.8,0.1-3.6,0.4-5.2,1.4c-0.7,0.5-1.3,1.1-1.8,1.8c-0.2,0.2-0.3,0.5-0.5,0.7c0,1.1,0,2.2,0,3.6l0,96.4c0,0,0,49.2,0,73.8v17
			c0,9.1,0,18.3,0,27.4h0l0,106.5l0.1,82.7l0.1,22.1c-0.2,5.6,0.1,183-0.7,188.6c-0.3,2,1,3,4.8,2.8c2.3-0.1,4.5,0,6.8-0.1
			c8.5,0,7.8,0.4,7.8-4.4C404.8,942,404.8,665.8,404.8,477.1L404.8,477.1z"/>
		<path class="st8" d="M695.7,600.7c-0.4-0.4-0.9-0.7-1.4-1c-1.8-0.9-3.9-1.3-5.9-1.4c-2.1-0.2-4.2,0-6.3,0.5
			c-1.7,0.5-3.5,1.3-4.8,2.9c0,0.7,0,1.3,0,2l0,77.9c0,0,0,39.7,0,59.6v13.7c0,7.4,0,14.8,0,22.1h0l0,86l0.1,66.8l0.1,17.9
			c-0.2,4.5,0.1,147.8-0.7,152.3c-0.3,1.6,1,2.4,4.7,2.3c2.2-0.1,4.4,0,6.7,0c8.2,0,7.6,0.3,7.6-3.6
			C695.7,976.1,695.7,753.2,695.7,600.7L695.7,600.7z"/>
		<g id="Capa_5">
		</g>
	</g>
	<g id="Capa_4">
	</g>
</g>
<g id="Capa_3">
</g>
</svg>
