<?xml version="1.0" encoding="UTF-8"?>
<svg id="Layer_2" data-name="Layer 2" xmlns="http://www.w3.org/2000/svg" viewBox="0 0 1080 1080">
  <path d="m-2604.81,981.85-515.8,2.66l-314.4.14-84.13.14c-21.41-.53-794.18.13-815.56-1.49-7.74-.59-11.43,2.2-10.68,10.31.45,4.86.17,9.79.19,14.68.08,18.19-1.37,16.81,16.91,16.81,677.7,0,2106.73,0,2784.43,0,542.16,0,3161.69,0,3703.85,0,2.9,0,5.79-.09,8.69-.09,4.33,0,6.31-2.23,6.33-6.43.03-9.79.1-19.58.13-29.37.01-4.37-2.09-6.09-6.55-5.76l-2254.47,1.26c-8.67-.42-17.37-.17-26.06-.17-419.36-.02-838.72-.03-1258.08-.04-2.74,0-5.07,0-7.06-.07-2.69.56-5.4,1.04-8.13,1.36-3.01.36-6.04.55-9.07.49-2.9-.06-5.73-.42-8.59-.9-5.72-.96-11.41-2.07-17.23-2.08-1.39.96-3.56,1.3-6.88,1.39-.08.09-.2.15-.36.15-2.22,0-4.44-.07-6.65-.15-8.7-.06-17.4-.23-26.1.01-1.9.05-3.49-.13-4.85-.59-9.48-.15-18.96-.33-28.44-.3-6.81.02-13.64.02-20.45.36-5.56.28-11.44.69-16.85-.94-.78.59-1.96.95-3.74.95-7.4,0-5.22-5.55-5.08-9.42.77-20.7,3.96-41.47,1.5-62.1-3.91-32.68-.33-65.15,3.34-97.28,3.25-28.49-.12-55.59-6.47-82.84-1.63-6.98-4.91-13.63-4.72-20.95.27-10.03-2.17-19.38-6.05-28.49-9.48-22.27-15.6-45.71-23.84-68.41-2.33-6.42-2.1-13.12-1.02-19.64.85-5.12,6.87-4.65,9.99-7.44,1.7-1.52,3.62-3.14,4.55-5.12,9.36-20.12,18.99-40.2,21.49-62.63,3.66-32.87,5.43-66.01,12.5-98.39,6.13-28.11,14.83-55.67,18.88-84.24,6.28-44.27,13.79-88.1,35.01-128.41,5.16-9.81,6.32-20.99,2.82-31.99-2.45-7.7-8.91-11.33-14.46-7.17-18.6,13.96-37.01,28.23-38.41,54.48-.46,8.58-1.81,17.22-5.18,25.28-8.34,19.93-15.64,40.27-23.54,60.36-11.5,29.26-18.96,58.99-20.17,90.51-.76,19.56-4.2,38.95-12.51,57.07-8.08,17.61-13.85,36-18.71,54.69-5.24,20.12-5.28,19.84-25.71,24.92-6.94,1.72-10.52-.36-14.17-6.05-10.57-16.51-22.21-32.28-34.74-47.41-18.81-22.7-36.5-46-48.03-73.58-12.17-29.12-28.79-55.57-49.84-79.52-17.27-19.66-36.1-38.53-47.72-62.39-10.64-21.86-29.36-32.54-51.12-39.51-9.76-3.12-14.92,1.28-13.37,11.23,2.13,13.69,7.56,26.05,17.84,35.72,20.85,19.62,36.65,42.84,49.92,67.95,8.21,15.52,14.41,32.03,24.38,46.69,27.3,40.14,51.71,81.9,71.37,126.34,12.33,27.86,27.74,53.76,49.8,75.33,3.28,3.2,5.86,7.12,8.68,10.77,18.03,23.38,12.57,47.25-2.56,65.59-2.2,2.67-4.31,5.48-4.98,8.99-2.8,14.47-8.23,28.16-12.59,42.18-8.91,28.63-12.04,57.96-10.18,87.86,1.7,27.24,5.54,54.45,1.2,81.79-1.13,7.11-1.77,14.28-.96,21.51,1.85,16.6.97,33.33,2.56,49.99,1.42,14.94-8.52,24.09-23.77,24.1-60.5.01-121.01.02-181.51,0l-366.54.03s-187.05-.03-280.58-.04h-64.51c-34.73.09-69.46.06-104.19.06v-.07m1112.44-447.47c7.63-29.87,16.71-59.24,28.44-87.81,7.39-18,12.19-37.21,12.1-56.29-.21-45.91,19.31-86.02,34.51-127.44,5.78-15.74,11.52-31.43,13.72-48.02,2.53-19.09,17.17-28.46,30.09-39.33,2.81-2.36,4.84-1.07,5.15,2.54.27,3.15.45,6.31.67,9.47,1.01,10.38-4.07,18.88-8.14,27.82-14.66,32.19-23.84,65.9-27.06,101.13-1.29,14.1-5.31,27.66-8.11,41.44-4.98,24.5-10.96,48.79-16.3,73.22-6.16,28.16-8.41,56.88-11.56,85.44-2.15,19.43-7.07,37.78-16.77,54.87-4.48,7.89-7.47,8.76-14.8,2.96-8.98-7.11-14.63-17-21.5-25.85-3.26-4.21-1.69-9.3-.45-14.15Zm-16.73,110.27c1.25-1.04,3.09-3.58,3.89-1.63,3.32,8.07,11.89,12.69,13.83,21.47.3,1.37.04,2.86.04,3.54-.62,7.11-1,13.87-8.19,16.34-4.29,1.48-12.88-7.17-15.68-13.05-5.13-10.77-2.74-19.3,6.11-26.67Zm-20.61,58.48c6.71-7.81,17.36-8.58,25.58-13.77.82-.52,3.16.14,3.98,1.01,7.59,8.03,18.8,11.05,26.21,19.5,9.2,10.5,11.31,23.95,4.82,38.51-5.84,13.1-17.2,17.56-30.07,19.36-17.59,1.03-30.26-8.07-36.09-22.34-5.62-13.73-5.46-29.43,5.58-42.28Zm-23.02-118.43c-5.17,1.67-7.79-2.98-10.66-5.93-19.37-19.94-32.8-43.64-44.04-68.78-17.9-40.05-39.06-78.37-64.18-114.37-14.48-20.74-23.39-44.31-36.09-65.88-13.02-22.12-27.3-43.43-46.13-61.26-7.33-6.93-11.92-15.48-15.4-24.71-.99-2.63-2.35-5.7.13-8.1,2.25-2.17,4.92-.45,7.35.3,19.36,5.99,34.51,16.53,42.82,35.97,7.13,16.66,21,28.8,32,42.83,11.02,14.05,22.89,27.44,34.05,41.39,13.31,16.64,21.45,36.29,29.56,55.54,11.42,27.12,29.46,49.31,47.81,71.59,12.46,15.13,24.19,30.84,34.82,47.3,2.79,4.32,5.53,8.85,5.25,13.47-.85,6.31-1.14,11.7-5.42,16.05-3.41,3.46-2.88,8.61-3.96,13.03-1.2,4.91-2.63,9.84-7.9,11.55Zm-13.56,372.56c.32,4.59-.89,9.67.71,13.71,4.43,11.23-3.22,18.51-7.64,26.84-1.91,3.61-5.71,4.31-8.99,2.04-4.22-2.92-7.18-7.08-5.27-12.54.92-2.62,2.8-5.05,4.7-7.17,6.78-7.56,9.67-16.24,8.29-26.27-4.35-31.56-.72-63.1-.4-94.68.29-28.42-.66-56.95-1.37-85.41-.4-15.99,2.57-31.5,4.44-47.19.4-3.36,1.12-7.29,4.7-8.75,4.23-1.72,7.05,1.76,9.71,4.2,8.86,8.14,10.07,18.98,10.13,30.08-.06,25.99-4.75,51.51-7.46,77.23-2.85,27.15-5.41,54.34-7.72,81.55-1.31,15.45-4.92,30.72-3.83,46.37Zm98.27,24.38c-25.19.14-50.38.19-75.57.3-4.38.02-6.7-2.6-8.75-6.02-4.89-8.15-5.75-17.3-4-25.98,5.07-25.05,2.02-50.49,4.68-75.6,3.12-29.45,6.45-58.89,9.83-88.31,1.11-9.66.81-19.49,4.1-32.13,8.15,15.92,20.6,20.65,35.21,22.02,7.93.74,14.74-1.38,21.56-4.96,8.2-4.31,11.37-2.75,11.85,6.2,1.32,24.7,4.05,49.28,4.4,74.08.56,39.66.88,79.41,6.36,118.83,1.1,7.88-2,11.51-9.68,11.56Zm37.76-193.64c-.98,25.3-4.33,50.39-7.63,75.44-2.28,17.37-.06,34.49,1.07,51.62,1,15.29,1.85,30.32-1.23,45.47-1.19,5.85-.62,12.03-1.15,18.03-.24,2.72,1.58,7.23-3.75,6.95-4.1-.21-5.7-3.22-5.93-7.19-.5-8.89-1.63-17.77-1.75-26.66-.61-47.15-6.41-93.98-8.35-141.04-.68-16.32-1.16-32.44-4.59-48.73-2.14-10.19,4.16-21.63,8.94-31.71,1.7-3.58,5.98-5.45,10.42-4.91,4.79.58,5.53,4.65,6.36,8.24,4.16,17.94,8.25,35.9,7.59,54.52Z"/>
  <path d="m536.29,480.85c-6.79.38-14.29.89-21.81,1.19-9.46.38-17.11-2.5-20.78-12.05-6.24-16.26-16.39-20.56-35.04-19.75-43.59,1.9-86.96,9.36-130.78,6.17-6.23-.45-11.79,2.58-17.53,4.53-6.56,2.22-13.18,4.29-19.8,6.36-4.8,1.5-8.15-.14-9.01-5.11-.98-5.61-4.17-7.64-9.63-7.66-3.44-.01-6.87-.88-10.31-1.35-3.59-.49-7.24-1.24-7.43-5.7-.21-4.85,3.61-6.18,7.45-6.84,3.7-.63,7.46-.91,11.21-1.18,16.31-1.17,29.94-10.41,45.17-14.76,25.93-7.41,52.26-12.75,79.34-13.45,6.43-.17,8.7-3.07,8.5-9.13-.2-6.03-.68-12.2.27-18.1,2.59-16.13,10.09-29.46,25.23-37.14,5.36-2.72,7.55-6.02,7.49-12.06-.24-23.98,18.89-37.91,42.34-31.11,9.31,2.7,17.44,7.15,24.38,14.23,8.07,8.22,17.07,15.54,25.49,23.42,2.66,2.49,6.13,5.3,3.85,9.57-2.1,3.94-6.14,2.5-9.42,1.96-12.3-2.04-24.65-3.43-37.12-3.42-6.49,0-11.51-3.43-16.79-6.4-2.75-1.54-5.2-3.8-8.57-3.96-3.14-.15-6.15.81-6.87,4.02-.76,3.39,2.43,4.49,4.91,4.82,14.88,2.01,23.52,12.18,29.85,24,6.65,12.41,15.53,16.29,29.8,17.21,26.87,1.73,54.55,3.07,77.95,19.73,4.21,2.99,8.74,5.65,14.11,6.38,1.39.19,3.31.58,3.96,1.56,10.79,16.18,29.8,19.6,44.95,28.99,2.15,1.33,3.97,3.37,5.57,5.38,15.13,19.1,26.09,39.98,27.97,64.77.33,4.28.84,8.72,2.26,12.73,17.25,48.65,28.53,99.54,59.54,142.82,18.48,25.79,25.84,56.99,34.88,87.03,3.23,10.74,5.62,21.72,8.72,32.5,2.7,9.37,7.03,17.39,17,21.52,8.12,3.36,10.21,10.36,6.42,17.91-9.35,18.58-13.19,38.56-16.34,58.79-.63,4.06-1.79,8.57-6.28,9.49-4.61.94-7.19-3.19-9.32-6.54-5.07-7.94-7.06-17.1-8.5-26.14-6.68-41.93-24.71-79.45-44.44-116.43-13.69-25.65-26.97-51.44-38.43-78.29-11.85-27.75-27.44-53.85-43.41-79.61-12.12-19.55-25.06-38.82-29.89-61.95-.94-4.52-3.34-8.91-7.54-11.26-9.08-5.09-16.24-11.85-21.32-20.93-1.89-3.39-5.24-5.3-8.93-6.48-17.12-5.49-34.41-10.09-53.32-10.26Zm262.11,403.65c.77-1.02,1.57-1.61,1.67-2.31,2.88-18.55,7.2-36.66,15.12-53.84,2.18-4.74-.34-8.41-5.09-10.26-6.43-2.5-9.8-7.4-12.44-13.55-5.36-12.49-9.74-25.29-12.96-38.44-9.57-39.12-23.77-75.87-46.04-110.13-29.99-46.12-42.32-99.22-53.06-152.36-2.73-13.5-8.9-23.55-20.66-30.19-11.34-6.4-23.82-3.15-31.45,7.28-6.42,8.78-6.35,18.83-4.05,28.22,5.35,21.83,12.91,42.89,24.75,62.37,13.62,22.4,26.77,45.1,39.37,68.08,19.52,35.6,33.91,73.7,54.09,109.07,21.65,37.95,38.42,77.99,45.33,121.54.79,4.98,1.7,10.09,5.42,14.5Zm-503.8-441.29c1.12,2.88,3.74,1.64,4.69,2.94,5.37,7.32,11.55,5.24,18.35,2.29,5.87-2.55,12.3-2.89,18.73-3.01,13.88-.25,27.77.82,41.63-1.05,22.38-3.02,44.82-4.62,67.49-4.08,29.51.7,59.04.36,88.57.31,11.9-.02,16.82-5.48,16.16-17.28-1.07-19.1-22.33-30.77-41.55-22.7-31.1,13.08-64.18,17.37-97.31,19.3-22.9,1.34-45.57,3.15-67.97,7.75-16.62,3.42-33.73,5.62-48.79,15.53Zm122.37-32.52c3.78-3.24,4.78-6.8,5.76-10.25,3.47-12.19,5.32-13.65,18.31-12.24,5.68.62,9.05-.75,11.24-6.52,2.7-7.12,7.57-7.88,13.47-2.89,3.5,2.95,6.02,7.24,10.57,8.7,3.34,1.07,7.46,3.86,10.34.17,2.37-3.04.12-6.56-1.73-9.55-8.46-13.71-18.63-23.89-36.64-24.77-10.8-.53-21.63,1.03-27.02,10.21-8.5,14.47-10.02,29.97-4.3,47.15Zm89.64-69.11c4.83.24,6.57-.08,7.37-1.3.99-1.51.27-2.84-.69-3.9-11.38-12.5-23.19-24.34-41.43-26.09-13.95-1.33-26.22,7.99-25.29,19.08.43,5.13,1.96,7.05,6.91,3.72,4.42-2.97,9.09-5.5,14.31-1.55,11.53,8.71,25.26,9.03,38.81,10.04Zm-69.96,68.25c12.21-2.3,24.44-4.55,36.63-6.97,1.89-.38,4.15-1.1,4.25-3.65.09-2.13-1.87-2.6-3.34-3.47-2.97-1.75-5.94-3.52-8.77-5.47-2.14-1.48-4.32-2.87-5.17.84-2.04,8.99-8.21,8.26-14.85,6.55-3.09-.8-6.15-1.95-9.37-1.16-4.63,1.14-5.28,4.87-5.27,8.79,0,3.9,2.41,4.85,5.89,4.54Z"/>
</svg>