<?xml version="1.0" encoding="UTF-8"?>
<svg id="Layer_2" data-name="Layer 2" xmlns="http://www.w3.org/2000/svg" viewBox="0 0 1080 1080">
  <path d="m348.53,967.21c-.22,4.82.78,9.76,1.76,14.54,1.47,7.19,7.36,9.01,12.76,4.05,3.02-2.77,4.85-6.42,6.42-10.17,3.8-9.06,6.83-18.36,9.03-27.93,4.86-21.14,12.66-41.12,21.74-60.87,11.99-26.06,28.7-49.31,42.05-74.51,17.67-33.33,33.61-67.54,54.7-99.09,14.53-21.75,30.74-42.67,40.08-67.53,1.43-3.8,4.32-5.16,8.22-4.9,4.62.3,9.25.47,13.86.86,24.2,2.07,48.37,4.63,72.6,6.06,8.38.49,11.46,3.92,11.72,11.4.14,4.03.22,8.06.24,12.09.19,33.72-4.66,67.15-5.84,100.79-.26,7.32-.93,14.78-6.89,20.78-10.12,10.19-10.09,15.38-.13,26.15,9.17,9.92,15.93,21.13,20.62,33.7.53,1.41,1.03,2.87,1.55,4.32.82,1.4,1.69,2.76,2.7,4.02,2.68,3.37,7.79,4.06,11.56,2.25,2.26-1.08,3.74-3.03,4.85-5.23.64-1.27,1.3-2.62,1.55-4.03.23-1.26.14-2.56.15-3.84-.12-.75-.13-1.57-.2-2.32-2.94-30.02-1.11-59.97,5.14-89.27,7.61-35.7,13.92-71.77,26.09-106.44,5.97-17.02,2.43-25.13-12.66-35.31-4.29-2.9-8.88-5.47-13.62-7.58-31.73-14.14-64.19-26.34-98.02-34.52-7.37-1.78-10.1-5.35-9.35-12.71,2.78-27.25,15.29-49.84,34.09-69.07,5.43-5.55,8-11.07,6.84-18.4-.94-5.96-2.09-11.9-3.43-17.79-.74-3.25-1.13-6.28,1.32-8.94,11.9-12.9,21.37-28.09,36.36-38.09,10.89-7.27,20.81-15.82,29-25.9,15.51-19.09,33.26-35.11,56.14-44.98,4.17-1.8,5.72-4.96,3.69-9.08-2.89-5.85-1.08-10.42,2.96-14.9,1.88-2.09,3.43-4.67,4.45-7.29,1.2-3.09.87-6.39-1.96-8.67-2.53-2.04-4.86-.27-7.2.88-2.39,1.17-4.59,3.71-8.1,1.31,1.8-3.95,5.74-5.63,8.46-8.42,2.52-2.58,5.55-5.58,3.51-8.96-4.65-7.73-.83-13.62,2.75-20.01,2.16-3.86,3.56-8.89-.58-11.81-4.12-2.91-7.47,1.13-10.31,3.93-7.59,7.49-15.01,15.05-23.69,21.47-25.32,18.72-50.44,37.78-70.33,62.53-3.76,4.68-6.89,5.61-11.15.98-15.12-16.42-33.68-21.61-55.18-15.99-7.04,1.84-11.8.39-16.52-5.5-5.49-6.85-12.82-12.01-22.57-9.79-17.65,4.02-30.01,17.64-32.35,35.4-2.11,16.04-1.51,32.19-1.7,48.31-.04,3.34-.73,7.45,3.71,8.69,4.35,1.21,7.14-1.66,9.16-5,3.12-5.17,5.01-11.44,9.12-15.59,10.99-11.1,20.21-22.81,22.82-38.73.6-3.63,3.28-6.47,7.61-4.79,4.17,1.62,3.01,5.1,1.86,8.09-5.39,14.01-4.36,28.24-1.75,42.57,4.07,22.26,2.3,27.33-16.91,38.3-7.95,4.54-11.71,10.69-13.26,18.88-2.36,12.47-2.86,25.15-3.05,37.77-.21,14.25-2.61,28.17-6.38,41.72-3.37,12.12-7.51,24.31-18.97,32.02-14.82,9.98-18.43,24.33-15.45,40.97,1.29,7.2.69,14.24-.15,21.45-2.04,17.46-10.4,32.84-15.46,49.28-10.34,33.62-24.84,65.06-45.59,93.54-10.43,14.31-18.39,29.85-25.4,46.06-11.35,26.25-16.76,54.53-28.5,80.62-2.74,6.09-6.46,10.6-12.45,13.71-10.91,5.67-12.04,8.74-7.49,19.97,5.79,14.28,10.03,28.77,9.32,44.44Zm193.64-636.58c-6.61,1.02-9.15,4.97-10.8,10.69-6.57,22.7-7.85,24.56-27.36,42.13-.43-14.9-1.07-28.39,2.02-41.68,3.1-13.36,14.02-23.1,26.92-24.79,4.81-.63,8.59,1.05,11.79,4.16,4.6,4.47,3.67,8.52-2.56,9.48Zm167.53,12c-15.76,5.84-25.49,18.9-35.5,30.86-14.4,17.21-33.06,29.56-48.56,45.4-.78.8-1.82,1.34-2.67,1.96-3.15-1.2-2.3-2.87-1.09-4.76,17.36-27.02,39.43-50.1,61.97-72.75,5.34-5.37,12.29-8.54,18.87-12.13,4.86-2.66,7.63.29,9.92,3.89,2.32,3.65.35,6.3-2.94,7.52Zm-156.3,17.55c1.29-10.8,8.56-18.02,15.38-25.31,3.58-3.83,9.12-5.07,14.48-4.59,13.34,1.2,25.23,5.92,35,15.29,2.12,2.03,4.41,4.66,3.19,7.49-1.54,3.55-4.93,1.51-7.62,1.02-12.48-2.31-14.6-1.36-20.94,9.37-1.61,2.72-2.71,5.62-7.19,3.91-13.79-5.28-15.11-4.2-15.07,11.12.11,4.34.1,8.67-2.42,12.49-3.6,5.46-6.59,10.93-2.48,17.53,1.05,1.69.38,3.39-1.53,4.23-1.72.75-3.43.58-4.75-.85-.56-.61-1.14-1.51-1.13-2.27.12-16.64-6.93-32.57-4.92-49.41Zm54.74,8.78c-.67,1.15-1.38,3.11-2.69,4.51-9.57,10.28-19.23,20.48-28.95,30.61-1.24,1.3-2.47,3.97-4.82,2.28-1.8-1.28-1.61-3.74-.56-5.53,4.06-6.93,7.94-13.87,8.77-22.1.27-2.63,2.28-3.55,4.32-1.83,6.19,5.24,9.16.76,12.23-3.71,1.78-2.6,3.44-5.28,5.31-7.81.89-1.2,2.32-1.8,3.83-1.21,1.77.69,2.66,2.1,2.56,4.77Zm-65.59,78.93c2.83-8.51,7.29-15.81,15.49-21.06,31.75-20.32,56.62-47.92,79.16-77.5,13.99-18.36,31.64-32.62,48.69-47.65,5.61-4.94,11.78-9.27,17.85-13.67,2.73-1.98,6.18-4.86,9.24-1.52,3.58,3.89.68,8.15-2.3,10.53-11.22,9-19.45,20.53-27.48,32.04-11.13,15.95-25.93,28.66-37.9,43.6-17.58,21.96-36.67,42.84-52.14,66.49-5.96,9.11-13.47,17.1-18.64,26.88-2.89,5.46-9.24,6.44-14.19,6.73-12.16.18-21.6-13.39-17.78-24.87Zm-30.21,129.84c13.5-5.43,27.47-4.92,40.98-1.5,41.76,10.59,83.15,22.43,122.37,40.66,2.1.97,4.2,1.93,6.27,2.96,16.83,8.35,20.92,16.74,14.7,34.09-11.21,31.29-18.34,63.55-24.25,96.11-5.76,31.71-10.96,63.51-6.76,95.95.33,2.59,1.56,6.48-2.25,7.36-3.38.78-3.75-3.01-4.62-5.24-5.1-13.06-13.1-24.3-22.19-34.8-4.69-5.42-6.45-10.01.75-14.92,8.23-5.6,7.91-14.74,8.83-23.29,2.4-22.33.56-44.87,3.4-67.18,1.31-10.28,2.36-20.57,1.93-27.77-.14-12.1.45-21.03-1.73-29.82-1.49-6.02-5-9.72-11.35-10.03-23.44-1.13-45.91-8.79-69.48-9.63-11.83-.42-23.67.99-35.48-.59-15.88-2.12-28.92-7.51-33.9-24.72-3.29-11.35,1.8-23.23,12.78-27.65Zm-161.31,331.34c6.3-1.8,9.81-6.42,12.45-12.28,9.98-22.12,17.01-45.27,24.54-68.24,7.87-24,19.03-46.16,33.89-66.75,16.24-22.5,30.29-46.4,37.86-73.41,6.22-22.18,17.81-42.52,22.17-65.37,1.31-6.87,8.91-8.89,14.19-3.48,8.56,8.77,18.32,14.82,30.15,17.79,2.45.61,4.04,2.21,3.8,6.21-1.08,2.64-2.27,6.53-4.16,10.06-11.04,20.6-24.84,39.5-37.19,59.29-13.73,22-27.37,44.04-38.01,67.78-10.04,22.4-23.75,42.82-35.8,64.14-19.43,34.4-38.66,68.86-45.91,108.41-.85,4.63-.74,12.48-7.04,12.18-6.41-.3-3.84-7.86-4.65-12.29-2.04-11.14-5.17-21.88-10.74-31.77-3.41-6.05-2.97-10.15,4.44-12.27Z"/>
  <path d="m1715.19,981.85-515.8,2.66l-314.4.14-84.13.14c-21.41-.53-794.18.13-815.56-1.49-7.74-.59-11.43,2.2-10.68,10.31.45,4.86.17,9.79.19,14.68.08,18.19-1.37,16.81,16.91,16.81,677.7,0,2106.73,0,2784.43,0,542.16,0,3161.69,0,3703.85,0,2.9,0,5.79-.09,8.69-.09,4.33,0,6.31-2.23,6.33-6.43.03-9.79.1-19.58.13-29.37.01-4.37-2.09-6.09-6.55-5.76l-2254.47,1.26c-8.67-.42-17.37-.17-26.06-.17-419.36-.02-838.72-.03-1258.08-.04-2.74,0-5.07,0-7.06-.07-2.69.56-5.4,1.04-8.13,1.36-3.01.36-6.04.55-9.07.49-2.9-.06-5.73-.42-8.59-.9-5.72-.96-11.41-2.07-17.23-2.08-1.39.96-3.56,1.3-6.88,1.39-.08.09-.2.15-.36.15-2.22,0-4.44-.07-6.65-.15-8.7-.06-17.4-.23-26.1.01-1.9.05-3.49-.13-4.85-.59-9.48-.15-18.96-.33-28.44-.3-6.81.02-13.64.02-20.45.36-5.56.28-11.44.69-16.85-.94-.78.59-1.96.95-3.74.95-7.4,0-5.22-5.55-5.08-9.42.77-20.7,3.96-41.47,1.5-62.1-3.91-32.68-.33-65.15,3.34-97.28,3.25-28.49-.12-55.59-6.47-82.84-1.63-6.98-4.91-13.63-4.72-20.95.27-10.03-2.17-19.38-6.05-28.49-9.48-22.27-15.6-45.71-23.84-68.41-2.33-6.42-2.1-13.12-1.02-19.64.85-5.12,6.87-4.65,9.99-7.44,1.7-1.52,3.62-3.14,4.55-5.12,9.36-20.12,18.99-40.2,21.49-62.63,3.66-32.87,5.43-66.01,12.5-98.39,6.13-28.11,14.83-55.67,18.88-84.24,6.28-44.27,13.79-88.1,35.01-128.41,5.16-9.81,6.32-20.99,2.82-31.99-2.45-7.7-8.91-11.33-14.46-7.17-18.6,13.96-37.01,28.23-38.41,54.48-.46,8.58-1.81,17.22-5.18,25.28-8.34,19.93-15.64,40.27-23.54,60.36-11.5,29.26-18.96,58.99-20.17,90.51-.76,19.56-4.2,38.95-12.51,57.07-8.08,17.61-13.85,36-18.71,54.69-5.24,20.12-5.28,19.84-25.71,24.92-6.94,1.72-10.52-.36-14.17-6.05-10.57-16.51-22.21-32.28-34.74-47.41-18.81-22.7-36.5-46-48.03-73.58-12.17-29.12-28.79-55.57-49.84-79.52-17.27-19.66-36.1-38.53-47.72-62.39-10.64-21.86-29.36-32.54-51.12-39.51-9.76-3.12-14.92,1.28-13.37,11.23,2.13,13.69,7.56,26.05,17.84,35.72,20.85,19.62,36.65,42.84,49.92,67.95,8.21,15.52,14.41,32.03,24.38,46.69,27.3,40.14,51.71,81.9,71.37,126.34,12.33,27.86,27.74,53.76,49.8,75.33,3.28,3.2,5.86,7.12,8.68,10.77,18.03,23.38,12.57,47.25-2.56,65.59-2.2,2.67-4.31,5.48-4.98,8.99-2.8,14.47-8.23,28.16-12.59,42.18-8.91,28.63-12.04,57.96-10.18,87.86,1.7,27.24,5.54,54.45,1.2,81.79-1.13,7.11-1.77,14.28-.96,21.51,1.85,16.6.97,33.33,2.56,49.99,1.42,14.94-8.52,24.09-23.77,24.1-60.5.01-121.01.02-181.51,0l-366.54.03s-187.05-.03-280.58-.04h-64.51c-34.73.09-69.46.06-104.19.06v-.07m1112.44-447.47c7.63-29.87,16.71-59.24,28.44-87.81,7.39-18,12.19-37.21,12.1-56.29-.21-45.91,19.31-86.02,34.51-127.44,5.78-15.74,11.52-31.43,13.72-48.02,2.53-19.09,17.17-28.46,30.09-39.33,2.81-2.36,4.84-1.07,5.15,2.54.27,3.15.45,6.31.67,9.47,1.01,10.38-4.07,18.88-8.14,27.82-14.66,32.19-23.84,65.9-27.06,101.13-1.29,14.1-5.31,27.66-8.11,41.44-4.98,24.5-10.96,48.79-16.3,73.22-6.16,28.16-8.41,56.88-11.56,85.44-2.15,19.43-7.07,37.78-16.77,54.87-4.48,7.89-7.47,8.76-14.8,2.96-8.98-7.11-14.63-17-21.5-25.85-3.26-4.21-1.69-9.3-.45-14.15Zm-16.73,110.27c1.25-1.04,3.09-3.58,3.89-1.63,3.32,8.07,11.89,12.69,13.83,21.47.3,1.37.04,2.86.04,3.54-.62,7.11-1,13.87-8.19,16.34-4.29,1.48-12.88-7.17-15.68-13.05-5.13-10.77-2.74-19.3,6.11-26.67Zm-20.61,58.48c6.71-7.81,17.36-8.58,25.58-13.77.82-.52,3.16.14,3.98,1.01,7.59,8.03,18.8,11.05,26.21,19.5,9.2,10.5,11.31,23.95,4.82,38.51-5.84,13.1-17.2,17.56-30.07,19.36-17.59,1.03-30.26-8.07-36.09-22.34-5.62-13.73-5.46-29.43,5.58-42.28Zm-23.02-118.43c-5.17,1.67-7.79-2.98-10.66-5.93-19.37-19.94-32.8-43.64-44.04-68.78-17.9-40.05-39.06-78.37-64.18-114.37-14.48-20.74-23.39-44.31-36.09-65.88-13.02-22.12-27.3-43.43-46.13-61.26-7.33-6.93-11.92-15.48-15.4-24.71-.99-2.63-2.35-5.7.13-8.1,2.25-2.17,4.92-.45,7.35.3,19.36,5.99,34.51,16.53,42.82,35.97,7.13,16.66,21,28.8,32,42.83,11.02,14.05,22.89,27.44,34.05,41.39,13.31,16.64,21.45,36.29,29.56,55.54,11.42,27.12,29.46,49.31,47.81,71.59,12.46,15.13,24.19,30.84,34.82,47.3,2.79,4.32,5.53,8.85,5.25,13.47-.85,6.31-1.14,11.7-5.42,16.05-3.41,3.46-2.88,8.61-3.96,13.03-1.2,4.91-2.63,9.84-7.9,11.55Zm-13.56,372.56c.32,4.59-.89,9.67.71,13.71,4.43,11.23-3.22,18.51-7.64,26.84-1.91,3.61-5.71,4.31-8.99,2.04-4.22-2.92-7.18-7.08-5.27-12.54.92-2.62,2.8-5.05,4.7-7.17,6.78-7.56,9.67-16.24,8.29-26.27-4.35-31.56-.72-63.1-.4-94.68.29-28.42-.66-56.95-1.37-85.41-.4-15.99,2.57-31.5,4.44-47.19.4-3.36,1.12-7.29,4.7-8.75,4.23-1.72,7.05,1.76,9.71,4.2,8.86,8.14,10.07,18.98,10.13,30.08-.06,25.99-4.75,51.51-7.46,77.23-2.85,27.15-5.41,54.34-7.72,81.55-1.31,15.45-4.92,30.72-3.83,46.37Zm98.27,24.38c-25.19.14-50.38.19-75.57.3-4.38.02-6.7-2.6-8.75-6.02-4.89-8.15-5.75-17.3-4-25.98,5.07-25.05,2.02-50.49,4.68-75.6,3.12-29.45,6.45-58.89,9.83-88.31,1.11-9.66.81-19.49,4.1-32.13,8.15,15.92,20.6,20.65,35.21,22.02,7.93.74,14.74-1.38,21.56-4.96,8.2-4.31,11.37-2.75,11.85,6.2,1.32,24.7,4.05,49.28,4.4,74.08.56,39.66.88,79.41,6.36,118.83,1.1,7.88-2,11.51-9.68,11.56Zm37.76-193.64c-.98,25.3-4.33,50.39-7.63,75.44-2.28,17.37-.06,34.49,1.07,51.62,1,15.29,1.85,30.32-1.23,45.47-1.19,5.85-.62,12.03-1.15,18.03-.24,2.72,1.58,7.23-3.75,6.95-4.1-.21-5.7-3.22-5.93-7.19-.5-8.89-1.63-17.77-1.75-26.66-.61-47.15-6.41-93.98-8.35-141.04-.68-16.32-1.16-32.44-4.59-48.73-2.14-10.19,4.16-21.63,8.94-31.71,1.7-3.58,5.98-5.45,10.42-4.91,4.79.58,5.53,4.65,6.36,8.24,4.16,17.94,8.25,35.9,7.59,54.52Z"/>
</svg>