<?xml version="1.0" encoding="UTF-8"?>
<svg id="Layer_1" data-name="Layer 1" xmlns="http://www.w3.org/2000/svg" viewBox="0 0 1080 1080">
  <path d="m617.04,599.35c-.39-.49-.8-.95-1.26-1.37-6.22-5.74-13.66-10.08-21.13-14.17-20.8-11.39-43.27-3.41-52.18,18.65-3.35,8.29-3.53,16.5,1.53,24.52,4.04,6.41,8.03,12.94,9.22,20.68.56,3.63.51,7.32-4.08,7.44-14.06.34-25.96,16.4-39.26,19.78-23.6,5.98-41.37,19.63-56.55,37.44-10.84,12.72-13.47,18.82-19.16,33.81-5.41,14.24-4.98,28.83-2.06,43.46,1.46,7.3,7.67,11.28,14.9,9.55,6.91-1.66,5.1-7.57,5.22-12.24.08-2.85-.82-6.57-4.31-6.14-3.27.4-1.25,3.87-1.29,6.01-.04,2.71-.04,5.58-3.49,6.02-3.18.41-4.88-1.96-5.44-4.62-1.42-6.73-3.42-13.82-1.84-20.42,4.07-17.01,7.61-23.96,14.85-39.96,7.75-17.14,18.95-31.36,39.68-34.02,1.54-.2,2.92-1.12,2.99-2.63.34-6.7,5.58-7.2,10.36-8.8,11.23-3.76,22.88-12.8,34.13-18.43-4.45,7.4-6.01,15.77-9.18,23.54-.84,2.07-2.69,4.03-4.57,5.32-10.37,7.09-21.27,12.84-34.54,10.43-3.87-.7-6.71.46-8.25,3.89-7.82,17.4-19.61,31.78-33.43,44.75-3.93,3.69-5.16,8.51-2.47,13.66,2.41,4.62,5.11,9.1,7.4,13.78,1.2,2.45,2.71,3.27,5.06,2.08,2.48-1.26,2.41-3.21,1.05-5.37-2.4-3.82-4.89-7.58-7.07-11.52-1.72-3.11-1.96-6.26.93-9.11,12.43-12.26,22.94-25.94,30.73-41.61,1.21-2.43,3.07-4.32,6.16-4.03,11.21,1.08,21.05-2.76,30.51-8.17,1.71-.98,3.81-3.08,5.76-1.12,1.67,1.68.94,19.56.21,21.43-4.63,11.97-3.65,7.9-10.84,18.58-1.71,2.54-5.99,6.45-6.45,9.29-.68,4.26-8.37,5.12-11.39,7.61-10.91,8.98-19.52,19.51-19.41,34.67.06,9.26-2.51,17.77-6.96,25.74-3.24,5.8-6.91,11.35-10.17,17.13-5.46,9.7-12.05,18.94-14.84,29.84-1.97,7.69-5.11,14.76-8.69,21.71-7.87,15.27-18.55,28.59-28.93,42.19-19.09,25.02-28.67,54.29-36.48,84.25-1.51,5.8-3.18,11.55-9.96,13.63-1.71.52-2.83,2.05-2.81,3.79.02,1.72-.24,2.95-.7,3.83,5.24,6.76,8.07,15.06,11.14,22.94,3,7.69,6.33,16.18,13.1,21.35,3.14,2.4,6.87,4.36,10.81,4.97,3.6.55,7.82-.42,9.53-3.97,1.78-3.68.07-8.24-1.42-11.71-1.71-3.98-3.97-7.69-5.49-11.76-1.48-3.97-2.4-8.44-1.17-12.61.15-.5.33-.99.53-1.46-.07-1.32.6-3.09,1.93-5.64,8.32-15.94,17.16-31.63,26.05-47.27,9.72-17.09,20.21-33.74,29.01-51.35,3.3-6.6,7.92-12.36,12.84-17.85,19.05-21.23,36.3-43.79,51.19-68.12,4.35-7.11,6.3-6.76,11.64.93,2.19,3.16,4.13,6.5,5.89,9.92,6.89,13.42,16.62,24.41,28.17,34.1,8.6,7.21,8.44,7.58.1,15.48-24.51,23.2-39.62,51.68-47.55,84.16-1.68,6.88-5.01,11.94-11.72,15.02-6.12,2.8-8.24,10.16-5.76,18.59,2.69,9.16,8.05,17.16,11.85,25.84.79,1.81,2.78,3.63,3.04,5.57,2.15,2.92,3.39,6.55,5.61,9.44,2.62,3.41,6.22,5.86,10,7.83,1.74.9,3.77,1.87,5.78,1.68,1.73-.16,2.73-1.49,3.41-2.96,1.57-3.37,1.89-7.38,2.17-10.99v-.09c-7.39-23.16-6.84-44.93,8.54-65.5,12.66-16.94,26.28-33.07,39.34-49.66,10.23-13.01,22.29-24.75,28.91-40.37,3.66-8.64,3.23-16.63-.98-25.25-14.62-29.92-35.63-54.85-59.38-77.82-10.67-10.32-11.44-16.76-3.85-29.6,7.36-12.45,1.61-17.86,8.96-30.31,3.91-6.62,18.46-13.61,24.9-8.95,14.85,10.75,29.87,20.77,48.08,25.86,13.54,3.79,27.41,6.33,40.73,10.51,13.74,4.32,27.2,3.75,40.96,2.35,2.71-.27,5.76-1.09,5.98-4.1.49-6.96-.58-13.84-4.71-19.69-3.69-5.22-8.99-3-13.8-2.1-3.54.67-6.17.59-6.43-3.99-.26-4.38-2.64-4.49-4.75-1.43-4.26,6.2-9.73,5.18-15.2,2.83-5.23-2.25-10.56-4.66-15.11-7.99-11.19-8.18-23.21-14.04-37.12-15.46-4.46-.45-6.64-2.78-7.74-6.99-1.52-5.82-4.13-11.36-8.83-15.21-10.94-8.96-12.94-22.39-17.67-34.35-2.44-6.18,1.49-9.95,7.99-9.13,8.38,1.05,13.49-1.48,17.44-9.18,3.82-7.45,5.7-15.52,7.17-23.73,0,0,2.65-15.11,2.07-17.82l-7.66-9.71Zm-71.19,206.72c25.48,24.48,49.52,50.05,64.38,82.73,2.15,4.73,3.08,9.44,2.15,12.53-2.34,9.99-6.31,16.92-11.22,23.42-16.45,21.77-34.33,42.41-51.5,63.6-18.61,22.95-26.52,47.13-17.26,75.86,1.01,3.14,2.15,6.95-1.95,8.67-3.67,1.54-5.74-1.63-7.28-4.24-7.74-13.09-15-26.45-20.24-40.76-1.86-5.08-1.8-10,3.98-12.77,8.01-3.84,11.53-10.92,14.13-18.75,2.91-8.77,5.72-17.57,8.71-26.3,8.15-23.8,24.32-42.06,41.55-59.6,6.11-6.22,6.71-8.63-.26-13.65-19.79-14.23-29.99-35.91-44.3-54.38-1.97-2.54-1.25-4.98-.12-7.34,4.52-9.39,9.19-18.71,13.78-28.07,1.39-2.84,2.99-3.3,5.43-.95Zm2.03-184.1c-3.28-5.19-2.28-10.74.01-16.36,8.12-19.91,24.92-26.47,43.86-16.47,8.64,4.56,16.72,10.07,23.86,16.82,1.95,1.84,4.07,3.56,2.92,6.63-3.7,9.87-3.84,20.48-6.53,30.57-2.93,10.99-7.52,13.32-17.63,7.7-5.63-3.13-7.85-1.95-8.25,4.8.29,5.31-2.66,5.24-7.2,3.48-4.42-1.71-9.04-2.97-13.67-4.03-3.33-.76-4.64-2.92-5.55-5.78-3.03-9.51-6.43-18.81-11.83-27.37Zm8.51,44.16c10.83-5.6,25.27-1.62,29.44,8.05,1.59,3.68,2.08,7.35.19,10.96-1.96,3.76-.46,5.68,2.65,8.18,10.47,8.42,22.18,16.09,23.21,31.54.24,3.53,2.95,5.26,6.33,5.76,16.09,2.4,30.23,9.03,43.69,18.11,9.04,6.1,19.25,9.48,31.11,7.24,5.05-.95,11.16-.04,16.64.54,6.09.65,5.53,6.9,6.05,11.41.55,4.75-3.61,4.39-6.45,4.53-7.81.37-15.68,1.3-23.41-.82-22.9-6.29-46.34-10.71-68.35-20.07-10.58-4.5-19.87-10.29-25-21.04-1.06-2.23-2.39-3.95-4.83-2.68-4.62,2.4-6.45-.85-8.58-3.71-5.85-7.85-10.14-16.58-14.53-25.27-3.68-7.29-5.04-7.36-9.41-.61-1.89,2.92-3.32,1.63-4.96-.15-8.25-8.95-4.91-26.23,6.19-31.98Zm-187.68,363.69c8.55-6.19,10.05-16.49,12.39-25.69,5.61-21.97,13.39-42.89,25.13-62.37,4.69-7.77,10.33-14.74,16-21.75,12.47-15.44,22.46-32.18,28.35-51.34,4.21-13.7,12.69-25.4,19.52-37.87,5.22-9.54,11.07-18.85,13.43-31.02.72-8.33-.46-18.4,6.23-26.65,2.24-2.76,4.08-5.9,6.58-8.37,6.4-6.32,10.78-6.43,18.13-1.31,7.03,4.9,13.98,9.94,21.32,14.34,5,2.99,6.19,6.32,4.4,11.76-8.25,25.19-20.2,48.56-35.25,70.27-13.1,18.9-26.74,37.4-42.33,54.47-15.86,17.37-24.37,39.44-36.33,59.3-10.02,16.65-19.06,33.9-29.24,50.45-8.05,13.08-10.52,26.2-4.09,40.5.39.86.75,1.76.99,2.67.72,2.8,3.94,6.37.67,8.27-3.56,2.07-7.92.4-11.01-2.65-1.14-1.13-2.06-2.7-2.53-4.24-3.18-10.56-8.28-20.18-14.28-29.37-2.47-3.79-2.21-6.43,1.91-9.41Z"/>
  <path d="m516.15,641.03c3.35.34,4.87-2.8,6.03-5.43,2.35-5.32,4.7-10.65,9.14-14.57,5.67-5.02,8.64-11.45,10.67-18.48.74-2.57,1.25-5.27,3.15-7.31,1.32-1.42,3.11-2.46,4.98-1.47.72.38,1.09.81,1.26,1.27.55-.96,1.11-1.91,1.7-2.84,1.81-2.86,3.85-5.59,6.13-8.09-3.83-.47-7.13-2.62-10.19-6.36-5.01-6.11-11.48-5.92-18.07-3.24-6.95,2.82-12.12,7.67-15.34,14.58-6.92,14.82-4.15,30.3-3.34,45.63.13,2.5.64,6,3.89,6.32Zm3.01-46.92c3.42-8.57,9.9-12.81,18.46-14.77,3.17-.72,5.67.49,7.92,2.48,3.69,3.27,3.42,5.15-1.24,6.81-3.11,1.11-5.82,2.39-6.23,6.03-1.13,10.02-5.04,18.59-12.97,25.14-2.17,1.8-2.72,5.08-6.52,6.79.13-11.2-3.71-21.7.6-32.49Z"/>
  <path d="m553.46,644.82c1.66-1.45.59-7.74,2.34-8.99,7.11-5.05,14.19-4.43,10.84-8.9-1.74-2.31.52-6.63,7.63-8.75,3.81-1.14,4.87-3.5,6.04-6.06,5.8-12.68,11.41-15.97,23.14-13.69,2.06.4,4.32.61,5.47,1.93-.18-.94-.41-1.86-.72-2.73-.44-1.22-1.04-2.35-1.9-3.28-.61-.66-1.09-1.4-1.59-2.14-.57-.82-1.15-1.65-1.93-2.31-.27-.23-.57-.45-.92-.62-.04.26-.13.55-.3.88-2.07,4.07-8.06,3.11-12.42,4.85-5.97,2.39-10.37,5.46-11.68,10.3-1.1,4.06-2.89,6.32-9.01,7.95-8.1,2.16-11.67,6.45-10.31,11.38.24.87.69,1.63.89,2.52.68,3.05-2.59,1.92-8.42,5.37-1.98,1.17,1.06,3.23.32,2.89.07.35.97,5.08,1.06,5.42"/>
</svg>