<?xml version="1.0" encoding="UTF-8"?>
<svg id="Layer_2" data-name="Layer 2" xmlns="http://www.w3.org/2000/svg" viewBox="0 0 1080 1080">
  <path d="m404.27,477.18c-.2-.25-.42-.49-.66-.72-1.45-1.37-3.19-2.16-5.03-2.55-1.86-.39-3.8-.61-5.69-.55-1.78.06-3.64.35-5.18,1.42-.7.48-1.3,1.11-1.81,1.84-.16.23-.32.47-.46.73,0,1.12,0,2.25,0,3.64l.02,96.4s-.01,49.19-.02,73.79v16.97c.04,9.13.03,18.27.03,27.4h-.03l-.02,106.45.07,82.69.06,22.13c-.25,5.63.06,183.01-.69,188.63-.27,2.04,1.02,3.01,4.79,2.81,2.26-.12,4.54-.04,6.82-.05,8.45-.02,7.81.36,7.81-4.45,0-151.71,0-427.83,0-616.57Z"/>
  <path d="m695.17,600.81c-.44-.39-.92-.74-1.44-1.01-1.82-.94-3.93-1.28-5.89-1.43-2.09-.15-4.22-.03-6.26.54-1.73.48-3.55,1.33-4.8,2.91,0,.66,0,1.32,0,1.97l.02,77.86s-.01,39.73-.02,59.6v13.7c.04,7.38.03,14.75.03,22.13h-.03l-.02,85.98.06,66.78.06,17.87c-.24,4.55.06,147.81-.67,152.35-.27,1.64,1,2.43,4.68,2.27,2.2-.1,4.44-.04,6.66-.04,8.25-.02,7.63.29,7.63-3.59,0-122.51,0-345.46,0-497.9Z"/>
  <g>
    <path d="m690.76,602.17c-2.02,1.6-3.94,3.33-5.9,5.01-1.71,1.46-3.26,2.26-4.32-.7-.33-.93-.84-2.01-2.13-1.93-1.22.08-1.68,1.1-2.07,2.06-.53,1.31-1.17,2.62-1.44,4-1.38,6.89-5.27,12.09-11.13,15.63-10.74,6.49-17.63,16.03-22.75,27.17-1.23,2.67-2.41,5.68-5.09,7.16-4.39,2.42-7.96,5.71-11.25,9.36-2.2,2.43-3.9,2.02-6.11-.14-7.88-7.71-13.9-3.34-20.43-12.15-2.85-3.84-3.27-18.64.2-21.83,4.08-3.76,8.23-7.47,12.63-10.84,13.15-10.09,22.65-23.21,31.4-36.99,2.36-3.71,2.84-7.57,1.58-11.84-1.26-4.27-3.33-8.1-5.59-11.86-7.32-12.17-16.14-23.34-23.8-35.29-3.76-5.87-7.81-11.56-10.94-17.79-2.33-4.64-1.42-9.25,1.72-12.03.02-.05.05-.09.11-.13.05-.03.1-.06.14-.09.33-.27.69-.53,1.07-.76.27-.22.54-.45.8-.68.64-.56,1.27-1.13,1.99-1.58.81-.5,1.68-.95,2.52-1.4.91-.48,1.84-.94,2.77-1.38.68-.32,1.38-.61,2.03-.97,2.31-1.27,4.51-3.09,5.98-5.3,1.29-1.95,1.95-4.84-.28-6.38-1.01-.7-2.26-1.04-3.45-1.26-1.22-.23-2.47-.34-3.71-.36-3.2-.06-6.38.15-9.51.84-1.71.38-3.4.89-5.02,1.59-1.76.76-3.41,1.76-5.03,2.77-3.27,2.03-6.5,4.1-10.07,5.59-1.66.69-3.36,1.28-5.08,1.8-.9.27-1.81.52-2.72.76-.82.21-1.64.39-2.42.73-1,.43-2.02,1.14-2.3,2.26-.3,1.17.21,2.39.81,3.37.75,1.23,1.64,2.37,2.26,3.67.47.65.8,1.54.94,2.79.16,1.4,1.17,2.67,2.51,3.29,3.78,1.78,5.33,5.06,6.26,8.81,1.49,6,2.95,12.01,4.48,18,3.57,14.01,11.84,25.35,20.74,36.32,3.95,4.87,4.02,4.97-1.05,8.35-7.63,5.08-13.99,11.31-19.01,19.03-2.21,3.41-4.27,7.48-8.38,8.86-7.84,2.62-16.76,8.8-23.07,13.64-9.95,7.61-8.13,14.4-.95,24.54,5.56,7.84,13.55,15.39,17.5,24.09,3.99,8.8,8.53,19.57,13.41,27.95,4.89,8.38,6.17,14.77,16.05,16.82,5.64,1.17,7.62,4.64,8.79,9.37.92,3.75.55,7.39-.95,10.98-3.43,8.23-1.22,15.01,5.27,20.84,9.26,8.31,18.21,8.68,27.76.74,3.88-3.23,7.41-6.87,10.25-11.04l2.18-7.73c.49-1.86-2.5-7.38-2.5-7.38-2.03-4.87-2.41-9.88-5.78-14.08-3.77-4.7-6.92-5.58-12.53-3.43-1.2.46-2.3,1.17-3.61.18-5.59-4.2-5.99-13.95-.71-18.6,2.61-2.3,5.32-4.51,7.88-6.86,2.64-2.41,4.68-5.47,5.2-8.89,1.12-7.42,5.54-12.53,10.62-17.48,7.02-6.83,14.61-13.39,18.34-22.73,4.78-11.94,11.07-22.97,18.34-33.51.74-1.07,1.58-2.27.35-3.47-1.37-1.34-2.68-.38-3.78.5Zm-101.47,42.24c-5.28,2.99-10.55,6-15.83,8.97-1.37.77-3.07,1.65-4.29.25-4.65-5.36-9.17-10.84-10.69-17.41-.38-4.66.9-8.13,3.97-10.66,6.15-5.09,12.17-10.43,19.77-13.42,4.11-1.62,7.2-4.52,9.59-8.15,5.95-9.07,13.29-16.66,22.37-22.71,6.31-4.2,6.01-4.53,1.31-10.3-8.33-10.24-16.34-20.75-20.39-33.52-2.06-6.49-3.31-13.24-4.89-19.88-1.21-5.1-2.63-9.89-7.83-12.68-2.7-1.45-1.86-4.57-1.81-7.08.04-2.14,1.68-3.42,3.49-3.61,8.51-.89,15.35-5.89,22.92-9.06,2.27-.95,4.52-1.92,6.99-2.21.76-.09,1.63-.31,2.12.48.62.99-.1,1.75-.75,2.34-1.04.95-2.18,1.81-3.31,2.66-2.48,1.85-5.13,3.5-7.46,5.53-6.72,5.85-8.12,12.69-3.81,20.41,5.72,10.25,12.46,19.88,19.21,29.48,5.79,8.23,11.49,16.51,16.68,25.14,4.48,7.44,5.06,13.99-.29,22.08-10.07,15.24-22.72,27.64-36.91,38.77-3.73,2.92-6.83,6.29-7.83,11.16-.29,1.41-1,2.65-2.34,3.41Zm43.66,73.56c.72,2.41,1.95,2.7,3.79.67,4.64-5.14,6.92-4.98,11.35.31,4.48,5.35,1.98,9.62,5.59,15.41.63,1.01.78,7.44.16,8.29-4.11,5.64-5.15,8.35-10.6,12.79-2.57,2.09-5.64,3.05-8.65,3.63-8.66.67-22.1-9.24-18.8-20.17,2.09-6.92,3.37-13.76.2-20.72-.63-1.39,0-2.55,1.56-2.94,2.87-.72,5.06-2.46,7.13-4.45,2.14-2.04,3.8-1.69,5.05,1.03.96,2.1,2.54,3.84,3.22,6.13Zm52.66-105.61c-5.81,7.61-8.34,16.82-12.4,25.28-4.02,8.37-10.89,14.31-17.11,20.81-3.82,3.99-8.95,7.42-10,13.03-1.84,9.84-7.76,16.23-15.47,21.66-2.55,1.79-3.59,4.67-4.1,7.67-1.81,10.63-12.03,11.31-19.42,9.47-1.84-.46-2.99-1.95-3.85-3.61-1.79-3.47-2.75-7.23-3.47-11.02-.23-1.22-.09-2.61.28-3.81.9-2.97,3.79-4.13,6.09-3.62,3.24.71.3,3.06.21,4.68-.06,1.21-1.26,2.77.27,3.45,1.57.69,2-1.17,2.67-2.17,6.39-9.58,13.99-18.17,21.75-26.63.09-.09.17-.22.28-.26,9.29-3.95,12.87-12.59,16.91-20.76,3.5-7.09,9.01-12.19,15.44-16.44,5.95-3.93,10.92-8.64,13.42-15.53.63-1.73,1.57-3.05,3.72-1.77,2.37,1.42,3.04-1.78,5.16-2.04-.15.72-.1,1.28-.36,1.62Z"/>
    <path d="m593.7,731.63c.43,8.93-.27,18.06,4.61,26.24,2.27,3.81,5.55,6.32,9.74,7.55,3.97,1.17,7.74.9,10.28-2.94,1.56-2.35,3.34-3.78,5.53-4.28-1.47-1.32-2.81-2.78-4.02-4.33-.4-.51-.78-1.02-1.15-1.55-.07.27-.26.55-.65.81-1.03.69-2.12.19-2.97-.56-1.22-1.07-1.67-2.61-2.25-4.05-1.59-3.96-3.69-7.51-7.26-10.09-2.8-2.02-4.48-4.97-6.15-7.91-.83-1.45-1.89-3.18-3.81-2.79-1.86.38-1.95,2.44-1.88,3.89Zm4.13,4.33c2.31.77,2.81,2.64,4.18,3.55,4.98,3.33,7.75,8.07,8.99,13.81.45,2.09,2.1,2.67,3.96,3.13,2.8.69,3.07,1.76,1.12,3.87-1.19,1.29-2.56,2.13-4.44,1.9-5.08-.63-9.08-2.71-11.56-7.48-3.12-6-1.51-12.31-2.25-18.79Z"/>
    <path d="m616.98,723.35c1.05.74.8,4.45,1.88,5.07,4.41,2.51,8.48,1.74,6.8,4.52-.87,1.44.69,3.81,4.93,4.63,2.28.44,3.03,1.74,3.86,3.16,4.1,7.01,7.54,8.58,14.21,6.58,1.17-.35,2.47-.6,3.06-1.44-.05.56-.13,1.1-.25,1.62-.18.73-.46,1.42-.91,2.01-.31.42-.55.88-.8,1.33-.28.51-.57,1.02-.98,1.45-.14.15-.31.29-.49.41-.04-.15-.11-.31-.23-.49-1.44-2.24-4.85-1.33-7.48-2.08-3.6-1.03-6.33-2.56-7.37-5.29-.88-2.29-2.04-3.49-5.69-4.08-4.82-.78-7.14-3.06-6.64-5.99.09-.52.31-.98.37-1.51.22-1.81-1.61-.96-5.19-2.62-1.22-.56.42-1.93.02-1.7.02-.21.26-3,.3-3.2"/>
  </g>
</svg>