<?xml version="1.0" encoding="UTF-8"?>
<svg id="Layer_1" data-name="Layer 1" xmlns="http://www.w3.org/2000/svg" viewBox="0 0 1080 1080">
  <path d="m5395.1,1063.17l-6511.13.55c-4.14,6.76,3.4,13.52,0,20.28,2729.98,0,5498.17,0,6480.64,0,10.27,0,20.55-.04,30.82-.05,15.36,0,22.4-1.11,22.45-3.22.12-4.9.35-9.79.46-14.69.05-2.18-7.42-3.05-23.26-2.88Z"/>
  <g>
    <path d="m696.6,717.2c.05-.23.11-.43.17-.63.17-1.66.35-3.32.4-4.99.09-3.34-.58-6.75-2.09-9.75-1.31-2.58-3.28-4.69-5.44-6.59-.15-.13-.17-.29-.11-.43-2.31-1.75-5.32-1.44-8.21-1.08-4.6.57-9.2,1.19-13.8,1.79.56-.8,1.12-1.61,1.69-2.41,1.53-2.14,4.3-4.58,1.86-7.01-2.85-2.84-4.66.93-6.53,2.42-4.73,3.79-9.51,3.05-14.44.65-8.02-3.9-15.26-9.1-21.55-15.21-9.8-9.52-20.97-15.93-34.37-18.64-3.77-.76-6.89-2.53-7.46-6.98-1.32-10.33-6.56-18.82-12.95-26.72-2.25-2.78-3.62-5.77-3.44-9.4.7-14.59-2.53-28-11.04-40.2-4.48-6.43-1.26-12.61,6.41-12.55,9.28.07,14.42-4.3,17.54-12.62,3.27-8.72,4.2-17.52,3-26.65-.35-2.66-.54-5.34-.78-8.01-.04-.44-.06-.86-.06-1.27-.35-1.14-.26-2.48-.19-3.62.09-1.43.29-2.85.24-4.28-.07-1.86-.44-3.72-1.11-5.46-.79-2.01-2.05-3.66-3.56-5.07-2.71-1.28-5.37-2.83-7.99-4.58-8.4-5.58-17.89-9.23-27.45-12.33-9.8-3.17-20.04-3.67-29.54.6-23.89,10.74-30.25,43.71-12.38,62.64,4.42,4.69,8.32,9.63,9.9,16.04,1.88,7.66.34,10.76-7.22,13.39-6.29,2.19-11.95,5.73-18.01,8.24-10.17,4.21-15.95,13.64-24.67,19.16-24.57,15.56-36.87,39.26-45.16,65.55-4.29,13.58-.57,27.67-.03,41.54.78,19.8,4.2,38.78,15.48,55.75,4.4,6.63,11,8.81,18.17,4.88,4.92-2.7,5.95-8.64,2-15.45-1.77-3.07-2.65-9.49-6.84-7.72-3.46,1.46.59,6.37,1.58,9.71.86,2.89,1.61,6.06-1.79,7.74-3.02,1.49-5.12-.6-6.73-2.92-6.34-9.09-11.94-18.56-13.39-29.8-2.4-18.67-4.82-37.44-3.23-56.26,1.56-18.47,8.76-34.45,24.83-45.33,3.51-2.38,8.7-4.02,3.28-9.72-1.78-1.88.77-3.32,2.31-4.5,14.08-10.8,31.67-16.78,43.16-31.18.96-1.2,2.78-2.52,4.56-1.53,2.15,1.2.55,2.98.19,4.53-1.28,5.47-3.31,10.88-3.68,16.41-1.02,15.31-9.75,26.12-19.86,36.39-4.81,4.89-10.2,8.57-17.18,8.97-7.92.46-10.44,4.99-10.34,12.13.27,18.8-5.69,36.06-13.56,52.77-5.97,12.69,4.73,30.21,19.07,30.76,1.12.04,2.73-.27,3.29-1.03.83-1.11-.3-2.29-1.29-3.01-3.17-2.3-6.39-4.54-9.62-6.76-9.68-6.68-9.92-8.39-5.21-19.3,7.1-16.43,13.04-33.27,13.64-51.4.15-4.58,2.29-6.68,6.4-7.45,7.61-1.42,13.42-5.76,18.52-11.26,3.83-4.13,7.57-8.34,11.42-12.45,1.14-1.21,2.47-2.98,4.31-1.99,2.02,1.09,1.66,24.86,1.29,26.41-4.71,19.8-11.27,17.48-23,34.56-7.66,11.15-10.83,23.34-9.3,36.82,1.61,14.15-.82,27.6-6.43,40.77-6.81,15.98-12.87,32.47-15.09,49.68-2.35,18.25-7.47,35.4-15.71,51.59-10.89,21.38-21.06,42.88-27.54,66.18-5.59,20.12-4.42,40.71-7.12,60.99-.73,5.46-2.22,9.98-7.35,12.64-3.79,1.97-5.29,5.22-4.38,9.17,0,.03,0,.05.02.08.26.62.47,1.25.65,1.9.36,1.29.62,2.6.99,3.88.39,1.35.97,2.56,1.6,3.81,1.41,2.81,2.91,5.56,4.35,8.35,2.41,4.67,4.45,9.53,7.09,14.08,1.33,2.29,2.81,4.5,4.53,6.52,1.37,1.6,2.88,3.1,4.41,4.56,3.22,3.06,6.77,5.96,10.84,7.81,3.85,1.75,8.26,2.28,12.05.06,1.81-1.06,3.32-2.56,4.09-4.54.71-1.84.8-3.84.61-5.78-.4-4.17-2-8.13-3.45-12.02-1.25-3.37-2.35-6.82-3.25-10.31-1.06-4.1-1.88-8.35-1.85-12.61,0-1.14.09-2.29.26-3.43,0-1.69.55-4.01,1.5-7.17,9.93-33.01,23.43-64.89,32.91-97.96,8.16-28.47,23.91-52.84,36.94-78.74,9.12-18.13,18.47-36.12,25.2-55.36,4.53-12.96,6.53-13.53,20.27-11.09,7.7,1.36,14.33,5.06,20.84,8.91,12.63,7.49,25.99,12.36,40.73,13.81,10.37,1.02,11.61,2.97,9.18,13.31-4.78,20.31-7.73,40.74-6.92,61.69.59,15.3,5.69,29.71,7.97,44.66,1.37,8.99,2.04,17.8-1.39,26.68-3.06,7.91-1.33,11.82,6.09,15.65,4.59,2.37,7.66,5.93,10.38,10.08,3.09,4.7,6.12,9.51,10.4,13.23,2.44,2.12,5.61,3.55,8.84,2.21,3.41-1.42,2.71-4.88,2.66-7.74-.13-8.11-1.91-16-3.59-23.87-2.45-11.51-3.37-23.08-3.8-34.86-1.63-44.2,2.2-87.76,12.26-130.89,4.24-18.18-.25-26.25-15.77-36.33-25.24-16.4-52.9-26.46-82.26-32.45-16.67-3.4-19.01-7.53-14.28-23.83,5.06-17.45,6.31-17.9,20.1-6.3,19.15,16.11,42.27,24.47,65.11,33.35,10.73,4.17,21.61,8.01,32.63,11.33,7.04,2.12,14.56,1.81,21.92,2.12,6.33.27,11.17-1.02,12.66-8.1Zm-191.66-185.83c-7.38-7.67-8.18-16.24-5.22-25.73,2.61-8.39,7.8-15.12,14.08-21.08,4.69-4.45,10.58-4.6,16.61-4.45,17.29.66,31.64,9.21,46.14,17.34,1.61.9,2.74,2.57,2.35,4.27-2.98,12.76,1.21,25.74-1.44,38.57-1.85,8.93-6.58,15.58-18.18,9.7-5.75-2.92-8.49-1.12-8.12,5.31.41,7.31-2.26,8.51-8.57,6.09-5.14-1.97-10.66-1.34-16.02-1.06-3.76.19-6.16-.99-7.05-4.73-2.29-9.6-7.94-17.32-14.56-24.21Zm20.18,218.12c-11.01,38.87-29.16,74.57-49.72,109.1-9.88,16.6-15.61,34.69-21.45,52.81-8.84,27.44-19.82,54.12-28.59,81.6-5.29,16.58-7.94,32.68-1.68,49.39.77,2.05,1.19,4.24,1.59,6.39.31,1.67.64,3.57-.89,4.8-1.83,1.47-3.75.55-5.47-.46-5.58-3.29-10.38-7.73-13.83-12.99-5.08-7.74-9.18-16.12-13.54-24.32-1.2-2.26-1.3-5,.92-6.75,9.96-7.86,10.31-19.19,10.06-30.05-.73-31.81,7.98-61.41,20.66-89.96,6.62-14.92,15.63-28.76,20.73-44.45,3.11-9.56,5.39-19.21,6.75-29.19,2.39-17.55,8.57-34.16,15.18-50.42,6.74-16.57,8.9-33.4,7.42-50.92-.78-9.21,1.98-17.3,6.82-24.94,2.78-4.38,6.07-5.66,11.16-3.47,12.83,5.52,25.9,10.43,39.63,13.31,3.59.75,4.63,3.2,4.69,4.43-1.04,17.24-6.32,31.52-10.45,46.07Zm23.19-36.13c8.89,2.74,17.99,4.9,27.12,6.73,22.28,4.47,42.12,14.44,61.24,26.15,12.13,7.43,13.23,9.59,12.88,26.85-1.38,16.89-6.4,36.36-9.16,56.18-3.86,27.7-3.29,55.56-1.95,83.42.72,14.9,2.34,29.69,5.16,44.35.43,2.22,1.51,5.55-1.24,6.59-2.85,1.08-3.91-2.3-5.2-4.18-4.17-6.08-8.36-12.11-14.85-16.02-3-1.81-3.89-4.61-2.76-7.59,5.38-14.15,2.18-28.15-1.26-41.84-7.27-28.88-7.24-57.5.6-86.19.96-3.52,1.46-7.18,2.04-10.79,2.14-13.34,2.23-14.31-11.17-15.91-19.23-2.3-36.48-9.08-52.95-18.74-5.91-3.47-12.34-6.03-19.54-5.65-5.26.28-7.09-1.99-5.53-7.26,3.04-10.31,5.92-20.67,8.53-31.1,1.16-4.64,2.65-6.66,8.05-4.99Zm135.58,5.3c-8.74-1.2-17.9-1.24-26.1-4.04-24.79-8.47-49.69-16.8-72.78-29.6-13.14-7.29-23.55-16.6-28.35-31.24-1.15-3.52-2.53-7.24-6.74-2.3-2.78,3.27-3.64.1-4.65-1.53-5.7-9.19-9.42-19.31-13.57-29.23-1.13-2.71-2.25-5.42-3.43-8.1-.85-1.93-1.23-4.74-4.36-3.65-2.25.79-2.24,2.87-1.87,4.96.32,1.79,1.89,4.23-.51,5.2-2.33.95-3.95-1.45-5.42-2.99-8.4-8.76-8.7-28.86-.77-38.16,3.43-4.02,7.51-5.88,12.88-5.64,9.84.44,18.19,3.83,24.52,11.46,5.3,6.39,7.25,13.46,2.43,20.9-2.65,4.1-1.14,5.73,2.06,8.83,10.87,10.5,22.48,20.89,22.01,38.05-.13,4.6,2.71,7.22,6.73,8.57,4.18,1.39,8.46,2.51,12.72,3.64,8.22,2.18,15.29,6.12,21.69,11.84,6.37,5.7,13.48,10.57,20.34,15.71,8.14,6.1,16.92,8.63,26.76,4.23.59,7.07,5.67,5.18,9.91,4.85,9.14-.73,12.56,2.27,13.17,11.33.33,4.9-1.37,7.66-6.67,6.93Z"/>
    <path d="m464.61,537.95c2.98.3,4.34-2.49,5.37-4.83,2.09-4.73,4.19-9.48,8.14-12.98,5.05-4.47,7.7-10.19,9.5-16.46.66-2.28,1.11-4.69,2.8-6.51,1.18-1.27,2.77-2.19,4.44-1.31.64.34.97.72,1.12,1.13.49-.85.99-1.7,1.51-2.53,1.61-2.54,3.42-4.97,5.45-7.2-3.41-.42-6.35-2.33-9.08-5.66-4.46-5.44-10.22-5.27-16.09-2.89-6.19,2.52-10.79,6.83-13.66,12.98-6.16,13.2-3.69,26.98-2.97,40.63.12,2.22.57,5.34,3.46,5.63Zm2.68-41.78c3.04-7.63,8.81-11.41,16.44-13.15,2.82-.64,5.04.43,7.05,2.21,3.29,2.91,3.05,4.59-1.11,6.06-2.77.98-5.18,2.13-5.55,5.37-1.01,8.92-4.49,16.55-11.55,22.39-1.94,1.6-2.42,4.52-5.81,6.04.12-9.97-3.3-19.32.53-28.93Z"/>
    <path d="m516.55,547.65c.94-2.01-2.07-7.01-.98-8.88,4.43-7.62,10.73-10.3,6.36-12.66-2.27-1.23-1.76-6.01,3.64-11.08,2.9-2.72,3.02-5.25,3.18-8.02.76-13.66,4.48-19.07,15.34-22.41,1.9-.59,3.92-1.44,5.35-.8-.47-.74-.97-1.43-1.53-2.05-.78-.86-1.68-1.57-2.73-1.99-.74-.29-1.4-.73-2.08-1.14-.76-.46-1.54-.91-2.43-1.14-.31-.08-.64-.13-1-.13.05.24.07.54.04.9-.42,4.48-5.9,6.36-9.07,9.86-4.34,4.78-7.1,9.46-6.61,14.26.41,4.03-.38,6.81-5.1,11-6.25,5.55-7.89,10.91-5.07,14.58.5.65,1.14,1.1,1.61,1.79,1.6,2.34-1.59,2.84-5.45,8.49-1.31,1.92,1.99,2.33,1.24,2.37.18.27,2.53,3.98,2.73,4.23"/>
  </g>
</svg>