<?xml version="1.0" encoding="UTF-8"?>
<svg xmlns="http://www.w3.org/2000/svg" viewBox="0 0 1080 1080">
  <defs>
    <style>
      .cls-1 {
        fill: #f2f1f2;
      }
    </style>
  </defs>
  <g id="Layer_1" data-name="Layer 1">
    <path class="cls-1" d="m156.83,317.47c3.17.58,4.48,3.73,3.06,5.86-3.4,5.07-1.19,9.27.17,14.1,3.61,12.78,9.71,24.11,18.22,34.27,1.14,1.36,1.99,2.98,2.81,4.56.69,1.32,1.3,2.86.01,4.13-1.4,1.38-3.01.42-4.04-.44-3.86-3.24-8.12-6.24-11.17-10.15-10.24-13.13-17.3-27.45-14.65-44.85.62-4.06,2.76-7.38,5.59-7.48Z"/>
    <path class="cls-1" d="m163.94,286.12c1.81-.6,3.63-1.2,5.44-1.8,1.4,3.95,2.82,7.9,4.21,11.86.4,1.13.96,2.27,1.03,3.43.25,4.36-1.55,7.86-5.8,9.08-2.82.81-6.61,3.49-8.86-.42-2.31-3.99-3.05-9.06.35-12.57,2.88-2.96,3.86-5.84,3.63-9.58Z"/>
    <path class="cls-1" d="m173.01,338.4c.06.59.13,1.18.19,1.78-1.01.63-2.05,1.21-3.02,1.9-1.58,1.13-3.13,1.82-4.74.09-.89-.96-1.2-2.06-.51-3.23,1.09-1.86,2.68-2.07,4.61-1.36,1.11.41,2.31.56,3.47.83Z"/>
  </g>
  <g id="Layer_2" data-name="Layer 2">
    <path d="m635.19,981.85-515.8,2.66l-314.4.14-84.13.14c-21.41-.53-794.18.13-815.56-1.49-7.74-.59-11.43,2.2-10.68,10.31.45,4.86.17,9.79.19,14.68.08,18.19-1.37,16.81,16.91,16.81,677.7,0,2106.73,0,2784.43,0,542.16,0,3161.69,0,3703.85,0,2.9,0,5.79-.09,8.69-.09,4.33,0,6.31-2.23,6.33-6.43.03-9.79.1-19.58.13-29.37.01-4.37-2.09-6.09-6.55-5.76l-2254.47,1.26c-8.67-.42-17.37-.17-26.06-.17-419.36-.02-838.72-.03-1258.08-.04-2.74,0-5.07,0-7.06-.07-2.69.56-5.4,1.04-8.13,1.36-3.01.36-6.04.55-9.07.49-2.9-.06-5.73-.42-8.59-.9-5.72-.96-11.41-2.07-17.23-2.08-1.39.96-3.56,1.3-6.88,1.39-.08.09-.2.15-.36.15-2.22,0-4.44-.07-6.65-.15-8.7-.06-17.4-.23-26.1.01-1.9.05-3.49-.13-4.85-.59-9.48-.15-18.96-.33-28.44-.3-6.81.02-13.64.02-20.45.36-5.56.28-11.44.69-16.85-.94-.78.59-1.96.95-3.74.95-7.4,0-5.22-5.55-5.08-9.42.77-20.7,3.96-41.47,1.5-62.1-3.91-32.68-.33-65.15,3.34-97.28,3.25-28.49-.12-55.59-6.47-82.84-1.63-6.98-4.91-13.63-4.72-20.95.27-10.03-2.17-19.38-6.05-28.49-9.48-22.27-15.6-45.71-23.84-68.41-2.33-6.42-2.1-13.12-1.02-19.64.85-5.12,6.87-4.65,9.99-7.44,1.7-1.52,3.62-3.14,4.55-5.12,9.36-20.12,18.99-40.2,21.49-62.63,3.66-32.87,5.43-66.01,12.5-98.39,6.13-28.11,14.83-55.67,18.88-84.24,6.28-44.27,13.79-88.1,35.01-128.41,5.16-9.81,6.32-20.99,2.82-31.99-2.45-7.7-8.91-11.33-14.46-7.17-18.6,13.96-37.01,28.23-38.41,54.48-.46,8.58-1.81,17.22-5.18,25.28-8.34,19.93-15.64,40.27-23.54,60.36-11.5,29.26-18.96,58.99-20.17,90.51-.76,19.56-4.2,38.95-12.51,57.07-8.08,17.61-13.85,36-18.71,54.69-5.24,20.12-5.28,19.84-25.71,24.92-6.94,1.72-10.52-.36-14.17-6.05-10.57-16.51-22.21-32.28-34.74-47.41-18.81-22.7-36.5-46-48.03-73.58-12.17-29.12-28.79-55.57-49.84-79.52-17.27-19.66-36.1-38.53-47.72-62.39-10.64-21.86-29.36-32.54-51.12-39.51-9.76-3.12-14.92,1.28-13.37,11.23,2.13,13.69,7.56,26.05,17.84,35.72,20.85,19.62,36.65,42.84,49.92,67.95,8.21,15.52,14.41,32.03,24.38,46.69,27.3,40.14,51.71,81.9,71.37,126.34,12.33,27.86,27.74,53.76,49.8,75.33,3.28,3.2,5.86,7.12,8.68,10.77,18.03,23.38,12.57,47.25-2.56,65.59-2.2,2.67-4.31,5.48-4.98,8.99-2.8,14.47-8.23,28.16-12.59,42.18-8.91,28.63-12.04,57.96-10.18,87.86,1.7,27.24,5.54,54.45,1.2,81.79-1.13,7.11-1.77,14.28-.96,21.51,1.85,16.6.97,33.33,2.56,49.99,1.42,14.94-8.52,24.09-23.77,24.1-60.5.01-121.01.02-181.51,0l-366.54.03s-187.05-.03-280.58-.04h-64.51c-34.73.09-69.46.06-104.19.06v-.07m1112.44-447.47c7.63-29.87,16.71-59.24,28.44-87.81,7.39-18,12.19-37.21,12.1-56.29-.21-45.91,19.31-86.02,34.51-127.44,5.78-15.74,11.52-31.43,13.72-48.02,2.53-19.09,17.17-28.46,30.09-39.33,2.81-2.36,4.84-1.07,5.15,2.54.27,3.15.45,6.31.67,9.47,1.01,10.38-4.07,18.88-8.14,27.82-14.66,32.19-23.84,65.9-27.06,101.13-1.29,14.1-5.31,27.66-8.11,41.44-4.98,24.5-10.96,48.79-16.3,73.22-6.16,28.16-8.41,56.88-11.56,85.44-2.15,19.43-7.07,37.78-16.77,54.87-4.48,7.89-7.47,8.76-14.8,2.96-8.98-7.11-14.63-17-21.5-25.85-3.26-4.21-1.69-9.3-.45-14.15Zm-16.73,110.27c1.25-1.04,3.09-3.58,3.89-1.63,3.32,8.07,11.89,12.69,13.83,21.47.3,1.37.04,2.86.04,3.54-.62,7.11-1,13.87-8.19,16.34-4.29,1.48-12.88-7.17-15.68-13.05-5.13-10.77-2.74-19.3,6.11-26.67Zm-20.61,58.48c6.71-7.81,17.36-8.58,25.58-13.77.82-.52,3.16.14,3.98,1.01,7.59,8.03,18.8,11.05,26.21,19.5,9.2,10.5,11.31,23.95,4.82,38.51-5.84,13.1-17.2,17.56-30.07,19.36-17.59,1.03-30.26-8.07-36.09-22.34-5.62-13.73-5.46-29.43,5.58-42.28Zm-23.02-118.43c-5.17,1.67-7.79-2.98-10.66-5.93-19.37-19.94-32.8-43.64-44.04-68.78-17.9-40.05-39.06-78.37-64.18-114.37-14.48-20.74-23.39-44.31-36.09-65.88-13.02-22.12-27.3-43.43-46.13-61.26-7.33-6.93-11.92-15.48-15.4-24.71-.99-2.63-2.35-5.7.13-8.1,2.25-2.17,4.92-.45,7.35.3,19.36,5.99,34.51,16.53,42.82,35.97,7.13,16.66,21,28.8,32,42.83,11.02,14.05,22.89,27.44,34.05,41.39,13.31,16.64,21.45,36.29,29.56,55.54,11.42,27.12,29.46,49.31,47.81,71.59,12.46,15.13,24.19,30.84,34.82,47.3,2.79,4.32,5.53,8.85,5.25,13.47-.85,6.31-1.14,11.7-5.42,16.05-3.41,3.46-2.88,8.61-3.96,13.03-1.2,4.91-2.63,9.84-7.9,11.55Zm-13.56,372.56c.32,4.59-.89,9.67.71,13.71,4.43,11.23-3.22,18.51-7.64,26.84-1.91,3.61-5.71,4.31-8.99,2.04-4.22-2.92-7.18-7.08-5.27-12.54.92-2.62,2.8-5.05,4.7-7.17,6.78-7.56,9.67-16.24,8.29-26.27-4.35-31.56-.72-63.1-.4-94.68.29-28.42-.66-56.95-1.37-85.41-.4-15.99,2.57-31.5,4.44-47.19.4-3.36,1.12-7.29,4.7-8.75,4.23-1.72,7.05,1.76,9.71,4.2,8.86,8.14,10.07,18.98,10.13,30.08-.06,25.99-4.75,51.51-7.46,77.23-2.85,27.15-5.41,54.34-7.72,81.55-1.31,15.45-4.92,30.72-3.83,46.37Zm98.27,24.38c-25.19.14-50.38.19-75.57.3-4.38.02-6.7-2.6-8.75-6.02-4.89-8.15-5.75-17.3-4-25.98,5.07-25.05,2.02-50.49,4.68-75.6,3.12-29.45,6.45-58.89,9.83-88.31,1.11-9.66.81-19.49,4.1-32.13,8.15,15.92,20.6,20.65,35.21,22.02,7.93.74,14.74-1.38,21.56-4.96,8.2-4.31,11.37-2.75,11.85,6.2,1.32,24.7,4.05,49.28,4.4,74.08.56,39.66.88,79.41,6.36,118.83,1.1,7.88-2,11.51-9.68,11.56Zm37.76-193.64c-.98,25.3-4.33,50.39-7.63,75.44-2.28,17.37-.06,34.49,1.07,51.62,1,15.29,1.85,30.32-1.23,45.47-1.19,5.85-.62,12.03-1.15,18.03-.24,2.72,1.58,7.23-3.75,6.95-4.1-.21-5.7-3.22-5.93-7.19-.5-8.89-1.63-17.77-1.75-26.66-.61-47.15-6.41-93.98-8.35-141.04-.68-16.32-1.16-32.44-4.59-48.73-2.14-10.19,4.16-21.63,8.94-31.71,1.7-3.58,5.98-5.45,10.42-4.91,4.79.58,5.53,4.65,6.36,8.24,4.16,17.94,8.25,35.9,7.59,54.52Z"/>
    <path d="m220.62,993.02c1.64.5,3.23.44,4.91.27,1.64-.17,3.28-.4,4.89-.75,3.05-.67,6.09-1.8,8.49-3.86,1.41-1.21,2.45-2.75,3.53-4.24-5.81-.35-5.29-2-1.2-9.27,20.02-35.66,47.6-64.93,77.93-91.94,20.9-18.6,42.06-36.87,60.88-57.73,20.73-22.97,45.01-42.2,69.12-61.52,9.68-7.76,19.32-15.58,28.75-23.65,3.65-3.13,6.65-4.28,10.33-.32,17.45,18.78,36.12,36.49,49.43,58.79,4.22,7.07,4.36,13.12.71,20.13-3.48,6.67-6.99,13.42-12.01,18.94-17.91,19.69-30,42.88-41.29,66.55-7.42,15.54-18.05,28.74-29.38,41.49-11.49,12.93-11.03,20.35,2.06,31.89.8.71,1.86,1.4,2.57,2.22.03.01.06.01.1.03.87.47,1.52,1.19,2.15,1.94.7.84,1.45,1.59,2.31,2.28,1.84,1.49,3.9,2.8,5.98,3.94,3.75,2.05,7.84,3.45,11.92,4.68,4.01,1.21,8.21,2.35,12.44,2.2,1.91-.07,3.65-.58,5.25-1.62,1.53-.99,2.83-2.31,4.01-3.69,1.23-1.44,2.43-2.95,3.49-4.52.26-.39.5-.79.74-1.19-2.82-.53-5.53-1.61-8.01-3.82-10.64-9.49-12.26-17.88-4.06-29.61,26.87-38.42,57.12-73.96,92.86-104.57,19.85-17,22.65-25.8,13.19-50.49-15.17-39.63-32.34-78.2-59.54-111.56-9.11-11.17-8.89-13.74,1.93-22.94,19.14-16.28,39.59-30.14,66.45-29.95,11.59.08,16.72-8.83,20.22-17.58,2.82-7.05,6.78-9.82,13.64-8.44,30.71,6.19,62.5.38,93.1,8.64,11.4,3.08,23.49,3.88,35.34,3.28,21.44-1.09,41.16,5.05,60.47,13.07,5.78,2.4,9.87,2.82,12.02-4.28,1.45-4.78,5.61-4.83,9.86-5.18,6.08-.5,15.03.67,15.8-6.96.81-7.96-8.46-7.29-13.89-8.32-26-4.94-50.39-15.11-75.54-22.74-22.45-6.81-45.13-9.56-68.27-10.83-5.12-.28-12.29.75-14.38-3.48-2.13-4.31,4.88-7.51,7.44-11.5,2.64-4.11,5.58-8.08,8.74-11.81,4.17-4.92,7.43-11.02,15.44-11.12,3.19-.04,5.2-3.38,7.66-5.36,15.12-12.17,30.35-23.91,50.6-26.86,6.44-.94,12.56-4.16,18.77-6.49,4.09-1.53,5.6-4.29,4.62-8.86-.82-3.87,5.82-13.09,11.06-17.07-.37-1.68-.92-3.31-1.83-4.79-1.33-2.13-3.25-3.77-5.54-4.78-2.29,1.51-5.84,3.14-10.73,5.27-18.06,7.88-38,10.13-55.94,18.55-8.87,4.17-18.37,7.01-27.53,10.58-6.74,2.63-11.58,1.31-16.7-4.42-10.1-11.3-21.43-22.08-38.4-19.89-11.97,1.54-19.23-2.92-24.04-13.3-4.65-10.03-13.49-12.03-23.35-10.7-10.4,1.4-19.1,6.17-25.88,14.4-14.54,17.67-16.2,39.61-20.45,60.66-.69,3.43-1.22,8.35,3.07,9.93,4.42,1.63,7.58-2.09,10.07-5.25,5.03-6.38,10.09-12.78,17.47-16.56,9.43-4.82,15.71-12.5,20.91-21.32,1.9-3.22,3.53-6.71,6.81-8.81,2.29-1.47,5.07-2.26,7.26-.25,2.88,2.62.24,4.69-1.48,6.49-8.23,8.63-11.42,19.14-11.88,30.72-.89,22.54-1.15,22.79-24.05,23.27-.87.02-1.74-.03-2.6.06-12.33,1.37-25.43,1.13-35.06,10.39-17.04,16.4-35.24,31.62-51.04,49.3-4.03,4.51-8.25,8.78-13.29,12.3-16.27,11.39-33.84,21.02-47.55,35.87-4.49,4.86-7.87,9.24-7.78,16.41.1,8.13-3.26,15.6-7.55,22.66-12.47,20.53-28.31,38.58-42.51,57.83-10.8,14.66-23.21,27.93-37.56,39.36-22.1,17.6-45.81,33.52-61.99,57.46l-22.54,29.37c-7.59,10.17-15.43,20.16-22.99,30.35-4.55,6.14-10.02,9.64-18.03,10.31-10.97.92-14.09,5.29-13.97,16.7.16,15.82.58,31.51-2.73,47.29-1.23,5.85-3.11,8.49-6.89,9.51,1.8.8,3.42,2.07,4.89,3.4,2.35,2.15,4.64,4.47,7.77,5.44Zm499.98-489.05c19-7.45,37.23-16.97,57.41-21.25,1.4-.3,2.86-.33,4.11-.47,2.74.17,5.85-.32,6.47,3.1.63,3.5-1.25,6.96-4.38,7.55-19.04,3.6-31.99,17.71-47.83,26.78-8.39,4.81-18.27-.46-19.02-10.24-.2-2.68.88-4.55,3.24-5.48Zm-87.23-34.43c-4.6.41-8.72,1.21-10.55,6-5.03,13.19-13.32,23.43-26.35,29.54-3.57,1.67-5.45,5.93-11.21,6.92,4.09-15.13,2.55-30.7,12.14-43.81,7.62-10.42,17.88-13.91,30.17-13.57,4.55.13,7.51,2.63,9.86,6.12,3.86,5.72,2.84,8.17-4.06,8.79Zm22.51,11.9c12.77-8.84,36.36-.44,45.25,16.03,2.59,4.8,9.94,10.75,6,14.83-4.12,4.28-8.58-4.12-13.27-6.25-6.41-2.91-11.9-2.91-15.84,3.48-3.3,5.35-6.13,7-12.23,2.68-8.06-5.71-13.58-2.78-15.33,6.8-.31,1.7-.37,3.44-.73,5.13-1.22,5.74-3.59,11.25-10.5,10.23-6.3-.92-3.22-6.92-3.91-10.78-.3-1.68-.05-3.45-.05-7.11-3.09-15.86,7.91-26.25,20.61-35.05Zm-20.81,66.26c2.24-.47,4.37-2.02,6.57-2.05,8.93-.13,14.79-2.12,14.6-13.23-.1-5.75,4.33-10.21,11.54-5.57,3.87,2.49,6.14-.15,8.63-3,12.31-14.06,18.94-13.03,27.45,4.07,1.53,3.07,3.38,6.07,3.48,9.66-.07,6.4-13.44,25.26-19.49,27.66-3.69,1.46-6.89-.14-9.96-1.58-7.56-3.55-15.09-4.97-23.53-2.97-8.14,1.93-15.41-.55-21.02-7.16-2.6-3.06-2.7-4.9,1.74-5.83Zm-22.89,10.52c5.82.05,11.38.83,16.85,3.29,32.26,14.55,66.54,21.74,101.59,22.45,32.01.65,61.37,10.29,91.02,20,5.36,1.76,7.42,5.8,5.31,10.88-2.23,5.38-6.32,2.34-9.54.95-9.44-4.09-19.35-5.82-29.53-6.2-21.43-.79-42.54-3.45-63.65-7.51-27.88-5.36-56.39-4.72-84.67-6.34-15.36-.88-30.59-4.12-45.89-6.18-2.92-.39-3.53-2.28-4.26-4.62-5.21-16.69,3.35-26.8,22.76-26.72Zm-146.77,113.07c.05-6.43,3.51-10.72,9.72-13.93,24.4-12.63,40.58-.99,51.7,16.9,6.57,10.57,14.21,20.32,21.71,30.18,21.45,28.21,33.19,61.13,46,93.49,2.5,6.3,2.86,13.44,4.21,20.2.22,6.79-3.03,11.68-7.65,16.03-12.4,11.66-25.01,23.12-37.08,35.11-24.64,24.49-45.14,52.36-65.42,80.4-6.29,8.7-6.88,17.54-.75,26.45,2.72,3.95,2.87,7.73-.56,10.87-4.47,4.1-6.45-1.2-9.15-3.12-6.1-4.37-11.96-9-17.41-14.21-5.73-5.46-6.43-11.55-1.26-16.71,21.74-21.7,33.96-49.13,47.57-75.8,4.58-8.98,10.5-17.25,17.49-24.62,10.7-11.29,17.7-24.8,23.95-38.8,2.34-5.23,1.31-9.54-1.68-14.51-13.16-21.93-30.48-40.5-47.77-59.04-11.56-12.4-20.07-26.69-28.27-41.23-4.8-8.52-5.43-18.17-5.35-27.66Zm-238.45,254.55c-.02-4.46,3.77-5.54,7.34-5.81,8.16-.64,13.84-4.81,18.6-11.19,16.21-21.71,32.95-43.03,48.9-64.92,10.49-14.41,22.93-26.68,37.27-37.07,28.09-20.36,52.26-44.45,72.1-72.89,9.89-14.17,22.32-26.51,30.52-41.89,2.44-4.58,5.25-5.22,9.77-2.52,5.84,3.48,10.88,7.12,13.23,14.05,1.73,5.12,4.11,10.48,7.68,14.42,6.84,7.55,4.37,12.33-2.16,18.5-19.55,18.47-41.96,33.54-61.61,51.85-10.77,10.03-21.96,19.68-31.99,30.4-21.55,23.01-45.48,43.43-69,64.31-30.25,26.85-55.29,57.98-76.35,92.36-1.25,2.04-1.79,5.01-5.98,5.39,2.45-18.43,1.76-36.7,1.67-54.98Z"/>
  </g>
</svg>