<?xml version="1.0" encoding="UTF-8"?>
<svg id="Layer_1" data-name="Layer 1" xmlns="http://www.w3.org/2000/svg" viewBox="0 0 1080 1080">
  <path d="m665.61,1067.94c-.02-1.18-.11-2.36-.2-3.54-.02-.3-.04-.6-.06-.9-2.57-14.18-10.39-26.39-17.28-39.03-15.9-29.15-24.74-60.97-34.45-92.44-1.87-6.06-3.78-12.15-6.31-17.95-.43-.99-.72-1.87-.89-2.67-.53-1.05-1.06-2.1-1.62-3.14-1.32-2.47-2.63-4.94-3.86-7.45-1.2-2.45-2.42-4.95-3.25-7.55-.79-2.47-1.23-5.04-2.05-7.5-.63-1.9-1.53-3.98-1.41-6.03-.45-.86-.62-1.98-.9-2.89-3.07-10.03-6.33-20.02-8.98-30.17-8.13-31.11-13.97-63.01-33.04-90.18-2.54-3.62-1.08-7.33.67-11.07,7.07-14.99,14.22-29.96,20.76-45.18,5.7-13.26,10.99-26.59,22.15-36.56,3.04-2.72,4.65-6.82,3.71-10.69-3.51-14.44-9.23-28-22.25-36.43-6.79-4.4-9.02-9.84-8.36-17.17.69-7.66,6.94-7.99,12.46-8.68,5.73-.71,9.17-3.46,11.4-8.81,3.87-9.28,4.71-18.92,4.08-28.71-.35-5.5-3.43-9.62-9.23-10.96-4.53-1.05-9.08-2.01-13.62-3.01-2.54-.56-4.67-1.6-5.04-4.53-.2-1.54.02-3.22,1.59-3.71,2.54-.8,3.85,1.55,5.61,2.75,7.48,5.07,15.61,8.16,24.8,7.26,2.6-.26,6.08-.95,5.85-4.24-.21-2.95-3.58-1.56-5.55-1.89-8.23-1.37-16.33-2.86-23.72-7.2-4.99-2.92-7.5-6.43-6.81-12.43.66-5.79.81-11.64.31-17.52-1.6-18.83-1.52-37.45,7.2-54.99,2.76-5.54,2.87-10.51-5.17-11.73-2.79-.43-4.08-2.46-4.3-5.19-.22-2.67-.34-5.36-.72-8.01-.47-3.26-1.45-6.66-5.41-6.77-4.05-.11-4.19,3.58-4.51,6.39-1.16,10.17-1.64,20.54-5.4,30.14-7.33,18.7-8.41,38.49-10.76,58.04-1.02,8.45-1.43,16.63-11.48,19.73-1.73.53-3.25,2.2-4.53,3.64-4.67,5.25-9.43,5.32-15.61,2.01-15.88-8.51-34.96,2.56-36.51,20.85-1.66,19.66,9.91,35.31,16.64,52.36,1.8,4.57,7.86,4.17,8.87-.12,3.41-14.42,8.7-28.53,8.46-43.64-.05-3.13-1.4-6.24-1.42-9.37-.04-5.07,4.5-8.04,7.96-8.25,4.9-.3,2.65,4.99,2.32,7.41-1.77,12.86,3.98,23.24,11.84,31.97,7.27,8.08,6.8,15.64,2.56,24.07-10.91,21.73-15.07,45.33-18.08,68.98-2.82,22.22-6.81,43.2-24.19,59.47-10.59,9.91-14.39,22.54-12.52,37.27,1.7,13.4-.4,26.73-3.34,39.9-1.22,5.46-2.16,11.01-2.73,16.58-2.58,25.25-9.73,49.42-20.46,72.1-8.55,18.08-12.82,36.68-14.78,56.16-1.73,17.21-2.71,34.49-6.74,51.41-1.64,6.88-3.74,10.89-7.38,12.64-.32.69-.67,1.37-1.06,2.03-1.46,2.51-3.3,4.91-4.06,7.76-.63,2.35-.53,4.93.5,7.16.98,2.1,2.69,3.75,4.53,5.12,2.74,2.03,5.49,4.04,8.27,6.01,5.48,3.86,11.19,7.29,17.19,10.28,2.68,1.33,5.41,2.5,8.17,3.65,1.98.82,3.96,1.67,6.01,2.31,1.98.63,4.17,1.21,6.26.92,1.95-.27,3.14-1.61,3.54-3.5.46-2.18.1-4.54-.48-6.66-.59-2.13-1.55-3.95-3-5.63-3.28-3.8-7.79-6.39-10.37-10.81-1.37-2.34-2.25-5.03-2.48-7.74-.23-2.67.19-5.34.74-7.94.68-3.2,1.5-6.37,2.53-9.47.07-.2.14-.41.21-.61.83-3.62,1.67-7.24,2.5-10.86,5.88-24.95,14.04-49.14,23.26-73.05,5.78-14.98,9.82-30.59,13.49-46.27,5.25-22.41,16.04-42.84,23.78-64.38.49-1.37,1.21-2.95,3.04-2.53,2.11.48,2.9,2.5,3.79,4.2,7.23,13.85,14.35,27.76,21.65,41.58,8.75,16.57,14.41,34.23,17.71,52.53,4.19,23.24,14.28,43.92,25.79,64.18,7.6,13.37,14.65,27.05,22.04,40.54,2.11,3.85,2.63,7.62,1.55,11.94-3.43,13.71-3.38,14.02,10.4,18.88,9.67,3.41,18.84,7.08,23.39,17.25.43.97,1.06,1.91,1.44,2.89.05.03.1.07.14.13.73,1.02.94,2.31,1.78,3.27.9,1.02,2.06,1.85,3.1,2.72,1,.84,2.03,1.64,3.14,2.34.97.61,2.07,1.25,3.19,1.53,1.19.3,1.94-.29,2.29-1.4.35-1.09.54-2.24.79-3.35.57-2.58.98-5.15.94-7.8Zm-173.61-472.63c-4.71-10.36-10.68-19.91-13.08-30.93-2.66-12.2,1.06-22.01,11.11-29.4,3.73-2.74,7.71-4.01,12.31-2.02,5.63,2.44,6.36,5.37,1.83,9.67-2.47,2.34-4.35,4.65-3.58,8.17,3.5,15.94-3.5,29.91-8.58,44.5Zm79.34-50.7c5.15.1,10.18,1.22,14.85,3.4,3.13,1.46,4.67,4.08,4.41,7.68-.38,5.33-.54,10.67-1.9,15.01-2.97,13.36-4.03,14.27-15.83,16.55-3.98.77-5.84-.68-5.54-4.33.91-11.16,1.16-22.28-.62-33.38-.58-3.62,1.57-4.98,4.64-4.92Zm-38.61,34.56c-4.01.68-5.21-4.89-7.09-8.07-8.3-14.06-5.74-32.19,5.63-40.88,1.91-1.46,3.9-3.48,6.51-2.42,2.78,1.13,2.3,4.06,2.42,6.39.33,6.08-.4,12.09-1.42,18.1-.98,5.73-1.59,11.53-2.29,16.74-1.75,3.78-.27,9.55-3.76,10.14Zm12.42-42.84c-2.01-25.95,3.34-50.83,8.81-75.79.94-4.29,2.21-8.51,4.54-12.29,1.22-1.99,2.17-5.02,5.28-3.89,3.04,1.11,4.34,3.86,3.81,7.13-.39,2.4-1.05,4.75-1.59,7.13-2.8,13.98-1.24,28.1-1.25,42.19,0,4.13.89,8.51-.15,12.36-5.55,20.71-.69,41.72-2.21,62.48-1.07,14.7.5,29.17,1.55,43.73.26,3.64.72,7.32.45,10.93-.57,7.74-5.42,14.18-10.74,14.92-7.49,1.05-16-3.93-19.18-10.79-3.97-8.57-3.65-17.05.04-25.47,3.48-7.94,5.04-16.2,5.28-24.84.44-16.09,6.61-31.69,5.36-47.8Zm-31.67,282.27c-4.7,12.03-9.6,23.98-14.73,35.82-4.98,11.48-8.07,23.63-10.81,35.64-5.67,24.86-15.22,48.31-23.56,72.22-7.24,20.74-12.68,41.99-16.97,63.54-1.93,9.72-.1,17.86,8.53,23.74,1.4.95,2.61,2.22,3.82,3.42,1.22,1.2,2.62,2.49,1.76,4.42-1.05,2.35-3.21,2.02-5.08,1.44-3.02-.94-6.04-2-8.9-3.35-9.62-4.55-17.94-11.01-25.37-18.48-4.9-4.92-4.57-8.7,1.16-11.83,5.15-2.81,6.93-7,8.21-12.17,3.66-14.72,5.82-29.69,6.66-44.77,1.39-24.94,7.77-48.43,18.25-71.05,11.82-25.5,16.19-52.92,20.46-80.48,2.66-17.18,5.02-34.17,3.84-51.56-.17-2.58.74-5.23,1.15-7.84,4.2,9.56,10.41,16.83,17.5,23.77,6.84,6.69,11.09,15.45,16.04,23.56,2.9,4.75-.23,9.54-1.96,13.95Zm142.94,251.88c-5.88-13.45-16.14-21.83-30.04-25.91-6.64-1.95-9.77-4.79-5.91-12.02,2.48-4.64.76-9.49-1.65-13.96-9.72-18.05-19.19-36.24-29.19-54.14-7.81-13.98-14.05-28.49-16.94-44.24-5.95-32.39-20.03-61.48-35.47-90.23-7.9-14.71-17.68-28.05-26.67-41.97-3.75-5.8-5.55-12.06-5.02-18.75.66-8.38,1.98-16.8,11.24-20.55,9.77-3.95,18.36-1.09,25.67,5.64,6,5.52,9.54,12.9,13.51,19.93,10.03,17.72,13.81,37.44,18.81,56.79,7.08,27.39,14.97,54.49,26.12,80.64,9.29,21.81,13.86,45.24,21.5,67.65,7.21,21.13,16.81,41.13,28.29,60.2,6.62,10.99,10.12,22.48,9.74,35.86-3.23-1-3.28-3.31-4-4.95Z"/>
</svg>