<?xml version="1.0" encoding="UTF-8"?>
<svg id="Layer_1" data-name="Layer 1" xmlns="http://www.w3.org/2000/svg" viewBox="0 0 1080 1080">
  <path d="m582.37,442.03c2.29-3.6,4.18-7.43,6.12-11.23,1.9-3.71,3.59-7.46,4.3-11.6.39-2.28.53-4.67,1.14-6.91-.16-.27-.31-.58-.44-.96-3.65-11.13-11.32-20.96-11.86-33-.51-11.38-2.68-22.35-5.38-33.32-.64-2.59-2.25-5.46-.35-8.11,1.96-.16,13.01-11.16,13.62-10.16,5.33,8.72,13.31,15.75,22.47,20.68,15.27,8.21,22.53,10.75,39.93,12,10.28.74,19.49-.11,26.46,8.17,3.15,3.74,5.51,17.75,8.55,16.09,12.52-6.87,24.79-4.14,38.34-5.62,4.95-.54,6.64-1.06,7.4-6.17.36-2.37-.28-5.28-5.23-7.57-18.43-8.55-37.42-16-55.35-25.5-23.86-12.64-43.86-31.31-66.76-45.55-3-1.86-6.33-3.06-7.45-6.24-1.62-4.61-.29-15.23-10.09-17.04-3.18-.59-4.4-.89-8.94.38-6.7.45-8.03-3.12-12.83-5.49-6.19-3.06-6.32-5.13-12.89-8.32-12.7-6.17-22.13-4.02-27.14,12.25-4.56,14.83-7.67,45.02-9.42,60.41-.64,5.65-3.29-7.46-9.32-10.35-9.16-4.39-18.84-4.74-28.66-2.17-3.77.99-7.61,2.02-11.47,2.32-7.15.54-7.25-6.15-9.59-10.34-2.02-3.62.34-5.77,3.18-7.81,10.15-7.29,11.85-12.88,9.24-25.23-1.96-9.24-7.51-16.38-12.33-24.03-1.68-2.68-2.74-4.61-3.15-6.21-.9-1.71-1.79-3.41-2.77-5.08-.78-1.34-1.66-2.69-2.83-3.73-1.32-1.18-2.86-1.71-4.61-1.87-.14-.01-.28-.01-.43-.02-3.23.39-6.58.39-10.08-.01-6.01-.7-12.22-.17-18.3.35-4.07.35-6.51,1.03-9.09,1.08-.2.09-1.84.68-2.04.77-9.5,4.45-18.53,7.73-26.87,14.16-.19.53-.4,1.05-.66,1.54-4.2,7.72-6.12,15.98-6.25,24.69-.25,17.58,6.47,27.42,22.85,33.7,5.26,2.01,10.52,3.95,15.36,6.98,6.02,3.77,9.78,8.04,6.21,15.68-.97,2.08-.92,4.82-.78,7.23,1.52,26.93,13.96,48.33,34.78,64.54,10.18,7.93,21.87,13.99,33.2,20.3,7.26,4.04,15.1,7.22,23.34,8.63,5.1.88,9.07,3.1,12.78,6.54,17.79,16.47,35.37,19.9,55.57,10.67.05-.04.11-.08.16-.12,3.39-2.61,6.05-5.81,8.33-9.41Zm-182.91-135.8c-20.1-7.84-28.48-28.49-19.05-48.06,4.7-9.74,14.38-12.45,23.38-14.76,12.04-3.09,24.59-3.77,37.11-2.89,4.02.28,6.58,1.42,7.54,6.17,1.21,6,4.5,11.35,7.95,16.46,4.21,6.23,6.69,13.11,7.22,20.58.56,7.91-3.24,11.87-11.13,12.05-8.52.2-9.32,1.68-5.09,9.41.35.64.74,1.27,1.11,1.91,6.68,11.23,6.45,12.28-5.59,15.57-6.37,1.74-11.28,5.55-17.29,10.56-2.13-16.48-13.89-22.22-26.16-27Zm201.54-8.33c15.29,10.16,30.4,20.66,44.99,31.79,20.58,15.71,44.79,23.94,67.79,34.68,3.33,1.55,6.67,3.06,9.96,4.69,1.48.73,3.74,1.26,3.44,3.3-.34,2.28-2.71,1.45-4.27,1.69-9.64,1.49-19.54.77-29.04,3.36-1.41.38-2.97.5-4.21,1.19-5.78,3.23-3.96-10.37-9.35-14.99-6.75-5.79-15.97-5.66-24.4-6.74-16.23-2.08-31.37-7.34-45.78-14.92-7.84-4.13-13.62-10.35-17.32-18.41-2.18-4.75-12.03,4.44-14.9.69-1.59-3.42-1.5-6.64-.83-9.75.66-3.1,1.77-6.1,2.74-9.13,5.07-15.75,7.17-16.77,21.19-7.46Zm-76.92,3.13c1.58-12.66,5.06-24.95,10.95-36.39,4.76-9.25,8.89-10.3,17.17-4.38,18.49,13.22,18.7,13.73,5.83,32.01-9.53,13.55-21.33,25.65-25.9,42.27-.44,1.59-1.27,3.51-3.48,3.04-2.22-.47-2.49-2.81-4.11-5.63-1.18-9.49-1.79-20.28-.47-30.92Zm6.71,61.53c-7.81.65-15.41,1.95-22.96,4.32-9.56,3-19.34,2.02-28.91-.87-2.34-.71-4.7-1.36-7.08-1.89-1.4-.31-3.08-.67-3.84,1.05-.76,1.71.7,2.62,1.75,3.63,7.58,7.3,7.05,8.94-2.33,14.11-10.51,5.79-18.06,5.24-26.76-12-3.34-6.88-4.64-11.82-5.12-17.01-1.35-14.55,7.18-23.95,21.92-23.87,6.19.03,9.91,4.56,16.66,5.68,8.17,1.36,7.66,1.96,12.26.61,15.64-4.62,23.62-3.45,37.98,6.64,6.42,4.51,10.35,3.01,12.86-4.62,5.57-16.94,16.72-30.32,26.86-44.35,3.18-4.4,5.66-9.11,8.17-13.88,5.27-10.03,13.53-10.39,19.8-1.14,1.59,2.35,1.93,4.37-.99,5.12-16.22,4.2-18.13,17.91-19.8,31.03-1.02,8.04-3.94,14.3-9.26,20.11-4.61,5.03-8.96,10.45-12.53,16.25-4.42,7.19-10.65,10.43-18.65,11.09Zm37.19,84.39c-15.01,6.74-36.11,1.36-46.65-11.61-3.15-3.88-3.14-7.85-.94-11.6,8.66-14.79,11.73-30.42,8.13-47.33-.64-3.02-.15-6.27,3.6-6.97,14.27-2.65,22.63-12.62,30.18-23.79,1.24-1.83,2.04-5.14,5.17-4.23,2.48.73,1.94,3.68,2.54,5.72,2.82,9.7,4.59,19.57,4.61,29.7.02,10.71,4.38,20.21,9.34,29.16,8.58,15.49-1.74,34.97-15.97,40.95Z"/>
  <path d="m364.7,330.51c2.73-1.24,2.5-4.34,2.22-6.88-.57-5.14-1.14-10.3.51-15.31,2.12-6.4,1.53-12.68-.06-19-.58-2.31-1.4-4.61-.85-7.04.38-1.69,1.29-3.29,3.18-3.36.72-.03,1.2.13,1.53.41,0-.98,0-1.96.04-2.95.12-3.01.46-6.02,1.1-8.97-3.16,1.35-6.66,1.18-10.69-.33-6.59-2.46-11.49.58-15.36,5.59-4.08,5.28-5.9,11.33-5.29,18.09,1.31,14.5,10.37,25.18,17.85,36.62,1.22,1.86,3.18,4.33,5.83,3.13Zm-18.68-37.47c-1.21-8.13,1.88-14.29,7.6-19.63,2.12-1.98,4.58-2.16,7.2-1.63,4.3.87,4.94,2.43,2.09,5.8-1.9,2.24-3.41,4.45-2.1,7.43,3.62,8.22,4.44,16.57,1.26,25.16-.87,2.36.18,5.12-1.98,8.14-4.91-8.68-12.56-15.04-14.08-25.27Z"/>
  <path d="m414.47,314.36c-.19-2.26-5.31-5.12-5.31-7.33,0-9,4.11-14.6-.87-14.44-2.58.08-4.54-4.4-2.42-11.65,1.14-3.89-.03-6.19-1.28-8.71-6.21-12.45-5.7-19.13,2-27.66,1.35-1.49,2.67-3.28,4.23-3.46-.78-.41-1.56-.77-2.35-1.03-1.11-.36-2.24-.53-3.36-.35-.79.12-1.58.08-2.37.06-.89-.01-1.79-.01-2.67.25-.31.09-.62.22-.92.4.17.18.33.44.49.78,1.89,4.17-1.9,8.64-2.89,13.36-1.35,6.45-1.38,11.99,1.45,15.99,2.38,3.35,3.09,6.2,1.12,12.34-2.61,8.11-1.34,13.68,2.94,15.48.76.32,1.54.39,2.29.75,2.56,1.24.05,3.33-.45,10.3-.17,2.37,2.89,1.03,2.27,1.46.29.15,4.19,2.21,4.48,2.34"/>
</svg>