<?xml version="1.0" encoding="UTF-8"?>
<svg id="Layer_2" data-name="Layer 2" xmlns="http://www.w3.org/2000/svg" viewBox="0 0 1080 1080">
  <path d="m577.9,978.58c4.1-2.14,8.34-4.04,12.37-6.29,11.45-6.4,13.24-14.9,4.74-24.64-4.28-4.91-6.55-10.03-5.8-16.49,2-17.14,4.08-34.28,5.91-51.44,3.21-30.13,4.79-60.15-1.98-90.19-5.2-23.09-7.8-46.61-5.67-70.34,1.75-19.47,4.06-38.9,6.17-58.34,1.15-10.56.59-22.16,7.3-30.7,12.82-16.32,13.06-34.14,8.37-52.48-3.62-14.14-4.23-28.2-1.94-42.36,1.96-12.12,3.01-24.37,3.3-36.65.59-25.24,2.84-50.75-15.49-72.21-5.92-6.94-9.08-16.13-4.25-25.03,6.19-11.4,12.75-22.54,16.56-35.05.73-2.39,2.6-4.91,5.79-4.14,2.89.7,2.4,3.53,2.69,5.75,2.17,16.72,10.91,31.41,15,47.54.62,2.46,2.57,4.79,5.6,4.67,2.76-.11,3.58-2.64,4.45-4.75,6.77-16.27,12.38-32.93,15.04-50.37,1.18-7.77-.36-15.64-2.97-22.95-6.78-18.99-25.79-26.59-42.83-16.9-5.97,3.39-10.24,3.43-15.46-.93-14.83-12.39-31.11-12.26-48.02-4.65-5.8,2.61-11.76,4.96-16.35,9.6-3.52,3.55-5.83,2.72-7.43-1.84-1.81-5.15-3.49-10.4-5.88-15.29-11.63-23.76-27.99-44.3-44.95-64.39-10.17-12.05-22.57-22.35-28.71-37.52-1.12-2.78-3.84-5.02-6.13-7.19-2.18-2.07-4.95-3.25-7.9-1.52-2.64,1.54-2.93,4.31-2.32,6.89,1.12,4.75,2.41,9.49,4.04,14.08,1.39,3.89,2.14,6.94-2.62,9.25-6.32,3.06-6.16,7.54-2,12.6,5.12,6.24,9.97,12.66,16.23,17.94,6.49,5.47,10.97,12.4,14.12,20.39,8.15,20.65,17.58,40.6,29.81,59.35,14.99,22.97,23.1,49.51,36.8,73.3,6.37,11.06,6.43,22.26-2.56,34.33-8.86,11.88-12.33,26.89,4.2,39.73,3.26,2.53,5.12,6.27,6.45,10.11,7.4,21.43,9.16,43.68,5.03,65.61-3.36,17.86-5.2,35.53-6.56,53.63-1.92,25.72,2.38,50.46,5.26,75.53,4.57,39.72,9.59,79.41,9.33,119.5-.1,15.89,2.44,31.56,4.52,47.21,3.65,27.49,4.72,55.03,4.04,82.69-.24,9.63-3.26,17.15-13.5,20.78-2.41.86-4.94,1.9-7.27,3.21-1.04,2.3-.99,5.04-.15,7.55,1.12,3.33,4.05,5.38,7.24,6.56,4.03,1.49,8.52,1.62,12.74,1.81,1.97.09,3.94.09,5.9.09.45,0,.91,0,1.36.02,3.63.11,7.24-.5,10.6-1.87l7.79-3.18Zm39.33-645.28c1.5-3.77,4.7-4.77,8.43-4.67,7.89.21,17.66,10.24,19.53,20.58,1.07,5.9,1.58,11.84.87,17.96-1.32,11.47-4.77,22.26-9.31,35.37-7.31-16.26-13.79-30.13-11.6-46.41.85-6.28,2.2-13.47-6.37-16.79-2.46-.96-2.48-3.74-1.57-6.05Zm-26.31,267.61c1.36,4.96,1.79,10.17,2.38,13.67-.79,15.28-6.18,28.03-7.48,41.52-4.66,48.64-10.5,97.19,1.35,145.83,5.08,20.84,2.91,42.3.61,63.58-2.54,23.43-4.21,46.96-6.2,70.45-.49,5.8,2.07,10.38,5.53,14.96,6.08,8.05,4.88,12.25-4.23,16.7-7.27,3.55-14.67,6.83-22.04,10.18-3.52,1.6-7.31,2.49-10.95,1.06-3.08-1.21-7.55-2.09-7.81-5.84-.22-3.18,4.04-3.66,6.58-4.62,7.77-2.94,9.44-9.75,10.75-16.54,3.14-16.26,1.92-32.67,1.1-49.06-2.09-41.35-8.66-82.37-8.4-123.93.23-36.65-5.91-72.75-12.63-108.69-4.42-23.64-2.56-47,2.8-70.19,2.24-9.68,8.69-15.85,18.18-19.13,14.56-5.04,27.29,8.54,30.46,20.08Zm-5.52-271.36c11.93,9.2,13.18,23.36,12.59,37.16-.32,7.52-4.38,14.21-8.57,20.5-1.62,2.43-3.3,5.05-6.85,4.03-3.76-1.08-4.53-4.28-4.34-7.57.22-4,.64-8.02,1.43-11.94,2.01-9.98-.15-13.05-10.12-12.37-4.23.29-6.58-.6-7.66-4.74-4.48-17.14-2.57-13.96-23.2-15.58-1.37-.11-2.76-.01-5.54-.01,11.97-14.65,39.11-19.63,52.25-9.49Zm-18.2,67.86c-.8-.72-1.91-1.28-2.36-2.17-6.57-13.04-14.98-24.92-23.03-37.04-2.15-3.24-4.6-7.68,1.4-9.83,5.1-1.82,9.64-.28,10.38,5.58,1.3,10.35,7.87,17.84,12.92,26.24,3.05,5.08,1.11,11.04.7,17.22Zm-118.42-161.4c9.8,8.72,17.14,15.97,23.51,24.17,17.67,22.75,33.59,46.06,45.51,72.9,11.06,24.9,27.24,47.99,44.07,69.99,2.91,3.8,7.26,6.54,11.06,9.62,10.51,8.53,14.81,24.5,9.81,36.75-4.24,10.38-12.98,15.94-24.56,14.16-8.4-1.29-11.11-8.25-14.13-15.66-6.71-16.48-11.56-33.7-20.32-49.42-6.16-11.04-11.12-22.75-16.29-34.3-4.48-10-8.82-20.05-15.29-28.97-8.87-12.22-15.18-25.72-20.81-39.63-5.94-14.65-11.73-29.44-23.33-40.94-6.16-6.11,1.63-10.87.79-18.68Z"/>
  <path d="m-3684.81,981.85-515.8,2.66l-314.4.14-84.13.14c-21.41-.53-794.18.13-815.56-1.49-7.74-.59-11.43,2.2-10.68,10.31.45,4.86.17,9.79.19,14.68.08,18.19-1.37,16.81,16.91,16.81,677.7,0,2106.73,0,2784.43,0,542.16,0,3161.69,0,3703.85,0,2.9,0,5.79-.09,8.69-.09,4.33,0,6.31-2.23,6.33-6.43.03-9.79.1-19.58.13-29.37.01-4.37-2.09-6.09-6.55-5.76l-2254.47,1.26c-8.67-.42-17.37-.17-26.06-.17-419.36-.02-838.72-.03-1258.08-.04-2.74,0-5.07,0-7.06-.07-2.69.56-5.4,1.04-8.13,1.36-3.01.36-6.04.55-9.07.49-2.9-.06-5.73-.42-8.59-.9-5.72-.96-11.41-2.07-17.23-2.08-1.39.96-3.56,1.3-6.88,1.39-.08.09-.2.15-.36.15-2.22,0-4.44-.07-6.65-.15-8.7-.06-17.4-.23-26.1.01-1.9.05-3.49-.13-4.85-.59-9.48-.15-18.96-.33-28.44-.3-6.81.02-13.64.02-20.45.36-5.56.28-11.44.69-16.85-.94-.78.59-1.96.95-3.74.95-7.4,0-5.22-5.55-5.08-9.42.77-20.7,3.96-41.47,1.5-62.1-3.91-32.68-.33-65.15,3.34-97.28,3.25-28.49-.12-55.59-6.47-82.84-1.63-6.98-4.91-13.63-4.72-20.95.27-10.03-2.17-19.38-6.05-28.49-9.48-22.27-15.6-45.71-23.84-68.41-2.33-6.42-2.1-13.12-1.02-19.64.85-5.12,6.87-4.65,9.99-7.44,1.7-1.52,3.62-3.14,4.55-5.12,9.36-20.12,18.99-40.2,21.49-62.63,3.66-32.87,5.43-66.01,12.5-98.39,6.13-28.11,14.83-55.67,18.88-84.24,6.28-44.27,13.79-88.1,35.01-128.41,5.16-9.81,6.32-20.99,2.82-31.99-2.45-7.7-8.91-11.33-14.46-7.17-18.6,13.96-37.01,28.23-38.41,54.48-.46,8.58-1.81,17.22-5.18,25.28-8.34,19.93-15.64,40.27-23.54,60.36-11.5,29.26-18.96,58.99-20.17,90.51-.76,19.56-4.2,38.95-12.51,57.07-8.08,17.61-13.85,36-18.71,54.69-5.24,20.12-5.28,19.84-25.71,24.92-6.94,1.72-10.52-.36-14.17-6.05-10.57-16.51-22.21-32.28-34.74-47.41-18.81-22.7-36.5-46-48.03-73.58-12.17-29.12-28.79-55.57-49.84-79.52-17.27-19.66-36.1-38.53-47.72-62.39-10.64-21.86-29.36-32.54-51.12-39.51-9.76-3.12-14.92,1.28-13.37,11.23,2.13,13.69,7.56,26.05,17.84,35.72,20.85,19.62,36.65,42.84,49.92,67.95,8.21,15.52,14.41,32.03,24.38,46.69,27.3,40.14,51.71,81.9,71.37,126.34,12.33,27.86,27.74,53.76,49.8,75.33,3.28,3.2,5.86,7.12,8.68,10.77,18.03,23.38,12.57,47.25-2.56,65.59-2.2,2.67-4.31,5.48-4.98,8.99-2.8,14.47-8.23,28.16-12.59,42.18-8.91,28.63-12.04,57.96-10.18,87.86,1.7,27.24,5.54,54.45,1.2,81.79-1.13,7.11-1.77,14.28-.96,21.51,1.85,16.6.97,33.33,2.56,49.99,1.42,14.94-8.52,24.09-23.77,24.1-60.5.01-121.01.02-181.51,0l-366.54.03s-187.05-.03-280.58-.04h-64.51c-34.73.09-69.46.06-104.19.06v-.07m1112.44-447.47c7.63-29.87,16.71-59.24,28.44-87.81,7.39-18,12.19-37.21,12.1-56.29-.21-45.91,19.31-86.02,34.51-127.44,5.78-15.74,11.52-31.43,13.72-48.02,2.53-19.09,17.17-28.46,30.09-39.33,2.81-2.36,4.84-1.07,5.15,2.54.27,3.15.45,6.31.67,9.47,1.01,10.38-4.07,18.88-8.14,27.82-14.66,32.19-23.84,65.9-27.06,101.13-1.29,14.1-5.31,27.66-8.11,41.44-4.98,24.5-10.96,48.79-16.3,73.22-6.16,28.16-8.41,56.88-11.56,85.44-2.15,19.43-7.07,37.78-16.77,54.87-4.48,7.89-7.47,8.76-14.8,2.96-8.98-7.11-14.63-17-21.5-25.85-3.26-4.21-1.69-9.3-.45-14.15Zm-16.73,110.27c1.25-1.04,3.09-3.58,3.89-1.63,3.32,8.07,11.89,12.69,13.83,21.47.3,1.37.04,2.86.04,3.54-.62,7.11-1,13.87-8.19,16.34-4.29,1.48-12.88-7.17-15.68-13.05-5.13-10.77-2.74-19.3,6.11-26.67Zm-20.61,58.48c6.71-7.81,17.36-8.58,25.58-13.77.82-.52,3.16.14,3.98,1.01,7.59,8.03,18.8,11.05,26.21,19.5,9.2,10.5,11.31,23.95,4.82,38.51-5.84,13.1-17.2,17.56-30.07,19.36-17.59,1.03-30.26-8.07-36.09-22.34-5.62-13.73-5.46-29.43,5.58-42.28Zm-23.02-118.43c-5.17,1.67-7.79-2.98-10.66-5.93-19.37-19.94-32.8-43.64-44.04-68.78-17.9-40.05-39.06-78.37-64.18-114.37-14.48-20.74-23.39-44.31-36.09-65.88-13.02-22.12-27.3-43.43-46.13-61.26-7.33-6.93-11.92-15.48-15.4-24.71-.99-2.63-2.35-5.7.13-8.1,2.25-2.17,4.92-.45,7.35.3,19.36,5.99,34.51,16.53,42.82,35.97,7.13,16.66,21,28.8,32,42.83,11.02,14.05,22.89,27.44,34.05,41.39,13.31,16.64,21.45,36.29,29.56,55.54,11.42,27.12,29.46,49.31,47.81,71.59,12.46,15.13,24.19,30.84,34.82,47.3,2.79,4.32,5.53,8.85,5.25,13.47-.85,6.31-1.14,11.7-5.42,16.05-3.41,3.46-2.88,8.61-3.96,13.03-1.2,4.91-2.63,9.84-7.9,11.55Zm-13.56,372.56c.32,4.59-.89,9.67.71,13.71,4.43,11.23-3.22,18.51-7.64,26.84-1.91,3.61-5.71,4.31-8.99,2.04-4.22-2.92-7.18-7.08-5.27-12.54.92-2.62,2.8-5.05,4.7-7.17,6.78-7.56,9.67-16.24,8.29-26.27-4.35-31.56-.72-63.1-.4-94.68.29-28.42-.66-56.95-1.37-85.41-.4-15.99,2.57-31.5,4.44-47.19.4-3.36,1.12-7.29,4.7-8.75,4.23-1.72,7.05,1.76,9.71,4.2,8.86,8.14,10.07,18.98,10.13,30.08-.06,25.99-4.75,51.51-7.46,77.23-2.85,27.15-5.41,54.34-7.72,81.55-1.31,15.45-4.92,30.72-3.83,46.37Zm98.27,24.38c-25.19.14-50.38.19-75.57.3-4.38.02-6.7-2.6-8.75-6.02-4.89-8.15-5.75-17.3-4-25.98,5.07-25.05,2.02-50.49,4.68-75.6,3.12-29.45,6.45-58.89,9.83-88.31,1.11-9.66.81-19.49,4.1-32.13,8.15,15.92,20.6,20.65,35.21,22.02,7.93.74,14.74-1.38,21.56-4.96,8.2-4.31,11.37-2.75,11.85,6.2,1.32,24.7,4.05,49.28,4.4,74.08.56,39.66.88,79.41,6.36,118.83,1.1,7.88-2,11.51-9.68,11.56Zm37.76-193.64c-.98,25.3-4.33,50.39-7.63,75.44-2.28,17.37-.06,34.49,1.07,51.62,1,15.29,1.85,30.32-1.23,45.47-1.19,5.85-.62,12.03-1.15,18.03-.24,2.72,1.58,7.23-3.75,6.95-4.1-.21-5.7-3.22-5.93-7.19-.5-8.89-1.63-17.77-1.75-26.66-.61-47.15-6.41-93.98-8.35-141.04-.68-16.32-1.16-32.44-4.59-48.73-2.14-10.19,4.16-21.63,8.94-31.71,1.7-3.58,5.98-5.45,10.42-4.91,4.79.58,5.53,4.65,6.36,8.24,4.16,17.94,8.25,35.9,7.59,54.52Z"/>
</svg>