<?xml version="1.0" encoding="UTF-8"?>
<svg id="Layer_1" data-name="Layer 1" xmlns="http://www.w3.org/2000/svg" viewBox="0 0 1080 1080">
  <path d="m4315.1,1063.17l-6511.13.55c-4.14,6.76,3.4,13.52,0,20.28,2729.98,0,5498.17,0,6480.64,0,10.27,0,20.55-.04,30.82-.05,15.36,0,22.4-1.11,22.45-3.22.12-4.9.35-9.79.46-14.69.05-2.18-7.42-3.05-23.26-2.88Z"/>
  <g>
    <path d="m724.48,617.04c-6.37-5.56-10.26-.33-14.38,3.25-2.68,2.33-7.2,5.66-4.32,8.79,2.88,3.13,5.3-2.47,8.08-3.92,2.48-1.3,4.76-4.57,7.74-1.89,2.85,2.57,1.8,6.12-.21,8.69-5.41,6.91-10.55,14.04-18.32,18.81-13.46,8.26-28,14.12-42.64,19.81-23.62,9.17-46.67,10.8-68.24-5.57-1.59-1.2-3.97-3.6-5.53-.6-2.38,4.57-5.07,2.8-7.73.98-4.45-3.03-8.75-6.29-13.04-9.55-1.98-1.5-3.71-3.22-3.26-6.11,1.94-12.37,3.48-24.72-.72-36.99-.39-1.13-.21-2.56,1.12-3.17,1.72-.79,2.82.41,3.6,1.65.77,1.22,1.82,2.66,1.76,3.96-.5,11.42,7.34,14.45,16.3,16.63,2.84.69,5.59,1.86,8.29,3,8.07,3.39,15.4,7.48,18.43,16.63,1.61,4.85,5.81,4.64,9.86,3.39,16.43-5.06,33.28-5.47,50.28-5.11,22.93.48,23.75-.33,28.87-22.69.22-.95.6-1.88.73-2.84.27-2,.37-4.33-2.06-4.81-2.29-.46-3.5,1.56-4.04,3.5-1.06,3.76-2.1,7.55-2.74,11.4-1.13,6.76-4.84,9.32-11.74,9.12-19.12-.56-38.3-1.35-57.02,4.04-3.68,1.06-6.85-.1-8.95-3.38-5.12-8.02-12.71-13.01-21.35-16.1-9.97-3.56-17.95-8.69-21.33-19.3-.49-1.52-1.74-3.25-3.12-3.98-9.56-5.06-7.09-13.2-5.91-21.18.57-3.87,2.54-5.19,6.37-5.5,11.68-.94,15.63-4.61,19.05-15.85,2.77-9.09-1.72-16.39-3.16-25.77-.3-1.95-.43-3.58-.39-4.97-.1-.64-.13-1.3-.15-1.84-.06-1.58.04-3.14-.08-4.72-.19-2.53-.44-5.06-1.02-7.53-.43-1.84-1.09-3.66-1.98-5.36-3.31-1.31-1.66-4.72-4.86-6.64-7.77-4.67-16.06-8.46-24.69-11.35-20.69-6.92-33.82-2.81-46.92,14.56-10.98,14.56-10.2,33.42,2.12,46.8,5.06,5.5,8.84,11.6,11.26,18.68,2.06,6.02.66,9.96-5.6,11.96-5.87,1.88-11.44,4.37-16.36,8.18-2.2,1.71-4.85,2.61-7.6,2.26-25.56-3.22-46.73,8.67-68.05,19.74-9.99,5.19-17.93,13-23.56,22.67-11.93,20.49-28.48,38.08-37.92,60.13-.47,1.09-.99,1.97-1.57,2.61.16,2.01.82,3.97,1.12,5.95.34,2.25.13,4.57,1.28,6.62.81,1.46,2.05,2.86,3.44,3.89,11.44,1.35,13.43-.06,17.96-10.82,1.41-3.35,1.68-7.64,7.88-5.4,3.75,1.36,2.51-2.11,1.59-4.11-4.43-9.59-4.11-11.06,4.91-16.1,18.11-10.13,34.85-21.9,47.82-38.36,1.88-2.38,4.05-4.36,7.53-2.77,10.14,4.63,20.54,3.63,31.03,1.43,12.17-2.56,14.05-1.24,13.58,11.18-.53,14.14,6.14,20.23,5.22,34.36-.25,3.89-10.03,15.01-12.71,17.67-11.55,11.44-18.83,24.49-18.92,41.45-.05,9.92-6.31,18.46-10.8,27.01-9.93,18.92-17.99,38.36-23.84,58.97-4.82,16.99-14.1,32.17-24.26,46.67-20.93,29.89-35.6,62.19-39.94,98.86-1.26,10.68-2.92,22.03-13.94,28.55-2.8,1.66-4.09,4.89-3.14,8.18.39.6.77,1.21,1.14,1.83,5.85,9.84,8.91,20.99,13.88,31.25,1.14,2.34,2.33,4.67,3.88,6.78,1.37,1.87,3,3.56,4.84,4.99,3.78,2.94,8.38,4.65,13.11,5.24,2.88.36,6.66.25,7.82-2.97,1.01-2.77.2-6.06-.53-8.8-.77-2.86-1.88-5.63-2.63-8.49-.93-3.58-1.4-7.31-1.55-11-.17-4.18.07-8.46,1.23-12.5.35-1.23.81-2.44,1.38-3.59.22-.83.53-1.77.94-2.85,3.36-8.9,7.12-17.73,11.6-26.11,22.96-42.99,38.32-89.88,69.51-128.73,17.88-22.27,32.15-47.35,44.64-73.2,2.01-4.16,4.07-7,9.53-5.03,13.3,4.81,27.12,6.59,41.25,6.11,4.7-.16,9.34.34,13.69,2.24,1.56.68,3.17,1.72,3.26,3.66.11,2.35-2.1,2.54-3.6,2.96-4.95,1.4-9.91,2.91-14.97,3.76-12.59,2.12-22.94,7.98-31.85,17-10.23,10.35-19.27,21.43-25.73,34.58-4.66,9.47-9.72,18.75-20.78,22.6-3.93,1.37-4.14,4.77-3.72,8.54,1.07,9.61-.18,18.93-3.66,28.06-2.17,5.69-3.48,11.71-5.11,17.6-.72,2.61-1.56,5.52,1.14,7.4,2.6,1.8,5.51.43,7.53-1.11,4.86-3.69,9.51-7.7,13.97-11.88,19.76-18.55,36.79-40.13,60.69-54.12,7.4-4.33,14.43-9.28,21.61-13.96,20.1-13.09,38.58-28.64,60.31-39.28,5.93-2.9,11.66-6.29,17.19-9.89,7.3-4.75,8.98-10.15,6.08-18.27-1.48-4.15-3.29-8.24-6.44-11.44-12.81-13.01-26.6-24.48-44.46-30.31-20.96-6.84-42.38-12.33-62.67-21.25-6.01-2.64-9.15-6.24-8.99-12.62.09-3.4-.02-6.93.84-10.17,3.15-11.79,6.99-23.41,9.93-35.25,1.45-5.86,2.91-6.61,7.93-2.9,23.76,17.56,51,23,79.51,18.33,20.65-3.38,38.95-14.36,57.39-24.06,10.26-5.4,17.61-14.01,24.36-23,5.13-6.83,3.87-12.27-2.57-17.89Zm-208,169.41c-.76,1.6-1.66,3.88-2.87,5.98-16.31,28.46-33.17,56.54-53.95,82.1-8.09,9.95-13.08,21.72-18.54,33.22-14.57,30.7-29.14,61.41-44.25,91.85-8.19,16.5-10.59,33.33-6.63,51.22.54,2.44,2.18,5.59-1.26,7.14-2.91,1.32-5.11-.9-7.12-2.69-5.75-5.11-10.58-10.91-12.98-18.37-1.95-6.06-4.02-12.05-7.45-17.49-2.47-3.92-2.04-7.57,1.94-10.21,6.71-4.45,9-11.41,10.79-18.56,1.71-6.87,3.26-13.81,4.31-20.81,4.76-31.6,17.69-59.71,35.88-85.77,13.08-18.74,24.06-38.57,29.53-61.07,5.2-21.39,17.7-39.67,26.2-59.67,1.47-3.45,3.12-2.33,4.64-.04,8.89,13.44,21.45,19.44,37.53,18.81,3.61-.14,4.28.97,4.23,4.34Zm40.25-54.85c21.09,10.16,44.03,14.98,65.95,22.74,14.28,5.06,25.16,14.93,35.51,25.4,2.15,2.18,3.58,5.29,4.71,8.21,2.36,6.12,1.7,10.9-5.16,14.5-42.18,22.17-80.2,50.72-119.06,77.96-8.07,5.66-14.62,13.02-20.97,20.47-8.57,10.04-19.22,17.85-27.97,27.67-.66-.37-1.32-.73-1.98-1.1,1.84-6.75,3.59-13.52,5.53-20.25,2.16-7.52,4.74-14.96,2.65-22.96-.73-2.8.42-4.67,3.07-5.82,8.87-3.88,13.82-11.3,17.98-19.55,8.12-16.1,18.63-30.35,32.85-41.75,6.27-5.03,13.11-8.2,21.06-9.72,8.17-1.57,16.14-4.13,24.21-6.2,5.59-1.44,6.31-4.66,3.7-9.33-3.47-6.22-8.81-9.52-15.77-10.77-11.87-2.14-24.18.82-35.82-2.78-11.91-3.68-23.8-4.15-36.16-3.02-14.61,1.34-26.47-4.97-32.26-18.33-5.56-12.82-3.76-25.86,5.56-37.12,1.09-1.32,2.2-2.63,3.38-3.87,9.42-9.89,9.89-9.45,22.79-5.03,16.07,5.52,31.02,13.32,46.22,20.64Zm-29.46-92.83c-9,3.98-16.37,1.89-22.27-5.38-2.5-3.07-4.4-3.65-8.55-2.25-14.49,4.88-29.35,8.21-44.44,2.19-5.87-2.34-8.83,1.64-11.63,5.16-10.36,12.99-23.05,23.22-37.03,32.02-1.24.78-2.38,1.84-3.72,2.34-14.3,5.39-19.95,17.1-22.98,30.81-.37,1.66-.88,3.33-1.62,4.85-2.24,4.56-6.35,4.43-10.12,3-4.34-1.65-2.45-5.1-1.32-8.07,4.2-11.05,10.35-20.95,17.36-30.44,6.53-8.84,12.78-17.91,18.69-27.18,14-21.96,33.02-34.93,59.96-34.3,3.37.08,6.6.04,6.47-4.73-.08-3.04,2.27-3.51,4.54-3.61,3.42-.15,6.86-.04,10.29-.04,0-.13,0-.25,0-.38,9.04.61,18.08,1.22,27.13,1.82,2.16.14,4.55.9,6.08-1.34,1.56-2.29-.65-3.49-1.74-4.98-3.01-4.12-.48-5.92,3.15-6.55,12.62-2.19,32.67,7.09,32.16,25.35-.34,12.06-10.7,17.42-20.4,21.71Zm29.34-67.74c-.29,6.81.44,13.63-1.11,20.41-.9,3.95-1.96,5.41-5.5,2.07-5.1-4.82-11.33-7.64-18.14-9.12-3.48-.76-5.79-2.33-6.14-6.15-1.11-11.9-7.96-20.84-15.79-29.04-6.86-7.18-8.04-15.3-5.56-24.37,6.16-22.53,22.84-31.65,44.98-24.47,9.56,3.1,8.99,2.16,17.84,6.98,5.8,3.16,11.18,7.09,9.8,14.07-.65,3.29-.11,6.81-.11,10.22,0,7.31,7.93,19.66,6.21,26.92-3.11,13.05-9.6,15.95-20.77,8.84-4.77-3.04-5.55-.02-5.71,3.63Z"/>
    <path d="m469.92,556.01c2.98.3,4.34-2.49,5.37-4.83,2.09-4.73,4.19-9.48,8.14-12.98,5.05-4.47,7.7-10.19,9.5-16.46.66-2.28,1.11-4.69,2.8-6.51,1.18-1.27,2.77-2.19,4.44-1.31.64.34.97.72,1.12,1.13.49-.85.99-1.7,1.51-2.53,1.61-2.54,3.42-4.97,5.45-7.2-3.41-.42-6.35-2.33-9.08-5.66-4.46-5.44-10.22-5.27-16.09-2.89-6.19,2.52-10.79,6.83-13.66,12.98-6.16,13.2-3.69,26.98-2.97,40.63.12,2.22.57,5.34,3.46,5.63Zm2.68-41.78c3.04-7.63,8.81-11.41,16.44-13.15,2.82-.64,5.04.43,7.05,2.21,3.29,2.91,3.05,4.59-1.11,6.06-2.77.98-5.18,2.13-5.55,5.37-1.01,8.92-4.49,16.55-11.55,22.39-1.94,1.6-2.42,4.52-5.81,6.04.12-9.97-3.3-19.32.53-28.93Z"/>
    <path d="m521.86,565.71c.94-2.01-2.07-7.01-.98-8.88,4.43-7.62,10.73-10.3,6.36-12.66-2.27-1.23-1.76-6.01,3.64-11.08,2.9-2.72,3.02-5.25,3.18-8.02.76-13.66,4.48-19.07,15.34-22.41,1.9-.59,3.92-1.44,5.35-.8-.47-.74-.97-1.43-1.53-2.05-.78-.86-1.68-1.57-2.73-1.99-.74-.29-1.4-.73-2.08-1.14-.76-.46-1.54-.91-2.43-1.14-.31-.08-.64-.13-1-.13.05.24.07.54.04.9-.42,4.48-5.9,6.36-9.07,9.86-4.34,4.78-7.1,9.46-6.61,14.26.41,4.03-.38,6.81-5.1,11-6.25,5.55-7.89,10.91-5.07,14.58.5.65,1.14,1.1,1.61,1.79,1.6,2.34-1.59,2.84-5.45,8.49-1.31,1.92,1.99,2.33,1.24,2.37.18.27,2.53,3.98,2.73,4.23"/>
  </g>
</svg>