<?xml version="1.0" encoding="utf-8"?>
<!-- Generator: Adobe Illustrator 27.0.0, SVG Export Plug-In . SVG Version: 6.00 Build 0)  -->
<svg version="1.1" xmlns="http://www.w3.org/2000/svg" xmlns:xlink="http://www.w3.org/1999/xlink" x="0px" y="0px"
	 viewBox="0 0 1073.5 1080" style="enable-background:new 0 0 1073.5 1080;" xml:space="preserve">
<style type="text/css">
	.st0{opacity:0.3;}
	.st1{opacity:0.55;fill:#757373;}
	.st2{opacity:0.55;fill:#D1D1D1;}
	.st3{opacity:0.55;fill:#C9C9C9;}
	.st4{opacity:0.55;fill:#BCBAB8;}
	.st5{opacity:0.55;fill:#FFFFFF;}
	.st6{fill:#757373;}
	.st7{fill:#BCBAB8;}
	.st8{fill:#FFFFFF;}
	.st9{fill:#C9C9C9;}
	.st10{fill:none;}
	.st11{opacity:0.95;fill:#C9C9C9;}
	.st12{opacity:0.95;fill:#FFFFFF;}
	.st13{opacity:0.95;fill:#BCBAB8;}
	.st14{opacity:0.95;fill:#757373;}
	.st15{fill:#ABA9A8;}
	.st16{display:none;}
	.st17{opacity:0.95;}
</style>
<g id="Layer_2">
	<g id="Capa_2">
		<rect x="-3.1" y="-3.3" width="1082.8" height="1082.8"/>
		<g class="st0">
			<path class="st7" d="M388.5,470.8c0,0,10.1,8.9,14.9,1.2c0,0,0.7-2.1-0.9-2.4c0,0-8.3-1.4-7.6-6.9c0,0,1.8-23.3-2.4-44.7
				c0,0-4.2-16-1-32c0,0-0.5-16-1.3-22.4c0,0-0.5-4.5-0.5-7.9c0,0-1.2-10.6-13.1-10.8c0,0-10.8,0.7-8.4,10.1c0,0-2.4-0.2,0.5,8.9
				c0,0,2.4,15.3,3.9,21.4c0,0,2,13.3,4.7,24.2c0,0,7.9,29.6,7.1,35.9c0,0,0.8,12.8,2.4,18.7C386.5,464.1,385.3,468.2,388.5,470.8z"
				/>
			<path class="st8" d="M367.5,360.7c0,0-1.7-7.4,3.3-13.9c0,0,6.6-4.9,14.5,1.2c0,0,4,3.8,4.3,7.7c0,0,0.3,4.7,0.5,7.6l0.5,4.5
				c0,0,1.5-9.6,2.8-10.3c0,0,2.6-6.3,1.7-8.4c0,0-0.6-0.3-0.9-2.1c0,0-0.1-1.3-2-4.4c0,0-0.4-5.3-2.2-7.4c0,0-2.4-1.8-2.7-10.4
				c0,0,0.4-7.7,1.1-9.6l1.1-4.9l1.7-7.1c0,0,0.7-2,0.6-2.5c0-0.4,0-0.1,0-0.1s0.7-2,2-2.7c0,0,15.4-5.4,10.3-29.1
				c0,0-0.6-4.2-6.3-10.6c0,0-3.6-5.4-7.6-3.7l-0.3-0.7c0,0,7.7,20.4-4.7,28.4c0,0-10.1,6.7-17.2-5.1c0,0-2-2.8-3.1-8l-0.3-4
				c0,0-2.6,5.1-3.5,11c0,0-0.6,8.4-1.1,9.1c0,0-2.4,14.2-2.2,20.8c0,0-0.5,12.9-1,14.2c0,0-7.8,31.1,4.1,37.4
				C360.8,357.5,364.9,360.4,367.5,360.7z"/>
			<path class="st7" d="M394.5,254.6c0,0-1.6-1.1-2.2-4.2l-1-4.2c0,0-2-7.6-2-13.1c0,0,0.1-3.9-0.4-7.3l-0.6-8
				c0,0-1.6-21.6-0.8-26.8c0,0,3.8-23.9,3.5-27.9c0,0,0.6-10.9-1-18.2c0,0-2.5-27.8-3.8-31.5c0,0-3.6-10.2,3-15.8
				c0,0,3.5-2.7,0.7-5.5c0,0-1.7-1.8-2.7-1.9c0,0-9.7-5.7-11.9-16.7l-0.5-4.3c0,0,0.1-2.3-0.9-3.1c0,0-0.6-0.5-1.7,0.1
				c0,0-0.5,0.2-0.6,1.4c0,0-0.2,1.4-0.4,1.5c0,0-3.7,7.2-0.9,19.1c0,0,3.1,19.2,2.9,20.4c0,0,1.3,13.8-0.1,17.5
				c-1.3,3.7-6.1,33.1-4.7,55.4c0,0-1,12.9-0.4,17.8c0,0-0.6,10.9-1.7,12c0,0-6.7,32.1-6.1,45.2c0,0,2.6,9.6,2,10.8l-1.2,5.8
				c0,0,1.5-5,3.1-7.2c0,0-0.6,11.8,10.5,17.8c0,0,9.1,3.8,15.4-2.2c0,0,9-4.7,4.9-21.3c0,0-0.1-1-1.3-5.1L394.5,254.6z"/>
			<path class="st9" d="M391.1,363.5c0,0,14.1-4.1,14.5-1.3c0,0-0.8,7.2,5,6.4c0,0,12.9-1.9,3.8,17.3c0,0-5.3,7.9-19,2.8
				c0,0-4-1.4-4.1-3l-0.4-9.3l-0.5-8.9L391.1,363.5z"/>
			<path class="st6" d="M414.3,386c0,0,2.2,4.4,5.8-0.7c0,0,14-20.6,2.4-32.3l-5.2-3.3c0,0,11.8,2.8,8.7-8.8c0,0-0.4-7.1-6-6.8
				c0,0-10.1-8.8-15.2,1.2c0,0-3.8,10.1,3.7,11.7c0,0-5.4-0.5-10.4,3.2c0,0-2.1,1.8-2.6,0.4l-0.2-0.2c0,0-3.7,11.6-4.1,13.2
				c0,0,7.6-2.2,11.2-2.2c0,0,2.2-0.2,3,0.5c0,0,0.2,0.1,0.2,0.4l0,0.3c0,0-0.6,5.8,3.7,6.2c0,0,0.5,0.1,0.8,0c0,0,5.3-0.8,7,2.9
				c0,0,1.5,2.4-0.1,7.9C416.8,379.5,415.1,384.6,414.3,386z"/>
		</g>
		<g>
			<path class="st7" d="M395.5,474.7c0,0-3.3,4.6,0.5,6.2c0,0,10.6,4.1,9.6,6.1c0,0-16-3.5-26.4-2.3c0,0-11-0.4-14.8,1.2
				c0,0-13.5,2.2-18-0.9c0,0-13.4-7-20.4-8c0,0-2.2-1.2-12.3,0.4c0,0-6.4,0.4-16.8-5.1c0,0-4.3-2.8-7,2.8l-1.2,12.4
				c0,0-1.8,3.9,2.4,5.5c0,0,5.7,6.9,1.4,10.4c0,0-1.2,2-1,2.6c0,0-1.9,3.1-4.5,4.8c0,0-4.4,1.9-5.7,5.3c0,0-5.2,10.2-18.8,3.4
				c0,0-4.3-9.5-0.2-15.7c0,0,2.6-4.7,2.1-8.7c0,0-2.5-5.9,3-7.6c0,0,1.1,0.2,0.9-2.1c0,0-2.5-5.1,3.4-7.2c0,0,5.7-4.7,6.2-6.6
				c0,0,0.1-20.9,14.5-22.8c0,0,5.4-2.9,8,4.5c0,0,1.1,2.9-1.8,3.4c0,0-3.2-0.2-2.3,0.4c0,0,8.9,1.4,16.5-0.2c0,0,7.9,0,13,3.5
				c0,0,2.4,4,10,3.1c0,0,20.9-1.6,32.1,6.7c0,0,11.8,8.1,21.7,5C389.6,475.3,395.6,472.5,395.5,474.7z"/>
			<path class="st6" d="M262.4,519.5c0,0-20.8,0-17.7-20c0,0-9,3.9-14.3-2.3c0,0-9-12.4,5.6-20.4c0,0,15.2-2.2,14.2,7.4
				c0,0,9.4-5.3,12-2.6c0,0,3.9,0.1,5.3-1.2c0.2-0.2,0.3-0.4,0.4-0.7c0,0,1.7-1,1.4-0.2c0,0,0,0,0,0l0,0l0,0c0,0-2.5,1.9-1.2,5.6
				c0,0,0.3,0.7,0.1,1.5c0,0-0.1,0.9-0.8,0.9c0,0-0.2,0-0.2,0c0,0-4.5,1-3.3,6.3l0.3,1.1c0,0,0.2,1,0.1,2.2c0,0,0.1,2-1.9,6.3
				C262.5,503.4,258.1,508.5,262.4,519.5z"/>
			<path class="st7" d="M320.3,388.5c4.4-7.5,14.3-5.3,14.3-5.3c9.5-0.8,13.4,24.3,13.4,24.3c2.1,11.9,12.8,11.7,12.8,11.7
				c23.3,3.7,32.5,10.1,32.5,10.1c5.5,5.4,6.1-1.1,6.1-1.1l3.2-6.8c7.1-22.4,33.8-41.1,33.8-41.1c4.5-4.5,7.8-10.3,7.8-10.3
				c0.5-7.2,4.7-6.5,4.7-6.5c8.2-5.3,12,5,12,5c0.7,1.5,9.7,9,9.7,9c11,5.7,12,12.2,12,12.2c0.2,4.2-8.7,0.7-8.7,0.7
				c-2.7-3.3-13.2-5.3-13.2-5.3c-11.7-3.7-18,13.5-18,13.5L422,434.3c-3.2,8.2-11.8,17.5-11.8,17.5c-4.8,7.8-15.8,5-15.8,5
				c-20.7-1-40.7-10.2-40.7-10.2c-11.8-3.8-17.9-9.2-17.9-9.2c-0.1-2.1-10.5-10.7-10.5-10.7c-2.8-2.7-9.2-13.9-9.2-13.9
				c-3.2-5.4-2.6-6.8-2.6-6.8c-0.9-2,5.1-15.6,5.1-15.6L320.3,388.5z"/>
			<path class="st10" d="M278.2,469.1c0,0-4.7-7.7-1.4-17l5.9-8.7c0,0,11.5-16,13.7-18.1"/>
			<path class="st8" d="M296.4,425c0,0,9.6-10.4,13.1-18.9c0,0,5.4-13.5,11.6-18.6c0,0-1.3,1.9-2.4,2.9c0,0-5.5,12.4-5.1,16.4
				c0,0,1.1,3.8,2.1,4.9l5,8.3l3.5,5.2c0,0-1.1,2.9-1,3.8c0,0-0.3,2.9-0.5,3.3c0,0-0.6,2.3-0.5,2.6c0,0-1.2,3.5-0.4,6.6
				c0,0,1.8,8.4,0.7,10.8c0,0-0.5,4.2-2.3,4.1c0,0-3.1,0.6-5.1,0.7c0,0-0.9-0.1-2.1-0.1c0,0-3.9,0.7-6.8,0.7c0,0-5.3,0-8.1-0.3
				l-1.6-0.2c0,0-0.5-0.1,0-0.3c0,0,1.1-0.1,2.2,0c0,0,2.3-0.1,1.9-3c0,0-0.8-3.8-3.9-5.1c0,0-1.8-0.9-4.2,0.2
				c0,0-9.1-0.4-13.2,14.2l-0.8,4c0,0,0.3,7.1-2.2-0.4s-0.1-0.3-0.1-0.3s-4-10.2,3.1-17.9l9.7-13.5L296.4,425z"/>
		</g>
		<path class="st8" d="M407.6,475.1c-0.2-0.2-0.4-0.5-0.7-0.7c-1.5-1.4-3.2-2.2-5-2.5c-1.9-0.4-3.8-0.6-5.7-0.5
			c-1.8,0.1-3.6,0.4-5.2,1.4c-0.7,0.5-1.3,1.1-1.8,1.8c-0.2,0.2-0.3,0.5-0.5,0.7c0,1.1,0,2.2,0,3.6l0,96.4c0,0,0,49.2,0,73.8v17
			c0,9.1,0,18.3,0,27.4h0l0,106.5l0.1,82.7l0.1,22.1c-0.2,5.6,0.1,183-0.7,188.6c-0.3,2,1,3,4.8,2.8c2.3-0.1,4.5,0,6.8-0.1
			c8.5,0,7.8,0.4,7.8-4.4C407.6,940,407.6,663.9,407.6,475.1L407.6,475.1z"/>
		<path class="st8" d="M698.5,598.8c-0.4-0.4-0.9-0.7-1.4-1c-1.8-0.9-3.9-1.3-5.9-1.4c-2.1-0.2-4.2,0-6.3,0.5
			c-1.7,0.5-3.5,1.3-4.8,2.9c0,0.7,0,1.3,0,2l0,77.9c0,0,0,39.7,0,59.6v13.7c0,7.4,0,14.8,0,22.1h0l0,86l0.1,66.8l0.1,17.9
			c-0.2,4.5,0.1,147.8-0.7,152.3c-0.3,1.6,1,2.4,4.7,2.3c2.2-0.1,4.4,0,6.7,0c8.2,0,7.6,0.3,7.6-3.6
			C698.5,974.1,698.5,751.2,698.5,598.8L698.5,598.8z"/>
		<g id="Capa_5">
			<g class="st0">
				<path class="st6" d="M182.6,767.3c0,0,8.8-12.1,5.8-19.7c0,0,7.8-1,6.4-7.3c-1.4-6.3-9-7.1-9-7.1s-4.4-1.9-4.6,1.7
					c0,0-1.8,0.8-0.4,2.9c0,0-1.2-1-1.8-0.8l0.3,6c0,0,2.2,14.1,1.8,16.3l1.2,8.2L182.6,767.3z"/>
				<path class="st7" d="M155.4,891.3c0,0-3.2,14.8,1.9,32.4c0,0,4.5,27.6,3.5,27.9c0,0,2.6,17.3,1.6,20.6c0,0-0.3,16.1,2.6,29.2
					c0,0,3.9,36.9,1.3,41.4c0,0,2.5,11.2-9.7,14.5c0,0-10.5,5.2,1.7,5.6c0,0,16.3-2.8,19.5-7.6c0,0,3.3-1,3.3-6.6l-0.5-18.6
					c0,0-0.6-10.8-1.6-12.2l-3.4-30.1l-1.4-23.8l-2.5-19.4c0,0-8.2-33.6-6.4-39.3C165.2,905.4,158.9,890.7,155.4,891.3z"/>
				<path class="st15" d="M178.7,1075c0,0-14.3,5.4-9.8-3.7c0,0,12.2-12.5,11.5-23.5c-0.7-11-0.9-22.2-3.3-35.6
					c0,0-2.8-11.2-4.9-38.7c0,0,0-14.3-2.1-21.8c0,0-9.8-34.9-7.7-51.2c0,0-4.4-34.3,21.8-26.8c0,0,13.1,1.9,11.5,15.4
					c0,0-0.2,10.6-2.6,18.7c0,0-0.9,14.1-1.2,17.3c0,0-4,26.8,0.2,36.6c0,0,9.8,34.7,6.6,40.1c0,0-4.4,43.3-0.9,48
					c0,0,6.1,8.7-4.9,11.2c0,0-8,3.5-10.3,9.4c0,0-2.1,3.1-2.7,3.1C179.8,1073.5,178.9,1074.4,178.7,1075z"/>
				<path class="st8" d="M162.1,899c0,0-3.7-7.1-6.8-7.7c0,0-1.8-1.8-1.9-3.8c0,0,0-1.5-1.3-6.5c0,0-2.6-11.9-2.8-21.7
					c0,0-1-17.1-1-19.3c0,0-1.5-13.2-1.1-19.1c0,0-1.5-15.9,9.1-25.7c0,0,8-6.7,7.8-8.4c0,0,4-2.7,4-1.3c0,0-4.2,20.6,3.6,23.2
					c0,0,7.2,5.4,13-1.8c0,0,4.7-6.8,3.1-11.6c0,0-0.3-2-1.5-5l-1.2-4.1l-0.4-1.3l-0.1-0.8l-0.3-1.1l-0.2-1.1c0,0,3.8,3.6,4.2,4.6
					c0,0,2,4.4,3.1,15.1c0,0,1.4,13.6,1.2,17.5c0,0-0.7,6.1-3,9.3c0,0-6,10.6-6.3,19.8c0,0-0.3,4.1,1.9,7.1c0,0,5.3,4.7,6.7,10
					c0,0,5,18,3.9,23.4l-0.3,3.3l-0.2,0.8l-0.1,0.1l0.2-2.4c0,0,0.1-2.1,0.1-2.3c0,0,1.8-11.7-11.6-14.5c0,0-11.4-4.1-17.4,3.7
					C166.7,877.4,161.5,882.9,162.1,899z"/>
				<path class="st7" d="M168.2,785.5c0,0-4.4,20.5,3.6,23.2c0,0,6.9,5.4,13-1.8c0,0,4.6-6.6,3.1-11.6c0,0-0.7-3.1-1.5-5l-1.6-5.3
					c0,0-0.1-0.7-0.3-1.6l-0.3-1.4c0,0-1.8-11.8-1.7-13.5c0,0-0.8-12.4-1.5-16.4c0,0-0.8-17.5-0.1-18.5c0,0,2-2.9-0.5-28.6
					c0,0-2.8-20.5-6.6-31c0,0-2-9.1-1.4-11.6c0,0-1.4-6.2-3-1.6c0,0-2.3,7-1.9,9c0,0-0.7,1.6-2.2,0.8c0,0-2.6-2-1.9,1.5
					c0,0,3.9,10.6,3.6,13.6c0,0,0.9,9.5,0.3,12.8c0,0-2.6,24,1,34.9c0,0,0.9,13.4,0.1,14.7C168.7,748.2,166.9,782.4,168.2,785.5z"/>
				<path class="st7" d="M169.4,737.9c0,0-7.2,0.5-12.3,4.1c-2.3,1.6-4.2,3.9-4.9,7c0,0-1.4,4.9-1,8.2c0,0-0.7,7.3,0.9,9.8
					c0,0-0.3,7.8,3.5,8.6c0,0,9.7,0.9,9.9,2.5c0,0,1.8,7-1.2,8.8c0,0,3.7-2.6,4.5-1.8c0,0-0.6-8.1-0.4-9.4l0.3-14.2l0.4-11.3
					l0.4-8.7l0.4-3.2l0.1-0.5L169.4,737.9z"/>
				<g>
					<path class="st7" d="M168.6,770.4c-3.4-9.8-0.9-21.7-5.5-31.5c0-0.1-0.1-0.1-0.1-0.2c-10.5,2.3-10.3,11.3-10.3,11.3
						c0.4,3.6-2.5,7.4-2.5,7.4c-1.5,2.8-1.7,6.3-1.7,6.3c0.5,0.4,0.4,2.8,0.4,2.8c-2.1,5.1,6.1,8.5,6.1,8.5c1.3-0.2,2.2,0.1,2.9,0.5
						C161.2,773.4,165,772.1,168.6,770.4z"/>
				</g>
				<path class="st6" d="M168.9,740.1c0-0.6,0-1.2,0-1.8c0-0.1,0-0.2,0-0.4c0-0.1,0-0.3,0-0.4c-1.6,0-7.2,0.3-11.5,3.6
					c0,0,5.6,0.3,5.6,2.5c0,0,1.7,3,3,3.2c0,0,2.2,1.7,2.2,4.6c0,0,0.4-6.9,0.8-11C168.9,740.3,168.9,740.2,168.9,740.1z"/>
			</g>
		</g>
	</g>
	<g id="Capa_4">
	</g>
</g>
<g id="Capa_3">
</g>
</svg>
