<?xml version="1.0" encoding="UTF-8"?>
<svg id="Layer_1" data-name="Layer 1" xmlns="http://www.w3.org/2000/svg" viewBox="0 0 1080 1080">
  <path d="m1076.63,1081.72c.62-7.15-.59-20.03-.23-27.91.19-4.21-.93-8.92-4.6-11.83-1.74-1.38-2.2-1.84-6.86-2.32-2.08-.21-5.22-.6-5.23-.61-3.51-.45-9.8-.67-12.14-.67-209.04.2-830.78.17-969.8.1-24.09-.01-32.15-2.47-55.32,3.49-5.71,1.47-11.69,2.55-11.99,6.64-1.03,14.06-3.42,26.53-.12,38.77l1065.52.38c-.15-4.02.43-2.03.78-6.04Z"/>
  <g>
    <path d="m560.35,515.97c-12.31-2.15-9.09-1.39-19.77,1.48-4.16,1.12-6.6-.04-7.78-3.85-4.02-12.99-12.36-23.06-22.15-31.98-12.19-11.1-20.01-24.74-25.05-40.18-.66-2.03-1.52-4.01-2.46-5.93-.87-1.78-2.7-3.96-4.29-3.21-8.28,3.87-11.56-2.56-15.77-7.1-1.96-2.12-4.3-3.66-6.9-2.02-2.47,1.56-1.5,4.32-.54,6.49,1.35,3.04,2.76,6.1,4.6,8.86,7.21,10.83,12.69,22.51,15.8,35.05,3.86,15.54,10.58,29.54,20.39,42.11,3.52,4.51,7.32,8.79,10.97,13.2,1.69,2.05,3.63,4.19,1.1,6.86-8.05,8.47-7.32,18.92-5.91,29.05,2.67,19.11,14.21,28.57,33.57,28.61,2.15,0,4.31.02,6.46.11,5.54.24,8.65,2.66,7.47,8.62-1.66,8.36.04,16.02,4.29,23.34,2.99,5.15,14,11.13,16.83,16.37,10.56,19.59,7.5,38.8-5.83,59.41-.64.99-.96,2.18-1.43,3.27-5.02,11.71-5.95,23.46-.42,35.31,3.45,7.39,3.22,15.08,2.67,23.08-1.64,23.94-5.65,47.8-2.6,71.96.83,6.58.85,13.36-1.95,20.47-.29,1.94-.55,3.89-.93,5.81-.52,2.62-1.34,5.18-2.07,7.75-.59,2.07-1.09,4.19-1.76,6.25.42,1.88.19,4.09-.38,6.59-.58,2.55-1.4,5.05-2,7.6-4.53,19.09-7.29,38.39-5.07,58.02,1.41,12.52,3.55,24.97,5.31,37.45.85,6.07.5,11.84-3.99,16.75-3.14,3.44-1.29,6.6,1.13,9.55.78.95,2.19,1.66,3.03,2.58.12.02.24.06.35.15,4.14,3.5,8.68,6.48,13.28,9.33,2.2,1.37,4.45,2.67,6.54,4.2,2.01,1.47,3.92,3.06,5.81,4.68,1.77,1.52,3.53,3.06,5.34,4.52,1.36,1.1,2.72,2.16,4.34,2.85,2.78,1.19,6.03,1.54,8.97.76,3.06-.81,5.48-2.98,6.33-6.07.86-3.11-.54-5.82-2.67-8.02-2.18-2.26-4.81-4.03-7.07-6.2-2.89-2.77-5.59-6.12-7.01-9.89-1.02-2.7-1.4-5.8-1.37-8.75-.17-1.57-.23-3.17-.27-4.79-.47-18.94,4.45-37.32,5.65-56.09,2.48-38.81,8.39-76.93,19.67-114.37,11.14-36.96,15.28-75.15,13.19-113.75-.42-7.82-4.25-11.71-3.94-19.33.52-12.66.47-17.85-.52-29.42-1.31-15.31,3.92-37.64.03-52.31-3.44-12.96-10.81-23.87-24.37-29.13-3.34-1.3-6.17-3.64-8.65-6.29-3.51-3.74-4.88-7.11-.3-11.52,5.19-4.99,5.82-10.92,1.84-17.49-4.52-7.45-9.99-13.82-16.82-19.29l-12.94-11.52Zm-15.15,6.05c2.83-.92,4.82-.83,7.47-1.35,1.01-.2,2.05-.24,3.06-.08,1.11.17,2.04.44,2.58.82,8.52,6.04,20.71,15.21,26.49,27.32,2.36,4.95,2.67,8.98-1.71,12.77-3.49,3.03-7.12,3.43-9.9-.45-8.43-11.76-19.57-20.76-30.21-30.31-5.51-4.94-5.05-6.38,2.21-8.73Zm-5.71,63.82c-1.29,2.79-4.75.96-6.19,1.44-13.4.9-19.03-7.8-23.03-17-3.93-9.05-4.46-18.9.56-28.17,2.25-4.16,4.52-4.52,6.93.02,2.24,4.22,4.13,8.52,5.19,13.2,2.14,9.42,5.99,17.96,12.98,24.93,1.57,1.57,4.7,3.08,3.55,5.57Zm23.26,25.82c-4.11-16.18-14.8-27.82-25.57-39.59-3.42-3.73-5.92-8.23-6.96-13.16-3.25-15.51-11.81-27.82-22.63-38.97-17.92-18.47-24.92-42.36-32.52-65.92-.5-1.56-1.11-3.42.54-4.59,1.61-1.15,3.19-.03,4.63.82,2.35,1.38,4.13,3.35,4.98,5.9,4,11.98,12.56,20.65,21.43,28.99,10.29,9.67,18.3,20.56,22.04,34.42,2.57,9.48,10.11,15.46,17.3,21.34,17.48,14.3,29.36,32.99,41.51,51.5,1.82,2.77,3.06,5.88,3.62,9.25,2.22,13.42-1.86,18.23-16.38,18.36-5.95.76-10.57-2.73-12-8.35Zm56.94,118.83c-.7,44.07-7.47,87.13-22.44,128.76-4,11.11-4.59,22.86-5.84,34.41-3.1,28.63-5.25,57.35-9.64,85.84-2.75,17.89-.56,34.22,14.55,46.75,2.37,1.96,6.84,3.91,4.55,8.4-1.22,2.38-12.14,2.38-14.11-.31-7.22-9.87-17.41-16.19-26.83-23.48-3.33-2.57-4.69-5.67-1.17-9.7,4.8-5.48,3.03-12.3,2.27-18.53-1.29-10.62-3.4-21.15-5.06-31.73-3-19.18.81-37.97,4.1-56.66,3.62-20.57,11.21-40.5,10.18-61.81-1.16-24.05-.09-48,2.54-71.93.87-7.9-.17-15.69-3.74-23-5.75-11.75-3.48-23.16,1.6-34.43,1.9-4.22,5.1-6.36,9.72-5.56,11.53,2.02,23.06,4.13,34.53,6.43,4.17.84,4.54,4.74,4.7,7.98.32,6.18.09,12.38.09,18.57Z"/>
    <path d="m521.39,629.02c2.31-2.45.75-5.57-.62-8.09-2.78-5.1-5.57-10.22-5.98-16.13-.52-7.55-3.81-13.83-8.15-19.73-1.58-2.15-3.42-4.2-3.88-6.95-.32-1.92-.06-3.96,1.87-4.85.74-.34,1.31-.37,1.77-.22-.42-1.02-.84-2.04-1.21-3.08-1.16-3.18-2.08-6.45-2.68-9.79-2.71,2.75-6.42,4.06-11.26,4.2-7.9.24-11.69,5.49-13.58,12.35-2,7.23-1.31,14.29,2.2,21.05,7.53,14.51,21.5,21.76,34.14,30.46,2.06,1.42,5.14,3.15,7.38.77Zm-35.36-30.99c-4.71-7.93-4.13-15.66-.46-23.63,1.36-2.95,3.84-4.2,6.79-4.76,4.84-.93,6.17.43,4.64,5.14-1.02,3.14-1.65,6.07.99,8.62,7.26,7,11.66,15.33,12.02,25.61.1,2.82,2.37,5.25,1.4,9.31-8.8-6.93-19.46-10.29-25.39-20.27Z"/>
  </g>
</svg>