<?xml version="1.0" encoding="UTF-8"?>
<svg id="Layer_2" data-name="Layer 2" xmlns="http://www.w3.org/2000/svg" viewBox="0 0 1080 1080">
  <path d="m3248.59,983.45l-2254.47,1.26c-8.67-.42-17.37-.17-26.06-.17-322.59-.01-645.19-.02-967.78-.03-.06.03-.13.05-.22.05s-.16-.02-.22-.05c-96.62,0-193.25,0-289.87,0-2.74,0-5.07,0-7.06-.07-2.69.56-5.4,1.04-8.13,1.36-3.01.36-6.04.55-9.07.49-2.9-.06-5.73-.42-8.59-.9-5.72-.96-11.41-2.07-17.23-2.08-1.39.96-3.56,1.3-6.88,1.39-.08.09-.2.15-.36.15-2.22,0-4.44-.07-6.65-.15-8.7-.06-17.4-.23-26.1.01-1.9.05-3.49-.13-4.85-.59-9.48-.15-18.96-.33-28.44-.3-6.81.02-13.64.02-20.45.36-5.56.28-11.44.69-16.85-.94-.78.59-1.96.95-3.74.95-7.4,0-5.22-5.55-5.08-9.42.77-20.7,3.96-41.47,1.5-62.1-3.91-32.68-.33-65.15,3.34-97.28,3.25-28.49-.12-55.59-6.47-82.84-1.63-6.98-4.91-13.63-4.72-20.95.27-10.03-2.17-19.38-6.05-28.49-9.48-22.27-15.6-45.71-23.84-68.41-2.33-6.42-2.1-13.12-1.02-19.64.85-5.12,6.87-4.65,9.99-7.44,1.7-1.52,3.62-3.14,4.55-5.12,9.36-20.12,18.99-40.2,21.49-62.63,3.66-32.87,5.43-66.01,12.5-98.39,6.13-28.11,14.83-55.67,18.88-84.24,6.28-44.27,13.79-88.1,35.01-128.41,5.16-9.81,6.32-20.99,2.82-31.99-2.45-7.7-8.91-11.33-14.46-7.17-18.6,13.96-37.01,28.23-38.41,54.48-.46,8.58-1.81,17.22-5.18,25.28-8.34,19.93-15.64,40.27-23.54,60.36-11.5,29.26-18.96,58.99-20.17,90.51-.76,19.56-4.2,38.95-12.51,57.07-8.08,17.61-13.85,36-18.71,54.69-5.24,20.12-5.28,19.84-25.71,24.92-6.94,1.72-10.52-.36-14.17-6.05-10.57-16.51-22.21-32.28-34.74-47.41-18.81-22.7-36.5-46-48.03-73.58-12.17-29.12-28.79-55.57-49.84-79.52-17.27-19.66-36.1-38.53-47.72-62.39-10.64-21.86-29.36-32.54-51.12-39.51-9.76-3.12-14.92,1.28-13.37,11.23,2.13,13.69,7.56,26.05,17.84,35.72,20.85,19.62,36.65,42.84,49.92,67.95,8.21,15.52,14.41,32.03,24.38,46.69,27.3,40.14,51.71,81.9,71.37,126.34,12.33,27.86,27.74,53.76,49.8,75.33,3.28,3.2,5.86,7.12,8.68,10.77,18.03,23.38,12.57,47.25-2.56,65.59-2.2,2.67-4.31,5.48-4.98,8.99-2.8,14.47-8.23,28.16-12.59,42.18-8.91,28.63-12.04,57.96-10.18,87.86,1.7,27.24,5.54,54.45,1.2,81.79-1.13,7.11-1.77,14.28-.96,21.51,1.85,16.6.97,33.33,2.56,49.99,1.42,14.94-8.52,24.09-23.77,24.1-60.5.01-121.01.02-181.51,0l-366.54.03s-187.05-.03-280.58-.04h-64.51c-34.73.09-69.46.06-104.19.06v-.07l-404.75-.03-314.4.14-84.13.14c-21.41-.53-794.18.13-815.56-1.49-7.74-.59-11.43,2.2-10.68,10.31.45,4.86.17,9.79.19,14.68.08,18.19-1.37,16.81,16.91,16.81,677.7,0,2106.73,0,2784.43,0,542.16,0,3161.69,0,3703.85,0,2.9,0,5.79-.09,8.69-.09,4.33,0,6.31-2.23,6.33-6.43.03-9.79.1-19.58.13-29.37.01-4.37-2.09-6.09-6.55-5.76ZM-523.42,537.07c7.63-29.87,16.71-59.24,28.44-87.81,7.39-18,12.19-37.21,12.1-56.29-.21-45.91,19.31-86.02,34.51-127.44,5.78-15.74,11.52-31.43,13.72-48.02,2.53-19.09,17.17-28.46,30.09-39.33,2.81-2.36,4.84-1.07,5.15,2.54.27,3.15.45,6.31.67,9.47,1.01,10.38-4.07,18.88-8.14,27.82-14.66,32.19-23.84,65.9-27.06,101.13-1.29,14.1-5.31,27.66-8.11,41.44-4.98,24.5-10.96,48.79-16.3,73.22-6.16,28.16-8.41,56.88-11.56,85.44-2.15,19.43-7.07,37.78-16.77,54.87-4.48,7.89-7.47,8.76-14.8,2.96-8.98-7.11-14.63-17-21.5-25.85-3.26-4.21-1.69-9.3-.45-14.15Zm-16.73,110.27c1.25-1.04,3.09-3.58,3.89-1.63,3.32,8.07,11.89,12.69,13.83,21.47.3,1.37.04,2.86.04,3.54-.62,7.11-1,13.87-8.19,16.34-4.29,1.48-12.88-7.17-15.68-13.05-5.13-10.77-2.74-19.3,6.11-26.67Zm-20.61,58.48c6.71-7.81,17.36-8.58,25.58-13.77.82-.52,3.16.14,3.98,1.01,7.59,8.03,18.8,11.05,26.21,19.5,9.2,10.5,11.31,23.95,4.82,38.51-5.84,13.1-17.2,17.56-30.07,19.36-17.59,1.03-30.26-8.07-36.09-22.34-5.62-13.73-5.46-29.43,5.58-42.28Zm-23.02-118.43c-5.17,1.67-7.79-2.98-10.66-5.93-19.37-19.94-32.8-43.64-44.04-68.78-17.9-40.05-39.06-78.37-64.18-114.37-14.48-20.74-23.39-44.31-36.09-65.88-13.02-22.12-27.3-43.43-46.13-61.26-7.33-6.93-11.92-15.48-15.4-24.71-.99-2.63-2.35-5.7.13-8.1,2.25-2.17,4.92-.45,7.35.3,19.36,5.99,34.51,16.53,42.82,35.97,7.13,16.66,21,28.8,32,42.83,11.02,14.05,22.89,27.44,34.05,41.39,13.31,16.64,21.45,36.29,29.56,55.54,11.42,27.12,29.46,49.31,47.81,71.59,12.46,15.13,24.19,30.84,34.82,47.3,2.79,4.32,5.53,8.85,5.25,13.47-.85,6.31-1.14,11.7-5.42,16.05-3.41,3.46-2.88,8.61-3.96,13.03-1.2,4.91-2.63,9.84-7.9,11.55Zm-13.56,372.56c.32,4.59-.89,9.67.71,13.71,4.43,11.23-3.22,18.51-7.64,26.84-1.91,3.61-5.71,4.31-8.99,2.04-4.22-2.92-7.18-7.08-5.27-12.54.92-2.62,2.8-5.05,4.7-7.17,6.78-7.56,9.67-16.24,8.29-26.27-4.35-31.56-.72-63.1-.4-94.68.29-28.42-.66-56.95-1.37-85.41-.4-15.99,2.57-31.5,4.44-47.19.4-3.36,1.12-7.29,4.7-8.75,4.23-1.72,7.05,1.76,9.71,4.2,8.86,8.14,10.07,18.98,10.13,30.08-.06,25.99-4.75,51.51-7.46,77.23-2.85,27.15-5.41,54.34-7.72,81.55-1.31,15.45-4.92,30.72-3.83,46.37Zm98.27,24.38c-25.19.14-50.38.19-75.57.3-4.38.02-6.7-2.6-8.75-6.02-4.89-8.15-5.75-17.3-4-25.98,5.07-25.05,2.02-50.49,4.68-75.6,3.12-29.45,6.45-58.89,9.83-88.31,1.11-9.66.81-19.49,4.1-32.13,8.15,15.92,20.6,20.65,35.21,22.02,7.93.74,14.74-1.38,21.56-4.96,8.2-4.31,11.37-2.75,11.85,6.2,1.32,24.7,4.05,49.28,4.4,74.08.56,39.66.88,79.41,6.36,118.83,1.1,7.88-2,11.51-9.68,11.56Zm37.76-193.64c-.98,25.3-4.33,50.39-7.63,75.44-2.28,17.37-.06,34.49,1.07,51.62,1,15.29,1.85,30.32-1.23,45.47-1.19,5.85-.62,12.03-1.15,18.03-.24,2.72,1.58,7.23-3.75,6.95-4.1-.21-5.7-3.22-5.93-7.19-.5-8.89-1.63-17.77-1.75-26.66-.61-47.15-6.41-93.98-8.35-141.04-.68-16.32-1.16-32.44-4.59-48.73-2.14-10.19,4.16-21.63,8.94-31.71,1.7-3.58,5.98-5.45,10.42-4.91,4.79.58,5.53,4.65,6.36,8.24,4.16,17.94,8.25,35.9,7.59,54.52Z"/>
  <g>
    <path d="m264.43,979.19c-4.91-15.63-3.93-30.72,3.28-45.25.49-1,.97-2,1.45-3-.89-.14-1.77-.29-2.66-.43-1.8-.29-3.6-.58-5.4-.87-.14.27-.28.54-.42.81-6,11.34-7.94,23.97-7.93,36.81,0,4.5.69,9.74-6.93,6.33-6.93,1.68-13.89,3.58-20.94,4.99-3.77.75-8.87,2.5-10.72-2.27-2.24-5.74,2.69-8.51,7.17-9.84,18.32-5.42,26.24-16.94,28.1-36.32.07-.73.15-1.47.24-2.2-2.79-.37-5.58-.71-8.38-.98-2.57,15.16-6.63,27.53-23.54,32.48-7.97,2.34-12.56,8.86-12.18,17.96.1,2.31.86,5.22-.31,7.04,5.96,1.65,12.38.85,18.46.62,6.99-.26,13.99-.25,20.98-.26,7,0,13.99.05,20.99.19.81.02,1.63.03,2.44.05-1.64-1.19-2.82-3.08-3.69-5.87Z"/>
    <path d="m415.85,715.5l6.81-22.41c-.17-11.22,16.18-16.04,22.32-25.63,11.34-17.72,23.72-34.84,33.03-53.76,3.26-6.62,7.9-10.81,14.46-14.01,25.03-12.23,48.35-27.06,69.48-45.36,11.33-9.81,23.72-18.42,35.68-27.5l44.76-31.93c32.06-20.19,62.78-42.24,93.33-64.63,30.31-22.21,62.27-42.01,98.5-53.83,9.35-3.05,18.66-6.3,27.01-11.68,5.96-3.84,15.34-7.16,13.22-14.99-1.92-7.08-11.51-5.94-18.35-5.98-18.32-.12-36.36-2.28-54.14-6.65-10.3-2.53-16.06.48-19.24,10.49-2.29,7.21-5.92,13.03-13.01,16.38-19.09,9.02-37.92,18.61-57.26,27.05-33.17,14.48-63.32,33.41-90.33,57.41-21.5,19.1-45.7,33.94-73.51,44.96,2.24-9.19,7.2-15.88,11.96-22.51,27.55-38.41,57.18-75.32,83.4-114.73,15.2-22.85,33.57-43.29,54.9-60.88,8.68-7.16,18.15-13.52,25.36-22.25,3.49-4.22,9.29-9.03,5.11-15.05-3.73-5.38-9.96-1.79-14.44-.08-16.19,6.19-32.71,9.55-50.08,8.47-1.98-.12-4,.58-6.02.73-8.25.61-12.48,5.98-11.99,13.19.91,13.43-5.84,22.29-15.04,30.43-5.41,4.78-10.5,9.9-15.76,14.85-24.6,23.18-49.35,46.02-65.61,76.49-24.81,46.5-63.23,81.13-103.53,113.84-8.83,7.16-17.53,14.09-22.69,24.53-2.36,4.77-6.19,8.37-11.24,10.35-3.12,1.22-5.35,3.17-7.06,6.03-7.2,12.03-10.44,25.38-13.43,38.85-2.06,9.26-2.56,19.52-7.11,27.43-8.83,15.32-17.09,31.26-29.43,44.37-1.64,1.75-2.44,3.8-3.18,6.03-1.74,5.22-3.44,10.47-5.19,15.7,2.27,1.05,4.66,1.88,7.05,2.54,8.64,2.38,17.63,3.15,26.44,4.59,4.25.7,8.5,1.52,12.62,2.81,1.94.61,3.85,1.33,5.69,2.2,2.31,1.09,4.39,2.66,6.42,4.2,3.99,3.04,6.96,6.01,10.08,9.95m21.41-177.2c-.82-2.16.25-4.09,1.79-5.42,5.02-4.33,10.16-8.52,15.33-12.69,32.7-26.39,62.91-55.23,87.09-89.75,7.26-10.36,13.68-21.39,19.61-32.58,11.33-21.41,29.65-36.68,46.24-53.46,12.38-12.52,25.15-24.66,37.77-36.95,6.4-6.23,11.42-13.01,10.49-22.64-.43-4.51,1.99-7.45,6.49-7.41,15.84.16,30.89-4,46.05-7.69,2.01-.49,4.94-2.3,6.15.59,1.04,2.46-1.83,4-3.44,5.44-11.17,10.01-23.24,18.97-33.9,29.62-28.41,28.36-49.11,62.43-72.44,94.62-23.51,32.43-47.85,64.24-70.73,97.16-9.22,13.26-25.6,18.48-40.83,23.31-15.21,4.82-30.29,9.7-43.98,18.12-1.91,1.17-4.25,1.64-5.39,2.07-3.2-.06-5.4,0-6.29-2.32Zm407.96-174.5c-34.82,10.97-66.48,28.15-96.48,48.47-16.97,11.49-33.6,23.52-49.96,35.87-18.25,13.78-37.66,25.73-57.1,37.69-34.56,21.26-65.38,47.46-97,72.6-18.65,14.83-39.06,26.59-60.68,36.56-13.92,6.42-26.2,1.51-38.02-4.65-5.23-2.73-6.35-9.26-6.16-15.5,1.39-15.77,7.81-28.57,23.16-35.58,4.47-2.04,8.98-4.12,13.67-5.5,41.96-12.38,79.7-33.72,117.44-54.94,14.38-8.08,27.42-18.37,39.46-29.56,23.17-21.55,49.96-36.97,78.87-49.4,19.37-8.33,38.42-17.44,57.41-26.62,9.44-4.56,18.27-10,20.47-21.78,1.1-5.92,5.37-6.78,10.63-4.53,13.79,5.91,28.27,7.99,43.2,7.86,3.56-.03,9.26-1.58,9.94,2.51.77,4.64-5.32,5.39-8.86,6.5Z"/>
    <path d="m389.55,981.55c-4.35-13.85-1.48-34.23-.14-48.22-1.89-.38-2.05-.48-3.95-.83-.75-.14-2.14-.5-2.89-.62-3.56,9.44-4.71,27.48-4.7,37.74,0,4.5.69,9.74-6.93,6.33-6.93,1.68-13.89,3.58-20.94,4.99-3.77.75-8.87,2.5-10.72-2.27-2.24-5.74,2.69-8.51,7.17-9.84,16.26-4.81,18.51-24.25,21.42-39.9-3.13-.84-6.17-1.52-9.24-1.39-2.87,11.28-2.07,30.27-15.76,34.28-7.97,2.34-12.56,8.86-12.18,17.96.1,2.31.87,5.22-.31,7.04,5.96,1.65,12.38.85,18.46.62,6.99-.26,13.99-.25,20.98-.26,7,0,13.99.05,20.99.19.81.02,1.63.03,2.44.05-1.64-1.19-2.82-3.08-3.69-5.87Z"/>
    <path d="m269.16,930.93c.18-.72,4.71-9.92,4.84-10.65,3.55-20.15,15.73-35.03,28.35-49.78,2.05-2.4,5.45-4.31,5.58-7.5.34-8.01,6.52-11.08,11.57-15.11,3.83-3.05,7.88-5.87,12.07-8.39,4.07-2.44,7.48-9.35,11.72-7.1,4.17,2.21,2.93,9.36,3.06,14.48.58,23.16,2.66,45.91,8.81,68.56,1.1,4.04,2.27,8.07,3.46,12.09,2.45.28,4.89.64,7.32,1.05.64.11,1.28.23,1.92.34-5.68-21.23-10.02-42.7-9.81-65.36.32-35.06-5.85-69.54-19.44-102.21-2.3-5.54-2.91-11.12-2.79-16.94.5-19.4,10.86-27.66,27.38-21.96,2.32.8,4.18,1.47,4.49,4.4,1.61,15.36,4.4,30.67,4.82,46.05.78,28.31-.69,56.79,3.84,84.82,3.43,21.22,5.46,42.4,5.62,63.84.03,3.47.22,6.91.61,10.31,2.82.6,4.01.87,6.84,1.45-.92-8.5-.32-16.72.39-25.6.95-11.83.51-23.94-2.23-35.42-7.35-30.83-.6-62.43-5.88-93.31-1.18-6.89,1.7-10.77,8.84-13.38,8.85-3.25,17.91-8.1,18.17-19.7.25-11.2,2.92-21.2,7.16-30.42-.5-.91-1-1.83-1.53-2.74-2.95-5.08-6.27-9.96-10.05-14.46-3.75-4.46-7.95-8.55-12.57-12.1-4.92-3.77-10.29-6.95-15.94-9.5-6.43-2.91-13.2-5.04-20.08-6.6-.35-.08-.7-.15-1.04-.22-8.75,8.81-17.3,17.82-26.17,26.5-9.54,9.35-9.69,22.46-11.42,34.74-.12.86-.1,1.73-.14,2.6-1.16,22.87-1.42,23.13-23.97,23.35-11.59.11-22.19,2.99-31.05,10.97-1.85,1.66-4,4.24-6.53,1.29-1.94-2.25-1.07-5.01.47-7.25,2.2-3.22,5.74-4.75,9.01-6.55,8.98-4.94,16.83-10.98,21.93-20.27,3.99-7.27,10.54-12.13,17.07-16.97,3.23-2.39,7.04-5.45,5.54-9.91-1.45-4.33-6.38-3.95-9.83-3.36-21.16,3.63-43.15,4.63-61.24,18.65-8.43,6.53-13.44,15.09-15.15,25.44-1.62,9.81.12,18.71,10,23.66,10.23,5.12,14.48,12.5,12.58,24.42-2.69,16.89,7.75,28.54,18.75,38.97,5.58,5.29,6.75,10.16,3.93,16.82-3.84,9.05-6.96,18.46-11.39,27.2-5.44,10.74-8.62,22.28-12.16,33.69,2.63.89,5.32,1.6,8.01,2.28.82.21-.04,0,.78.22.51-2.24,1.26-2.68,1.21-4.33.17-1.24.25-2.7.59-4.09,4.87-20.05,14.92-37.99,22.93-56.76.99-2.33,2.9-3.36,5.57-3.07,9.75,1.03,14.73,11.07,9.67,19.31-9.54,15.57-24.02,28.09-28.19,47.02-.45,2.03-3.76,13.46-4.34,15.2m-14.55-166.66c-.83,6.88-3.31,7.83-8.91,3.8-3.42-2.46-5.84-5.49-5.83-10.04.02-12.29,3.81-22.44,14.45-29.75,13.39-9.2,28.91-7.2,44.15-10.84-1.16,5.72-5.47,7.47-7.25,11-6.49,12.85-16.98,20.83-30.31,25.47-4.84,1.68-5.76,5.78-6.31,10.37Zm34.71,61.54c1.99,4.75,10.25,9.45,5.85,13.45-4.2,3.81-9.92-3.71-14.65-6.44-16.21-9.37-23.91-33.2-14.69-45.7,9.16-12.43,19.88-23.12,35.64-19.56,3.66.11,5.44-.09,7.11.26,3.83.8,9.92-2.1,10.66,4.22.81,6.94-4.76,9.15-10.54,10.2-1.7.31-3.44.32-5.15.58-9.63,1.47-12.72,6.89-7.25,15.12,4.14,6.22,2.41,9-3.04,12.14-6.5,3.75-6.67,9.24-3.95,15.73Zm59.34-4.26c-2.58,5.98-21.83,18.78-28.22,18.66-3.59-.21-6.53-2.14-9.55-3.76-16.83-9.01-17.67-15.67-3.25-27.56,2.92-2.41,5.62-4.6,3.25-8.54-4.42-7.34.17-11.63,5.91-11.37,11.09.52,13.26-5.29,13.65-14.21.1-2.19,1.71-4.28,2.25-6.5,1.06-4.41,2.9-4.25,5.88-1.57,6.44,5.8,8.71,13.15,6.54,21.23-2.25,8.37-1.06,15.94,2.27,23.61,1.35,3.11,2.86,6.35,1.29,10Z"/>
    <polyline points="244.85 913.86 241.27 926.97 249.65 927.95 253.64 916.36"/>
  </g>
  <path d="m242.84,936.96c1.23-3.92,1.82-7.96,2.93-11.89.55-1.95,1.34-3.84,2.06-5.74.59-1.55,1.01-3.83,2.36-4.91l-2.56-1.06c.15,2.11-.78,3.97-1.39,5.94s-.79,3.92-1.18,5.88c-.86,4.4-2.03,8.75-3.06,13.11-.31,1.32,1.53,2.73,2.51,1.46,1.11-1.43,2.18-2.88,2.9-4.55s.93-3.58,1.28-5.42c.77-3.98,1.94-7.89,3.52-11.62.32-.75.22-1.6-.54-2.05-.63-.37-1.74-.21-2.05.54-1.5,3.55-2.72,7.2-3.54,10.97-.38,1.73-.54,3.52-1.01,5.23s-1.56,3.33-2.68,4.78l2.51,1.46c1.07-4.51,2.31-9.03,3.15-13.59.38-2.04.62-4.06,1.29-6.03s1.45-3.95,1.29-6.11c-.1-1.37-1.53-1.88-2.56-1.06-1.49,1.19-1.99,3.21-2.64,4.92-.78,2.04-1.62,4.07-2.29,6.16s-.98,4.22-1.45,6.33-1.07,4.33-1.74,6.46c-.58,1.85,2.31,2.64,2.89.8h0Z"/>
  <path d="m265.52,921.31c-1.58,3.81-3.43,7.41-5.28,11.08-.85,1.69-1.59,3.46-1.88,5.34-.33,2.11-.31,4.28-.39,6.41-.05,1.41,2.18,2.14,2.8.76,2.05-4.62,5.04-8.82,7.43-13.27s4.55-9.13,5.21-14.16c.17-1.28-1.76-1.99-2.56-1.06-1.81,2.09-3.16,4.53-3.81,7.23-.34,1.43-.52,2.87-1.17,4.21-.7,1.43-1.65,2.74-2.53,4.05-1.74,2.59-3.71,5.13-5.23,7.85-.74,1.32-.82,2.7-.9,4.17-.08,1.7-.17,3.41-.25,5.11-.07,1.48,2.1,2.05,2.8.76,1.7-3.19,3.26-6.45,4.67-9.77.32-.75.22-1.6-.54-2.05-.63-.38-1.74-.21-2.05.54-1.41,3.33-2.97,6.58-4.67,9.77l2.8.76c.08-1.54.15-3.08.23-4.63.07-1.46.11-2.57.93-3.82,1.67-2.54,3.39-5.05,5.08-7.57,1.56-2.33,2.91-4.55,3.48-7.32s1.49-5.07,3.3-7.17l-2.56-1.06c-1.27,9.68-8.39,17.28-12.23,25.92l2.8.76c.08-2.08-.02-4.27.4-6.32.37-1.81,1.19-3.46,2.06-5.08,1.86-3.46,3.46-7,4.97-10.63.74-1.78-2.16-2.56-2.89-.8h0Z"/>
  <path d="m257.63,962.07c1.89-8.05,4.51-15.91,7.87-23.46.78-1.75-1.8-3.28-2.59-1.51-3.48,7.79-6.23,15.87-8.18,24.18-.44,1.88,2.45,2.68,2.89.8h0Z"/>
  <path d="m362.69,929.03c-1.3,5.33-2.49,10.69-3.57,16.08l1.45-1.1c.61.67.87.79.78.35,0-.32,0-.63.01-.95.01-.63.04-1.27.07-1.9.06-1.11.14-2.22.26-3.32.25-2.39.65-4.76,1.17-7.11l-2.95-.4c.47,4.24.45,8.53-.16,12.76l2.95.4c.05-5.84.24-11.68.56-17.51h-3c0,3.97-.37,7.91-.96,11.83l2.95.4c-.13-4.88-.38-9.75-.74-14.61h-3l1.41,11.8c.22,1.86,3,1.98,3,0,0-5.64,0-11.29,0-16.93l-2.95.4c.55,3.53,1.41,7,2.59,10.37.65,1.86,3.17,1.08,2.89-.8-.58-4.02-1.31-8.02-2.19-11.98-.36-1.62-3.17-1.29-2.95.4.73,5.43,1.45,10.86,2.18,16.28l2.95-.4-1.08-3.96c-.51-1.86-3.4-1.07-2.89.8l1.08,3.96c.43,1.57,3.18,1.32,2.95-.4-.73-5.43-1.45-10.86-2.18-16.28l-2.95.4c.88,3.97,1.61,7.96,2.19,11.98l2.89-.8c-1.18-3.38-2.04-6.84-2.59-10.37-.26-1.7-2.95-1.25-2.95.4,0,5.64,0,11.29,0,16.93h3l-1.41-11.8c-.22-1.87-3.15-1.96-3,0,.36,4.86.61,9.74.74,14.61.04,1.61,2.69,2.14,2.95.4.63-4.19,1.06-8.39,1.07-12.63,0-1.94-2.9-1.92-3,0-.32,5.83-.5,11.67-.56,17.51-.02,1.64,2.7,2.11,2.95.4.64-4.51.76-9.02.26-13.56-.17-1.55-2.55-2.19-2.95-.4-.71,3.23-1.2,6.51-1.44,9.81-.16,2.14-1.12,6.64,2.04,6.93.61.05,1.33-.5,1.45-1.1,1.08-5.38,2.27-10.74,3.57-16.08.46-1.88-2.44-2.68-2.89-.8h0Z"/>
  <path d="m385.43,931.71s-.06-.09-.09-.15l.15.36s-.02-.07-.03-.11l.05.4c0-.06,0-.11,0-.17l-.05.4s.01-.08.03-.11h-2.89c.08.27.17.53.25.8.18.58.64.99,1.25,1.07.27.04.52,0,.78-.1.32-.14.51-.33.72-.61l.56-.75-2.74-.36.37,1.28c.15.5.54.91,1.05,1.05.48.13,1.12.01,1.46-.39.29-.35.61-.66.96-.96l-2.36-.3c.03.07.06.13.09.2l-.15-.36c.09.22.17.45.23.68.2.72.92,1.17,1.65,1.07s1.27-.72,1.3-1.47c0-.04,0-.09.01-.13l-.05.4c.01-.07.03-.12.05-.19l-.15.36c.03-.06.06-.11.09-.17l-.23.3.04-.05-2.51-.66c.08.22.15.45.23.67.2.57.63.99,1.25,1.07.58.08,1.2-.19,1.49-.72.11-.19.21-.38.32-.57l-2.74-.36.1.37c.16.61.8,1.13,1.45,1.1s1.29-.44,1.45-1.1c.02-.07.03-.13.06-.19l-.15.36c.03-.06.06-.12.09-.18h-2.59s.05.07.06.1l-.15-.36s.03.08.04.11l-.05-.4s0,.08,0,.12c-.02.63.48,1.3,1.1,1.45s1.38-.09,1.69-.69c.11-.21.21-.43.26-.66h-2.89s.03.08.04.12l-.05-.4c0,.07,0,.12,0,.19h3v-.22c-.85.35-1.7.71-2.55,1.06.4.35.83.52,1.37.45.45-.06.99-.35,1.18-.79l-2.74-.36s.03.08.04.13l-.05-.4c0,.07,0,.13,0,.2l.05-.4c-.08.46-.26.92-.4,1.38s-.28.94-.42,1.41c-.23.75.27,1.67,1.05,1.85s1.6-.24,1.85-1.05c.17-.56.34-1.12.5-1.68.08-.28.17-.56.25-.84.13-.44.2-.96.03-1.4-.09-.24-.2-.48-.39-.66-.23-.23-.54-.37-.86-.41-.27-.04-.52,0-.78.1-.27.11-.6.33-.72.61l-.02.04.23-.3-.03.03.66-.39h-.04c.13,0,.27-.02.4-.04h-.04c.13.02.27.04.4.06h-.04c.22.12.44.25.66.37l-.03-.03c-.46-.41-1.06-.56-1.64-.31s-.91.77-.92,1.37v.22c-.03.78.7,1.54,1.49,1.5.39-.02.79-.14,1.06-.44s.41-.65.44-1.06c.02-.23-.02-.49-.09-.71-.21-.61-.76-1.13-1.45-1.1-.65.03-1.29.44-1.45,1.1-.02.06-.03.12-.06.19l.15-.36s-.04.08-.06.12l2.8.76c.01-.36-.09-.79-.31-1.09-.32-.44-.73-.74-1.3-.74-.53,0-1.03.29-1.3.74-.13.22-.24.48-.3.73h2.89l-.1-.37c-.15-.58-.67-1-1.25-1.07s-1.2.19-1.49.72c-.11.19-.21.38-.32.57l2.74.36c-.08-.22-.15-.45-.23-.67-.17-.5-.52-.9-1.05-1.05-.47-.13-1.14-.02-1.46.39-.23.3-.39.52-.52.88-.08.23-.11.48-.12.71l2.95-.4c-.12-.43-.29-.84-.47-1.24s-.67-.66-1.1-.72c-.5-.07-.88.1-1.26.41-.35.29-.67.61-.96.96l2.51.66-.37-1.28c-.17-.58-.66-1-1.25-1.07-.27-.04-.52,0-.78.1-.32.14-.51.33-.72.61l-.56.75,2.74.36c-.08-.27-.17-.53-.25-.8-.19-.61-.77-1.13-1.45-1.1s-1.24.45-1.45,1.1c-.17.53-.1,1.24.24,1.7.24.32.49.58.9.69.36.1.84.05,1.16-.15s.6-.51.69-.9.08-.84-.15-1.16h0Z"/>
  <path d="m359.8,926.64l-.3.38,2.36.3c.04.09.05.36.05.07h-3c0,.07-.03.45.02.11l2.95.4c0-.19,0-.21-.02-.06l-2.51.66.04.04-.44-1.06v.07c.14-.35.28-.71.43-1.06l-.05.04,1.46-.39-.09-.04,1.05,1.05-.04-.1v.8l-.08.16-2.59-1.51c-.16.33-.3.65-.35,1.01l2.95.4s-.03-.41-.04-.21c0,.16.05-.17.06-.2l-2.51.66c.54.65,1.06,1.51,2.02,1.51.86,0,1.62-.7,2.19-1.28l-2.51-.66c.04.16.09.31.13.47.3,1.11,1.7,1.44,2.51.66l.45-.43-2.51-.66.18.63c.41,1.43,2.48,1.42,2.89,0l.03-.1-.39.66-.41.24h-.8l-.72-.74.15.36c.07.13.17.27.27.37.34.34.84.51,1.32.45.75-.1,1.11-.63,1.52-1.2h-2.59c.34.5.68,1.12,1.32,1.26.41.09.88.04,1.25-.17l.3-.23c-.17.17-.37.24-.59.2-.25.05-.43-.06-.55-.32-.22-.1-.34-.26-.36-.48-.02.75.71,1.58,1.5,1.5.4-.04.71-.1,1.06-.3l-2.2-.9c-.02-.23-.02-.28,0-.16,0,.08.02.17.03.25.03.23.1.43.23.63.3.48.81.74,1.37.77,1.04.05,1.7-.97,1.68-1.91-.03-1.08-.23-2.2-.57-3.23s-.78-1.99-1.35-2.88-1.17-1.68-1.65-2.6c-.36-.7-1.39-.96-2.05-.54-.71.46-.93,1.31-.54,2.05.67,1.28,1.62,2.39,2.26,3.68.08.15.15.31.22.47-.1-.24.1.28.12.33.12.33.22.66.3.99s.15.67.2,1.02c-.04-.29.03.28.03.34,0,.1.01.2.02.3,0,.2,0,.2.02,0l.39-.66-.06.06.66-.39-.08.03h.8l-.08-.02.9.69-.05-.07.2.76c-.03-.23-.02-.47-.1-.68-.34-.89-1.31-1.43-2.2-.9l.46-.11,1.5,1.5c.02-.91-.54-1.76-1.41-2.05s-1.55,0-2.22.52l.66-.39-.1.02,1.16.15c.37.39.46.46.28.21-.06-.08-.11-.16-.17-.24-.67-.99-1.91-.93-2.59,0-.02.03-.35.41-.11.15l.66-.39-.08.02,1.16.15-.06-.03.54.54.09.22c-.05-.14-.11-.27-.17-.4-.08-.14-.18-.27-.29-.39-.29-.31-.67-.47-1.08-.52-.89-.12-1.68.47-1.93,1.32h2.89l-.18-.63c-.32-1.1-1.69-1.44-2.51-.66l-.45.43,2.51.66c-.04-.16-.09-.31-.13-.47-.3-1.09-1.71-1.46-2.51-.66-.14.14-.29.28-.44.41.11-.08.09-.07-.06.04-.17.11-.17.11.03,0l1.16.15c.13.06.12.12.01-.02-.07-.1-.16-.19-.24-.29-.14-.17-.29-.35-.43-.52-.33-.4-.98-.52-1.46-.39-.53.15-.87.54-1.05,1.05-.13.38-.19.81-.14,1.21.1.75.5,1.36,1.3,1.47.66.09,1.55-.33,1.65-1.07.01-.09.17-.55.05-.3.35-.7.21-1.66-.54-2.05-.71-.37-1.65-.19-2.05.54-.24.42-.36.92-.21,1.4.2.61.58.9,1.16,1.13.52.21,1.07-.08,1.46-.39.7-.55.61-1.7.02-2.27-.76-.73-2.29-.49-2.51.66-.05.28-.1.57-.09.86.02.75.55,1.37,1.3,1.47.67.09,1.53-.34,1.65-1.07.05-.3.1-.6.08-.91-.03-.78-.67-1.54-1.5-1.5s-1.51.66-1.5,1.5c0,.54.14.96.36,1.44.38.82,1.79,1.02,2.36.3l.3-.38c.49-.61.64-1.53,0-2.12-.54-.5-1.6-.66-2.12,0h0Z"/>
</svg>