<?xml version="1.0" encoding="UTF-8"?>
<svg id="Layer_1" data-name="Layer 1" xmlns="http://www.w3.org/2000/svg" viewBox="0 0 1080 1080">
  <path d="m1075.1,1063.17l-6511.13.55c-4.14,6.76,3.4,13.52,0,20.28,2729.98,0,5498.17,0,6480.64,0,10.27,0,20.55-.04,30.82-.05,15.36,0,22.4-1.11,22.45-3.22.12-4.9.35-9.79.46-14.69.05-2.18-7.42-3.05-23.26-2.88Z"/>
  <g>
    <path d="m718.2,795.2c-8.71-3.93-17.71-7.22-25.44-13.03-2.01-1.51-4.4-2.92-3.04-5.85,1.66-3.6,4.12-1.06,6.22-.36,2.68.89,6.25,3.47,7.6-.47,2.29-6.67,6.49-5.63,11.59-4.73,4.94.87,11.94,2.54,13.22-3.86,1.24-6.2-5.7-7.47-10.6-8.68-14.87-3.67-29.41-8.55-42-17.18-22.82-15.63-48.06-22.46-75.31-23.93-7.86-.42-15.68-2.52-22.04-7.47-14.05-10.94-30.22-14.75-47.56-14.62-5.3.04-8.88-.26-9.21-6.99-.29-5.97-1.51-11.45,6.94-12.24,9-.84,12.74-6.51,14.6-14.86,2.78-12.48-5.61-23.15-7.94-35.07-.02-.1-.03-.19-.04-.29-.47-1.56-.65-3.19-.77-4.81-.09-1.22-.2-2.43-.34-3.64-.18-.53-.38-1.06-.59-1.59-1.37-3.38-3.5-6.38-6.46-8.55-.01,0-.02-.02-.03-.03-.71-.27-1.41-.58-2.12-.94-9.24-4.82-14.2-8.19-24.3-10.22-27.42-5.51-44.41,5.34-51.43,32.51-3.75,14.53-.38,26.57,12.05,35.6,4.8,3.49,9.02,7.54,12.39,12.42,4.92,7.12,4.58,9.97-1.94,15.56-4.16,3.56-8.02,7.29-9.04,12.96-3.59,19.94-8.15,39.75-7.57,60.22.04,1.29.41,2.95.26,4.32.41,1.98.6,4,.53,6.06-.03.97-.14,1.94-.2,2.91-.07,1.02-.08,2.04-.14,3.07-.05.78-.22,1.54-.38,2.3-.05.25-.1.51-.14.78.03.43.04.87.04,1.32.02.08.03.16.06.23.08.18.04.35-.06.48,0,.18,0,.36,0,.54-.23,14.96-2.45,29.53-6.23,44.08-5.52,21.28.76,32.6,21.16,41.11,4.97,2.07,10.18,3.57,15.28,5.31,1.85.63,3.78,1.08,5.58,1.83.59.24,1.26.52,1.8.88,2.89.72,5.03,2.87,6.9,5.11,4.28,2.41,7.83,4.28,11.1,6.53,12.17,8.39,25.64,13.16,40.19,15.34,9.14,1.37,10.13,3.63,4.8,11.34-5.14,7.44-11.01,14.39-15.07,22.55-1.03,2.07-1.85,4.84-2.97,6.84.2,3.22-1.09,6.28-1.78,9.41-.74,3.38-.85,6.89-1.05,10.34-.2,3.48-.43,6.95-.58,10.44-.14,3.29-.16,6.58-.11,9.88,1.24,5.23.23,12.4.64,18.26.32,4.51.51,7.27-.1,8.96.04.36.1.71.13,1.07.27,2.6.44,5.2.54,7.81.1,2.57.2,5.17.1,7.75-.18,4.39-1.71,8.4-3.1,12.51-.63,1.85-1.25,3.77-1.54,5.71-.15,1-.12,2.03.14,3.01.51,1.94,1.88,3.5,3.48,4.66,1.98,1.44,4.27,2.41,6.58,3.17,2.68.89,5.45,1.51,8.23,2.02,5.12.93,10.31,1.39,15.48,1.96,2.76.3,5.46.87,8.2,1.39,4.27.81,8.57,1.52,12.9,1.9,4.25.37,8.6.46,12.82-.29,1.89-.33,3.81-.81,5.56-1.62,1.57-.73,3.06-1.66,4.49-2.64,3.2-2.2,6.34-4.84,8.63-8.01,2.06-2.84,3.18-6.57,2.17-10.02-.98-3.37-3.69-5.9-6.33-8.05-2.83-2.3-5.82-4.4-8.69-6.65-3.06-2.41-6.07-5.06-8.21-8.35-1-1.54-1.8-3.25-2.18-5.06-.36-1.71-.31-3.44.01-5.15.27-1.46.71-2.88,1.26-4.27.35-1.44.8-3.09,1.32-4.99,8.42-30.18,20.17-59.17,33.68-87.44,7.3-15.28,3.51-29.83-10.99-39.07-12.81-8.16-25.99-15.75-38.82-23.89-16.31-10.34-34.13-18.39-48.49-31.75-3.53-3.29-5.77-6.82-7.35-11.43-5.64-16.41.39-31.81,3.19-47.54,1.17-6.6,4.5-8.33,10.98-6.33,10.77,3.33,21.68,6.22,33.13,6.31,10.58.08,20.31,2.89,28.87,9.37,11.39,8.62,24.37,13.65,38.44,15.66,16.7,2.38,32.7,6.33,46.47,16.78,3.68,2.79,7.99,4.76,12.01,7.11,2.58,1.51,5.71,2.39,6.74-1.08,1.89-6.36,4.84-4.6,9.55-3.12,4.75,1.49,12.33,5.81,14.74-1.52,2.1-6.37-5.88-7.91-10.5-10Zm-188.85-91.94c.66-2.34,3.37-1.14,5.2-1.35,1.21-.14,2.45-.03,3.68-.03,12.72.81,24.76,3.79,34.86,11.92,12.33,9.94,27.22,9.92,41.8,11.44,15.48,1.61,30.29,5.93,43.96,13.28,9.04,4.86,17.59,10.65,26.95,14.99,2.69,1.25,5.64,2.55,3.7,6.52-1.82,3.73-4.75,3.76-8.06,2.39-24.23-10.08-49.85-15.46-75.13-21.93-7.77-1.99-15.22-4.95-20.64-10.69-11.57-12.25-26.65-15.76-42.24-18.46-3.62-.63-7.33-1.05-10.48-3.12-1.79-1.17-4.28-2.57-3.6-4.96Zm-54.4-34.63c-2.25-5.4-7.97-8.56-12.55-12.19-5.86-4.65-8.26-10.42-8.38-17.81-.19-11.71,4.42-21.55,11.59-30.14,5.29-6.34,13.25-6.78,23.71-6.62,11.58.99,13.04.27,26.24,6.07,3.57,1.57,13.89,9.6,13.66,13.68-.44,7.9,5.32,12.94,7.21,20.53,1.33,5.34,1.55,10.68.55,15.99-1.82,9.69-7.84,12.89-17.25,9.5-6.32-2.27-7.36-1.4-6.32,5.25.64,4.1,1.34,8.2,1.74,12.33.44,4.4-1.13,6.75-5.99,4.84-.23-.09-.46-.24-.69-.24-15.49-.28-27.21-6.01-33.53-21.17Zm144.01,215.35c8.42,5.08,11.68,17.73,7.3,26.46-12.96,25.81-22.57,52.98-32.96,79.82-3.26,8.42-4.43,17.5-5.54,26.46-1.81,14.61,6.96,23.05,18.1,30.05,1.44.9,4.7,1.16,3.38,3.75-1.13,2.23-3.34,4.46-6.62,3.02-9.37-4.11-19.38-7.03-26.22-15.55-3.61-4.5-5.62-9.27-4.36-14.88,1.98-8.79,2.53-18.04,6.35-26.26,10.68-23.02,19.07-47.06,31.94-69.12,13.39-22.95,9.26-36.89-13.27-51.35-16.82-10.79-33.22-22.24-49.81-33.4,25.28,11.17,48.11,26.76,71.72,41.01Zm-59.27-25.27c13.25,8.82,26.51,17.64,39.52,26.81,14.12,9.96,15.79,21.65,7.71,36.91-16.57,31.29-32.73,62.77-40.29,97.85-2.79,12.96,3.37,21,12.12,28.39,3.96,3.34,8.83,5.2,13.56,7.27,1.68.74,4.45,1.2,4.19,3.47-.32,2.87-3.29,2.27-5.37,2.54-.96.13-1.96.02-3.48.02-14.8-1.77-30.08-3.99-45.23-7.01-5.64-1.12-7.42-5.16-4.44-9.06,9.57-12.51,6.34-26.12,4.15-39.45-2.86-17.41.16-34.59,1.12-51.81.52-9.33,5.39-17.67,11.57-24.93,1.43-1.68,2.84-3.37,4.16-5.14,10.77-14.48,9.37-20.11-8.54-23.9-18.02-3.81-33.59-11.75-48.4-22.03-5.86-4.06-12.4-6.87-19.29-8.9-3.52-1.04-6.96-2.38-10.32-3.85-18.47-8.06-22.65-16.63-17.32-35.97,1.8-6.55,2.29-15.23,6.74-18.79,4.42-3.54,12.28,1.99,18.7,3.21,8.71,1.65,17.41,2.91,26.3,1.86,2.98-.35,6.09-.59,7.79,2.61,10.05,18.88,28.18,28.65,45.06,39.89Zm132.17-63.74c-3.36,1.5-6.62,2.35-9.69-.1-13.71-10.91-30.46-12.8-46.82-15.86-10.74-2.01-21.13-5.15-29.68-12.07-12.4-10.05-27.09-11.37-42.08-12.92-17.18-1.77-33.44-7.47-49.34-14.01-5.46-2.25-8.3-7.44-11.96-11.67-1.48-1.72-3.44-3.75-5.56-2.34-2.65,1.75-.23,3.83.82,5.61,1.21,2.07,3.48,4.22,1.83,6.58-1.58,2.25-4.56,1.23-6.91.99-10.85-1.09-15.24-5.83-14.93-16.34-.17-9.18,3.64-16.68,12.23-21.34,9.35-5.08,19.04-3.39,26.19,2.97,11.3,10.04,24.38,13.75,38.64,15.96,10.89,1.69,20.25,6.48,28.08,14.72,7.87,8.28,18.59,11.33,29.61,13.54,21.07,4.22,41.13,10.86,58.12,24.81,6.99,5.74,14.49,10.89,22.04,15.9,4.13,2.74,3.24,3.88-.57,5.58Z"/>
    <path d="m424.15,664.63c2.99.05,4.11-2.85,4.95-5.27,1.68-4.89,3.37-9.8,7.01-13.62,4.65-4.88,6.81-10.81,8.08-17.2.46-2.33.71-4.77,2.24-6.72,1.07-1.36,2.57-2.42,4.31-1.68.66.28,1.03.64,1.21,1.03.41-.89.84-1.78,1.3-2.65,1.39-2.67,2.99-5.24,4.83-7.64-3.44-.13-6.52-1.79-9.52-4.88-4.9-5.05-10.63-4.39-16.27-1.52-5.95,3.03-10.18,7.72-12.52,14.09-5.02,13.67-1.4,27.2.47,40.73.3,2.21,1.02,5.27,3.93,5.32Zm-.85-41.86c2.39-7.86,7.82-12.11,15.27-14.49,2.76-.88,5.06,0,7.21,1.61,3.52,2.63,3.42,4.31-.59,6.14-2.67,1.21-4.98,2.56-5.07,5.82-.25,8.98-3.08,16.87-9.62,23.28-1.79,1.76-2.03,4.71-5.28,6.51-.72-9.94-4.92-18.97-1.91-28.87Z"/>
    <path d="m476,671.42c.79-2.13-2.61-6.91-1.66-8.91,3.86-8.15,9.97-11.46,5.41-13.44-2.36-1.03-2.22-5.92,2.81-11.58,2.7-3.04,2.63-5.61,2.57-8.43-.28-13.93,3.04-19.76,13.67-24.18,1.86-.77,3.82-1.83,5.3-1.32-.53-.7-1.08-1.36-1.68-1.93-.85-.8-1.8-1.43-2.89-1.76-.77-.23-1.46-.61-2.17-.96-.8-.39-1.61-.78-2.52-.92-.32-.05-.65-.07-1.01-.03.07.24.11.54.1.91-.08,4.58-5.42,7.01-8.33,10.86-3.98,5.26-6.39,10.26-5.54,15.09.71,4.05.14,6.94-4.27,11.64-5.84,6.23-7.07,11.81-3.97,15.27.55.61,1.23,1.01,1.75,1.66,1.78,2.22-1.38,3.04-4.82,9.13-1.17,2.07,2.17,2.17,1.42,2.29.2.26,2.83,3.8,3.05,4.03"/>
  </g>
</svg>