<?xml version="1.0" encoding="UTF-8"?>
<svg id="Layer_1" data-name="Layer 1" xmlns="http://www.w3.org/2000/svg" viewBox="0 0 1080 1080">
  <path d="m3235.1,1063.17l-6511.13.55c-4.14,6.76,3.4,13.52,0,20.28,2729.98,0,5498.17,0,6480.64,0,10.27,0,20.55-.04,30.82-.05,15.36,0,22.4-1.11,22.45-3.22.12-4.9.35-9.79.46-14.69.05-2.18-7.42-3.05-23.26-2.88Z"/>
  <g>
    <path d="m697.43,481.68c-.38-.79-.75-1.59-1.18-2.36-.8-1.46-1.85-2.78-2.98-3.99-4.07-4.39-9.23-7.74-14.12-11.14-2.55-1.77-5.07-3.57-7.55-5.44-1.23-.93-2.46-1.88-3.66-2.86-.75-.61-1.58-1.15-2.31-1.8-2.06-1.27-4.01-2.81-5.82-4.71-1.96-2.05-3.44-4.12-4.48-6.19-.35-.32-.69-.64-1.04-.96-1.69-1.56-3.37-3.07-5.23-4.43-1.48-1.08-2.97-2.16-4.33-3.39-1.1-.43-2.14-1.6-3.05-2.23-8.1-5.69-16.69-10.59-24.76-16.21,7.35,1.57,14.72,3.07,22.05,4.74,1.92.44,3.87.89,5.59,1.81,1.6.46,3.16,1.06,4.74,1.58,2.96.96,6.06,1.17,9.16,1.13.57-.64,1.19-1.28,1.87-1.92,10.04-9.44,19.1-19.71,26.56-31.27,11.13-17.24,7.88-39.15-7.32-50.88-1.88-1.45-4.27-3.91-6.27-1.28-1.71,2.25,1.32,3.69,2.88,5.07,12.16,10.74,15.88,28.24,7.81,41.75-6.64,11.13-14.73,21.34-24.1,30.44-2.51,2.44-5.21,3.64-8.61,2.06-8.53-3.97-17.56-6.37-26.83-7.49-12.17-1.47-15.59-14.73-11.84-26.35,1.44-4.48,1.07-6.08-3.55-7.12-8.78-1.97-10.79-5.87-7.78-14.28,1.56-4.37,3.78-8.65,3.41-13.39-.4-5.15,1.85-5.55,6.19-4.79,9.09,1.6,18.25,1.31,26.59-2.96,5.23-2.68,10.47-3.93,16.22-3.81,4.39.09,8.79.02,13.18.02-6.73-4.37-13.63-4.63-21.05-2.21-11.33,3.7-23.12,4.02-34.96,3.3-4.81-.29-8.7-1.72-12.34-5.37-6.99-7-15.19-13.31-25.39-13.65-21.58-.72-42.66,1.74-60.97,14.93-1.54,1.11-3.7,1.51-5.27,2.29-11.07,5.56-14.47,8.14-21.93,15.03-3.76,3.47-7.73,6.59-12.37,9.12-11.61,6.32-19.1,16.5-26.52,26.94-8.46,11.91-10.73,24.63-5.54,38.16,4.13,10.77,2.64,20.41-3.05,30.09-14.08,23.98-21.67,49.62-19.15,77.7.57,6.31-1.01,12.04-4.34,17.46-7.3,11.88-14.43,23.86-21.58,35.83-8.76,14.65-11.83,30.31-8.66,47.19,3.21,17.07,7.33,33.89,12.48,50.48,1.21,3.88,2.88,7.66-1.97,11-10.11,6.95-10.6,14.59-1.64,23.47,6.58,6.52,10.28,14.04,10.95,23.29.45,6.32,1.4,12.63,2.62,18.85.91,4.6,2.68,9.49,8.09,10.19,4.96.64,7.05-3.81,8.97-7.47,9.02-17.24,12.88-35.73,13.12-55.08.13-10.49-.59-20.97,1.09-31.46,4.86-30.38,9.15-60.85,14.2-91.19,2.36-14.17,3.9-28.84,10.64-41.73,7.25-13.88,14.38-27.81,21.27-41.86,15.32-31.2,27.31-63.75,38.51-96.58,1.16-3.41.73-14.07,3.84-15.24,8.98-3.37,20.91,3.1,30.32,1.3,3.79-.73,6.5.36,7.13,4.25,2.88,17.78,12.66,32.08,23.05,46.13,9.48,12.82,21.74,21.36,37.12,26.09,20.23,6.22,41.8,9.57,58.2,24.8.99.92,2.2,1.25,3.21.11,1.1-1.24.87-2.7.25-4.12-.84-1.9-2.74-3.6-.43-5.86,2.94-2.88,7.89-4.01,12.63-3.53Zm-182.11-69.98c-4.61,11.83-9.33,23.62-13.81,35.5-12.42,32.98-27.37,64.76-44.23,95.74-7.81,14.34-8.95,30.83-12.49,46.52-6.45,28.61-8.54,57.9-13.85,86.72-2.67,14.49-1.89,29.69-1.94,44.57-.05,14.83-4.81,28.29-10.53,41.58-.73,1.69-1.41,4.19-3.87,3.65-2.26-.49-2.32-3.07-2.56-4.88-.83-6.28-1.24-12.62-2.03-18.91-1.25-9.95-4.77-18.73-12.36-25.88-6.5-6.13-5.62-10.06,2.44-13.16,3.4-1.3,4.48-3.49,4.42-6.69-.1-4.93-1.31-9.65-2.74-14.34-5.22-17.05-9.72-34.28-12.89-51.86-1.91-10.59.3-20.41,4.59-29.89,6.98-15.42,16.22-29.57,25.43-43.7,5.7-8.75,8.29-18.04,7.04-28.49-2.71-22.69,2.83-43.83,14.27-63.15,8.35-14.11,11.82-27.8,5.93-43.78-4.24-11.5.57-22.06,7.06-31.7,4.39-6.52,9.51-12.44,15.62-17.44,4.06-3.32,7.29-3.6,10.98,1.25,6.8,8.93,14.27,17.36,21.58,25.9,2.55,2.99,5.5,5.56,9.57,6.49,3.03.69,4.82,2.38,4.38,5.97Zm161.9,64.23c-12.85-8.56-27.6-12.46-42.12-16.75-15.73-4.65-30.66-10.31-41.71-23.24-5.85-6.85-10.41-14.18-11.14-23.36-.29-3.69-1.21-6.17-5.85-5.08-4.82,1.13-5.18-3.15-5.63-5.91-1.73-10.59-2.98-21.25-4.42-31.88-.16-1.21-.23-2.44-.52-3.62-.41-1.67-.88-3.53-3.11-3.42-2.14.1-2.55,1.88-3,3.59-2.16,8.17-3.25,8.54-9.92,3.45-6.01-4.59-10.53-18.94-8.06-26.01.46-1.32,1.26-2.88,2.38-3.57,9.63-5.88,19.24-11.88,31.29-11.17,9.54.56,23.69,13.17,23.97,21.53.15,4.56-.62,8.96-4.25,12.02-4.26,3.59-3.5,6.82-.36,10.58,4.45,5.33,6.86,11.84,9.46,18.12,2.53,6.14,3.88,12.61.79,19.2-2.65,5.67,1.43,8.25,5.51,10.11,12.79,5.84,24.74,12.92,35.4,22.12,5.92,5.11,9.88,12.73,17.1,15.9,9.44,4.15,15.67,11.82,23.77,18.47-4.03,2.14-6.87.72-9.57-1.08Z"/>
    <path d="m620.22,310.84c.02,3,2.95,4.04,5.39,4.82,4.93,1.56,9.88,3.13,13.78,6.68,4.99,4.53,10.97,6.55,17.39,7.66,2.34.41,4.79.6,6.78,2.08,1.39,1.03,2.48,2.51,1.78,4.27-.27.67-.61,1.05-1,1.23.9.39,1.79.8,2.68,1.23,2.7,1.33,5.32,2.87,7.75,4.64.05-3.44,1.63-6.56,4.65-9.64,4.93-5.02,4.13-10.74,1.13-16.31-3.17-5.88-7.96-9.99-14.38-12.18-13.78-4.69-27.22-.75-40.71,1.45-2.2.36-5.25,1.15-5.22,4.05Zm41.82-1.86c7.92,2.2,12.3,7.52,14.85,14.91.95,2.74.12,5.06-1.43,7.25-2.54,3.58-4.23,3.53-6.15-.44-1.28-2.64-2.68-4.92-5.94-4.93-8.98-.03-16.94-2.67-23.51-9.06-1.8-1.75-4.75-1.91-6.64-5.12,9.92-.96,18.85-5.37,28.81-2.61Z"/>
    <path d="m616.2,363.52c2.1.72,6.74-2.82,8.72-1.94,8.06,3.58,11.4,9.55,13.28,4.95.97-2.39,5.78-2.4,11.41,2.42,3.02,2.59,5.55,2.44,8.32,2.29,13.66-.73,19.44,2.39,23.94,12.82.79,1.83,1.85,3.75,1.38,5.24.68-.55,1.32-1.12,1.87-1.74.77-.87,1.38-1.84,1.68-2.93.21-.77.57-1.47.9-2.19.37-.81.74-1.63.87-2.54.04-.32.06-.65.02-1-.23.08-.53.13-.9.13-4.5.07-6.96-5.17-10.78-7.95-5.23-3.79-10.17-6.03-14.89-5.03-3.96.84-6.81.36-11.49-3.88-6.2-5.61-11.7-6.66-15.04-3.46-.59.57-.97,1.25-1.6,1.8-2.15,1.85-3-1.27-9.04-4.5-2.05-1.1-2.1,2.23-2.22,1.49-.25.21-3.68,2.95-3.91,3.17"/>
  </g>
</svg>