<?xml version="1.0" encoding="UTF-8"?>
<svg id="Layer_2" data-name="Layer 2" xmlns="http://www.w3.org/2000/svg" viewBox="0 0 1080 1080">
  <path d="m406.68,479.25c-.2-.25-.42-.49-.66-.72-1.45-1.37-3.19-2.16-5.03-2.55-1.86-.39-3.8-.61-5.69-.55-1.78.06-3.64.35-5.18,1.42-.7.48-1.3,1.11-1.81,1.84-.16.23-.32.47-.46.73,0,1.12,0,2.25,0,3.64l.02,96.4s-.01,49.19-.02,73.79v16.97c.04,9.13.03,18.27.03,27.4h-.03l-.02,106.45.07,82.69.06,22.13c-.25,5.63.06,183.01-.69,188.63-.27,2.04,1.02,3.01,4.79,2.81,2.26-.12,4.54-.04,6.82-.05,8.45-.02,7.81.36,7.81-4.45,0-151.71,0-427.83,0-616.57Z"/>
  <path d="m697.59,602.87c-.44-.39-.92-.74-1.44-1.01-1.82-.94-3.93-1.28-5.89-1.43-2.09-.15-4.22-.03-6.26.54-1.73.48-3.55,1.33-4.8,2.91,0,.66,0,1.32,0,1.97l.02,77.86s-.01,39.73-.02,59.6v13.7c.04,7.38.03,14.75.03,22.13h-.03l-.02,85.98.06,66.78.06,17.87c-.24,4.55.06,147.81-.67,152.35-.27,1.64,1,2.43,4.68,2.27,2.2-.1,4.44-.04,6.66-.04,8.25-.02,7.63.29,7.63-3.59,0-122.51,0-345.46,0-497.9Z"/>
  <g>
    <path d="m403.56,486.73c-2.34-1.09-4.74-2.04-7.11-3.05-2.06-.88-3.47-1.92-1.3-4.18.68-.71,1.43-1.64.78-2.76-.62-1.06-1.74-1.01-2.77-.94-1.41.11-2.87.12-4.22.49-6.78,1.84-13.17.67-18.95-3-10.6-6.72-22.21-8.64-34.46-8.27-2.94.09-6.16.37-8.68-1.37-4.12-2.85-8.66-4.58-13.39-5.91-3.15-.88,5.64,3.57,6.6.62,3.39-10.49-3.2-13.93,1.78-23.7,2.17-4.26,8.17,7.85,12.58,9.53,5.18,1.98,10.35,4.04,15.33,6.48,14.89,7.27,30.87,9.94,47.11,11.63,4.37.46,8.05-.83,11.3-3.86,3.26-3.03,5.77-6.59,8.13-10.29,7.64-11.97,13.71-24.85,20.99-37.02,3.58-5.98,6.87-12.14,11.05-17.72,3.11-4.16,7.65-5.39,11.53-3.82.05,0,.1,0,.16.04.05.03.1.06.15.09.39.18.78.38,1.16.62.32.15.64.28.97.42.78.32,1.58.64,2.3,1.08.81.5,1.6,1.08,2.37,1.64.84.6,1.66,1.22,2.47,1.86.59.46,1.16.96,1.77,1.39,2.17,1.5,4.78,2.66,7.41,2.99,2.33.29,5.2-.41,5.59-3.1.17-1.22-.08-2.49-.41-3.65-.34-1.2-.79-2.36-1.33-3.48-1.37-2.89-2.98-5.64-4.99-8.14-1.1-1.37-2.31-2.65-3.65-3.78-1.46-1.23-3.1-2.27-4.72-3.27-3.28-2.02-6.57-3.99-9.49-6.52-1.36-1.18-2.65-2.44-3.88-3.75-.64-.69-1.27-1.39-1.89-2.1-.56-.64-1.09-1.3-1.73-1.84-.83-.71-1.92-1.3-3.05-1.06-1.18.25-2.05,1.26-2.66,2.23-.76,1.22-1.39,2.53-2.29,3.66-.37.71-1.02,1.41-2.08,2.09-1.18.76-1.87,2.24-1.83,3.71.09,4.18-2.15,7.02-5.1,9.53-4.71,4.01-9.44,7.99-14.12,12.03-10.95,9.43-17.42,21.89-23.28,34.75-2.6,5.71-2.66,5.82-7.94,2.78-7.95-4.57-16.36-7.49-25.5-8.54-4.04-.47-8.6-.48-11.67-3.56-5.84-5.85-8.29-30.16-15.43-33.67-11.25-5.52-16.52-.86-22.39,10.08-4.55,8.47-7.74,18.99-13.78,26.4-6.11,7.49-13.73,16.35-19.05,24.46-5.33,8.11-10.47,12.1-7.91,21.86,1.46,5.57-.76,8.89-4.47,12.04-2.94,2.5-6.37,3.78-10.25,4.04-8.89.6-13.98,5.6-16.31,14-3.32,11.99.34,20.17,11.7,25.18,4.61,2.04,9.45,3.57,14.45,4.26l7.9-1.49c1.89-.39,5.49-5.52,5.49-5.52,3.45-3.99,7.77-6.56,10.03-11.44,2.53-5.47,1.91-8.68-2.51-12.74-.94-.87-2.07-1.54-1.77-3.15,1.27-6.88.63-17.74,7.15-15.08,3.23,1.31,6.4,2.75,9.65,4.01,3.34,1.29,6.98,1.76,10.28.69,7.14-2.31,22.88,5.53,29.57,7.88,9.24,3.24,9.3.95,19.33.14,12.82-1.04,25.5-.33,38.17,1.49,1.29.18,2.73.4,3.26-1.23.59-1.83-.86-2.56-2.13-3.16Zm-77.81-58.16c-4.96-5.09-8.07-10.51-12.29-16.34-.92-1.28-1.66-3.57-.94-5.29,2.73-6.55,5.62-13.04,10.82-17.32,4-2.41,7.68-2.81,11.31-1.2,7.3,3.24,7.7,25.33,13.76,30.81,3.28,2.96,7.26,4.44,11.57,4.95,10.77,1.29,20.83,4.47,30.3,9.92,6.57,3.78,6.73,3.36,9.81-3.42,5.45-12.02,11.3-23.87,20.93-33.19,4.9-4.73,10.38-8.86,15.62-13.23,4.03-3.35,7.69-6.76,7.86-12.65.09-3.06,3.27-3.7,5.53-4.78,1.93-.92,3.81-.02,4.78,1.52,4.59,7.22,12.11,11.12,18.32,16.48,1.86,1.61,3.73,3.19,5.1,5.27.42.64,1,1.32.52,2.11-.61,1-1.61.69-2.43.37-1.32-.51-2.59-1.14-3.86-1.78-2.76-1.4-5.42-3.03-8.28-4.21-8.23-3.41-14.98-1.61-19.97,5.69-6.63,9.69-12.25,20.01-17.84,30.33-4.79,8.85-9.66,17.64-15.07,26.13-4.67,7.32-10.27,10.76-19.9,9.58-15.47-1.9-29.92-6.4-43.94-12.49-4.57-1.98-8.75-4.76-12.33-8.21l-9.39-9.06Zm-42.42,64.14c-1.84,1.72-1.55,2.95,1.09,3.69,6.67,1.87,7.54,3.98,4.78,10.3-2.8,6.39-7.73,6.06-11.31,11.87-.62,1.01-6.31,4.01-7.35,3.84-6.88-1.17-9.77-.89-16.18-3.79-3.02-1.37-5.25-3.69-7.11-6.13-4.46-7.45-1.57-23.91,9.68-25.82,7.13-1.21,13.82-3.11,18.64-9.05.96-1.19,2.28-1.14,3.33.09,1.92,2.25,4.46,3.43,7.16,4.41,2.78,1.01,3.21,2.65,1.33,4.98-1.45,1.79-2.31,3.99-4.05,5.62Zm108.82-6.06c-9.4-1.81-18.78.02-28.16.16-9.28.13-8.47,2.79-17.07.11-5.28-1.64-19.82-10.87-25.31-9.31-9.63,2.73-17.98.28-26.28-4.2-2.74-1.48-5.78-1.14-8.69-.26-10.32,3.12-6.3.43-7.94-7.01-.41-1.85.41-3.55,1.51-5.05,2.31-3.15,5.24-5.68,8.32-8.02.99-.75,2.3-1.24,3.53-1.45,3.06-.51,5.39,1.56,5.96,3.84.8,3.22-2.61,1.63-4.1,2.28-1.11.48-3.04.1-2.97,1.77.08,1.71,1.94,1.27,3.13,1.42,11.42,1.45,13.31-1.73,24.34,1.45.12.04.27.06.36.14,7.67,6.55,17,5.92,26.12,5.89,7.91-.03,14.93,2.64,21.6,6.5,6.17,3.57,12.6,5.93,19.88,5.1,1.83-.21,3.43.04,3.24,2.54-.21,2.76,2.95,1.93,4.13,3.71-.71.18-1.19.48-1.61.4Z"/>
    <path d="m253.61,463.66c-7.8,4.36-16.29,7.8-21.44,15.81-2.4,3.73-3.18,7.79-2.42,12.09.73,4.08,2.64,7.33,7.21,7.89,2.8.35,4.87,1.31,6.3,3.05.52-1.9,1.24-3.75,2.08-5.53.28-.58.57-1.15.87-1.72-.28.06-.61,0-1.01-.23-1.07-.62-1.11-1.82-.82-2.91.42-1.57,1.59-2.66,2.63-3.82,2.84-3.18,5.08-6.65,5.79-11,.56-3.4,2.45-6.22,4.34-9.03.93-1.39,2.01-3.11.8-4.66-1.17-1.5-3.05-.66-4.32.05Zm-2.04,5.63c.34,2.41-1.11,3.69-1.32,5.32-.76,5.94-3.77,10.53-8.36,14.2-1.67,1.33-1.46,3.07-1.04,4.94.63,2.81-.21,3.53-2.97,2.73-1.68-.49-3.05-1.34-3.68-3.13-1.7-4.83-1.62-9.33,1.54-13.68,3.98-5.47,10.35-6.84,15.82-10.38Z"/>
    <path d="m271.39,480.81c-.2,1.27-3.63,2.7-3.7,3.94-.28,5.07,2.22,8.37-1.02,8.11-1.68-.14-3.1,2.32-1.94,6.48.62,2.23-.21,3.49-1.11,4.86-4.45,6.8-4.33,10.58.44,15.65.84.89,1.64,1.94,2.65,2.1-.52.2-1.04.38-1.57.5-.74.16-1.48.22-2.21.08-.51-.1-1.03-.1-1.55-.12-.58-.02-1.17-.05-1.74-.23-.2-.06-.4-.14-.59-.26.12-.1.23-.23.34-.42,1.36-2.28-.97-4.93-1.47-7.63-.68-3.68-.53-6.8,1.45-8.95,1.66-1.8,2.21-3.39,1.12-6.91-1.45-4.66-.44-7.75,2.41-8.61.5-.15,1.02-.16,1.52-.34,1.71-.61.14-1.87.03-5.82-.04-1.34,1.92-.48,1.53-.74.2-.07,2.8-1.1,3-1.16"/>
  </g>
</svg>